<?xml version="1.0" encoding="UTF-8" standalone="no"?>
<!-- Generator: Gravit.io -->

<svg
   xmlns:dc="http://purl.org/dc/elements/1.1/"
   xmlns:cc="http://creativecommons.org/ns#"
   xmlns:rdf="http://www.w3.org/1999/02/22-rdf-syntax-ns#"
   xmlns:svg="http://www.w3.org/2000/svg"
   xmlns="http://www.w3.org/2000/svg"
   xmlns:sodipodi="http://sodipodi.sourceforge.net/DTD/sodipodi-0.dtd"
   xmlns:inkscape="http://www.inkscape.org/namespaces/inkscape"
   style="isolation:isolate"
   viewBox="0 0 48 48"
   width="48"
   height="48"
   version="1.1"
   id="svg16"
   sodipodi:docname="application-pdf.svg"
   inkscape:version="0.92.4 (unknown)">
  <metadata
     id="metadata20">
    <rdf:RDF>
      <cc:Work
         rdf:about="">
        <dc:format>image/svg+xml</dc:format>
        <dc:type
           rdf:resource="http://purl.org/dc/dcmitype/StillImage" />
        <dc:title />
      </cc:Work>
    </rdf:RDF>
  </metadata>
  <sodipodi:namedview
     pagecolor="#ffffff"
     bordercolor="#666666"
     borderopacity="1"
     objecttolerance="10"
     gridtolerance="10"
     guidetolerance="10"
     inkscape:pageopacity="0"
     inkscape:pageshadow="2"
     inkscape:window-width="640"
     inkscape:window-height="480"
     id="namedview18"
     showgrid="false"
     inkscape:snap-bbox="true"
     inkscape:bbox-paths="true"
     inkscape:bbox-nodes="true"
     inkscape:snap-bbox-edge-midpoints="true"
     inkscape:snap-bbox-midpoints="true"
     inkscape:snap-nodes="true"
     inkscape:snap-others="false"
     inkscape:zoom="20.819011"
     inkscape:cx="10.840442"
     inkscape:cy="21.916907"
     inkscape:current-layer="g837"
     inkscape:object-paths="true"
     inkscape:snap-intersection-paths="true"
     inkscape:snap-smooth-nodes="true"
     inkscape:snap-midpoints="true" />
  <defs
     id="defs5">
    <clipPath
       id="_clipPath_hf1KAfSzcDT4iOqegkCrm2Gm9WczwtKi">
      <rect
         width="48"
         height="48"
         id="rect2" />
    </clipPath>
  </defs>
  <g
     id="g837"
     transform="translate(43.322034,0.61016915)"
     style="fill:#009100">
    <path
       inkscape:connector-curvature="0"
       style="opacity:1;vector-effect:none;fill:#b50000;fill-opacity:0.98999999;fill-rule:evenodd;stroke:none;stroke-width:0.37145898;stroke-linecap:butt;stroke-linejoin:miter;stroke-miterlimit:4;stroke-dasharray:none;stroke-dashoffset:0;stroke-opacity:1;paint-order:normal"
       d="m -34.560271,2.563651 a 1.9999999,1.9999999 0 0 0 -1.999997,2.0000127 v 3.9999875 3.9999878 4.000025 3.999987 3.999988 4.000025 1.999975 3.652346 a 1.9999999,1.9999999 0 0 0 1.999997,2.000013 h 4.000003 3.999999 a 1.9999999,1.9999999 0 0 0 2.000001,-2.000013 1.9999999,1.9999999 0 0 0 -2.000001,-1.999975 h -3.999999 -2.000001 V 30.215998 26.563651 24.563639 20.563651 16.563664 12.563639 8.5636512 6.5636385 h 2.000001 3.999999 3.999999 4.000002 3.999999 3.999999 2.4765622 2.000001 v 2.0000127 3.9999878 4.000025 3.999987 3.999988 4.000025 3.999987 3.999988 2.000012 1.652334 h -2.000001 -2.4765622 -3.999999 -3.999999 -4.000002 -1.999998 v -1.074217 h -0.002 a 1.9999999,1.9999999 0 0 0 -1.998046,-1.958967 1.9999999,1.9999999 0 0 0 -1.998048,1.958967 h -0.002 v 3.07423 a 1.9999999,1.9999999 0 0 0 2.000005,2.000013 h 3.999995 4.000006 3.999995 3.999999 2.4765622 4.000007 a 1.9999999,1.9999999 0 0 0 1.999993,-2.000013 V 38.21601 34.563664 32.563651 28.563664 24.563639 20.563651 16.563664 12.563639 8.5636512 4.5636637 a 1.9999999,1.9999999 0 0 0 -2,-2.0000127 h -4.000003 -2.4765622 -3.999999 -3.999998 -4.000003 -3.999999 -3.999998 z"
       id="path1264-3-217-3" />
    <text
       xml:space="preserve"
       style="font-style:normal;font-weight:normal;font-size:6.40504646px;line-height:1.25;font-family:sans-serif;letter-spacing:0px;word-spacing:0px;fill:#b50000;fill-opacity:1;stroke:none;stroke-width:0.16012615;"
       x="-20.321436"
       y="38.219387"
       id="text2202-9-5"><tspan
         sodipodi:role="line"
         id="tspan2200-5-6"
         x="-20.321436"
         y="38.219387"
         style="font-style:normal;font-variant:normal;font-weight:normal;font-stretch:normal;font-size:6.66666651px;font-family:'Targa MS';-inkscape-font-specification:'Targa MS';fill:#b50000;stroke-width:0.16012615;">pdf</tspan></text>
    <path
       inkscape:connector-curvature="0"
       style="fill:#b50000;stroke:none;stroke-width:1.05733085"
       d="m -11.411733,21.248577 c -0.326816,-0.322016 -1.051605,-0.492548 -2.154528,-0.506986 -0.746589,-0.01134 -1.64519,0.05707 -2.590356,0.189733 -0.423224,-0.244158 -0.85937,-0.509859 -1.201818,-0.829909 -0.921074,-0.860032 -1.689921,-2.053947 -2.169014,-3.366728 0.03137,-0.122834 0.05779,-0.230173 0.08251,-0.340535 0,0 0.51882,-2.946973 0.381483,-3.943181 -0.0189,-0.136441 -0.03061,-0.176504 -0.06727,-0.282709 l -0.04506,-0.115275 c -0.141128,-0.325417 -0.417804,-0.670262 -0.851607,-0.651553 l -0.2544,-0.01134 -0.0072,-1.14e-4 c -0.483735,0 -0.877996,0.24756 -0.981495,0.61716 -0.31457,1.159786 0.0098,2.894853 0.598266,5.142236 l -0.150577,0.365858 c -0.421205,1.026785 -0.949032,2.060977 -1.414741,2.973128 l -0.06055,0.118677 c -0.489944,0.958904 -0.934504,1.772788 -1.337499,2.462325 l -0.416104,0.219968 c -0.03024,0.01512 -0.743422,0.393147 -0.910688,0.494325 -1.418971,0.847218 -2.359265,1.80907 -2.515268,2.57227 -0.04966,0.243402 -0.01285,0.555175 0.239773,0.699629 l 0.402444,0.202582 c 0.174576,0.08769 0.358677,0.131528 0.547276,0.131528 1.010641,0 2.183954,-1.258961 3.800265,-4.079698 1.866154,-0.607672 3.990841,-1.112541 5.85295,-1.391017 1.419069,0.79903 3.164391,1.353902 4.265976,1.353902 0.19559,0 0.364195,-0.0189 0.501211,-0.05518 0.211275,-0.05594 0.38934,-0.176504 0.497899,-0.339779 0.213695,-0.321638 0.257046,-0.764674 0.19903,-1.218369 -0.01739,-0.134551 -0.124837,-0.30085 -0.241171,-0.414538 z M -26.507,26.62624 c 0.184289,-0.503924 0.91381,-1.500132 1.992453,-2.384088 0.06784,-0.05518 0.23486,-0.211654 0.387825,-0.356787 -1.127977,1.799055 -1.88335,2.516145 -2.380278,2.740913 z m 6.388735,-14.712113 c 0.324889,0 0.509666,0.818986 0.525022,1.586645 0.0155,0.767698 -0.16422,1.306507 -0.386952,1.705134 -0.184441,-0.590211 -0.2736,-1.520466 -0.2736,-2.128932 0,0 -0.01361,-1.162847 0.135572,-1.162847 z m -1.905789,10.484182 c 0.226319,-0.405089 0.461757,-0.832251 0.702361,-1.285417 0.586492,-1.10914 0.956894,-1.976882 1.232761,-2.690381 0.548656,0.998324 1.231937,1.846866 2.035178,2.526841 0.100195,0.08466 0.206324,0.170079 0.317858,0.255118 -1.633414,0.32315 -3.045169,0.716221 -4.288139,1.193915 z m 10.298476,-0.09109 c -0.09948,0.06123 -0.384465,0.09827 -0.567779,0.09827 -0.591598,0 -1.323572,-0.270615 -2.34971,-0.710438 0.394258,-0.03024 0.755788,-0.0446 1.079981,-0.0446 0.593386,0 0.769164,0 1.349405,0.145512 0.580244,0.148158 0.587554,0.448668 0.488103,0.510841 z"
       id="path21" />
  </g>
</svg>
