<?xml version="1.0" encoding="UTF-8" standalone="no"?>
<!-- Generator: Gravit.io -->

<svg
   xmlns:dc="http://purl.org/dc/elements/1.1/"
   xmlns:cc="http://creativecommons.org/ns#"
   xmlns:rdf="http://www.w3.org/1999/02/22-rdf-syntax-ns#"
   xmlns:svg="http://www.w3.org/2000/svg"
   xmlns="http://www.w3.org/2000/svg"
   xmlns:sodipodi="http://sodipodi.sourceforge.net/DTD/sodipodi-0.dtd"
   xmlns:inkscape="http://www.inkscape.org/namespaces/inkscape"
   style="isolation:isolate"
   viewBox="0 0 48 48"
   width="48"
   height="48"
   version="1.1"
   id="svg16"
   sodipodi:docname="application-x-archive.svg"
   inkscape:version="0.92.4 (unknown)">
  <metadata
     id="metadata20">
    <rdf:RDF>
      <cc:Work
         rdf:about="">
        <dc:format>image/svg+xml</dc:format>
        <dc:type
           rdf:resource="http://purl.org/dc/dcmitype/StillImage" />
        <dc:title />
      </cc:Work>
    </rdf:RDF>
  </metadata>
  <sodipodi:namedview
     pagecolor="#ffffff"
     bordercolor="#666666"
     borderopacity="1"
     objecttolerance="10"
     gridtolerance="10"
     guidetolerance="10"
     inkscape:pageopacity="0"
     inkscape:pageshadow="2"
     inkscape:window-width="640"
     inkscape:window-height="480"
     id="namedview18"
     showgrid="false"
     inkscape:snap-bbox="true"
     inkscape:bbox-paths="true"
     inkscape:bbox-nodes="true"
     inkscape:snap-bbox-edge-midpoints="true"
     inkscape:snap-bbox-midpoints="true"
     inkscape:snap-nodes="true"
     inkscape:snap-others="true"
     inkscape:zoom="7.6865639"
     inkscape:cx="12.118898"
     inkscape:cy="14.333885"
     inkscape:current-layer="g852"
     showguides="true"
     inkscape:guide-bbox="true"
     inkscape:object-paths="true"
     inkscape:snap-intersection-paths="true"
     inkscape:snap-smooth-nodes="true"
     inkscape:snap-midpoints="true"
     inkscape:snap-object-midpoints="true"
     inkscape:snap-center="true"
     inkscape:snap-text-baseline="true" />
  <defs
     id="defs5">
    <clipPath
       id="_clipPath_hf1KAfSzcDT4iOqegkCrm2Gm9WczwtKi">
      <rect
         width="48"
         height="48"
         id="rect2" />
    </clipPath>
  </defs>
  <g
     id="g852"
     transform="translate(9.7619856,2.1749351)">
    <path
       style="opacity:1;vector-effect:none;fill:#0084c8;fill-opacity:1;fill-rule:evenodd;stroke:none;stroke-width:0.37145898;stroke-linecap:butt;stroke-linejoin:miter;stroke-miterlimit:4;stroke-dasharray:none;stroke-dashoffset:0;stroke-opacity:1;paint-order:normal"
       d="m 14.226584,0.9988947 c -1.09999,0.006 -1.9883,0.89999 -1.98828,2 h -0.0117 v 4 4.0000003 4 2 c -1.10457,0 -2,0.89543 -2,2 v 4 4 h 4 3.999999 v -4 -4 c 0,-1.10457 -0.89543,-2 -1.999999,-2 v -2 -4 -4.0000003 -2 h 1.999999 2.76172 3.63672 c 2.49893,0 2.83984,0.46569 2.83984,2.04882 v 2 11.4531303 4 4 4 4 c 0,1.72513 -0.32613,2.15039 -2,2.15039 h -4 -1.67969 -10.476559 -2.32031 -4 c -1.79308,0 -2,-0.18254 -2,-2 v -0.15039 -4 -4 -4.63493 -3.11719 -6.62875 c 0.12922,-1.29241 0.84702,-1.01791 2,-1.12109 h 3.23829 c 1.10457,0 2,-0.89543 2,-2 0,-1.1045703 -0.89543,-2.0000003 -2,-2.0000003 h -3.23829 -4 c -1.10457,0 -2,0.89543 -2,2.0000003 v 7.60141 3.12109 6.77946 4 4 2.15039 2 c 0,1.10457 0.89543,2 2,2 h 4 4 2.32031 10.476559 1.67969 4 4 c 1.10457,0 2.19523,-0.91282 2,-2 v -4 -2 -2.15039 -4 -4 -4 -11.4531303 -4 -2 h -0.002 c 8.5e-4,-0.0151 10e-4,-0.0341 0.002,-0.0488 0,-1.10457 -0.89543,-2 -2,-2 h -0.83984 -4 -3.63672 -2.76172 z"
       id="circle2465"
       inkscape:connector-curvature="0"
       sodipodi:nodetypes="cccccccscccccscccccccsscccccssccccsscccccccssscssccccccssccccccsccccccccccccsccccc" />
    <text
       xml:space="preserve"
       style="font-style:normal;font-weight:normal;font-size:6.40504646px;line-height:1.25;font-family:sans-serif;letter-spacing:0px;word-spacing:0px;fill:#0084c8;fill-opacity:1;stroke:none;stroke-width:0.37145898;font-variant-east_asian:normal;opacity:1;vector-effect:none;stroke-linecap:butt;stroke-linejoin:miter;stroke-miterlimit:4;stroke-dasharray:none;stroke-dashoffset:0;stroke-opacity:1;paint-order:normal;"
       x="4.0982232"
       y="37.324665"
       id="text2202-9-2-5-5-02"><tspan
         sodipodi:role="line"
         id="tspan2200-5-70-3-3-3"
         x="4.0982232"
         y="37.324665"
         style="font-style:normal;font-variant:normal;font-weight:normal;font-stretch:normal;font-size:6.66666651px;font-family:Targa;-inkscape-font-specification:Targa;fill:#0084c8;stroke-width:0.37145898;font-variant-east_asian:normal;vector-effect:none;fill-opacity:1;stroke:none;stroke-linecap:butt;stroke-linejoin:miter;stroke-miterlimit:4;stroke-dasharray:none;stroke-dashoffset:0;stroke-opacity:1;paint-order:normal;">archive</tspan></text>
  </g>
</svg>
