<?xml version="1.0" encoding="UTF-8" standalone="no"?>
<!-- Generator: Gravit.io -->

<svg
   xmlns:dc="http://purl.org/dc/elements/1.1/"
   xmlns:cc="http://creativecommons.org/ns#"
   xmlns:rdf="http://www.w3.org/1999/02/22-rdf-syntax-ns#"
   xmlns:svg="http://www.w3.org/2000/svg"
   xmlns="http://www.w3.org/2000/svg"
   xmlns:sodipodi="http://sodipodi.sourceforge.net/DTD/sodipodi-0.dtd"
   xmlns:inkscape="http://www.inkscape.org/namespaces/inkscape"
   style="isolation:isolate"
   viewBox="0 0 48 48"
   width="48"
   height="48"
   version="1.1"
   id="svg16"
   sodipodi:docname="application-executable.svg"
   inkscape:version="0.92.4 (unknown)">
  <metadata
     id="metadata20">
    <rdf:RDF>
      <cc:Work
         rdf:about="">
        <dc:format>image/svg+xml</dc:format>
        <dc:type
           rdf:resource="http://purl.org/dc/dcmitype/StillImage" />
        <dc:title />
      </cc:Work>
    </rdf:RDF>
  </metadata>
  <sodipodi:namedview
     pagecolor="#ffffff"
     bordercolor="#666666"
     borderopacity="1"
     objecttolerance="10"
     gridtolerance="10"
     guidetolerance="10"
     inkscape:pageopacity="0"
     inkscape:pageshadow="2"
     inkscape:window-width="640"
     inkscape:window-height="480"
     id="namedview18"
     showgrid="false"
     inkscape:snap-bbox="true"
     inkscape:bbox-paths="true"
     inkscape:bbox-nodes="true"
     inkscape:snap-bbox-edge-midpoints="true"
     inkscape:snap-bbox-midpoints="true"
     inkscape:snap-nodes="true"
     inkscape:snap-others="false"
     inkscape:zoom="7.3606315"
     inkscape:cx="8.5537569"
     inkscape:cy="23.108928"
     inkscape:current-layer="g844"
     inkscape:object-paths="true"
     inkscape:snap-intersection-paths="true"
     inkscape:snap-smooth-nodes="true"
     inkscape:snap-midpoints="true"
     showguides="true"
     inkscape:guide-bbox="true" />
  <defs
     id="defs5">
    <clipPath
       id="_clipPath_hf1KAfSzcDT4iOqegkCrm2Gm9WczwtKi">
      <rect
         width="48"
         height="48"
         id="rect2" />
    </clipPath>
  </defs>
  <g
     id="g837"
     transform="translate(43.322034,0.61016915)"
     style="fill:#009100">
    <g
       id="g838"
       transform="translate(14.542373,-1.0169492)">
      <g
         id="g844"
         style="fill:#364e59">
        <g
           id="g846"
           style="fill:#009100">
          <path
             id="path1264-3-217-5-2"
             d="m -49.102645,3.5806 a 1.9999999,1.9999999 0 0 0 -1.999998,2.0000128 v 3.9999875 3.9999877 4.000025 3.999987 3.999988 4.000025 1.999975 3.652346 a 1.9999999,1.9999999 0 0 0 1.999998,2.000013 h 4.000002 3.999999 a 1.9999999,1.9999999 0 0 0 2.000001,-2.000013 1.9999999,1.9999999 0 0 0 -2.000001,-1.999975 h -3.999999 -2.000001 V 31.232947 27.5806 25.580588 21.580562 17.580575 13.58055 9.5805625 7.5805498 h 2.000001 3.999999 4.000002 3.999999 4.000007 3.999998 2.476558 2.000006 v 2.0000127 3.9999875 4.000025 3.999987 4.000026 3.999987 4.000025 3.999988 2.000012 1.652334 h -2.000006 -2.476558 -3.999998 -4.000007 -3.999999 -2.000001 v -1.074217 h -0.002 a 1.9999999,1.9999999 0 0 0 -1.998046,-1.958967 1.9999999,1.9999999 0 0 0 -1.998048,1.958967 h -0.002 v 3.07423 a 1.9999999,1.9999999 0 0 0 2.000001,2.000013 h 3.999999 4.000002 4.000003 3.999999 2.476562 4.000002 a 1.9999999,1.9999999 0 0 0 1.999998,-2.000013 V 39.232959 35.580613 33.5806 29.580613 25.580588 21.5806 17.580613 13.580588 9.5806003 5.5806128 A 1.9999999,1.9999999 0 0 0 -18.626168,3.5806 h -4.000002 -2.476562 -4.000003 -3.999999 -3.999998 -4.000007 -3.999998 z"
             style="opacity:1;isolation:isolate;vector-effect:none;fill:#009100;fill-opacity:0.98999999;fill-rule:evenodd;stroke:none;stroke-width:0.37145898;stroke-linecap:butt;stroke-linejoin:miter;stroke-miterlimit:4;stroke-dasharray:none;stroke-dashoffset:0;stroke-opacity:1;paint-order:normal"
             inkscape:connector-curvature="0" />
          <path
             id="path1264-4-7-75-1"
             d="m -42.115326,9.9062022 a 1.9999999,1.9999999 0 0 0 -2,1.9999998 1.9999999,1.9999999 0 0 0 1.00196,1.73047 l -0.002,0.002 0.043,0.0234 5.46875,3.1582 -5.51172,3.18164 0.002,0.002 a 1.9999999,1.9999999 0 0 0 -1.00196,1.73047 1.9999999,1.9999999 0 0 0 2,2 1.9999999,1.9999999 0 0 0 1,-0.26954 v 0.002 l 8.5,-4.90625 -0.002,-0.002 a 1.9999999,1.9999999 0 0 0 1.01367,-1.73828 1.9999999,1.9999999 0 0 0 -1,-1.72851 l 0.002,-0.002 -8.51368,-4.91406 a 1.9999999,1.9999999 0 0 0 -1,-0.2695298 z m 7.46485,15.5761698 a 1.9999999,1.9999999 0 0 0 -2,2 1.9999999,1.9999999 0 0 0 2,2 h 6.94531 a 1.9999999,1.9999999 0 0 0 2,-2 1.9999999,1.9999999 0 0 0 -1.98242,-2 z"
             style="opacity:1;vector-effect:none;fill:#009100;fill-opacity:0.98999999;fill-rule:evenodd;stroke:none;stroke-width:0.37145895;stroke-linecap:butt;stroke-linejoin:miter;stroke-miterlimit:4;stroke-dasharray:none;stroke-dashoffset:0;stroke-opacity:1;paint-order:normal"
             inkscape:connector-curvature="0" />
          <text
             xml:space="preserve"
             style="font-style:normal;font-weight:normal;font-size:6.40504646px;line-height:1.25;font-family:sans-serif;letter-spacing:0px;word-spacing:0px;isolation:isolate;fill:#009100;fill-opacity:1;stroke:none;stroke-width:0.16012615"
             x="-34.871029"
             y="39.062954"
             id="text2202-9-1-9-7"><tspan
               sodipodi:role="line"
               id="tspan2200-5-4-2-7"
               x="-34.871029"
               y="39.062954"
               style="font-style:normal;font-variant:normal;font-weight:normal;font-stretch:normal;font-size:6.66666651px;font-family:'Targa MS';-inkscape-font-specification:'Targa MS';fill:#009100;stroke-width:0.16012615">run</tspan></text>
        </g>
      </g>
    </g>
  </g>
</svg>
