<?xml version="1.0" encoding="UTF-8" standalone="no"?>
<!-- Generator: Gravit.io -->

<svg
   xmlns:dc="http://purl.org/dc/elements/1.1/"
   xmlns:cc="http://creativecommons.org/ns#"
   xmlns:rdf="http://www.w3.org/1999/02/22-rdf-syntax-ns#"
   xmlns:svg="http://www.w3.org/2000/svg"
   xmlns="http://www.w3.org/2000/svg"
   xmlns:sodipodi="http://sodipodi.sourceforge.net/DTD/sodipodi-0.dtd"
   xmlns:inkscape="http://www.inkscape.org/namespaces/inkscape"
   style="isolation:isolate"
   viewBox="0 0 48 48"
   width="48"
   height="48"
   version="1.1"
   id="svg16"
   sodipodi:docname="application-vnd.ms-excel.svg"
   inkscape:version="0.92.4 (unknown)">
  <metadata
     id="metadata20">
    <rdf:RDF>
      <cc:Work
         rdf:about="">
        <dc:format>image/svg+xml</dc:format>
        <dc:type
           rdf:resource="http://purl.org/dc/dcmitype/StillImage" />
        <dc:title />
      </cc:Work>
    </rdf:RDF>
  </metadata>
  <sodipodi:namedview
     pagecolor="#ffffff"
     bordercolor="#666666"
     borderopacity="1"
     objecttolerance="10"
     gridtolerance="10"
     guidetolerance="10"
     inkscape:pageopacity="0"
     inkscape:pageshadow="2"
     inkscape:window-width="640"
     inkscape:window-height="480"
     id="namedview18"
     showgrid="false"
     inkscape:snap-bbox="true"
     inkscape:bbox-paths="true"
     inkscape:bbox-nodes="true"
     inkscape:snap-bbox-edge-midpoints="true"
     inkscape:snap-bbox-midpoints="true"
     inkscape:snap-nodes="true"
     inkscape:snap-others="true"
     inkscape:zoom="9.8333335"
     inkscape:cx="21.157757"
     inkscape:cy="23.55793"
     inkscape:current-layer="g852"
     showguides="true"
     inkscape:guide-bbox="true"
     inkscape:object-paths="true"
     inkscape:snap-intersection-paths="true"
     inkscape:snap-smooth-nodes="true"
     inkscape:snap-midpoints="true"
     inkscape:snap-object-midpoints="true" />
  <defs
     id="defs5">
    <clipPath
       id="_clipPath_hf1KAfSzcDT4iOqegkCrm2Gm9WczwtKi">
      <rect
         width="48"
         height="48"
         id="rect2" />
    </clipPath>
  </defs>
  <g
     id="g852"
     transform="translate(9.7619856,2.1749351)">
    <path
       id="path2159"
       d="m 29.476249,42.651245 a 1.9999999,1.9999999 0 0 0 1.999997,-2.000013 V 36.651244 32.651257 28.651232 24.651244 20.651257 16.651232 14.651257 10.99891 A 1.9999999,1.9999999 0 0 0 29.476249,8.9988979 h -4.000003 -3.999999 a 1.9999999,1.9999999 0 0 0 -2.000001,2.0000121 1.9999999,1.9999999 0 0 0 2.000001,1.999975 h 3.999999 2.000001 v 2.000013 3.652346 2.000013 3.999987 3.999988 4.000025 3.999987 2.000013 H 25.476246 21.476247 17.476249 13.476247 9.476248 5.476249 2.999683 0.999686 V 36.651244 32.651257 28.651232 24.651244 20.651257 16.651232 12.651244 8.6512569 6.651244 4.9989101 h 1.999997 2.476566 3.999999 3.999999 4.000002 1.999997 v 1.0742174 h 0.002 a 1.9999999,1.9999999 0 0 0 1.998044,1.9589664 1.9999999,1.9999999 0 0 0 1.998047,-1.9589664 h 0.002 v -3.07423 A 1.9999999,1.9999999 0 0 0 21.476342,0.9988849 H 17.476343 13.476342 9.476343 5.476344 2.999782 -1.000225 a 1.9999999,1.9999999 0 0 0 -1.999993,2.0000126 v 3.9999875 3.652347 2.000012 3.999988 4.000025 3.999987 3.999988 4.000025 3.999987 3.999988 a 1.9999999,1.9999999 0 0 0 1.999993,2.000013 h 4.000007 2.476562 3.999999 3.999999 4.000001 3.999999 3.999999 z"
       style="opacity:1;vector-effect:none;fill:#33de00;fill-opacity:0.99833328;fill-rule:evenodd;stroke:none;stroke-width:0.37145898;stroke-linecap:butt;stroke-linejoin:miter;stroke-miterlimit:4;stroke-dasharray:none;stroke-dashoffset:0;stroke-opacity:1;paint-order:normal"
       inkscape:connector-curvature="0" />
    <rect
       y="21.493599"
       x="4.8005109"
       height="4.0800781"
       width="8.1601562"
       id="rect2182"
       style="fill:#33de00;fill-rule:evenodd;stroke-width:0.52887434;fill-opacity:0.99833328" />
    <rect
       style="fill:#33de00;fill-rule:evenodd;stroke-width:0.52887434;fill-opacity:0.99833328"
       id="rect2184"
       width="8.1601562"
       height="4.0800781"
       x="4.8005109"
       y="15.373493" />
    <rect
       style="fill:#33de00;fill-rule:evenodd;stroke-width:0.52887434;fill-opacity:0.99833328"
       id="rect2186"
       width="8.1601562"
       height="4.0800781"
       x="15.515358"
       y="21.493599" />
    <rect
       y="15.373493"
       x="15.515358"
       height="4.0800781"
       width="8.1601562"
       id="rect2188"
       style="fill:#33de00;fill-rule:evenodd;stroke-width:0.52887434;fill-opacity:0.99833328" />
    <path
       inkscape:connector-curvature="0"
       style="fill:#33de00;fill-opacity:0.99833328;fill-rule:evenodd;stroke:none;stroke-width:0.2607035"
       d="m 8.189716,28.716088 v 2.816731 1.888668 1.888668 h 1.928988 v -1.888668 -1.888668 -2.816731 z m 13.556805,0.974741 v 1.888667 1.841991 1.888668 h 1.928992 v -1.888668 -1.841991 -1.888667 z m -16.94601,0.20674 v 3.523842 1.888668 h 1.928988 v -1.888668 -3.523842 z m 6.778406,1.800264 v 3.612246 h 1.928991 v -3.612246 z m 6.778404,1.723578 v 1.888668 h 1.928987 v -1.888668 z m -3.389204,-5.656856 v 7.545524 h 1.928991 v -7.545524 z"
       id="rect2474-6"
       sodipodi:nodetypes="cccccccccccccccccccccccccccccccccccccccc" />
    <text
       xml:space="preserve"
       style="font-style:normal;font-weight:normal;font-size:6.40504646px;line-height:1.25;font-family:sans-serif;letter-spacing:0px;word-spacing:0px;fill:#0e232e;fill-opacity:1;stroke:none;stroke-width:0.16012615"
       x="2.7442689"
       y="11.502231"
       id="text2202-9-2-5-5"><tspan
         sodipodi:role="line"
         id="tspan2200-5-70-3-3"
         x="2.7442689"
         y="11.502231"
         style="font-style:normal;font-variant:normal;font-weight:normal;font-stretch:normal;font-size:6.66666651px;font-family:Targa;-inkscape-font-specification:Targa;fill:#0e232e;stroke-width:0.16012615">excel</tspan></text>
  </g>
</svg>
