<?xml version="1.0" encoding="UTF-8" standalone="no"?>
<!-- Generator: Gravit.io -->

<svg
   xmlns:dc="http://purl.org/dc/elements/1.1/"
   xmlns:cc="http://creativecommons.org/ns#"
   xmlns:rdf="http://www.w3.org/1999/02/22-rdf-syntax-ns#"
   xmlns:svg="http://www.w3.org/2000/svg"
   xmlns="http://www.w3.org/2000/svg"
   xmlns:sodipodi="http://sodipodi.sourceforge.net/DTD/sodipodi-0.dtd"
   xmlns:inkscape="http://www.inkscape.org/namespaces/inkscape"
   style="isolation:isolate"
   viewBox="0 0 48 48"
   width="48"
   height="48"
   version="1.1"
   id="svg16"
   sodipodi:docname="application-x-iso.svg"
   inkscape:version="0.92.4 (unknown)">
  <metadata
     id="metadata20">
    <rdf:RDF>
      <cc:Work
         rdf:about="">
        <dc:format>image/svg+xml</dc:format>
        <dc:type
           rdf:resource="http://purl.org/dc/dcmitype/StillImage" />
        <dc:title />
      </cc:Work>
    </rdf:RDF>
  </metadata>
  <sodipodi:namedview
     pagecolor="#ffffff"
     bordercolor="#666666"
     borderopacity="1"
     objecttolerance="10"
     gridtolerance="10"
     guidetolerance="10"
     inkscape:pageopacity="0"
     inkscape:pageshadow="2"
     inkscape:window-width="640"
     inkscape:window-height="480"
     id="namedview18"
     showgrid="false"
     inkscape:snap-bbox="true"
     inkscape:bbox-paths="true"
     inkscape:bbox-nodes="true"
     inkscape:snap-bbox-edge-midpoints="true"
     inkscape:snap-bbox-midpoints="true"
     inkscape:snap-nodes="true"
     inkscape:snap-others="true"
     inkscape:zoom="5.8325536"
     inkscape:cx="15.769001"
     inkscape:cy="31.420992"
     inkscape:current-layer="g852"
     showguides="true"
     inkscape:guide-bbox="true"
     inkscape:object-paths="true"
     inkscape:snap-intersection-paths="true"
     inkscape:snap-smooth-nodes="true"
     inkscape:snap-midpoints="true"
     inkscape:snap-object-midpoints="true"
     inkscape:snap-center="true"
     inkscape:snap-text-baseline="true" />
  <defs
     id="defs5">
    <clipPath
       id="_clipPath_hf1KAfSzcDT4iOqegkCrm2Gm9WczwtKi">
      <rect
         width="48"
         height="48"
         id="rect2" />
    </clipPath>
  </defs>
  <g
     id="g852"
     transform="translate(9.7619856,2.1749351)">
    <g
       id="g833"
       style="fill:#19aeff"
       transform="translate(-2.317134,-3.4907851)" />
    <g
       id="g1877"
       style="fill:#9eabb0">
      <path
         inkscape:connector-curvature="0"
         style="isolation:isolate;fill:#9eabb0;opacity:1;vector-effect:none;fill-opacity:0.98999999;fill-rule:evenodd;stroke:none;stroke-width:0.37145898;stroke-linecap:butt;stroke-linejoin:miter;stroke-miterlimit:4;stroke-dasharray:none;stroke-dashoffset:0;stroke-opacity:1;paint-order:normal"
         d="m 1.3169102,4.48967 a 1.9999999,1.9999999 0 0 0 -1.99999748,2.0000126 v 3.9999874 3.999987 4.000026 3.999987 3.999988 4.000025 1.999975 3.652346 A 1.9999999,1.9999999 0 0 0 1.3169102,38.142017 H 5.3169128 9.3169115 A 1.9999999,1.9999999 0 0 0 11.316913,36.142004 1.9999999,1.9999999 0 0 0 9.3169115,34.142029 H 5.3169128 3.3169115 V 32.142017 28.48967 26.489658 22.489632 18.489645 14.48962 10.489632 8.4896196 h 2.0000013 3.9999987 3.9999995 4.000002 4.000002 3.999999 2.476561 2.000002 v 2.0000124 3.999988 4.000025 3.999987 4.000026 3.999987 4.000025 3.999988 2.000012 1.652334 h -2.000002 -2.476561 -3.999999 -4.000002 -4.000002 -1.999998 v -1.074217 h -0.002 A 1.9999999,1.9999999 0 0 0 9.3168662,39.10882 1.9999999,1.9999999 0 0 0 7.3188189,41.067787 h -0.002 v 3.07423 a 1.9999999,1.9999999 0 0 0 2.0000012,2.000013 h 3.9999989 4.000002 4.000002 3.999999 2.476562 4.000002 a 1.9999999,1.9999999 0 0 0 1.999998,-2.000013 V 40.142029 36.489683 34.48967 30.489683 26.489658 22.48967 18.489683 14.489657 10.48967 6.4896826 a 1.9999999,1.9999999 0 0 0 -2,-2.0000126 H 27.793381 25.316819 21.31682 17.316822 13.31682 9.3168171 5.3168183 Z"
         id="path1264-3-217-5-0"
         transform="translate(-2.317134,-3.4907851)" />
      <text
         id="text2202-9-1-9-8"
         y="40.818714"
         x="16.709999"
         style="isolation:isolate;fill:#9eabb0;font-style:normal;font-weight:normal;font-size:6.40504646px;line-height:1.25;font-family:sans-serif;letter-spacing:0px;word-spacing:0px;fill-opacity:1;stroke:none;stroke-width:0.16012615"
         xml:space="preserve"
         transform="translate(-2.317134,-3.4907851)"><tspan
           style="font-style:normal;font-variant:normal;font-weight:normal;font-stretch:normal;font-size:6.66666651px;font-family:'Targa MS';-inkscape-font-specification:'Targa MS';fill:#9eabb0;stroke-width:0.16012615"
           y="40.818714"
           x="16.709999"
           id="tspan2200-5-4-2-9"
           sodipodi:role="line">CD</tspan></text>
      <path
         inkscape:connector-curvature="0"
         id="circle2307"
         d="M 8.2988961,7.499307 A 11.87249,11.87249 0 0 0 3.0408683,21.717589 l 0.00778,-0.0016 a 1.2870595,1.2870595 0 0 0 0.1278141,0.309381 1.2870595,1.2870595 0 0 0 1.4459925,0.599061 l 0.00125,0.0022 L 6.8986943,22.017063 6.65486,22.26087 5.2306628,23.685457 a 1.2870595,1.2870595 0 0 0 -0.2035541,1.552887 1.2870595,1.2870595 0 0 0 0.2040162,0.265357 l -0.00268,0.0024 A 11.87249,11.87249 0 0 0 20.171483,28.062764 11.87249,11.87249 0 0 0 24.517166,11.844452 11.87249,11.87249 0 0 0 8.298862,7.498772 Z m 1.2413442,2.255658 a 9.2983885,9.2983885 0 0 1 0.045726,-0.02651 9.2983885,9.2983885 0 0 1 12.7019907,3.40348 9.2983885,9.2983885 0 0 1 -3.40349,12.702001 9.2983885,9.2983885 0 0 1 -10.9402716,-1.221884 l 0.530661,-0.531322 1.8199786,-1.819971 1.205351,-1.205344 a 4.2717621,4.2717621 0 0 0 4.870494,0.424498 4.2717621,4.2717621 0 0 0 1.564355,-5.834818 4.2717621,4.2717621 0 0 0 -5.83591,-1.563735 4.2717621,4.2717621 0 0 0 -2.069798,4.43149 l -1.6443418,0.439943 6.275e-4,0.0011 -1.9414541,0.518578 -1.2619062,0.338154 A 9.2983885,9.2983885 0 0 1 9.5402499,9.754843 Z m 3.8459347,6.555783 a 1.6976538,1.6976538 0 0 1 2.319597,0.621533 1.6976538,1.6976538 0 0 1 -0.622162,2.318508 1.6976538,1.6976538 0 0 1 -2.318969,-0.62044 1.6976538,1.6976538 0 0 1 0.621534,-2.319601 z m -1.960515,2.574524 a 0.44807162,0.44807162 0 0 1 0.611861,0.164906 0.44807162,0.44807162 0 0 1 -0.163787,0.611221 0.44807162,0.44807162 0 0 1 -0.611231,-0.163689 0.44807162,0.44807162 0 0 1 0.163154,-0.612316 z"
         style="opacity:1;vector-effect:none;fill:#9eabb0;fill-opacity:1;fill-rule:evenodd;stroke:none;stroke-width:0.02907303;stroke-linecap:butt;stroke-linejoin:miter;stroke-miterlimit:4;stroke-dasharray:none;stroke-dashoffset:0;stroke-opacity:1;paint-order:normal" />
    </g>
  </g>
</svg>
