<?xml version="1.0" encoding="UTF-8" standalone="no"?>
<!-- Generator: Gravit.io -->

<svg
   xmlns:dc="http://purl.org/dc/elements/1.1/"
   xmlns:cc="http://creativecommons.org/ns#"
   xmlns:rdf="http://www.w3.org/1999/02/22-rdf-syntax-ns#"
   xmlns:svg="http://www.w3.org/2000/svg"
   xmlns="http://www.w3.org/2000/svg"
   xmlns:sodipodi="http://sodipodi.sourceforge.net/DTD/sodipodi-0.dtd"
   xmlns:inkscape="http://www.inkscape.org/namespaces/inkscape"
   style="isolation:isolate"
   viewBox="0 0 48 48"
   width="48"
   height="48"
   version="1.1"
   id="svg16"
   sodipodi:docname="text-html.svg"
   inkscape:version="0.92.4 (unknown)">
  <metadata
     id="metadata20">
    <rdf:RDF>
      <cc:Work
         rdf:about="">
        <dc:format>image/svg+xml</dc:format>
        <dc:type
           rdf:resource="http://purl.org/dc/dcmitype/StillImage" />
        <dc:title />
      </cc:Work>
    </rdf:RDF>
  </metadata>
  <sodipodi:namedview
     pagecolor="#ffffff"
     bordercolor="#666666"
     borderopacity="1"
     objecttolerance="10"
     gridtolerance="10"
     guidetolerance="10"
     inkscape:pageopacity="0"
     inkscape:pageshadow="2"
     inkscape:window-width="640"
     inkscape:window-height="480"
     id="namedview18"
     showgrid="false"
     inkscape:snap-bbox="true"
     inkscape:bbox-paths="true"
     inkscape:bbox-nodes="true"
     inkscape:snap-bbox-edge-midpoints="true"
     inkscape:snap-bbox-midpoints="true"
     inkscape:snap-nodes="true"
     inkscape:snap-others="true"
     inkscape:zoom="6.9532168"
     inkscape:cx="12.423114"
     inkscape:cy="19.549119"
     inkscape:current-layer="g852"
     showguides="true"
     inkscape:guide-bbox="true"
     inkscape:object-paths="true"
     inkscape:snap-intersection-paths="true"
     inkscape:snap-smooth-nodes="true"
     inkscape:snap-midpoints="true"
     inkscape:snap-object-midpoints="true" />
  <defs
     id="defs5">
    <clipPath
       id="_clipPath_hf1KAfSzcDT4iOqegkCrm2Gm9WczwtKi">
      <rect
         width="48"
         height="48"
         id="rect2" />
    </clipPath>
  </defs>
  <g
     id="g852"
     transform="translate(9.7619856,2.1749351)">
    <g
       id="g846"
       transform="translate(32.542373,3.6610167)">
      <path
         inkscape:connector-curvature="0"
         style="opacity:1;isolation:isolate;vector-effect:none;fill:#b88100;fill-opacity:0.98999999;fill-rule:evenodd;stroke:none;stroke-width:0.37145898;stroke-linecap:butt;stroke-linejoin:miter;stroke-miterlimit:4;stroke-dasharray:none;stroke-dashoffset:0;stroke-opacity:1;paint-order:normal"
         d="m -3.066123,38.990228 a 1.9999999,1.9999999 0 0 0 1.999997,-2.000013 V 32.990227 28.99024 24.990215 20.990227 16.99024 12.990215 10.99024 7.3378934 A 1.9999999,1.9999999 0 0 0 -3.066123,5.3378811 h -4.000003 -3.999999 a 1.9999999,1.9999999 0 0 0 -2.000001,2.0000123 1.9999999,1.9999999 0 0 0 2.000001,1.999975 h 3.999999 2.000001 v 2.0000126 3.652346 2.000013 3.999987 3.999988 4.000025 3.999987 2.000013 h -2.000001 -3.999999 -3.999998 -4.000003 -3.999999 -3.999998 -2.476566 -1.999997 V 32.990227 28.99024 24.990215 20.990227 16.99024 12.990215 8.9902274 4.9902401 2.9902275 1.3378936 h 1.999997 2.476566 3.999998 3.999999 4.000003 1.999997 V 2.412111 h 0.002 a 1.9999999,1.9999999 0 0 0 1.998044,1.9589669 1.9999999,1.9999999 0 0 0 1.998047,-1.9589669 h 0.002 V -0.66211902 A 1.9999999,1.9999999 0 0 0 -11.06603,-2.6621316 h -3.999999 -4.000002 -3.999999 -3.999999 -2.476562 -4.000006 a 1.9999999,1.9999999 0 0 0 -1.999994,2.00001258 v 3.99998752 3.6523462 2.0000127 3.9999876 4.000025 3.999987 3.999988 4.000025 3.999987 3.999988 a 1.9999999,1.9999999 0 0 0 1.999994,2.000013 h 4.000006 2.476562 3.999999 3.999999 4.000002 3.999999 3.999999 z"
         id="path1264-3-217-1-7" />
      <text
         xml:space="preserve"
         style="font-style:normal;font-weight:normal;font-size:6.40504646px;line-height:1.25;font-family:sans-serif;letter-spacing:0px;word-spacing:0px;isolation:isolate;fill:#0e232e;fill-opacity:1;stroke:none;stroke-width:0.16012615"
         x="-28.308508"
         y="7.994597"
         id="text2202-9-2-5"><tspan
           id="tspan842"
           sodipodi:role="line"
           x="-28.308508"
           y="7.994597"
           style="font-style:normal;font-variant:normal;font-weight:normal;font-stretch:normal;font-size:6.66666651px;font-family:Targa;-inkscape-font-specification:Targa;fill:#0e232e;stroke-width:0.16012615">html</tspan></text>
      <g
         transform="translate(-31.525423,-3.6610163)"
         id="g840"
         style="isolation:isolate">
        <path
           style="opacity:1;vector-effect:none;fill:#b88100;fill-opacity:0.99833326;fill-rule:evenodd;stroke:none;stroke-width:0.99999994px;stroke-linecap:butt;stroke-linejoin:miter;stroke-miterlimit:4;stroke-dasharray:none;stroke-dashoffset:0;stroke-opacity:1;paint-order:normal"
           d="m 13.894164,15.503197 a 9.4920092,9.4920092 0 0 0 -9.4003911,8.25 12.656013,6.3280063 0 0 0 11.0117191,4.667969 9.386025,4.6930124 0 0 0 5.140625,-1.400391 7.0395184,7.0395184 0 0 1 -0.476563,1.181641 12.656013,6.3280063 0 0 0 2.84375,-0.597657 9.4920092,9.4920092 0 0 0 0.373047,-2.609375 9.4920092,9.4920092 0 0 0 -9.492187,-9.492187 z m 0.01172,2.453125 a 7.0395184,7.0395184 0 0 1 7.039062,7.039062 7.0395184,7.0395184 0 0 1 -0.275391,1.935547 9.386025,4.6930124 0 0 1 -4.669921,0.628907 9.386025,4.6930124 0 0 1 -9.0644531,-3.486329 7.0395184,7.0395184 0 0 1 6.9707031,-6.117187 z m 9.076171,9.769531 a 12.656013,6.3280063 0 0 1 -3.283203,1.25 7.0395184,7.0395184 0 0 1 -5.792968,3.058594 7.0395184,7.0395184 0 0 1 -5.7324221,-2.966797 12.656013,6.3280063 0 0 1 -3.304688,-1.167969 9.4920092,9.4920092 0 0 0 9.0253911,6.587891 9.4920092,9.4920092 0 0 0 9.08789,-6.761719 z"
           id="path828"
           inkscape:connector-curvature="0" />
        <path
           style="opacity:1;vector-effect:none;fill:#b88100;fill-opacity:0.99833326;fill-rule:evenodd;stroke:none;stroke-width:0.99999994px;stroke-linecap:butt;stroke-linejoin:miter;stroke-miterlimit:4;stroke-dasharray:none;stroke-dashoffset:0;stroke-opacity:1;paint-order:normal"
           d="m 6.4704355,18.738995 a 12.656013,6.3280063 0 0 0 -5.98046896,5.371094 12.656013,6.3280063 0 0 0 12.65625046,6.328125 12.656013,6.3280063 0 0 0 9.628906,-2.22461 12.656013,6.3280063 0 0 1 -6.667968,0.953125 12.656013,6.3280063 0 0 1 -12.6562505,-6.328125 12.656013,6.3280063 0 0 1 3.019531,-4.099609 z"
           id="path823"
           inkscape:connector-curvature="0" />
      </g>
    </g>
  </g>
</svg>
