<?xml version="1.0" encoding="UTF-8" standalone="no"?>
<!-- Generator: Gravit.io -->

<svg
   xmlns:dc="http://purl.org/dc/elements/1.1/"
   xmlns:cc="http://creativecommons.org/ns#"
   xmlns:rdf="http://www.w3.org/1999/02/22-rdf-syntax-ns#"
   xmlns:svg="http://www.w3.org/2000/svg"
   xmlns="http://www.w3.org/2000/svg"
   xmlns:sodipodi="http://sodipodi.sourceforge.net/DTD/sodipodi-0.dtd"
   xmlns:inkscape="http://www.inkscape.org/namespaces/inkscape"
   style="isolation:isolate"
   viewBox="0 0 48 48"
   width="48"
   height="48"
   version="1.1"
   id="svg16"
   sodipodi:docname="application-audio-playlist.svg"
   inkscape:version="0.92.4 (unknown)">
  <metadata
     id="metadata20">
    <rdf:RDF>
      <cc:Work
         rdf:about="">
        <dc:format>image/svg+xml</dc:format>
        <dc:type
           rdf:resource="http://purl.org/dc/dcmitype/StillImage" />
        <dc:title />
      </cc:Work>
    </rdf:RDF>
  </metadata>
  <sodipodi:namedview
     pagecolor="#ffffff"
     bordercolor="#666666"
     borderopacity="1"
     objecttolerance="10"
     gridtolerance="10"
     guidetolerance="10"
     inkscape:pageopacity="0"
     inkscape:pageshadow="2"
     inkscape:window-width="640"
     inkscape:window-height="480"
     id="namedview18"
     showgrid="false"
     inkscape:snap-bbox="true"
     inkscape:bbox-paths="true"
     inkscape:bbox-nodes="true"
     inkscape:snap-bbox-edge-midpoints="true"
     inkscape:snap-bbox-midpoints="true"
     inkscape:snap-nodes="true"
     inkscape:snap-others="true"
     inkscape:zoom="5.5097185"
     inkscape:cx="-7.691762"
     inkscape:cy="11.680301"
     inkscape:current-layer="g852"
     showguides="true"
     inkscape:guide-bbox="true"
     inkscape:object-paths="true"
     inkscape:snap-intersection-paths="true"
     inkscape:snap-smooth-nodes="true"
     inkscape:snap-midpoints="true"
     inkscape:snap-object-midpoints="true"
     inkscape:snap-center="true"
     inkscape:snap-text-baseline="true" />
  <defs
     id="defs5">
    <clipPath
       id="_clipPath_hf1KAfSzcDT4iOqegkCrm2Gm9WczwtKi">
      <rect
         width="48"
         height="48"
         id="rect2" />
    </clipPath>
  </defs>
  <g
     id="g852"
     transform="translate(9.7619856,2.1749351)">
    <g
       id="g833"
       style="fill:#19aeff"
       transform="translate(-2.317134,-3.4907851)">
      <path
         id="path1264-3-217-5-0"
         d="m 1.3169102,4.48967 a 1.9999999,1.9999999 0 0 0 -1.99999748,2.0000126 v 3.9999874 3.999987 4.000026 3.999987 3.999988 4.000025 1.999975 3.652346 A 1.9999999,1.9999999 0 0 0 1.3169102,38.142017 H 5.3169128 9.3169115 A 1.9999999,1.9999999 0 0 0 11.316913,36.142004 1.9999999,1.9999999 0 0 0 9.3169115,34.142029 H 5.3169128 3.3169115 V 32.142017 28.48967 26.489658 22.489632 18.489645 14.48962 10.489632 8.4896196 h 2.0000013 3.9999987 3.9999995 4.000002 4.000002 3.999999 2.476561 2.000002 v 2.0000124 3.999988 4.000025 3.999987 4.000026 3.999987 4.000025 3.999988 2.000012 1.652334 h -2.000002 -2.476561 -3.999999 -4.000002 -4.000002 -1.999998 v -1.074217 h -0.002 A 1.9999999,1.9999999 0 0 0 9.3168662,39.10882 1.9999999,1.9999999 0 0 0 7.3188189,41.067787 h -0.002 v 3.07423 a 1.9999999,1.9999999 0 0 0 2.0000012,2.000013 h 3.9999989 4.000002 4.000002 3.999999 2.476562 4.000002 a 1.9999999,1.9999999 0 0 0 1.999998,-2.000013 V 40.142029 36.489683 34.48967 30.489683 26.489658 22.48967 18.489683 14.489657 10.48967 6.4896826 a 1.9999999,1.9999999 0 0 0 -2,-2.0000126 H 27.793381 25.316819 21.31682 17.316822 13.31682 9.3168171 5.3168183 Z"
         style="opacity:1;isolation:isolate;vector-effect:none;fill:#19aeff;fill-opacity:0.98999999;fill-rule:evenodd;stroke:none;stroke-width:0.37145898;stroke-linecap:butt;stroke-linejoin:miter;stroke-miterlimit:4;stroke-dasharray:none;stroke-dashoffset:0;stroke-opacity:1;paint-order:normal"
         inkscape:connector-curvature="0" />
      <text
         xml:space="preserve"
         style="font-style:normal;font-weight:normal;font-size:6.40504646px;line-height:1.25;font-family:sans-serif;letter-spacing:0px;word-spacing:0px;isolation:isolate;fill:#19aeff;fill-opacity:1;stroke:none;stroke-width:0.16012615"
         x="12.224321"
         y="40.818714"
         id="text2202-9-1-9-8"><tspan
           sodipodi:role="line"
           id="tspan2200-5-4-2-9"
           x="12.224321"
           y="40.818714"
           style="font-style:normal;font-variant:normal;font-weight:normal;font-stretch:normal;font-size:6.66666651px;font-family:'Targa MS';-inkscape-font-specification:'Targa MS';fill:#19aeff;stroke-width:0.16012615">audio</tspan></text>
      <path
         id="path1264-4-7-75-2"
         d="m 17.316451,9.8636036 a 1.9999999,1.9999999 0 0 0 -2,2.0000004 1.9999999,1.9999999 0 0 0 0,0.0215 v 8.70508 l -4.19141,4.1914 a 1.9999999,1.9999999 0 0 0 -0.58594,1.41407 v 4.77734 a 1.9999999,1.9999999 0 0 0 2,2 h 4.77735 a 1.9999999,1.9999999 0 0 0 1.999999,-2 v -14.28125 l 1.34375,1.34375 a 1.9999999,1.9999999 0 0 0 1.43359,0.60547 1.9999999,1.9999999 0 0 0 2,-2 1.9999999,1.9999999 0 0 0 -0.58594,-1.41406 l -4.785149,-4.78516 -0.002,0.002 a 1.9999999,1.9999999 0 0 0 -1.40429,-0.5800704 z m -2,16.3828104 v 2.72656 h -0.77735 v -1.94922 z"
         style="opacity:1;vector-effect:none;fill:#19aeff;fill-opacity:0.98999999;fill-rule:evenodd;stroke:none;stroke-width:0.37145895;stroke-linecap:butt;stroke-linejoin:miter;stroke-miterlimit:4;stroke-dasharray:none;stroke-dashoffset:0;stroke-opacity:1;paint-order:normal"
         inkscape:connector-curvature="0" />
    </g>
  </g>
</svg>
