<?xml version="1.0" encoding="UTF-8" standalone="no"?>
<!-- Generator: Gravit.io -->

<svg
   xmlns:dc="http://purl.org/dc/elements/1.1/"
   xmlns:cc="http://creativecommons.org/ns#"
   xmlns:rdf="http://www.w3.org/1999/02/22-rdf-syntax-ns#"
   xmlns:svg="http://www.w3.org/2000/svg"
   xmlns="http://www.w3.org/2000/svg"
   xmlns:sodipodi="http://sodipodi.sourceforge.net/DTD/sodipodi-0.dtd"
   xmlns:inkscape="http://www.inkscape.org/namespaces/inkscape"
   style="isolation:isolate"
   viewBox="0 0 48 48"
   width="48"
   height="48"
   version="1.1"
   id="svg16"
   sodipodi:docname="fonts-package.svg"
   inkscape:version="0.92.4 (unknown)">
  <metadata
     id="metadata20">
    <rdf:RDF>
      <cc:Work
         rdf:about="">
        <dc:format>image/svg+xml</dc:format>
        <dc:type
           rdf:resource="http://purl.org/dc/dcmitype/StillImage" />
        <dc:title />
      </cc:Work>
    </rdf:RDF>
  </metadata>
  <sodipodi:namedview
     pagecolor="#ffffff"
     bordercolor="#666666"
     borderopacity="1"
     objecttolerance="10"
     gridtolerance="10"
     guidetolerance="10"
     inkscape:pageopacity="0"
     inkscape:pageshadow="2"
     inkscape:window-width="640"
     inkscape:window-height="480"
     id="namedview18"
     showgrid="false"
     inkscape:snap-bbox="true"
     inkscape:bbox-paths="true"
     inkscape:bbox-nodes="true"
     inkscape:snap-bbox-edge-midpoints="true"
     inkscape:snap-bbox-midpoints="true"
     inkscape:snap-nodes="true"
     inkscape:snap-others="true"
     inkscape:zoom="8"
     inkscape:cx="12.794032"
     inkscape:cy="14.715657"
     inkscape:current-layer="g852"
     showguides="true"
     inkscape:guide-bbox="true"
     inkscape:object-paths="true"
     inkscape:snap-intersection-paths="true"
     inkscape:snap-smooth-nodes="true"
     inkscape:snap-midpoints="true"
     inkscape:snap-object-midpoints="true" />
  <defs
     id="defs5">
    <clipPath
       id="_clipPath_hf1KAfSzcDT4iOqegkCrm2Gm9WczwtKi">
      <rect
         width="48"
         height="48"
         id="rect2" />
    </clipPath>
  </defs>
  <g
     id="g852"
     transform="translate(9.7619856,2.1749351)">
    <path
       inkscape:connector-curvature="0"
       style="opacity:1;vector-effect:none;fill:#b88100;fill-opacity:0.98999999;fill-rule:evenodd;stroke:none;stroke-width:0.37145898;stroke-linecap:butt;stroke-linejoin:miter;stroke-miterlimit:4;stroke-dasharray:none;stroke-dashoffset:0;stroke-opacity:1;paint-order:normal"
       d="M -1.000222,0.9988847 A 1.9999999,1.9999999 0 0 0 -3.00022,2.9988973 v 3.9999875 3.9999872 4.000026 3.999987 3.999988 4.000025 1.999975 3.652346 a 1.9999999,1.9999999 0 0 0 1.999998,2.000013 H 2.99978 6.999779 A 1.9999999,1.9999999 0 0 0 8.99978,32.651219 1.9999999,1.9999999 0 0 0 6.999779,30.651244 H 2.99978 0.999779 V 28.651232 24.998885 22.998873 18.998885 14.998898 10.998872 6.9988848 4.9988721 h 2.000001 3.999999 3.999999 4.000002 3.999999 3.999999 2.476565 1.999998 v 2.0000127 3.9999872 4.000026 3.999987 3.999988 4.000025 3.999987 3.999988 2.000012 1.652334 H 25.476343 22.999778 18.999779 14.99978 10.999778 8.99978 v -1.074217 h -0.002 A 1.9999999,1.9999999 0 0 0 6.999734,35.618035 1.9999999,1.9999999 0 0 0 5.001686,37.577002 h -0.002 v 3.07423 a 1.9999999,1.9999999 0 0 0 2.000002,2.000013 h 3.999998 4.000003 3.999998 3.999999 2.476562 4.000007 a 1.9999999,1.9999999 0 0 0 1.999993,-2.000013 V 36.651244 32.998898 30.998885 26.998898 22.998873 18.998885 14.998898 10.998872 6.9988848 2.9988973 A 1.9999999,1.9999999 0 0 0 29.476252,0.9988847 H 25.476245 22.999683 18.999684 14.999686 10.999683 6.999685 2.999686 Z"
       id="path1264-3-217-1-9" />
    <text
       xml:space="preserve"
       style="font-style:normal;font-weight:normal;font-size:6.40504646px;line-height:1.25;font-family:sans-serif;letter-spacing:0px;word-spacing:0px;fill:#b88100;fill-opacity:1;stroke:none;stroke-width:0.16012615;"
       x="12.385195"
       y="37.327984"
       id="text2202-9-2-3"><tspan
         sodipodi:role="line"
         id="tspan2200-5-70-1"
         x="12.385195"
         y="37.327984"
         style="font-style:normal;font-variant:normal;font-weight:normal;font-stretch:normal;font-size:6.66666651px;font-family:Targa;-inkscape-font-specification:Targa;fill:#b88100;stroke-width:0.16012615;">font</tspan></text>
    <g
       id="g2664"
       transform="matrix(1.6661377,0,0,1.6661377,149.58074,-383.86318)"
       style="fill:#b88100">
      <path
         transform="matrix(0.26458333,0,0,0.26458333,0,284.29998)"
         inkscape:connector-curvature="0"
         id="path2658"
         d="m -310.78574,-153.16269 c -0.68748,-0.0935 -1.96528,-0.5199 -2.76554,-0.9229 -0.34025,-0.17135 -1.65218,-1.00492 -2.9154,-1.85238 -2.56463,-1.72054 -3.75605,-2.362 -5.25781,-2.83081 -2.40118,-0.74958 -4.04898,-1.69959 -5.72957,-3.3033 -2.19335,-2.09301 -3.55229,-4.60175 -4.00517,-7.39392 -0.17173,-1.05883 -0.16645,-2.98356 0.0111,-4.03083 0.49015,-2.89168 2.15706,-5.85065 4.37723,-7.77012 1.86805,-1.61505 4.45783,-2.85985 6.70686,-3.22372 1.06803,-0.1728 2.90081,-0.17429 3.9556,-0.003 1.78671,0.28978 4.05484,1.25264 5.66417,2.40454 2.99688,2.14505 5.02002,5.49229 5.50254,9.10382 0.12974,0.97109 0.0578,3.10051 -0.1353,4.00303 -0.94191,4.40312 -4.27322,8.23978 -8.55069,9.84781 l -0.52845,0.19867 1.97371,1.07145 c 2.41348,1.31018 2.73067,1.45617 3.76348,1.73223 1.63139,0.43606 3.25911,0.50617 5.16867,0.22265 0.68714,-0.10202 0.80466,-0.0986 1.07756,0.0316 0.16846,0.0803 0.34697,0.22206 0.39668,0.31494 0.0812,0.15173 0.003,0.20929 -0.7682,0.56732 -2.84528,1.32048 -6.13209,2.0792 -7.94144,1.83319 z m -5.23538,-6.97837 c 2.489,-0.7729 4.10792,-3.48377 4.58921,-7.68459 0.15774,-1.37682 0.0629,-4.61941 -0.17604,-6.0155 -1.01837,-5.95151 -3.71581,-9.1951 -7.64683,-9.1951 -1.42196,0 -2.4664,0.41335 -3.49436,1.38293 -0.94041,0.88702 -1.66581,2.28542 -2.14825,4.14135 -0.33372,1.28382 -0.41704,1.83974 -0.50074,3.34117 -0.22067,3.95792 0.54999,8.12172 1.94153,10.48991 0.70206,1.19479 1.50682,2.13734 2.2816,2.67223 0.58105,0.40114 1.58891,0.83745 2.18095,0.94414 0.29168,0.0526 0.62977,0.11306 0.7513,0.13443 0.43845,0.0771 1.67086,-0.0399 2.22163,-0.21097 z"
         style="opacity:1;vector-effect:none;fill:#b88100;fill-opacity:1;fill-rule:evenodd;stroke:none;stroke-width:0.08838835px;stroke-linecap:butt;stroke-linejoin:miter;stroke-miterlimit:4;stroke-dasharray:none;stroke-dashoffset:0;stroke-opacity:1;paint-order:normal" />
      <path
         inkscape:connector-curvature="0"
         id="path2660"
         d="m -77.591657,245.73281 c -0.01802,-0.0673 -0.01887,-0.20205 -0.0016,-0.26614 0.01117,-0.0416 0.04344,-0.0519 0.239387,-0.0765 0.136626,-0.0172 0.268224,-0.0491 0.331711,-0.0805 0.162835,-0.0806 0.168717,-0.11935 0.180951,-1.19216 0.01159,-1.01538 0.02119,-0.96327 -0.156046,-0.84598 -0.121287,0.0803 -0.474355,0.23118 -0.659397,0.28185 -0.206938,0.0567 -0.656738,0.0575 -0.861478,0.002 -0.515919,-0.14088 -0.971902,-0.53141 -1.228053,-1.05178 -0.169264,-0.34385 -0.20743,-0.5217 -0.206883,-0.964 5.29e-4,-0.32934 0.0079,-0.40221 0.0624,-0.60804 0.08008,-0.30239 0.27651,-0.69628 0.46727,-0.93699 0.490273,-0.61866 1.365049,-1.04364 2.155682,-1.04729 0.23006,-0.001 0.304284,0.0104 0.702304,0.10872 0.467223,0.11539 0.605846,0.12895 0.834636,0.0817 l 0.136592,-0.0282 0.107196,0.10719 0.107196,0.1072 -0.0377,0.15033 c -0.07952,0.31706 -0.08685,0.60317 -0.07901,3.08268 0.0069,2.16965 0.01199,2.45813 0.0456,2.57114 0.05429,0.18247 0.109935,0.21263 0.48672,0.26381 0.109328,0.0148 0.206513,0.0382 0.215964,0.0518 0.0094,0.0137 0.01717,0.0827 0.01717,0.15343 0,0.0708 -0.0077,0.14067 -0.01717,0.15539 -0.01249,0.0194 -0.06845,0.0209 -0.204272,0.005 -0.334378,-0.0385 -1.657207,-0.0523 -2.107824,-0.0219 -0.229831,0.0155 -0.440119,0.0335 -0.46731,0.04 -0.03722,0.009 -0.05304,-0.002 -0.06399,-0.0425 z m 0.281781,-2.77933 c 0.168889,-0.0274 0.347308,-0.0988 0.422148,-0.16886 l 0.05262,-0.0493 v -1.4062 -1.4062 l -0.06682,-0.10536 c -0.233024,-0.36744 -0.779783,-0.47737 -1.140378,-0.22927 -0.293706,0.20208 -0.448691,0.63363 -0.469635,1.30769 -0.03564,1.1471 0.319907,1.95946 0.900438,2.05733 0.154582,0.0261 0.141993,0.0261 0.301627,1.4e-4 z"
         style="opacity:1;vector-effect:none;fill:#b88100;fill-opacity:1;fill-rule:evenodd;stroke:none;stroke-width:0.02338609px;stroke-linecap:butt;stroke-linejoin:miter;stroke-miterlimit:4;stroke-dasharray:none;stroke-dashoffset:0;stroke-opacity:1;paint-order:normal" />
    </g>
  </g>
</svg>
