<?xml version="1.0" encoding="UTF-8" standalone="no"?>
<!-- Generator: Gravit.io -->

<svg
   xmlns:dc="http://purl.org/dc/elements/1.1/"
   xmlns:cc="http://creativecommons.org/ns#"
   xmlns:rdf="http://www.w3.org/1999/02/22-rdf-syntax-ns#"
   xmlns:svg="http://www.w3.org/2000/svg"
   xmlns="http://www.w3.org/2000/svg"
   xmlns:sodipodi="http://sodipodi.sourceforge.net/DTD/sodipodi-0.dtd"
   xmlns:inkscape="http://www.inkscape.org/namespaces/inkscape"
   style="isolation:isolate"
   viewBox="0 0 48 48"
   width="48"
   height="48"
   version="1.1"
   id="svg16"
   sodipodi:docname="text-htmlh.svg"
   inkscape:version="0.92.4 (unknown)">
  <metadata
     id="metadata20">
    <rdf:RDF>
      <cc:Work
         rdf:about="">
        <dc:format>image/svg+xml</dc:format>
        <dc:type
           rdf:resource="http://purl.org/dc/dcmitype/StillImage" />
        <dc:title />
      </cc:Work>
    </rdf:RDF>
  </metadata>
  <sodipodi:namedview
     pagecolor="#ffffff"
     bordercolor="#666666"
     borderopacity="1"
     objecttolerance="10"
     gridtolerance="10"
     guidetolerance="10"
     inkscape:pageopacity="0"
     inkscape:pageshadow="2"
     inkscape:window-width="640"
     inkscape:window-height="480"
     id="namedview18"
     showgrid="false"
     inkscape:snap-bbox="true"
     inkscape:bbox-paths="true"
     inkscape:bbox-nodes="true"
     inkscape:snap-bbox-edge-midpoints="true"
     inkscape:snap-bbox-midpoints="true"
     inkscape:snap-nodes="true"
     inkscape:snap-others="true"
     inkscape:zoom="9.2434136"
     inkscape:cx="7.8774418"
     inkscape:cy="18.792484"
     inkscape:current-layer="g852"
     showguides="true"
     inkscape:guide-bbox="true"
     inkscape:object-paths="true"
     inkscape:snap-intersection-paths="true"
     inkscape:snap-smooth-nodes="true"
     inkscape:snap-midpoints="true"
     inkscape:snap-object-midpoints="true"
     inkscape:snap-center="true"
     inkscape:snap-text-baseline="true" />
  <defs
     id="defs5">
    <clipPath
       id="_clipPath_hf1KAfSzcDT4iOqegkCrm2Gm9WczwtKi">
      <rect
         width="48"
         height="48"
         id="rect2" />
    </clipPath>
  </defs>
  <g
     id="g852"
     transform="translate(9.7619856,2.1749351)">
    <path
       inkscape:connector-curvature="0"
       style="opacity:1;isolation:isolate;vector-effect:none;fill:#005c94;fill-opacity:0.98999999;fill-rule:evenodd;stroke:none;stroke-width:0.37145898;stroke-linecap:butt;stroke-linejoin:miter;stroke-miterlimit:4;stroke-dasharray:none;stroke-dashoffset:0;stroke-opacity:1;paint-order:normal"
       d="m -1.0002237,0.998885 a 1.9999999,1.9999999 0 0 0 -1.999998,2.0000126 v 3.9999872 3.9999872 4.000026 3.999987 3.999988 4.000025 1.999975 3.652346 a 1.9999999,1.9999999 0 0 0 1.999998,2.000013 h 4.000003 3.999998 a 1.9999999,1.9999999 0 0 0 2.000001,-2.000013 1.9999999,1.9999999 0 0 0 -2.000001,-1.999975 H 2.9997793 0.9997773 V 28.651232 24.998885 22.998873 18.998847 14.99886 10.998835 6.9988478 4.9988346 h 2.000002 3.999998 3.9999987 4.000002 4.000003 3.999999 2.476561 2.000002 v 2.0000132 3.9999872 4.000025 3.999987 4.000026 3.999987 4.000025 3.999988 2.000012 1.652334 H 25.476341 22.99978 18.999781 14.999778 10.999776 8.9997783 v -1.074217 h -0.002 a 1.9999999,1.9999999 0 0 0 -1.998046,-1.958967 1.9999999,1.9999999 0 0 0 -1.998047,1.958967 h -0.002 v 3.07423 a 1.9999999,1.9999999 0 0 0 2.000001,2.000013 h 3.9999977 4.000002 4.000004 3.999999 2.476562 4.000001 a 1.9999999,1.9999999 0 0 0 1.999999,-2.000013 V 36.651244 32.998898 30.998885 26.998898 22.998873 18.998885 14.998898 10.998872 6.9988848 2.9988976 a 1.9999999,1.9999999 0 0 0 -2,-2.0000126 h -4.000004 -2.476561 -3.999999 -4 -4.000002 -4.0000017 -3.999999 z"
       id="path1264-3-217-5" />
    <text
       id="text2202-9-1-9"
       y="37.327957"
       x="11.177686"
       style="font-style:normal;font-weight:normal;font-size:6.40504646px;line-height:1.25;font-family:sans-serif;letter-spacing:0px;word-spacing:0px;isolation:isolate;fill:#005c94;fill-opacity:1;stroke:none;stroke-width:0.16012615"
       xml:space="preserve"><tspan
         style="font-style:normal;font-variant:normal;font-weight:normal;font-stretch:normal;font-size:6.66666651px;font-family:'Targa MS';-inkscape-font-specification:'Targa MS';fill:#005c94;stroke:none;stroke-width:0.16012615"
         y="37.327957"
         x="11.177686"
         id="tspan2200-5-4-2"
         sodipodi:role="line">html</tspan></text>
    <path
       style="opacity:1;vector-effect:none;fill:#005c94;fill-opacity:1;fill-rule:evenodd;stroke:none;stroke-width:0.02907307;stroke-linecap:butt;stroke-linejoin:miter;stroke-miterlimit:4;stroke-dasharray:none;stroke-dashoffset:0;stroke-opacity:1;paint-order:normal"
       d="m 12.312446,11.332768 c -3.1045513,0.835175 -5.3111856,3.5842 -5.45682,6.795823 -1.8167343,1.360685 -2.2652208,2.687537 -1.1935495,3.531103 0.4991441,0.387159 1.3000867,0.653504 2.3395034,0.777963 1.7321929,2.713903 5.0230821,3.992682 8.1332481,3.160438 3.104528,-0.835272 5.311188,-3.584202 5.456819,-6.79584 1.816733,-1.360667 2.26522,-2.68752 1.193548,-3.531085 -0.190806,-0.146372 -0.425627,-0.275774 -0.701735,-0.386726 0.245865,0.465745 0.140326,0.864599 -0.03608,1.309861 l -6.05e-4,0.001 c -0.129891,0.263808 -0.326303,0.537017 -0.585795,0.814799 l -0.0017,-0.0063 c -0.0999,0.108513 -0.20929,0.217549 -0.327917,0.32677 -0.135106,0.122626 -0.281607,0.245317 -0.43898,0.367767 l 0.0013,0.008 c -1.012361,0.790542 -2.450293,1.548654 -4.119815,2.172027 -0.409366,0.151897 -0.829441,0.294603 -1.256741,0.426687 l -0.01,-0.0372 c -1.590555,0.513452 -3.255156,0.836376 -4.708037,0.913552 l -0.0038,-0.0074 c -0.0203,0.002 -0.04092,0.0026 -0.06108,0.0046 -0.207537,0.01021 -0.409594,0.01512 -0.6053529,0.01497 -0.1957128,-1.51e-4 -0.3849356,-0.0056 -0.5668939,-0.01602 -0.1821132,-0.01049 -0.356718,-0.02602 -0.5232242,-0.04677 -0.1662548,-0.02061 -0.3241823,-0.04613 -0.4732219,-0.07661 -0.1492438,-0.0307 -0.2893307,-0.06619 -0.4197764,-0.10651 -0.1303893,-0.0401 -0.25104,-0.08499 -0.3614368,-0.134269 C 7.4738593,20.763965 7.3738595,20.709861 7.284656,20.651538 6.7746367,20.282802 6.7299054,19.911751 6.8905401,19.28407 7.3052009,20.831605 9.3110458,20.675938 10.296323,20.623719 10.14069,20.301295 10.014626,19.964984 9.9198441,19.619254 9.6847724,18.735 9.6583142,17.809204 9.8432062,16.920157 c 0.4835608,-0.237775 1.0064448,-0.462199 1.5564678,-0.668085 3.129687,-1.166376 6.61751,-1.552326 8.353535,-0.924377 -0.963128,-0.963116 -4.707945,-0.551687 -6.317824,-0.129182 -0.822909,0.217185 -1.63231,0.47389 -2.406266,0.762508 -0.359308,0.135141 -0.709626,0.276745 -1.0488737,0.423922 0.5609497,-1.818596 1.9788897,-3.20547 3.7700277,-3.687397 2.929816,-0.785242 5.964911,1.041039 6.778936,4.079021 0.01242,0.05446 0.02373,0.109047 0.03439,0.163894 0.272919,-0.232084 0.505147,-0.463851 0.69392,-0.692301 -1.187559,-3.766828 -5.128941,-5.932297 -8.945191,-4.914645 z m 8.29651,8.12751 c -0.420505,2.070068 -1.92894,3.704516 -3.910857,4.237545 -1.793158,0.479589 -3.716198,-0.01264 -5.11209,-1.308311 1.911285,-0.223275 3.959748,-0.721691 5.832022,-1.418972 1.193912,-0.44637 2.280845,-0.960854 3.190929,-1.510246 z"
       id="path4835-9"
       inkscape:connector-curvature="0"
       sodipodi:nodetypes="cccccccccccccccccccccccccccccccccccccccccccccccc" />
  </g>
</svg>
