<?xml version="1.0" encoding="UTF-8" standalone="no"?>
<!-- Generator: Gravit.io -->

<svg
   xmlns:dc="http://purl.org/dc/elements/1.1/"
   xmlns:cc="http://creativecommons.org/ns#"
   xmlns:rdf="http://www.w3.org/1999/02/22-rdf-syntax-ns#"
   xmlns:svg="http://www.w3.org/2000/svg"
   xmlns="http://www.w3.org/2000/svg"
   xmlns:sodipodi="http://sodipodi.sourceforge.net/DTD/sodipodi-0.dtd"
   xmlns:inkscape="http://www.inkscape.org/namespaces/inkscape"
   style="isolation:isolate"
   viewBox="0 0 48 48"
   width="48"
   height="48"
   version="1.1"
   id="svg16"
   sodipodi:docname="gnome-mime-application-x-gnome-theme-package.svg"
   inkscape:version="0.92.4 (unknown)">
  <metadata
     id="metadata20">
    <rdf:RDF>
      <cc:Work
         rdf:about="">
        <dc:format>image/svg+xml</dc:format>
        <dc:type
           rdf:resource="http://purl.org/dc/dcmitype/StillImage" />
        <dc:title />
      </cc:Work>
    </rdf:RDF>
  </metadata>
  <sodipodi:namedview
     pagecolor="#ffffff"
     bordercolor="#666666"
     borderopacity="1"
     objecttolerance="10"
     gridtolerance="10"
     guidetolerance="10"
     inkscape:pageopacity="0"
     inkscape:pageshadow="2"
     inkscape:window-width="640"
     inkscape:window-height="480"
     id="namedview18"
     showgrid="false"
     inkscape:snap-bbox="true"
     inkscape:bbox-paths="true"
     inkscape:bbox-nodes="true"
     inkscape:snap-bbox-edge-midpoints="true"
     inkscape:snap-bbox-midpoints="true"
     inkscape:snap-nodes="true"
     inkscape:snap-others="true"
     inkscape:zoom="10.218305"
     inkscape:cx="5.9102703"
     inkscape:cy="17.414392"
     inkscape:current-layer="g852"
     showguides="true"
     inkscape:guide-bbox="true"
     inkscape:object-paths="true"
     inkscape:snap-intersection-paths="true"
     inkscape:snap-smooth-nodes="true"
     inkscape:snap-midpoints="true"
     inkscape:snap-object-midpoints="true"
     inkscape:snap-center="true"
     inkscape:snap-text-baseline="true" />
  <defs
     id="defs5">
    <clipPath
       id="_clipPath_hf1KAfSzcDT4iOqegkCrm2Gm9WczwtKi">
      <rect
         width="48"
         height="48"
         id="rect2" />
    </clipPath>
  </defs>
  <g
     id="g852"
     transform="translate(9.7619856,2.1749351)">
    <g
       transform="matrix(3.7795276,0,0,3.7795276,190.73802,-1366.9446)"
       id="g1595"
       style="fill:#b88100">
      <path
         id="path1264-3-217-5-2-6"
         d="m -42.667175,372.95556 a 0.52916664,0.52916664 0 0 0 0.529166,-0.52917 v -1.05833 -1.05833 -1.05834 -1.05833 -1.05833 -1.05834 -0.52916 -0.96635 a 0.52916664,0.52916664 0 0 0 -0.529166,-0.52917 h -1.058334 -1.058333 a 0.52916664,0.52916664 0 0 0 -0.529167,0.52917 0.52916664,0.52916664 0 0 0 0.529167,0.52916 h 1.058333 0.529167 v 0.52917 0.96635 0.52917 1.05834 1.05833 1.05834 1.05833 0.52917 h -0.529167 -1.058333 -1.058333 -1.058334 -1.058335 -1.058333 -0.655256 -0.529168 v -0.52917 -1.05833 -1.05834 -1.05833 -1.05834 -1.05833 -1.05834 -1.05833 -0.52917 -0.43718 h 0.529168 0.655256 1.058333 1.058335 1.058334 0.529166 v 0.28422 h 5.3e-4 a 0.52916664,0.52916664 0 0 0 0.528649,0.51831 0.52916664,0.52916664 0 0 0 0.52865,-0.51831 h 5.3e-4 v -0.81339 a 0.52916664,0.52916664 0 0 0 -0.529167,-0.52917 h -1.058333 -1.058334 -1.058334 -1.058333 -0.655257 -1.058334 a 0.52916664,0.52916664 0 0 0 -0.529166,0.52917 v 1.05833 0.96635 0.52917 1.05833 1.05834 1.05833 1.05833 1.05834 1.05833 1.05833 a 0.52916664,0.52916664 0 0 0 0.529165,0.52917 h 1.058334 0.655257 1.058334 1.058334 1.058332 1.058335 1.058333 z"
         style="opacity:1;isolation:isolate;vector-effect:none;fill:#b88100;fill-opacity:0.98999999;fill-rule:evenodd;stroke:none;stroke-width:0.09828185;stroke-linecap:butt;stroke-linejoin:miter;stroke-miterlimit:4;stroke-dasharray:none;stroke-dashoffset:0;stroke-opacity:1;paint-order:normal"
         inkscape:connector-curvature="0" />
      <path
         sodipodi:nodetypes="ccccccccccccccccccccccccccccccccccccscccccccccccccsccccc"
         inkscape:connector-curvature="0"
         id="rect1311-6"
         d="m -44.560071,365.34389 c 0.292248,0 0.529162,0.23691 0.529166,0.52916 v 1.05834 h -0.0036 v 0.40256 c 0.0023,0.0199 0.0035,0.0399 0.0036,0.0599 2e-6,0.29225 -0.236914,0.52917 -0.529166,0.52917 h -1.058334 -1.058333 -1.058333 v -1.05833 h 1.058333 1.058333 0.52555 v -0.46251 h -0.52555 -1.058333 -0.74104 -0.361733 -0.52865 v 0.52917 h -5.16e-4 v 0.6258 0.22376 l 0.652155,0.3762 0.916223,0.52917 0.306959,0.17725 -5.18e-4,5.2e-4 c 0.163794,0.0943 0.264844,0.26884 0.265101,0.45785 v 0.91154 0.35709 h 0.07131 v 5.1e-4 c 0.286384,0.008 0.514523,0.24216 0.514696,0.52865 -4.48e-4,0.2863 -0.22851,0.52031 -0.514696,0.52814 v 10e-4 h -0.60048 c -0.292252,0 -0.529169,-0.23692 -0.529167,-0.52917 v -1.05833 -0.43405 l -0.269235,-0.15503 -0.689364,-0.39843 -0.916738,-0.52916 5.16e-4,-5.2e-4 c -0.163793,-0.0943 -0.264843,-0.26884 -0.2651,-0.45785 v -1.05834 -0.52916 h 5.16e-4 v -0.61547 c -2.05e-4,-0.003 -3.77e-4,-0.007 -5.16e-4,-0.0103 4e-6,-0.29225 0.236919,-0.52916 0.529167,-0.52916 h 1.058333 0.361733 0.74104 1.058333 z"
         style="opacity:1;vector-effect:none;fill:#b88100;fill-opacity:1;fill-rule:evenodd;stroke:none;stroke-width:0.04236671;stroke-linecap:butt;stroke-linejoin:miter;stroke-miterlimit:4;stroke-dasharray:none;stroke-dashoffset:0;stroke-opacity:1" />
      <text
         xml:space="preserve"
         style="font-style:normal;font-weight:normal;font-size:1.69466853px;line-height:1.25;font-family:sans-serif;letter-spacing:0px;word-spacing:0px;isolation:isolate;fill:#b88100;fill-opacity:1;stroke:none;stroke-width:0.04236671"
         x="-49.911381"
         y="364.50317"
         id="text2202-9-1-9-7-9"><tspan
           sodipodi:role="line"
           id="tspan2200-5-4-2-7-2"
           x="-49.911381"
           y="364.50317"
           style="font-style:normal;font-variant:normal;font-weight:normal;font-stretch:normal;font-size:1.76388884px;font-family:'Targa MS';-inkscape-font-specification:'Targa MS';fill:#b88100;stroke-width:0.04236671">theme</tspan></text>
    </g>
  </g>
</svg>
