<?xml version="1.0" encoding="UTF-8" standalone="no"?>
<!-- Generator: Gravit.io -->

<svg
   xmlns:dc="http://purl.org/dc/elements/1.1/"
   xmlns:cc="http://creativecommons.org/ns#"
   xmlns:rdf="http://www.w3.org/1999/02/22-rdf-syntax-ns#"
   xmlns:svg="http://www.w3.org/2000/svg"
   xmlns="http://www.w3.org/2000/svg"
   xmlns:sodipodi="http://sodipodi.sourceforge.net/DTD/sodipodi-0.dtd"
   xmlns:inkscape="http://www.inkscape.org/namespaces/inkscape"
   style="isolation:isolate"
   viewBox="0 0 48 48"
   width="48"
   height="48"
   version="1.1"
   id="svg16"
   sodipodi:docname="image-blank.svg"
   inkscape:version="0.92.4 (unknown)">
  <metadata
     id="metadata20">
    <rdf:RDF>
      <cc:Work
         rdf:about="">
        <dc:format>image/svg+xml</dc:format>
        <dc:type
           rdf:resource="http://purl.org/dc/dcmitype/StillImage" />
        <dc:title />
      </cc:Work>
    </rdf:RDF>
  </metadata>
  <sodipodi:namedview
     pagecolor="#ffffff"
     bordercolor="#666666"
     borderopacity="1"
     objecttolerance="10"
     gridtolerance="10"
     guidetolerance="10"
     inkscape:pageopacity="0"
     inkscape:pageshadow="2"
     inkscape:window-width="640"
     inkscape:window-height="480"
     id="namedview18"
     showgrid="false"
     inkscape:snap-bbox="true"
     inkscape:bbox-paths="true"
     inkscape:bbox-nodes="true"
     inkscape:snap-bbox-edge-midpoints="true"
     inkscape:snap-bbox-midpoints="true"
     inkscape:snap-nodes="true"
     inkscape:snap-others="false"
     inkscape:zoom="9.0746043"
     inkscape:cx="17.16386"
     inkscape:cy="23.036126"
     inkscape:current-layer="g844"
     inkscape:object-paths="true"
     inkscape:snap-intersection-paths="true"
     inkscape:snap-smooth-nodes="true"
     inkscape:snap-midpoints="true"
     showguides="true"
     inkscape:guide-bbox="true" />
  <defs
     id="defs5">
    <clipPath
       id="_clipPath_hf1KAfSzcDT4iOqegkCrm2Gm9WczwtKi">
      <rect
         width="48"
         height="48"
         id="rect2" />
    </clipPath>
  </defs>
  <g
     id="g837"
     transform="translate(43.322034,0.61016915)"
     style="fill:#009100">
    <g
       id="g838"
       transform="translate(14.542373,-1.0169492)">
      <g
         id="g844"
         style="fill:#364e59">
        <g
           transform="matrix(3.7795276,0,0,3.7795276,343.8358,-1318.1998)"
           id="g1928"
           style="opacity:1;isolation:isolate;vector-effect:none;fill:#999999;fill-opacity:0.98999999;stroke:none;stroke-width:0.09828185;stroke-linecap:butt;stroke-linejoin:miter;stroke-miterlimit:4;stroke-dasharray:none;stroke-dashoffset:0;stroke-opacity:1;paint-order:normal">
          <path
             inkscape:connector-curvature="0"
             style="opacity:1;isolation:isolate;vector-effect:none;fill:#999999;fill-opacity:0.98999999;fill-rule:evenodd;stroke:none;stroke-width:0.09828185;stroke-linecap:butt;stroke-linejoin:miter;stroke-miterlimit:4;stroke-dasharray:none;stroke-dashoffset:0;stroke-opacity:1;paint-order:normal"
             d="m -95.901396,360.74159 a 0.52916664,0.52916664 0 0 0 0.52917,-0.52917 v -1.05833 -1.05833 -1.05834 -1.05833 -1.05833 -1.05834 -0.52916 -0.96635 a 0.52916664,0.52916664 0 0 0 -0.52917,-0.52917 h -1.05833 -1.05834 a 0.52916664,0.52916664 0 0 0 -0.52916,0.52917 0.52916664,0.52916664 0 0 0 0.52916,0.52916 h 1.05834 0.52916 v 0.52917 0.96635 0.52917 1.05834 1.05833 1.05834 1.05833 0.52917 h -0.52916 -1.05834 -1.05833 -1.058334 -1.05833 -1.05834 -0.65525 -0.52917 v -0.52917 -1.05833 -1.05834 -1.05833 -1.05834 -1.05833 -1.05834 -1.05833 -0.52917 -0.43718 h 0.52917 0.65525 1.05834 1.05833 1.058334 0.52917 v 0.28422 h 5.2e-4 a 0.52916664,0.52916664 0 0 0 0.52865,0.51831 0.52916664,0.52916664 0 0 0 0.52865,-0.51831 h 5.3e-4 v -0.81339 a 0.52916664,0.52916664 0 0 0 -0.52916,-0.52917 h -1.05834 -1.058334 -1.05833 -1.05833 -0.65526 -1.05833 a 0.52916664,0.52916664 0 0 0 -0.52917,0.52917 v 1.05833 0.96635 0.52917 1.05833 1.05834 1.05833 1.05833 1.05834 1.05833 1.05833 a 0.52916664,0.52916664 0 0 0 0.52917,0.52917 h 1.05833 0.65526 1.05833 1.05833 1.058334 1.05834 1.05833 z"
             id="path1710" />
          <text
             id="text1714"
             y="352.60132"
             x="-103.15493"
             style="font-style:normal;font-weight:normal;font-size:1.69466853px;line-height:1.25;font-family:sans-serif;letter-spacing:0px;word-spacing:0px;isolation:isolate;vector-effect:none;fill:#999999;fill-opacity:0.98999999;stroke:none;stroke-width:0.09828185;stroke-linecap:butt;stroke-linejoin:miter;stroke-miterlimit:4;stroke-dasharray:none;stroke-dashoffset:0;stroke-opacity:1;paint-order:normal"
             xml:space="preserve"><tspan
               style="font-style:normal;font-variant:normal;font-weight:normal;font-stretch:normal;font-size:1.76388884px;font-family:'Targa MS';-inkscape-font-specification:'Targa MS';vector-effect:none;fill:#999999;fill-opacity:0.98999999;stroke:none;stroke-width:0.09828185;stroke-linecap:butt;stroke-linejoin:miter;stroke-miterlimit:4;stroke-dasharray:none;stroke-dashoffset:0;stroke-opacity:1;paint-order:normal"
               y="352.60132"
               x="-103.15493"
               id="tspan1712"
               sodipodi:role="line">image</tspan></text>
          <path
             inkscape:connector-curvature="0"
             id="path1264-4-7-75-9"
             d="m -98.117008,353.37405 a 0.94434468,0.94434468 0 0 0 -0.944128,0.94464 0.94434468,0.94434468 0 0 0 0.944128,0.94413 0.94434468,0.94434468 0 0 0 0.944129,-0.94413 0.94434468,0.94434468 0 0 0 -0.944129,-0.94464 z m -2.648932,2.46703 a 0.52916663,0.52916663 0 0 0 -0.37414,0.15503 l -0.74827,0.74827 -0.54984,0.54984 -0.74259,0.74311 -0.006,0.005 5.1e-4,5.1e-4 a 0.52916663,0.52916663 0 0 0 -0.15554,0.37362 0.52916663,0.52916663 0 0 0 0.52916,0.52917 0.52916663,0.52916663 0 0 0 0.37414,-0.15503 l 10e-4,-10e-4 0.74725,-0.74724 0.54983,-0.54933 v -5.1e-4 l 0.19844,-0.19844 0.1757,-0.1757 0.37414,0.37465 0.549317,0.54933 0.743106,0.7431 a 0.52916663,0.52916663 0 0 0 0.379823,0.1602 0.52916663,0.52916663 0 0 0 0.529167,-0.52917 0.52916663,0.52916663 0 0 0 -0.155546,-0.37362 l 5.16e-4,-5.1e-4 -0.549836,-0.54933 -0.09922,-0.0997 -0.09974,-0.0992 -0.54932,-0.54984 -0.748267,-0.74827 -5.2e-4,5.1e-4 a 0.52916663,0.52916663 0 0 0 -0.37362,-0.15554 z m 1.585431,0 a 0.52916663,0.52916663 0 0 0 -0.529166,0.52917 0.52916663,0.52916663 0 0 0 0.15503,0.37413 l 0.748792,0.74879 0.54932,0.54933 0.743106,0.7431 a 0.52916663,0.52916663 0 0 0 0.379306,0.1602 0.52916663,0.52916663 0 0 0 0.529167,-0.52917 0.52916663,0.52916663 0 0 0 -0.15503,-0.37413 l -0.54932,-0.54933 -0.748276,-0.74879 -0.748273,-0.74827 -5.19e-4,5.1e-4 a 0.52916663,0.52916663 0 0 0 -0.374137,-0.15554 z"
             style="opacity:1;vector-effect:none;fill:#999999;fill-opacity:0.98999999;fill-rule:evenodd;stroke:none;stroke-width:0.09828185;stroke-linecap:butt;stroke-linejoin:miter;stroke-miterlimit:4;stroke-dasharray:none;stroke-dashoffset:0;stroke-opacity:1;paint-order:normal" />
        </g>
      </g>
    </g>
  </g>
</svg>
