<?xml version="1.0" encoding="UTF-8" standalone="no"?>
<!-- Generator: Gravit.io -->

<svg
   xmlns:dc="http://purl.org/dc/elements/1.1/"
   xmlns:cc="http://creativecommons.org/ns#"
   xmlns:rdf="http://www.w3.org/1999/02/22-rdf-syntax-ns#"
   xmlns:svg="http://www.w3.org/2000/svg"
   xmlns="http://www.w3.org/2000/svg"
   xmlns:sodipodi="http://sodipodi.sourceforge.net/DTD/sodipodi-0.dtd"
   xmlns:inkscape="http://www.inkscape.org/namespaces/inkscape"
   style="isolation:isolate"
   viewBox="0 0 48 48"
   width="48"
   height="48"
   version="1.1"
   id="svg16"
   sodipodi:docname="libreoffice-oasis-formula.svg"
   inkscape:version="0.92.4 (unknown)">
  <metadata
     id="metadata20">
    <rdf:RDF>
      <cc:Work
         rdf:about="">
        <dc:format>image/svg+xml</dc:format>
        <dc:type
           rdf:resource="http://purl.org/dc/dcmitype/StillImage" />
        <dc:title />
      </cc:Work>
    </rdf:RDF>
  </metadata>
  <sodipodi:namedview
     pagecolor="#ffffff"
     bordercolor="#666666"
     borderopacity="1"
     objecttolerance="10"
     gridtolerance="10"
     guidetolerance="10"
     inkscape:pageopacity="0"
     inkscape:pageshadow="2"
     inkscape:window-width="640"
     inkscape:window-height="480"
     id="namedview18"
     showgrid="false"
     inkscape:snap-bbox="true"
     inkscape:bbox-paths="true"
     inkscape:bbox-nodes="true"
     inkscape:snap-bbox-edge-midpoints="true"
     inkscape:snap-bbox-midpoints="true"
     inkscape:snap-nodes="true"
     inkscape:snap-others="true"
     inkscape:zoom="7.3606319"
     inkscape:cx="26.97361"
     inkscape:cy="28.466123"
     inkscape:current-layer="g852"
     showguides="true"
     inkscape:guide-bbox="true"
     inkscape:object-paths="true"
     inkscape:snap-intersection-paths="true"
     inkscape:snap-smooth-nodes="true"
     inkscape:snap-midpoints="true"
     inkscape:snap-object-midpoints="true" />
  <defs
     id="defs5">
    <clipPath
       id="_clipPath_hf1KAfSzcDT4iOqegkCrm2Gm9WczwtKi">
      <rect
         width="48"
         height="48"
         id="rect2" />
    </clipPath>
  </defs>
  <g
     id="g852"
     transform="translate(9.7619856,2.1749351)">
    <g
       id="g859"
       style="fill:#364e59">
      <path
         inkscape:connector-curvature="0"
         style="opacity:1;vector-effect:none;fill:#364e59;fill-opacity:0.98999999;fill-rule:evenodd;stroke:none;stroke-width:0.37145898;stroke-linecap:butt;stroke-linejoin:miter;stroke-miterlimit:4;stroke-dasharray:none;stroke-dashoffset:0;stroke-opacity:1;paint-order:normal"
         d="m 29.476251,42.651245 a 1.9999999,1.9999999 0 0 0 1.999996,-2.000013 V 36.651244 32.651257 28.651232 24.651244 20.651257 16.651232 14.651257 10.99891 A 1.9999999,1.9999999 0 0 0 29.476251,8.9988978 h -4.000003 -3.999999 a 1.9999999,1.9999999 0 0 0 -2.000001,2.0000122 1.9999999,1.9999999 0 0 0 2.000001,1.999975 h 3.999999 2.000001 v 2.000013 3.652346 2.000013 3.999987 3.999988 4.000025 3.999987 2.000013 H 25.476248 21.476249 17.476251 13.476248 9.476249 5.476248 2.999683 0.999685 V 36.651244 32.651257 28.651232 24.651244 20.651257 16.651232 12.651244 8.6512568 6.6512442 4.9989103 h 1.999998 2.476565 4.000001 3.999999 4.000003 1.999997 v 1.0742174 h 0.002 a 1.9999999,1.9999999 0 0 0 1.998044,1.9589669 1.9999999,1.9999999 0 0 0 1.998047,-1.9589669 h 0.002 v -3.07423 A 1.9999999,1.9999999 0 0 0 21.476344,0.9988851 H 17.476345 13.476343 9.476344 5.476343 2.999781 -1.000225 a 1.9999999,1.9999999 0 0 0 -1.999994,2.0000126 v 3.9999875 3.6523468 2.000012 3.999988 4.000025 3.999987 3.999988 4.000025 3.999987 3.999988 a 1.9999999,1.9999999 0 0 0 1.999994,2.000013 h 4.000006 2.476562 4.000001 3.999999 4.000002 3.999999 3.999999 z"
         id="path2159-5" />
      <text
         id="text2202-9-2-5-5-0"
         y="11.005567"
         x="4.0672026"
         style="font-style:normal;font-weight:normal;font-size:6.40504646px;line-height:1.25;font-family:sans-serif;letter-spacing:0px;word-spacing:0px;fill:#364e59;fill-opacity:1;stroke:none;stroke-width:0.16012615"
         xml:space="preserve"><tspan
           style="font-style:normal;font-variant:normal;font-weight:normal;font-stretch:normal;font-size:6.66666651px;font-family:Targa;-inkscape-font-specification:Targa;fill:#364e59;stroke:none;stroke-width:0.16012615"
           y="11.005567"
           x="4.0672026"
           id="tspan2200-5-70-3-3-9"
           sodipodi:role="line">math</tspan></text>
      <rect
         y="21.601406"
         x="17.14036"
         height="4.0800781"
         width="6.5351572"
         id="rect2186-9"
         style="fill:#364e59;fill-rule:evenodd;stroke:none;stroke-width:0.47329429" />
      <rect
         style="fill:#364e59;fill-rule:evenodd;stroke:none;stroke-width:0.47329429"
         id="rect2188-1"
         width="6.5351562"
         height="4.0800781"
         x="17.14036"
         y="15.992208" />
      <path
         style="opacity:1;isolation:isolate;vector-effect:none;fill:#364e59;fill-opacity:1;fill-rule:evenodd;stroke:none;stroke-width:0.03376331;stroke-linecap:butt;stroke-linejoin:miter;stroke-miterlimit:4;stroke-dasharray:none;stroke-dashoffset:0;stroke-opacity:1;paint-order:normal"
         d="m 4.8005091,34.783465 v -1.963578 h 9.4375069 9.4375 v 1.963578 1.317657 h -9.4375 -9.4375069 z"
         id="path862"
         inkscape:connector-curvature="0"
         sodipodi:nodetypes="ccccccccc" />
      <path
         sodipodi:nodetypes="ccccccccc"
         inkscape:connector-curvature="0"
         id="path866-6"
         d="m 4.8005091,29.174231 v -1.963578 h 9.4375069 9.4375 v 1.963578 1.317619 h -9.4375 -9.4375069 z"
         style="opacity:1;isolation:isolate;vector-effect:none;fill:#364e59;fill-opacity:1;fill-rule:evenodd;stroke:none;stroke-width:0.03376331;stroke-linecap:butt;stroke-linejoin:miter;stroke-miterlimit:4;stroke-dasharray:none;stroke-dashoffset:0;stroke-opacity:1;paint-order:normal" />
      <path
         inkscape:connector-curvature="0"
         id="path825"
         d="m 8.0865704,23.524689 2.3263216,-2.326322 -2.3260766,-2.326811 -2.326077,-2.32681 h 4.6697456 4.669746 v 0.475502 0.475503 H 11.585756 8.0712824 l 0.984234,1.001952 c 0.541329,0.551074 1.3659476,1.391818 1.8324866,1.86832 l 0.848252,0.866369 -1.8328636,1.833807 -1.832864,1.833808 h 3.6167446 3.616745 v 0.475502 0.475503 H 10.532132 5.7602474 Z"
         style="opacity:1;vector-effect:none;fill:#364e59;fill-opacity:1;fill-rule:evenodd;stroke:none;stroke-width:0.02907307;stroke-linecap:butt;stroke-linejoin:miter;stroke-miterlimit:4;stroke-dasharray:none;stroke-dashoffset:0;stroke-opacity:1;paint-order:normal" />
    </g>
  </g>
</svg>
