<?xml version="1.0" encoding="UTF-8" standalone="no"?>
<!-- Generator: Gravit.io -->

<svg
   xmlns:dc="http://purl.org/dc/elements/1.1/"
   xmlns:cc="http://creativecommons.org/ns#"
   xmlns:rdf="http://www.w3.org/1999/02/22-rdf-syntax-ns#"
   xmlns:svg="http://www.w3.org/2000/svg"
   xmlns="http://www.w3.org/2000/svg"
   xmlns:sodipodi="http://sodipodi.sourceforge.net/DTD/sodipodi-0.dtd"
   xmlns:inkscape="http://www.inkscape.org/namespaces/inkscape"
   style="isolation:isolate"
   viewBox="0 0 48 48"
   width="48"
   height="48"
   version="1.1"
   id="svg16"
   sodipodi:docname="gnome-mime-text-x-opml-xml.svg"
   inkscape:version="0.92.4 (unknown)">
  <metadata
     id="metadata20">
    <rdf:RDF>
      <cc:Work
         rdf:about="">
        <dc:format>image/svg+xml</dc:format>
        <dc:type
           rdf:resource="http://purl.org/dc/dcmitype/StillImage" />
        <dc:title />
      </cc:Work>
    </rdf:RDF>
  </metadata>
  <sodipodi:namedview
     pagecolor="#ffffff"
     bordercolor="#666666"
     borderopacity="1"
     objecttolerance="10"
     gridtolerance="10"
     guidetolerance="10"
     inkscape:pageopacity="0"
     inkscape:pageshadow="2"
     inkscape:window-width="640"
     inkscape:window-height="480"
     id="namedview18"
     showgrid="false"
     inkscape:snap-bbox="true"
     inkscape:bbox-paths="true"
     inkscape:bbox-nodes="true"
     inkscape:snap-bbox-edge-midpoints="true"
     inkscape:snap-bbox-midpoints="true"
     inkscape:snap-nodes="false"
     inkscape:snap-others="false"
     inkscape:zoom="8.7317862"
     inkscape:cx="31.404451"
     inkscape:cy="11.485846"
     inkscape:current-layer="g852" />
  <defs
     id="defs5">
    <clipPath
       id="_clipPath_hf1KAfSzcDT4iOqegkCrm2Gm9WczwtKi">
      <rect
         width="48"
         height="48"
         id="rect2" />
    </clipPath>
  </defs>
  <g
     id="g852"
     transform="translate(9.7619856,2.1749351)">
    <path
       id="path1264-3-217-1-7"
       d="m 29.47625,42.651245 a 1.9999999,1.9999999 0 0 0 1.999997,-2.000013 V 36.651244 32.651257 28.651232 24.651244 20.651257 16.651232 14.651257 10.99891 A 1.9999999,1.9999999 0 0 0 29.47625,8.9988974 h -4.000003 -3.999999 a 1.9999999,1.9999999 0 0 0 -2.000001,2.0000126 1.9999999,1.9999999 0 0 0 2.000001,1.999975 h 3.999999 2.000001 v 2.000013 3.652346 2.000013 3.999987 3.999988 4.000025 3.999987 2.000013 H 25.476247 21.476248 17.47625 13.476247 9.4762478 5.4762493 2.9996836 0.99968606 V 36.651244 32.651257 28.651232 24.651244 20.651257 16.651232 12.651244 8.6512564 6.6512438 4.9989099 h 1.99999754 2.4765657 3.9999985 3.9999992 4.000003 1.999997 v 1.0742174 h 0.002 a 1.9999999,1.9999999 0 0 0 1.998044,1.9589669 1.9999999,1.9999999 0 0 0 1.998047,-1.9589669 h 0.002 v -3.07423 A 1.9999999,1.9999999 0 0 0 21.476343,0.9988847 H 17.476344 13.476342 9.4763428 5.4763438 2.9997819 -1.0002245 a 1.9999999,1.9999999 0 0 0 -1.9999937,2.0000126 v 3.9999875 3.6523462 2.000013 3.999988 4.000025 3.999987 3.999988 4.000025 3.999987 3.999988 a 1.9999999,1.9999999 0 0 0 1.9999937,2.000013 h 4.0000064 2.4765619 3.999999 3.9999992 4.000002 3.999999 3.999999 z"
       style="opacity:1;vector-effect:none;fill:#005c94;fill-opacity:0.98999999;fill-rule:evenodd;stroke:none;stroke-width:0.37145898;stroke-linecap:butt;stroke-linejoin:miter;stroke-miterlimit:4;stroke-dasharray:none;stroke-dashoffset:0;stroke-opacity:1;paint-order:normal"
       inkscape:connector-curvature="0" />
    <text
       id="text2202-9-2-5"
       y="11.655614"
       x="4.2338634"
       style="font-style:normal;font-weight:normal;font-size:6.40504646px;line-height:1.25;font-family:sans-serif;letter-spacing:0px;word-spacing:0px;fill:#0e232e;fill-opacity:1;stroke:none;stroke-width:0.16012615;"
       xml:space="preserve"><tspan
         style="font-style:normal;font-variant:normal;font-weight:normal;font-stretch:normal;font-size:6.66666651px;font-family:Targa;-inkscape-font-specification:Targa;fill:#0e232e;stroke-width:0.16012615;"
         y="11.655614"
         x="4.2338634"
         id="tspan2200-5-70-3"
         sodipodi:role="line">text</tspan></text>
    <g
       transform="matrix(3.7795276,0,0,3.7795276,91.675514,-870.41855)"
       id="g2065"
       style="fill:#364e59;stroke:#364e59">
      <path
         style="fill:none;stroke:#005c94;stroke-width:0.26458332px;stroke-linecap:butt;stroke-linejoin:miter;stroke-opacity:1"
         d="m -22.985677,235.72412 h 4.994011"
         id="path2050"
         inkscape:connector-curvature="0" />
      <path
         inkscape:connector-curvature="0"
         id="path2052"
         d="m -22.985677,238.0227 h 4.994011"
         style="fill:none;stroke:#005c94;stroke-width:0.26458332px;stroke-linecap:butt;stroke-linejoin:miter;stroke-opacity:1" />
      <path
         sodipodi:nodetypes="cc"
         style="fill:none;stroke:#005c94;stroke-width:0.26458332px;stroke-linecap:butt;stroke-linejoin:miter;stroke-opacity:1"
         d="m -22.985677,236.87341 h 4.183725"
         id="path2054"
         inkscape:connector-curvature="0" />
      <path
         sodipodi:nodetypes="cc"
         style="fill:none;stroke:#005c94;stroke-width:0.26458332px;stroke-linecap:butt;stroke-linejoin:miter;stroke-opacity:1"
         d="m -22.985677,239.17198 h 3.075782"
         id="path2056"
         inkscape:connector-curvature="0" />
      <path
         inkscape:connector-curvature="0"
         id="path2058"
         d="m -22.985677,234.57484 h 3.22461"
         style="fill:none;stroke:#005c94;stroke-width:0.26458332px;stroke-linecap:butt;stroke-linejoin:miter;stroke-opacity:1"
         sodipodi:nodetypes="cc" />
    </g>
  </g>
</svg>
