<?xml version="1.0" encoding="UTF-8" standalone="no"?>
<!-- Generator: Gravit.io -->

<svg
   xmlns:dc="http://purl.org/dc/elements/1.1/"
   xmlns:cc="http://creativecommons.org/ns#"
   xmlns:rdf="http://www.w3.org/1999/02/22-rdf-syntax-ns#"
   xmlns:svg="http://www.w3.org/2000/svg"
   xmlns="http://www.w3.org/2000/svg"
   xmlns:sodipodi="http://sodipodi.sourceforge.net/DTD/sodipodi-0.dtd"
   xmlns:inkscape="http://www.inkscape.org/namespaces/inkscape"
   style="isolation:isolate"
   viewBox="0 0 48 48"
   width="48"
   height="48"
   version="1.1"
   id="svg16"
   sodipodi:docname="stock-scripts.svg"
   inkscape:version="0.92.4 (unknown)">
  <metadata
     id="metadata20">
    <rdf:RDF>
      <cc:Work
         rdf:about="">
        <dc:format>image/svg+xml</dc:format>
        <dc:type
           rdf:resource="http://purl.org/dc/dcmitype/StillImage" />
        <dc:title />
      </cc:Work>
    </rdf:RDF>
  </metadata>
  <sodipodi:namedview
     pagecolor="#ffffff"
     bordercolor="#666666"
     borderopacity="1"
     objecttolerance="10"
     gridtolerance="10"
     guidetolerance="10"
     inkscape:pageopacity="0"
     inkscape:pageshadow="2"
     inkscape:window-width="640"
     inkscape:window-height="480"
     id="namedview18"
     showgrid="false"
     inkscape:snap-bbox="true"
     inkscape:bbox-paths="true"
     inkscape:bbox-nodes="true"
     inkscape:snap-bbox-edge-midpoints="true"
     inkscape:snap-bbox-midpoints="true"
     inkscape:snap-nodes="true"
     inkscape:snap-others="true"
     inkscape:zoom="5.8325536"
     inkscape:cx="16.332318"
     inkscape:cy="28.704473"
     inkscape:current-layer="g852"
     showguides="true"
     inkscape:guide-bbox="true"
     inkscape:object-paths="true"
     inkscape:snap-intersection-paths="true"
     inkscape:snap-smooth-nodes="true"
     inkscape:snap-midpoints="true"
     inkscape:snap-object-midpoints="true"
     inkscape:snap-center="true"
     inkscape:snap-text-baseline="true" />
  <defs
     id="defs5">
    <clipPath
       id="_clipPath_hf1KAfSzcDT4iOqegkCrm2Gm9WczwtKi">
      <rect
         width="48"
         height="48"
         id="rect2" />
    </clipPath>
  </defs>
  <g
     id="g852"
     transform="translate(9.7619856,2.1749351)">
    <path
       style="opacity:1;vector-effect:none;fill:#9eabb0;fill-opacity:1;fill-rule:evenodd;stroke:none;stroke-width:0.02907303;stroke-linecap:butt;stroke-linejoin:miter;stroke-miterlimit:4;stroke-dasharray:none;stroke-dashoffset:0;stroke-opacity:1;paint-order:normal"
       d="m -2.3244706,-0.10267765 c -1.104571,0 -2.000001,0.8954457 -2.000001,2.00001255 v 3.9999875 4.0000249 3.9999877 3.999987 4.000025 3.999988 3.999987 a 1.9999999,1.9999999 0 0 0 2.000001,2.000013 1.9999999,1.9999999 0 0 0 2.0000013,-2.000013 V 25.897335 21.897347 17.897322 13.897335 9.8973474 5.8973224 3.8973476 h 1.9999975 5.9999999 4.0000029 3.999998 3.999998 4.000003 0.679687 v 1.9999748 4.000025 3.9999876 3.999987 4.000025 3.999988 3.999987 3.667994 H 22.357178 18.357179 14.357177 10.357179 6.3571801 1.6755282 -2.3244706 c -1.104571,0 -2.000001,0.895408 -2.000001,2.000013 8.31e-4,0.350362 0.09381,0.694715 0.269556,0.998022 l -0.002,0.002 1.999997,3.462879 1.5722723,2.724624 0.00195,-0.002 c 0.356485,0.619049 1.0160995,1.00097 1.730468,1.001953 h 6.0000004 3.9999989 4.000002 4.001948 3.998049 4.000003 3.550779 c 1.104571,0 2.001948,-0.895446 2.001948,-2.000013 V 37.752806 33.752818 27.922746 23.922721 19.922733 15.922746 11.922721 7.9227334 h -0.002 A 1.9999999,1.9999999 0 0 0 30.798594,5.9227208 1.9999999,1.9999999 0 0 0 28.800543,7.9227334 h -0.002 v 3.9999876 4.000025 3.999987 3.999988 4.000025 5.830072 3.999988 2.000012 H 27.247815 23.247812 19.249763 15.247815 11.247813 7.2497641 2.4040661 L 1.4079754,38.028182 1.1403849,37.565304 h 5.2167992 3.9999979 3.999999 4.000002 3.999998 3.999999 c 1.104552,0 2.000002,-0.895446 2.000002,-1.999975 -4.69e-4,-0.01512 -0.0011,-0.03024 -0.002,-0.04687 V 29.735256 25.897373 21.897385 17.89736 13.897373 9.8973854 5.8973602 1.936453 c 7.78e-4,-0.011339 0.0013,-0.026457 0.002,-0.038929 0,-1.10456685 -0.89545,-2.00001255 -2.000002,-2.00001255 H 23.675534 19.675531 15.675533 11.675534 7.6755321 1.6755319 Z"
       id="path1264-4-0-3-3-36"
       inkscape:connector-curvature="0" />
  </g>
</svg>
