<?xml version="1.0" encoding="UTF-8" standalone="no"?>
<!-- Generator: Gravit.io -->

<svg
   xmlns:dc="http://purl.org/dc/elements/1.1/"
   xmlns:cc="http://creativecommons.org/ns#"
   xmlns:rdf="http://www.w3.org/1999/02/22-rdf-syntax-ns#"
   xmlns:svg="http://www.w3.org/2000/svg"
   xmlns="http://www.w3.org/2000/svg"
   xmlns:sodipodi="http://sodipodi.sourceforge.net/DTD/sodipodi-0.dtd"
   xmlns:inkscape="http://www.inkscape.org/namespaces/inkscape"
   style="isolation:isolate"
   viewBox="0 0 48 48"
   width="48"
   height="48"
   version="1.1"
   id="svg16"
   sodipodi:docname="text-x-install.svg"
   inkscape:version="0.92.4 (unknown)">
  <metadata
     id="metadata20">
    <rdf:RDF>
      <cc:Work
         rdf:about="">
        <dc:format>image/svg+xml</dc:format>
        <dc:type
           rdf:resource="http://purl.org/dc/dcmitype/StillImage" />
        <dc:title />
      </cc:Work>
    </rdf:RDF>
  </metadata>
  <sodipodi:namedview
     pagecolor="#ffffff"
     bordercolor="#666666"
     borderopacity="1"
     objecttolerance="10"
     gridtolerance="10"
     guidetolerance="10"
     inkscape:pageopacity="0"
     inkscape:pageshadow="2"
     inkscape:window-width="640"
     inkscape:window-height="480"
     id="namedview18"
     showgrid="false"
     inkscape:snap-bbox="true"
     inkscape:bbox-paths="true"
     inkscape:bbox-nodes="true"
     inkscape:snap-bbox-edge-midpoints="true"
     inkscape:snap-bbox-midpoints="true"
     inkscape:snap-nodes="true"
     inkscape:snap-others="true"
     inkscape:zoom="6.1743047"
     inkscape:cx="-14.423425"
     inkscape:cy="22.58613"
     inkscape:current-layer="g852"
     showguides="true"
     inkscape:guide-bbox="true"
     inkscape:object-paths="true"
     inkscape:snap-intersection-paths="true"
     inkscape:snap-smooth-nodes="true"
     inkscape:snap-midpoints="true"
     inkscape:snap-object-midpoints="true"
     inkscape:snap-center="true"
     inkscape:snap-text-baseline="true" />
  <defs
     id="defs5">
    <clipPath
       id="_clipPath_hf1KAfSzcDT4iOqegkCrm2Gm9WczwtKi">
      <rect
         width="48"
         height="48"
         id="rect2" />
    </clipPath>
  </defs>
  <g
     id="g852"
     transform="translate(9.7619856,2.1749351)">
    <g
       id="g875"
       style="fill:#ff4141;stroke:none">
      <path
         id="path1264-3-217-5"
         d="m -1.0002237,0.998885 a 1.9999999,1.9999999 0 0 0 -1.999998,2.0000126 v 3.9999872 3.9999872 4.000026 3.999987 3.999988 4.000025 1.999975 3.652346 a 1.9999999,1.9999999 0 0 0 1.999998,2.000013 h 4.000003 3.999998 a 1.9999999,1.9999999 0 0 0 2.000001,-2.000013 1.9999999,1.9999999 0 0 0 -2.000001,-1.999975 H 2.9997793 0.9997773 V 28.651232 24.998885 22.998873 18.998847 14.99886 10.998835 6.9988478 4.9988346 h 2.000002 3.999998 3.9999987 4.000002 4.000003 3.999999 2.476561 2.000002 v 2.0000132 3.9999872 4.000025 3.999987 4.000026 3.999987 4.000025 3.999988 2.000012 1.652334 H 25.476341 22.99978 18.999781 14.999778 10.999776 8.9997783 v -1.074217 h -0.002 a 1.9999999,1.9999999 0 0 0 -1.998046,-1.958967 1.9999999,1.9999999 0 0 0 -1.998047,1.958967 h -0.002 v 3.07423 a 1.9999999,1.9999999 0 0 0 2.000001,2.000013 h 3.9999977 4.000002 4.000004 3.999999 2.476562 4.000001 a 1.9999999,1.9999999 0 0 0 1.999999,-2.000013 V 36.651244 32.998898 30.998885 26.998898 22.998873 18.998885 14.998898 10.998872 6.9988848 2.9988976 a 1.9999999,1.9999999 0 0 0 -2,-2.0000126 h -4.000004 -2.476561 -3.999999 -4 -4.000002 -4.0000017 -3.999999 z"
         style="opacity:1;isolation:isolate;vector-effect:none;fill:#ff4141;fill-opacity:0.98999999;fill-rule:evenodd;stroke:none;stroke-width:0.37145898;stroke-linecap:butt;stroke-linejoin:miter;stroke-miterlimit:4;stroke-dasharray:none;stroke-dashoffset:0;stroke-opacity:1;paint-order:normal"
         inkscape:connector-curvature="0" />
      <text
         xml:space="preserve"
         style="font-style:normal;font-weight:normal;font-size:6.40504646px;line-height:1.25;font-family:sans-serif;letter-spacing:0px;word-spacing:0px;isolation:isolate;fill:#ff4141;fill-opacity:1;stroke:none;stroke-width:0.16012615"
         x="11.177686"
         y="37.327957"
         id="text2202-9-1-9"><tspan
           sodipodi:role="line"
           id="tspan2200-5-4-2"
           x="11.177686"
           y="37.327957"
           style="font-style:normal;font-variant:normal;font-weight:normal;font-stretch:normal;font-size:6.66666651px;font-family:'Targa MS';-inkscape-font-specification:'Targa MS';fill:#ff4141;stroke-width:0.16012615;stroke:none">text</tspan></text>
      <path
         transform="translate(-9.7619856,-2.1749351)"
         inkscape:connector-curvature="0"
         id="path855"
         d="m 14.990847,11.352904 v -0.476431 h 4.877744 4.877745 v 0.476431 0.476431 h -4.877745 -4.877744 z"
         style="opacity:1;vector-effect:none;fill:#ff4141;fill-opacity:1;fill-rule:evenodd;stroke:none;stroke-width:0.02907307;stroke-linecap:butt;stroke-linejoin:miter;stroke-miterlimit:4;stroke-dasharray:none;stroke-dashoffset:0;stroke-opacity:1;paint-order:normal" />
      <path
         transform="translate(-9.7619856,-2.1749351)"
         inkscape:connector-curvature="0"
         id="path857"
         d="m 14.990847,15.708844 v -0.476431 h 8.825314 8.825315 v 0.476431 0.47643 h -8.825315 -8.825314 z"
         style="opacity:1;vector-effect:none;fill:#ff4141;fill-opacity:1;fill-rule:evenodd;stroke:none;stroke-width:0.02907307;stroke-linecap:butt;stroke-linejoin:miter;stroke-miterlimit:4;stroke-dasharray:none;stroke-dashoffset:0;stroke-opacity:1;paint-order:normal" />
      <path
         transform="translate(-9.7619856,-2.1749351)"
         inkscape:connector-curvature="0"
         id="path859"
         d="m 14.990847,20.064783 v -0.476431 h 7.89514 7.89514 v 0.476431 0.476431 h -7.89514 -7.89514 z"
         style="opacity:1;vector-effect:none;fill:#ff4141;fill-opacity:1;fill-rule:evenodd;stroke:none;stroke-width:0.02907307;stroke-linecap:butt;stroke-linejoin:miter;stroke-miterlimit:4;stroke-dasharray:none;stroke-dashoffset:0;stroke-opacity:1;paint-order:normal" />
      <path
         transform="translate(-9.7619856,-2.1749351)"
         inkscape:connector-curvature="0"
         id="path861"
         d="m 14.990847,24.375348 v -0.476431 h 9.415181 9.415182 v 0.476431 0.476431 h -9.415182 -9.415181 z"
         style="opacity:1;vector-effect:none;fill:#ff4141;fill-opacity:1;fill-rule:evenodd;stroke:none;stroke-width:0.02907307;stroke-linecap:butt;stroke-linejoin:miter;stroke-miterlimit:4;stroke-dasharray:none;stroke-dashoffset:0;stroke-opacity:1;paint-order:normal" />
      <path
         transform="translate(-9.7619856,-2.1749351)"
         inkscape:connector-curvature="0"
         id="path863"
         d="m 14.990847,28.731288 v -0.476431 h 7.89514 7.89514 v 0.476431 0.47643 h -7.89514 -7.89514 z"
         style="opacity:1;vector-effect:none;fill:#ff4141;fill-opacity:1;fill-rule:evenodd;stroke:none;stroke-width:0.02907307;stroke-linecap:butt;stroke-linejoin:miter;stroke-miterlimit:4;stroke-dasharray:none;stroke-dashoffset:0;stroke-opacity:1;paint-order:normal" />
    </g>
  </g>
</svg>
