<?xml version="1.0" encoding="UTF-8" standalone="no"?>
<!-- Generator: Gravit.io -->

<svg
   xmlns:dc="http://purl.org/dc/elements/1.1/"
   xmlns:cc="http://creativecommons.org/ns#"
   xmlns:rdf="http://www.w3.org/1999/02/22-rdf-syntax-ns#"
   xmlns:svg="http://www.w3.org/2000/svg"
   xmlns="http://www.w3.org/2000/svg"
   xmlns:sodipodi="http://sodipodi.sourceforge.net/DTD/sodipodi-0.dtd"
   xmlns:inkscape="http://www.inkscape.org/namespaces/inkscape"
   style="isolation:isolate"
   viewBox="0 0 48 48"
   width="48"
   height="48"
   version="1.1"
   id="svg16"
   sodipodi:docname="video-vnd.rn-realvideo.svg"
   inkscape:version="0.92.4 (unknown)">
  <metadata
     id="metadata20">
    <rdf:RDF>
      <cc:Work
         rdf:about="">
        <dc:format>image/svg+xml</dc:format>
        <dc:type
           rdf:resource="http://purl.org/dc/dcmitype/StillImage" />
        <dc:title />
      </cc:Work>
    </rdf:RDF>
  </metadata>
  <sodipodi:namedview
     pagecolor="#ffffff"
     bordercolor="#666666"
     borderopacity="1"
     objecttolerance="10"
     gridtolerance="10"
     guidetolerance="10"
     inkscape:pageopacity="0"
     inkscape:pageshadow="2"
     inkscape:window-width="640"
     inkscape:window-height="480"
     id="namedview18"
     showgrid="false"
     inkscape:snap-bbox="true"
     inkscape:bbox-paths="true"
     inkscape:bbox-nodes="true"
     inkscape:snap-bbox-edge-midpoints="true"
     inkscape:snap-bbox-midpoints="true"
     inkscape:snap-nodes="false"
     inkscape:snap-others="false"
     inkscape:zoom="8.2484767"
     inkscape:cx="-6.8331282"
     inkscape:cy="17.597904"
     inkscape:current-layer="svg16" />
  <defs
     id="defs5">
    <clipPath
       id="_clipPath_hf1KAfSzcDT4iOqegkCrm2Gm9WczwtKi">
      <rect
         width="48"
         height="48"
         id="rect2" />
    </clipPath>
  </defs>
  <g
     id="g834"
     transform="translate(-3.0357223,8.8776121)"
     style="fill:#ff4141">
    <path
       id="path1264-3-217-5"
       d="m 11.797484,-5.7037922 a 1.9999999,1.9999999 0 0 0 -1.9999975,2.0000126 v 3.99998746 3.99998744 4.0000255 3.9999872 3.999988 4.000025 1.999975 3.652346 a 1.9999999,1.9999999 0 0 0 1.9999975,2.000013 h 4.000003 3.999998 a 1.9999999,1.9999999 0 0 0 2.000001,-2.000013 1.9999999,1.9999999 0 0 0 -2.000001,-1.999975 H 15.797487 13.797485 V 21.948555 18.296208 16.296196 12.29617 8.2961828 4.2961575 0.29617006 -1.7038426 h 2.000002 3.999998 3.999999 4.000002 4.000003 3.999999 2.476561 2.000002 v 2.00001266 3.99998744 4.0000253 3.9999872 4.000026 3.999987 4.000025 3.999988 2.000012 1.652334 h -2.000002 -2.476561 -3.999999 -4.000003 -4.000002 -1.999998 v -1.074217 h -0.002 a 1.9999999,1.9999999 0 0 0 -1.998046,-1.958967 1.9999999,1.9999999 0 0 0 -1.998047,1.958967 h -0.002 v 3.07423 a 1.9999999,1.9999999 0 0 0 2.000001,2.000013 h 3.999998 4.000002 4.000003 3.999999 2.476562 4.000002 a 1.9999999,1.9999999 0 0 0 1.999998,-2.000013 V 29.948567 26.296221 24.296208 20.296221 16.296196 12.296208 8.2962208 4.2961953 0.29620786 -3.7037796 a 1.9999999,1.9999999 0 0 0 -2,-2.0000126 h -4.000003 -2.476562 -3.999999 -3.999999 -4.000002 -4.000002 -3.999999 z"
       style="opacity:1;isolation:isolate;vector-effect:none;fill:#ff4141;fill-opacity:0.98999999;fill-rule:evenodd;stroke:none;stroke-width:0.37145898;stroke-linecap:butt;stroke-linejoin:miter;stroke-miterlimit:4;stroke-dasharray:none;stroke-dashoffset:0;stroke-opacity:1;paint-order:normal"
       inkscape:connector-curvature="0" />
    <path
       id="rect1246-3-2"
       d="m 23.797557,1.1421124 a 1.9999999,1.9999999 0 0 0 -2,2 v 4.0000004 3.9980502 0.002 a 1.9999999,1.9999999 0 0 0 2,1.99805 1.9999999,1.9999999 0 0 0 2,-1.99805 1.9999999,1.9999999 0 0 0 0,-0.002 V 7.9702328 l 2.24219,2.2421902 0.33398,0.33399 1.41407,1.41406 -1.41407,1.41406 -2.82812,2.82813 -1.74805,1.74804 -1.41406,1.41407 0.002,0.002 a 1.9999999,1.9999999 0 0 0 -0.58789,1.41211 1.9999999,1.9999999 0 0 0 2,2 1.9999999,1.9999999 0 0 0 1.41406,-0.58594 l 1.41407,-1.41406 1.74804,-1.74805 2.82813,-2.82812 2.80859,-2.8086 a 1.9999999,1.9999999 0 0 0 0.60547,-1.43359 1.9999999,1.9999999 0 0 0 -0.58594,-1.41406 l -0.33398,-0.33203 0.002,-0.002 -2.83008,-2.8281202 -2.82812,-2.82813 -2.80664,-2.8085904 a 1.9999999,1.9999999 0 0 0 -1.43555,-0.60547 z"
       style="opacity:1;vector-effect:none;fill:#ff4141;fill-opacity:0.98999999;fill-rule:evenodd;stroke:none;stroke-width:0.37145895;stroke-linecap:butt;stroke-linejoin:miter;stroke-miterlimit:4;stroke-dasharray:none;stroke-dashoffset:0;stroke-opacity:1;paint-order:normal"
       inkscape:connector-curvature="0" />
    <text
       xml:space="preserve"
       style="font-style:normal;font-weight:normal;font-size:6.40504646px;line-height:1.25;font-family:sans-serif;letter-spacing:0px;word-spacing:0px;isolation:isolate;fill:#ff4141;fill-opacity:1;stroke:none;stroke-width:0.16012615"
       x="22.70491"
       y="30.625278"
       id="text2202-9-1-9"><tspan
         sodipodi:role="line"
         id="tspan2200-5-4-2"
         x="22.70491"
         y="30.625278"
         style="font-style:normal;font-variant:normal;font-weight:normal;font-stretch:normal;font-size:6.66666651px;font-family:'Targa MS';-inkscape-font-specification:'Targa MS';fill:#ff4141;stroke-width:0.16012615">video</tspan></text>
  </g>
</svg>
