<?xml version="1.0" encoding="UTF-8" standalone="no"?>
<!-- Generator: Gravit.io -->

<svg
   xmlns:dc="http://purl.org/dc/elements/1.1/"
   xmlns:cc="http://creativecommons.org/ns#"
   xmlns:rdf="http://www.w3.org/1999/02/22-rdf-syntax-ns#"
   xmlns:svg="http://www.w3.org/2000/svg"
   xmlns="http://www.w3.org/2000/svg"
   xmlns:xlink="http://www.w3.org/1999/xlink"
   xmlns:sodipodi="http://sodipodi.sourceforge.net/DTD/sodipodi-0.dtd"
   xmlns:inkscape="http://www.inkscape.org/namespaces/inkscape"
   style="isolation:isolate"
   viewBox="0 0 48 48"
   width="48"
   height="48"
   version="1.1"
   id="svg23"
   sodipodi:docname="steam.svg"
   inkscape:version="0.92.4 (unknown)">
  <metadata
     id="metadata27">
    <rdf:RDF>
      <cc:Work
         rdf:about="">
        <dc:format>image/svg+xml</dc:format>
        <dc:type
           rdf:resource="http://purl.org/dc/dcmitype/StillImage" />
      </cc:Work>
    </rdf:RDF>
  </metadata>
  <sodipodi:namedview
     pagecolor="#ffffff"
     bordercolor="#666666"
     borderopacity="1"
     objecttolerance="10"
     gridtolerance="10"
     guidetolerance="10"
     inkscape:pageopacity="0"
     inkscape:pageshadow="2"
     inkscape:window-width="640"
     inkscape:window-height="480"
     id="namedview25"
     showgrid="false"
     showguides="true"
     inkscape:guide-bbox="true"
     inkscape:snap-bbox="true"
     inkscape:bbox-paths="true"
     inkscape:bbox-nodes="true"
     inkscape:snap-bbox-edge-midpoints="true"
     inkscape:snap-bbox-midpoints="true"
     inkscape:object-paths="true"
     inkscape:snap-intersection-paths="true"
     inkscape:snap-smooth-nodes="true"
     inkscape:snap-midpoints="true"
     inkscape:snap-object-midpoints="true"
     inkscape:snap-center="true"
     inkscape:zoom="5.9883105"
     inkscape:cx="16.228817"
     inkscape:cy="14.783115"
     inkscape:current-layer="svg23" />
  <defs
     id="defs5">
    <linearGradient
       inkscape:collect="always"
       id="linearGradient831">
      <stop
         style="stop-color:#19aeff;stop-opacity:1"
         offset="0"
         id="stop827" />
      <stop
         style="stop-color:#364e59;stop-opacity:1"
         offset="1"
         id="stop829" />
    </linearGradient>
    <clipPath
       id="_clipPath_Sd08GpmkdqIAy1UR239YV2vyPFIZuRyU">
      <rect
         width="48"
         height="48"
         id="rect2" />
    </clipPath>
    <linearGradient
       inkscape:collect="always"
       xlink:href="#linearGradient831"
       id="linearGradient833"
       x1="-5.0136628"
       y1="45.040993"
       x2="45.999998"
       y2="24"
       gradientUnits="userSpaceOnUse" />
  </defs>
  <path
     inkscape:connector-curvature="0"
     style="opacity:1;vector-effect:none;fill:url(#linearGradient833);fill-opacity:1;fill-rule:evenodd;stroke:none;stroke-width:0.02907303;stroke-linecap:butt;stroke-linejoin:miter;stroke-miterlimit:4;stroke-dasharray:none;stroke-dashoffset:0;stroke-opacity:1;paint-order:normal"
     d="M 33.087889,8.5732748 A 12.911387,12.911387 0 0 0 20.29492,19.844755 l -2.285157,2.28516 -2.828122,2.83008 -2.53125,2.52929 a 5.999946,5.999946 0 0 0 -0.82813,-0.0645 5.999946,5.999946 0 0 0 -1.9570295,0.33594 l -2.27344,-1.3125 -3.46484,-2 -2.12695,-1.22852 v 9.06836 l 0.17383,0.0996 3.46484,2 0.29687,0.17383 a 5.999946,5.999946 0 0 0 5.8867195,4.86523 5.999946,5.999946 0 0 0 5.238284,-3.07812 l 3.175781,-0.85156 3.863281,-1.03711 3.863282,-1.03516 0.130859,-0.0352 a 12.911387,12.911387 0 0 0 4.994141,1.00782 A 12.911387,12.911387 0 0 0 45.999998,21.485285 12.911387,12.911387 0 0 0 33.087889,8.5751248 Z m 0,4.0000002 a 8.9113557,8.9113557 0 0 1 8.912109,8.91016 8.9113557,8.9113557 0 0 1 -8.912109,8.9121 8.9113557,8.9113557 0 0 1 -8.910157,-8.9121 8.9113557,8.9113557 0 0 1 8.910157,-8.91016 z M 20.70117,25.096715 a 12.911387,12.911387 0 0 0 3.0625,5.31054 l -0.699219,0.1875 -3.863281,1.03516 -1.546875,0.41406 a 5.999946,5.999946 0 0 0 -1.328124,-2.57226 l 1.683592,-1.6836 z m -8.878909,6.32812 a 1.9999999,1.9999999 0 0 1 2,2 1.9999999,1.9999999 0 0 1 -2,2 1.9999999,1.9999999 0 0 1 -1.9999995,-2 1.9999999,1.9999999 0 0 1 1.9999995,-2 z"
     id="circle1329" />
</svg>
