<?xml version="1.0" encoding="UTF-8" standalone="no"?>
<!-- Generator: Gravit.io -->

<svg
   xmlns:dc="http://purl.org/dc/elements/1.1/"
   xmlns:cc="http://creativecommons.org/ns#"
   xmlns:rdf="http://www.w3.org/1999/02/22-rdf-syntax-ns#"
   xmlns:svg="http://www.w3.org/2000/svg"
   xmlns="http://www.w3.org/2000/svg"
   xmlns:xlink="http://www.w3.org/1999/xlink"
   xmlns:sodipodi="http://sodipodi.sourceforge.net/DTD/sodipodi-0.dtd"
   xmlns:inkscape="http://www.inkscape.org/namespaces/inkscape"
   style="isolation:isolate"
   viewBox="0 0 48 48"
   width="48"
   height="48"
   version="1.1"
   id="svg23"
   sodipodi:docname="akregator.svg"
   inkscape:version="0.92.4 (unknown)">
  <metadata
     id="metadata27">
    <rdf:RDF>
      <cc:Work
         rdf:about="">
        <dc:format>image/svg+xml</dc:format>
        <dc:type
           rdf:resource="http://purl.org/dc/dcmitype/StillImage" />
      </cc:Work>
    </rdf:RDF>
  </metadata>
  <sodipodi:namedview
     pagecolor="#ffffff"
     bordercolor="#666666"
     borderopacity="1"
     objecttolerance="10"
     gridtolerance="10"
     guidetolerance="10"
     inkscape:pageopacity="0"
     inkscape:pageshadow="2"
     inkscape:window-width="640"
     inkscape:window-height="480"
     id="namedview25"
     showgrid="false"
     showguides="true"
     inkscape:guide-bbox="true"
     inkscape:snap-bbox="true"
     inkscape:bbox-paths="true"
     inkscape:bbox-nodes="true"
     inkscape:snap-bbox-edge-midpoints="true"
     inkscape:snap-bbox-midpoints="true"
     inkscape:object-paths="true"
     inkscape:snap-intersection-paths="true"
     inkscape:snap-smooth-nodes="true"
     inkscape:snap-midpoints="true"
     inkscape:snap-object-midpoints="true"
     inkscape:snap-center="true"
     inkscape:zoom="8.0000001"
     inkscape:cx="14.087049"
     inkscape:cy="22.494874"
     inkscape:current-layer="svg23" />
  <defs
     id="defs5">
    <linearGradient
       inkscape:collect="always"
       id="linearGradient828">
      <stop
         style="stop-color:#ff6600;stop-opacity:1;"
         offset="0"
         id="stop824" />
      <stop
         style="stop-color:#ffc097;stop-opacity:1"
         offset="1"
         id="stop826" />
    </linearGradient>
    <clipPath
       id="_clipPath_Sd08GpmkdqIAy1UR239YV2vyPFIZuRyU">
      <rect
         width="48"
         height="48"
         id="rect2" />
    </clipPath>
    <linearGradient
       inkscape:collect="always"
       xlink:href="#linearGradient828"
       id="linearGradient830"
       x1="40.124985"
       y1="8.875"
       x2="5.1250157"
       y2="42.5"
       gradientUnits="userSpaceOnUse" />
  </defs>
  <path
     style="opacity:1;vector-effect:none;fill:url(#linearGradient830);fill-opacity:1;fill-rule:evenodd;stroke:none;stroke-width:1.11437702;stroke-linecap:butt;stroke-linejoin:miter;stroke-miterlimit:4;stroke-dasharray:none;stroke-dashoffset:0;stroke-opacity:1;paint-order:normal"
     d="M 7.999986,1.9998424 A 1.9999999,1.9999999 0 0 0 5.9999885,3.9998172 1.9999999,1.9999999 0 0 0 7.999986,5.9998298 h 4.000003 1.999997 4.000003 3.999998 3.999999 4.000003 3.999999 3.999998 4.000003 v 2.0000127 1.9999748 4.0000257 3.999988 3.999987 4.000025 3.999988 3.999987 4.000025 H 39.999988 37.900377 A 29.99996,29.99996 0 0 0 7.999986,9.9998173 29.99996,29.99996 0 0 0 5.9999885,10.099597 v 3.984378 1.915994 4.000025 2.132788 A 18.000001,18.000001 0 0 1 7.999986,22.00012 18.000001,18.000001 0 0 1 25.867177,38.000146 H 23.999989 21.83788 a 14.000001,14.000001 0 0 0 -13.837894,-12 14.000001,14.000001 0 0 0 -1.9999975,0.162141 v 4.050785 1.988258 2.148435 a 6.0000001,6.0000001 0 0 0 -4.0000026,5.650393 6.0000001,6.0000001 0 0 0 6.0000001,6 6.0000001,6.0000001 0 0 0 6,-6 6.0000001,6.0000001 0 0 0 -3.9999988,-5.650393 v -2.349582 -1.7969 a 10.000001,10.000001 0 0 1 8.0000018,9.796875 10.000001,10.000001 0 0 1 -0.203112,2.000013 h 4.044922 2.158205 3.999999 1.890625 A 22.000001,22.000001 0 0 0 30.000008,40.000158 22.000001,22.000001 0 0 0 10.000006,18.10955 v -2.109392 -1.898419 a 25.99996,25.99996 0 0 1 24.000001,25.898419 25.99996,25.99996 0 0 1 -0.101556,2.000013 h 4.031251 2.070312 3.999999 a 1.9999999,1.9999999 0 0 0 2.000001,-2.000013 V 36.000171 34.000158 30.000171 26.000183 22.000158 18.000171 14.000183 10.000157 6.00017 4.0001574 A 1.9999999,1.9999999 0 0 0 44.000013,2.0001826 h -2.000024 -4.000003 -3.999998 -3.999999 -4.000003 -3.999999 -3.999998 -4.000003 -1.999997 z"
     id="circle2869"
     inkscape:connector-curvature="0" />
</svg>
