<?xml version="1.0" encoding="UTF-8" standalone="no"?>
<!-- Generator: Gravit.io -->

<svg
   xmlns:dc="http://purl.org/dc/elements/1.1/"
   xmlns:cc="http://creativecommons.org/ns#"
   xmlns:rdf="http://www.w3.org/1999/02/22-rdf-syntax-ns#"
   xmlns:svg="http://www.w3.org/2000/svg"
   xmlns="http://www.w3.org/2000/svg"
   xmlns:xlink="http://www.w3.org/1999/xlink"
   xmlns:sodipodi="http://sodipodi.sourceforge.net/DTD/sodipodi-0.dtd"
   xmlns:inkscape="http://www.inkscape.org/namespaces/inkscape"
   style="isolation:isolate"
   viewBox="0 0 48 48"
   width="48"
   height="48"
   version="1.1"
   id="svg23"
   sodipodi:docname="amarok.svg"
   inkscape:version="0.92.4 (unknown)">
  <metadata
     id="metadata27">
    <rdf:RDF>
      <cc:Work
         rdf:about="">
        <dc:format>image/svg+xml</dc:format>
        <dc:type
           rdf:resource="http://purl.org/dc/dcmitype/StillImage" />
      </cc:Work>
    </rdf:RDF>
  </metadata>
  <sodipodi:namedview
     pagecolor="#ffffff"
     bordercolor="#666666"
     borderopacity="1"
     objecttolerance="10"
     gridtolerance="10"
     guidetolerance="10"
     inkscape:pageopacity="0"
     inkscape:pageshadow="2"
     inkscape:window-width="640"
     inkscape:window-height="480"
     id="namedview25"
     showgrid="false"
     showguides="true"
     inkscape:guide-bbox="true"
     inkscape:snap-bbox="true"
     inkscape:bbox-paths="true"
     inkscape:bbox-nodes="true"
     inkscape:snap-bbox-edge-midpoints="true"
     inkscape:snap-bbox-midpoints="true"
     inkscape:object-paths="true"
     inkscape:snap-intersection-paths="true"
     inkscape:snap-smooth-nodes="true"
     inkscape:snap-midpoints="true"
     inkscape:snap-object-midpoints="true"
     inkscape:snap-center="true"
     inkscape:zoom="8.0000001"
     inkscape:cx="16.524549"
     inkscape:cy="22.494874"
     inkscape:current-layer="svg23" />
  <defs
     id="defs5">
    <linearGradient
       inkscape:collect="always"
       id="linearGradient849">
      <stop
         style="stop-color:#005c94;stop-opacity:1;"
         offset="0"
         id="stop845" />
      <stop
         style="stop-color:#19aeff;stop-opacity:1"
         offset="1"
         id="stop847" />
    </linearGradient>
    <clipPath
       id="_clipPath_Sd08GpmkdqIAy1UR239YV2vyPFIZuRyU">
      <rect
         width="48"
         height="48"
         id="rect2" />
    </clipPath>
    <linearGradient
       inkscape:collect="always"
       xlink:href="#linearGradient849"
       id="linearGradient851"
       x1="16.999983"
       y1="35.126987"
       x2="34.575359"
       y2="20.25774"
       gradientUnits="userSpaceOnUse" />
  </defs>
  <path
     inkscape:connector-curvature="0"
     style="opacity:1;vector-effect:none;fill:url(#linearGradient851);fill-opacity:1;fill-rule:evenodd;stroke:none;stroke-width:0.37145898;stroke-linecap:butt;stroke-linejoin:miter;stroke-miterlimit:4;stroke-dasharray:none;stroke-dashoffset:0;stroke-opacity:1;paint-order:normal"
     d="M 23.962077,2 C 21.320824,2.0018 21.180969,2.00953 20.104655,2.2402344 17.225031,2.8574689 14.760334,3.8433879 12.647623,5.2246094 7.8194262,8.3811283 3.5186368,14.259778 2.3554688,19.872973 2.0894688,21.15663 2.0021658,22.228244 2,24.169848 c -0.0031,2.779022 0.4409773,5.073512 1.5058593,7.773437 0.6100482,1.546731 0.7931159,1.835981 1.421875,2.232422 0.7099986,0.447666 0.9838166,0.450777 2.6933594,0.0293 2.1190725,-0.522451 2.4935843,-0.743282 3.0069983,-1.146484 0.243068,-0.190889 0.739662,-0.515396 1.103516,-0.720703 0.74415,-0.419892 1.376562,-1.020568 2.19336,-2.087891 l 0.556641,-0.728516 -1.189454,-1.222656 c -1.291836,-1.330239 -1.90367,-2.361216 -1.682331,-2.49801 0.06603,-0.04081 0.537156,-0.223211 1.048829,-0.404296 0.511673,-0.181084 2.361614,-0.895363 2.990924,-1.154335 l 1.142578,-0.470703 h 1.302735 c 1.300968,0 1.302062,-3.49e-4 2.302734,-0.361328 0.550682,-0.198651 1.520418,-0.614489 2.154297,-0.923828 l 1.152344,-0.5625 1.05664,0.08203 c 2.607441,0.201837 3.691571,0.08297 6.126954,-0.677734 2.088806,-0.652445 3.65143,-1.106383 3.6875,-1.070313 0.01846,0.01846 -0.15115,0.329785 -0.376954,0.691407 -0.536914,0.859864 -0.917786,1.695656 -1.255859,2.757812 -0.407936,1.281648 -0.365182,2.102858 0.144531,2.789063 0.119732,0.161187 0.203687,0.308032 0.185547,0.326171 -0.01814,0.01814 -0.478,0.189422 -1.021484,0.38086 -0.543485,0.191438 -1.168807,0.453182 -1.388672,0.582031 -0.935562,0.548276 -2.693833,2.14866 -3.478516,3.166016 -0.431808,0.559847 -0.864199,1.4062 -0.949219,1.859375 -0.03408,0.181672 -0.08809,0.329989 -0.11914,0.330078 -0.185805,5.63e-4 -0.677285,1.012578 -1.076172,2.210937 -0.457257,1.373716 -0.693419,3.539082 -0.699219,4.175782 -0.0017,0.188403 -0.118851,0.584703 -0.261719,0.884765 -0.47226,0.991892 -0.797731,3.305779 -0.580078,4.13086 0.158162,0.599564 0.972774,1.252547 1.509509,1.390625 0.788092,0.20274 2.823368,-0.04568 4.634766,-0.566407 3.509812,-1.008965 7.407786,-3.469603 9.950289,-5.995558 1.764672,-1.753185 2.945682,-3.354131 3.957031,-5.36914 1.420922,-2.83104 2.120271,-5.446283 2.25,-8.417969 0.05045,-1.15566 0.0048,-2.87693 -0.07422,-3.568359 0.0061,-0.06102 0.0093,-0.122278 0.0098,-0.183594 0,-1.10457 -0.89543,-2 -2,-2 -1.10457,0 -2,0.89543 -2,2 8.71e-4,0.217313 0.03715,0.433031 0.107422,0.638672 -0.02615,0.303901 -0.02958,0.894937 -0.03125,2.115234 -0.0032,2.324912 -0.0121,2.450609 -0.25,3.462891 -1.235729,5.258142 -5.391627,10.123165 -10.083102,12.41548 -1.006139,0.491612 -2.970369,1.152343 -3.277087,1.152343 -0.126303,0 -0.125526,-0.02814 0.0078,-0.287109 0.114132,-0.221672 0.150697,-0.538041 0.154297,-1.390625 0.0044,-1.040329 0.02164,-2.293855 0.3125,-3.070312 0.297653,-0.794591 0.324337,-0.833099 0.746093,-1.060547 l 0.439454,-0.236329 0.07227,-0.794921 c 0.03976,-0.437522 0.08777,-0.875427 0.107422,-0.972657 0.106835,-0.528762 2.241634,-2.550174 2.929688,-2.773437 0.18512,-0.06007 0.992797,-0.308004 1.794921,-0.552735 1.772425,-0.540771 2.201459,-0.763277 2.757813,-1.43164 0.931167,-1.118636 1.157554,-2.06364 0.777344,-3.246094 -0.225948,-0.702699 -0.745426,-1.316879 -1.273438,-1.507812 l -0.296875,-0.107422 0.13086,-0.310547 c 0.07124,-0.170507 0.369837,-0.688054 0.664062,-1.150391 0.294226,-0.462337 0.659119,-1.102306 0.810547,-1.421875 0.252849,-0.533598 0.274331,-0.653122 0.269531,-1.464843 -0.0044,-0.743141 -0.04807,-1.013843 -0.277344,-1.701172 -0.228929,-0.686311 -1.191674,-2.583985 -1.310546,-2.583985 -0.503117,0 -2.24087,0.374525 -3.267578,0.705078 -2.695063,0.867682 -5.413215,1.685697 -6.056641,1.822266 -0.715289,0.151818 -1.26327,0.13938 -4.248047,-0.09766 -1.359209,-0.107923 -1.609036,-0.108277 -1.988281,0.0059 -0.450795,0.135669 -1.136554,0.708342 -1.277344,1.066406 -0.05086,0.129347 -0.305026,0.280897 -0.808594,0.480469 l -0.736328,0.291016 -1.458984,-0.02148 -1.457031,-0.02148 -1.017579,0.482422 c -0.559056,0.265588 -1.831546,0.780159 -2.828126,1.144531 -1.938475,0.708753 -4.5930114,1.352153 -4.7159822,1.474609 -0.1247794,0.124259 -0.3169925,1.160052 -0.3203125,1.730469 -0.00602,1.034259 0.4625032,2.211064 1.5195312,3.822266 l 0.5371097,0.818359 -0.4218753,0.388672 C 8.3189756,29.968453 8.1539574,30.050321 7.6757812,30.140551 6.991495,30.269666 7.0427874,30.320037 6.6796874,29.163988 6.0554422,27.176497 5.8347031,25.481768 5.9238281,23.374926 c 0.068274,-1.61394 0.1470472,-2.217935 0.4472656,-3.414063 0.6593794,-2.627099 2.8929518,-6.059045 4.6241853,-8.117112 2.452651,-2.9156774 5.789785,-4.8749766 9.728517,-5.7128916 1.039983,-0.2212427 1.268387,-0.2363281 3.283203,-0.2363281 2.019101,0 2.241723,0.014735 3.292969,0.2382812 3.180413,0.676311 5.907786,2.0586215 8.201172,4.1542975 l 0.308593,0.283203 c 0.374271,0.532271 0.984081,0.849197 1.634766,0.84961 1.10457,0 2,-0.895431 2,-2.0000004 -5.65e-4,-0.7139661 -0.381687,-1.3734865 -1,-1.7304694 L 38.130046,7.3867188 C 35.99428,5.3275285 32.952804,3.6248985 29.770671,2.7089844 27.509584,2.0581755 27.007283,1.99793 23.962077,2 Z"
     id="path1264-0"
     sodipodi:nodetypes="ccsssscccscccccccssccccscsccscsccsccsccsssccsccccssccsccccccsscccccccsccccccccccccsccccsssssssccccccsc" />
</svg>
