<?xml version="1.0" encoding="UTF-8" standalone="no"?>
<!-- Generator: Gravit.io -->

<svg
   xmlns:dc="http://purl.org/dc/elements/1.1/"
   xmlns:cc="http://creativecommons.org/ns#"
   xmlns:rdf="http://www.w3.org/1999/02/22-rdf-syntax-ns#"
   xmlns:svg="http://www.w3.org/2000/svg"
   xmlns="http://www.w3.org/2000/svg"
   xmlns:xlink="http://www.w3.org/1999/xlink"
   xmlns:sodipodi="http://sodipodi.sourceforge.net/DTD/sodipodi-0.dtd"
   xmlns:inkscape="http://www.inkscape.org/namespaces/inkscape"
   style="isolation:isolate"
   viewBox="0 0 48 48"
   width="48"
   height="48"
   version="1.1"
   id="svg23"
   sodipodi:docname="android-studio.svg"
   inkscape:version="0.92.4 (unknown)">
  <metadata
     id="metadata27">
    <rdf:RDF>
      <cc:Work
         rdf:about="">
        <dc:format>image/svg+xml</dc:format>
        <dc:type
           rdf:resource="http://purl.org/dc/dcmitype/StillImage" />
      </cc:Work>
    </rdf:RDF>
  </metadata>
  <sodipodi:namedview
     pagecolor="#ffffff"
     bordercolor="#666666"
     borderopacity="1"
     objecttolerance="10"
     gridtolerance="10"
     guidetolerance="10"
     inkscape:pageopacity="0"
     inkscape:pageshadow="2"
     inkscape:window-width="640"
     inkscape:window-height="480"
     id="namedview25"
     showgrid="false"
     showguides="true"
     inkscape:guide-bbox="true"
     inkscape:snap-bbox="true"
     inkscape:bbox-paths="true"
     inkscape:bbox-nodes="true"
     inkscape:snap-bbox-edge-midpoints="true"
     inkscape:snap-bbox-midpoints="true"
     inkscape:object-paths="true"
     inkscape:snap-intersection-paths="true"
     inkscape:snap-smooth-nodes="true"
     inkscape:snap-midpoints="true"
     inkscape:snap-object-midpoints="true"
     inkscape:snap-center="true"
     inkscape:zoom="8.0000001"
     inkscape:cx="17.746081"
     inkscape:cy="19.831075"
     inkscape:current-layer="svg23" />
  <defs
     id="defs5">
    <linearGradient
       inkscape:collect="always"
       id="linearGradient860">
      <stop
         style="stop-color:#0e232e;stop-opacity:1;"
         offset="0"
         id="stop856" />
      <stop
         style="stop-color:#364e59;stop-opacity:1"
         offset="1"
         id="stop858" />
    </linearGradient>
    <linearGradient
       inkscape:collect="always"
       id="linearGradient852">
      <stop
         style="stop-color:#bdcdd4;stop-opacity:1;"
         offset="0"
         id="stop848" />
      <stop
         style="stop-color:#0e232e;stop-opacity:1"
         offset="1"
         id="stop850" />
    </linearGradient>
    <linearGradient
       inkscape:collect="always"
       id="linearGradient844">
      <stop
         style="stop-color:#9ade00;stop-opacity:1"
         offset="0"
         id="stop840" />
      <stop
         style="stop-color:#9eabb0;stop-opacity:1"
         offset="1"
         id="stop842" />
    </linearGradient>
    <clipPath
       id="_clipPath_Sd08GpmkdqIAy1UR239YV2vyPFIZuRyU">
      <rect
         width="48"
         height="48"
         id="rect2" />
    </clipPath>
    <linearGradient
       inkscape:collect="always"
       xlink:href="#linearGradient844"
       id="linearGradient846"
       x1="7.2222037"
       y1="13.874509"
       x2="29.087507"
       y2="35.739815"
       gradientUnits="userSpaceOnUse" />
    <linearGradient
       inkscape:collect="always"
       xlink:href="#linearGradient852"
       id="linearGradient854"
       x1="23.84277"
       y1="38.825954"
       x2="37.203529"
       y2="35.245949"
       gradientUnits="userSpaceOnUse" />
    <linearGradient
       inkscape:collect="always"
       xlink:href="#linearGradient860"
       id="linearGradient862"
       x1="24.585938"
       y1="18.378712"
       x2="24.585938"
       y2="25.085972"
       gradientUnits="userSpaceOnUse" />
  </defs>
  <path
     inkscape:connector-curvature="0"
     style="fill:url(#linearGradient846);fill-opacity:1;fill-rule:evenodd;stroke:none;stroke-width:0.54634154"
     d="M 23.999999,2.5410494 A 21.458141,21.458141 0 0 0 2.5410144,24.000033 21.458141,21.458141 0 0 0 11.611327,41.457065 l -0.498047,0.863281 h 0.002 a 1.9999999,1.9999999 0 0 0 -0.269531,1 1.9999999,1.9999999 0 0 0 2,2 1.9999999,1.9999999 0 0 0 1.730469,-1.001953 l 0.002,0.002 2,-3.464843 1.375,-2.38086 a 15.712898,15.712898 0 0 0 6.046781,1.238235 15.712898,15.712898 0 0 0 15.712891,-15.712891 1.9999999,1.9999999 0 0 0 -2,-2 1.9999999,1.9999999 0 0 0 -2,2 11.712927,11.712927 0 0 1 -11.712891,11.712891 11.712927,11.712927 0 0 1 -4.029297,-0.732422 l 0.607422,-1.052735 2,-3.46289 2,-3.464844 -3.464844,-2 -2,3.464844 -2,3.46289 -0.615234,1.064454 -1.259766,2.183593 -0.125,0.216797 -0.630859,1.09375 -0.873047,1.511719 A 17.458085,17.458085 0 0 1 6.5410144,24.000033 17.458085,17.458085 0 0 1 23.999999,6.5410495 a 17.458085,17.458085 0 0 1 8.638672,2.30664 1.9999999,1.9999999 0 0 0 1.080078,0.320313 1.9999999,1.9999999 0 0 0 2,-2 A 1.9999999,1.9999999 0 0 0 34.482421,5.3183931 21.458141,21.458141 0 0 0 23.999999,2.5410494 Z"
     id="rect3399" />
  <path
     inkscape:connector-curvature="0"
     style="fill:url(#linearGradient854);fill-opacity:1;fill-rule:evenodd;stroke:none;stroke-width:0.54634154"
     d="m 26.935546,25.085972 -3.462891,2 2,3.462889 v 0.002 l 2,3.462891 2,3.464844 2,3.46289 2,3.464844 a 1.9999999,1.9999999 0 0 0 0.732422,0.732422 1.9999999,1.9999999 0 0 0 2.730469,-0.732422 1.9999999,1.9999999 0 0 0 -0.01953,-2.033203 l -0.0039,-0.0078 a 1.9999999,1.9999999 0 0 1 -0.002,-0.002 l -1.974609,-3.421875 -2,-3.46289 -2,-3.464844 -2,-3.462891 v -0.002 z"
     id="rect3497" />
  <path
     inkscape:connector-curvature="0"
     style="fill:url(#linearGradient862);fill-opacity:1;fill-rule:evenodd;stroke:none;stroke-width:0.54634154"
     d="m 23.999999,14.000033 a 1.9999999,1.9999999 0 0 0 -2,2 v 2 a 1.9999999,1.9999999 0 0 0 -2,2 v 4 a 1.9999999,1.9999999 0 0 0 2,2 v 1 h 4 v -1 a 1.9999999,1.9999999 0 0 0 2,-2 v -4 a 1.9999999,1.9999999 0 0 0 -2,-2 v -2 a 1.9999999,1.9999999 0 0 0 -2,-2 z"
     id="rect891-4" />
</svg>
