<?xml version="1.0" encoding="UTF-8" standalone="no"?>
<!-- Generator: Gravit.io -->

<svg
   xmlns:dc="http://purl.org/dc/elements/1.1/"
   xmlns:cc="http://creativecommons.org/ns#"
   xmlns:rdf="http://www.w3.org/1999/02/22-rdf-syntax-ns#"
   xmlns:svg="http://www.w3.org/2000/svg"
   xmlns="http://www.w3.org/2000/svg"
   xmlns:sodipodi="http://sodipodi.sourceforge.net/DTD/sodipodi-0.dtd"
   xmlns:inkscape="http://www.inkscape.org/namespaces/inkscape"
   style="isolation:isolate"
   viewBox="0 0 48 48"
   width="48"
   height="48"
   version="1.1"
   id="svg23"
   sodipodi:docname="anydesk.svg"
   inkscape:version="0.92.4 (unknown)">
  <metadata
     id="metadata27">
    <rdf:RDF>
      <cc:Work
         rdf:about="">
        <dc:format>image/svg+xml</dc:format>
        <dc:type
           rdf:resource="http://purl.org/dc/dcmitype/StillImage" />
      </cc:Work>
    </rdf:RDF>
  </metadata>
  <sodipodi:namedview
     pagecolor="#ffffff"
     bordercolor="#666666"
     borderopacity="1"
     objecttolerance="10"
     gridtolerance="10"
     guidetolerance="10"
     inkscape:pageopacity="0"
     inkscape:pageshadow="2"
     inkscape:window-width="640"
     inkscape:window-height="480"
     id="namedview25"
     showgrid="false"
     showguides="true"
     inkscape:guide-bbox="true"
     inkscape:snap-bbox="true"
     inkscape:bbox-paths="true"
     inkscape:bbox-nodes="true"
     inkscape:snap-bbox-edge-midpoints="true"
     inkscape:snap-bbox-midpoints="true"
     inkscape:object-paths="true"
     inkscape:snap-intersection-paths="true"
     inkscape:snap-smooth-nodes="true"
     inkscape:snap-midpoints="true"
     inkscape:snap-object-midpoints="true"
     inkscape:snap-center="true"
     inkscape:zoom="9.3619386"
     inkscape:cx="26.685722"
     inkscape:cy="25.667048"
     inkscape:current-layer="svg23" />
  <defs
     id="defs5">
    <clipPath
       id="_clipPath_Sd08GpmkdqIAy1UR239YV2vyPFIZuRyU">
      <rect
         width="48"
         height="48"
         id="rect2" />
    </clipPath>
  </defs>
  <g
     id="g2079"
     transform="translate(0.28359464,2.2844238)">
    <path
       id="rect1255-3"
       d="m 27.859981,4.6383664 a 1.9999999,1.9999999 0 0 0 -1.41407,0.58594 l -2.82812,2.82812 -1.41406,1.41407 -2.34961,2.3496096 -2.82813,2.82812 -2.82812,2.82813 h -0.002 l 0.002,0.002 -2.808601,2.80664 -0.0215,0.0215 a 1.9999999,1.9999999 0 0 0 -0.58594,1.41407 1.9999999,1.9999999 0 0 0 0.58789,1.41211 l -0.002,0.002 2.830081,2.82812 2.82812,2.82813 2.82813,2.82812 2.34961,2.34961 1.41406,1.41407 2.80859,2.80859 a 1.9999999,1.9999999 0 0 0 1.4336,0.60547 1.9999999,1.9999999 0 0 0 2,-2 1.9999999,1.9999999 0 0 0 -0.58594,-1.41406 l -1.41406,-1.41407 -2.34961,-2.34961 -2.82813,-2.82812 -2.82812,-2.82813 -2.82813,-2.82812 -1.41406,-1.41406 1.41406,-1.41407 2.82813,-2.83007 2.82812,-2.82813 2.34961,-2.34961 1.41406,-1.41406 2.8086,-2.8085896 a 1.9999999,1.9999999 0 0 0 0.60547,-1.4336 1.9999999,1.9999999 0 0 0 -2,-2 z"
       style="opacity:1;vector-effect:none;fill:#b50000;fill-opacity:1;fill-rule:evenodd;stroke:none;stroke-width:0.02907303;stroke-linecap:butt;stroke-linejoin:miter;stroke-miterlimit:4;stroke-dasharray:none;stroke-dashoffset:0;stroke-opacity:1"
       inkscape:connector-curvature="0" />
    <path
       id="rect1900"
       d="m 31.623651,8.4020364 a 1.9999999,1.9999999 0 0 0 -2,1.9999996 1.9999999,1.9999999 0 0 0 0.58593,1.41407 l 2.83008,2.82812 2.82813,2.82813 2.82812,2.83007 1.41407,1.41407 -1.41407,1.41406 -2.82812,2.82812 -2.82813,2.82813 -2.83008,2.82812 0.002,0.002 a 1.9999999,1.9999999 0 0 0 -0.58789,1.41211 1.9999999,1.9999999 0 0 0 2,2 1.9999999,1.9999999 0 0 0 1.41601,-0.58594 l 2.82813,-2.82813 2.82812,-2.82812 2.82813,-2.82813 2.80859,-2.80859 a 1.9999999,1.9999999 0 0 0 0.60547,-1.43359 1.9999999,1.9999999 0 0 0 -0.58594,-1.41407 l -0.008,-0.008 -2.82031,-2.82226 -2.82813,-2.82813 -2.82812,-2.82812 -2.82813,-2.8281296 -0.002,0.002 a 1.9999999,1.9999999 0 0 0 -1.41406,-0.58789 z"
       style="opacity:1;vector-effect:none;fill:#b50000;fill-opacity:1;fill-rule:evenodd;stroke:none;stroke-width:0.02907303;stroke-linecap:butt;stroke-linejoin:miter;stroke-miterlimit:4;stroke-dasharray:none;stroke-dashoffset:0;stroke-opacity:1"
       inkscape:connector-curvature="0" />
    <path
       id="rect1963"
       d="m 15.807241,8.4020364 a 1.9999999,1.9999999 0 0 0 -1.41211,0.58789 l -0.002,-0.002 -2.828131,2.8281296 -2.8281196,2.82812 -2.82813,2.82813 -2.80859,2.80859 -0.0215,0.0215 a 1.9999999,1.9999999 0 0 0 -0.58399,1.41407 1.9999999,1.9999999 0 0 0 0.58594,1.41211 l -0.002,0.002 2.83007,2.82812 2.82813,2.82813 2.8281196,2.82812 2.808601,2.8086 a 1.9999999,1.9999999 0 0 0 1.43359,0.60547 1.9999999,1.9999999 0 0 0 2,-2 1.9999999,1.9999999 0 0 0 -0.58594,-1.41407 l -2.82812,-2.82812 -2.828131,-2.82813 -2.8281196,-2.82812 -1.41406,-1.41406 1.41406,-1.41407 2.8281196,-2.83007 2.828131,-2.82813 2.80859,-2.80664 a 1.9999999,1.9999999 0 0 0 0.60547,-1.43555 1.9999999,1.9999999 0 0 0 -2,-1.9999996 z"
       style="opacity:1;vector-effect:none;fill:#ff4141;fill-opacity:1;fill-rule:evenodd;stroke:none;stroke-width:0.02907303;stroke-linecap:butt;stroke-linejoin:miter;stroke-miterlimit:4;stroke-dasharray:none;stroke-dashoffset:0;stroke-opacity:1"
       inkscape:connector-curvature="0" />
  </g>
</svg>
