<?xml version="1.0" encoding="UTF-8" standalone="no"?>
<!-- Generator: Gravit.io -->

<svg
   xmlns:dc="http://purl.org/dc/elements/1.1/"
   xmlns:cc="http://creativecommons.org/ns#"
   xmlns:rdf="http://www.w3.org/1999/02/22-rdf-syntax-ns#"
   xmlns:svg="http://www.w3.org/2000/svg"
   xmlns="http://www.w3.org/2000/svg"
   xmlns:xlink="http://www.w3.org/1999/xlink"
   xmlns:sodipodi="http://sodipodi.sourceforge.net/DTD/sodipodi-0.dtd"
   xmlns:inkscape="http://www.inkscape.org/namespaces/inkscape"
   style="isolation:isolate"
   viewBox="0 0 48 48"
   width="48"
   height="48"
   version="1.1"
   id="svg23"
   sodipodi:docname="application-x-clementine.svg"
   inkscape:version="0.92.4 (unknown)">
  <metadata
     id="metadata27">
    <rdf:RDF>
      <cc:Work
         rdf:about="">
        <dc:format>image/svg+xml</dc:format>
        <dc:type
           rdf:resource="http://purl.org/dc/dcmitype/StillImage" />
      </cc:Work>
    </rdf:RDF>
  </metadata>
  <sodipodi:namedview
     pagecolor="#ffffff"
     bordercolor="#666666"
     borderopacity="1"
     objecttolerance="10"
     gridtolerance="10"
     guidetolerance="10"
     inkscape:pageopacity="0"
     inkscape:pageshadow="2"
     inkscape:window-width="640"
     inkscape:window-height="480"
     id="namedview25"
     showgrid="false"
     showguides="true"
     inkscape:guide-bbox="true"
     inkscape:snap-bbox="true"
     inkscape:bbox-paths="true"
     inkscape:bbox-nodes="true"
     inkscape:snap-bbox-edge-midpoints="true"
     inkscape:snap-bbox-midpoints="true"
     inkscape:object-paths="true"
     inkscape:snap-intersection-paths="true"
     inkscape:snap-smooth-nodes="true"
     inkscape:snap-midpoints="true"
     inkscape:snap-object-midpoints="true"
     inkscape:snap-center="true"
     inkscape:zoom="1"
     inkscape:cx="-7.6935048"
     inkscape:cy="15.0153"
     inkscape:current-layer="svg23" />
  <defs
     id="defs5">
    <linearGradient
       inkscape:collect="always"
       id="linearGradient920">
      <stop
         style="stop-color:#ffff3e;stop-opacity:1"
         offset="0"
         id="stop916" />
      <stop
         style="stop-color:#ff9900;stop-opacity:1"
         offset="1"
         id="stop918" />
    </linearGradient>
    <clipPath
       id="_clipPath_Sd08GpmkdqIAy1UR239YV2vyPFIZuRyU">
      <rect
         width="48"
         height="48"
         id="rect2" />
    </clipPath>
    <linearGradient
       inkscape:collect="always"
       xlink:href="#linearGradient920"
       id="linearGradient922"
       x1="-2.4231493"
       y1="47.865658"
       x2="34.112366"
       y2="17.471943"
       gradientUnits="userSpaceOnUse" />
    <linearGradient
       inkscape:collect="always"
       xlink:href="#linearGradient920"
       id="linearGradient824"
       gradientUnits="userSpaceOnUse"
       x1="-2.4231493"
       y1="47.865658"
       x2="34.112366"
       y2="17.471943"
       gradientTransform="translate(0.00937044,-0.01267965)" />
  </defs>
  <g
     id="g914"
     style="fill:url(#linearGradient922);fill-opacity:1">
    <path
       inkscape:connector-curvature="0"
       id="path4101"
       d="m 12.95186,4.971797 a 1.9999999,1.9999999 0 0 0 -0.01763,0.012432 1.9999999,1.9999999 0 0 0 -0.14442,0.1014222 1.9999999,1.9999999 0 0 0 -0.111756,0.09159 1.9999999,1.9999999 0 0 0 -0.0051,0.00293 22,22 0 0 0 -7.5653218,7.5996728 1.9999999,1.9999999 0 0 0 -0.1535532,0.226226 1.9999999,1.9999999 0 0 0 0.7319162,2.732556 l 1.7213019,0.993104 3.4617979,1.99994 3.464471,2.000642 3.464473,2.000643 0.304575,0.175976 a 5.9999157,5.9999157 0 0 0 -0.107792,1.090639 5.9999157,5.9999157 0 0 0 1.442048,3.892233 l -1.176271,2.036842 -0.998628,1.73126 -1.998953,3.463496 -2.000642,3.464473 -0.99863,1.731259 a 1.9999999,1.9999999 0 0 0 0.731914,2.732558 1.9999999,1.9999999 0 0 0 0.377449,0.165474 22,22 0 0 0 10.621102,2.783004 22,22 0 0 0 18.831296,-10.691832 1.9999999,1.9999999 0 0 0 0.221258,-0.308171 1.9999999,1.9999999 0 0 0 -0.733607,-2.731581 l -1.732236,-1.000321 -3.463496,-1.998951 -3.464473,-2.000643 -1.732236,-1.000321 -2.03681,-1.1763 a 5.9999157,5.9999157 0 0 0 0.109512,-1.091654 5.9999157,5.9999157 0 0 0 -1.443025,-3.893925 l 0.755346,-1.308891 1.418867,-2.456512 2.000643,-3.464473 0.99863,-1.731259 2.000643,-3.464473 A 1.9999999,1.9999999 0 0 0 34.992588,4.9483051 1.9999999,1.9999999 0 0 0 34.84277,4.872431 22,22 0 0 0 34.54158,4.6944974 22,22 0 0 0 23.994035,1.9998307 a 1.9999999,1.9999999 0 0 0 -0.0017,9.812e-4 1.9999999,1.9999999 0 0 0 -1.998445,1.9995298 1.9999999,1.9999999 0 0 0 1.998816,2.001112 17.999961,17.999961 0 0 1 7.206901,1.5178752 l -0.939258,1.6270644 -0.999606,1.7295677 -2.000643,3.464473 -1.998952,3.463497 -1.00032,1.732235 0.0027,7.19e-4 a 1.9999999,1.9999999 0 0 0 -0.270753,0.999792 1.9999999,1.9999999 0 0 0 1.002407,1.728406 l -0.0024,0.0036 a 1.9999857,1.9999857 0 0 1 1.001705,1.731059 1.9999857,1.9999857 0 0 1 -0.269063,0.998816 l 0.0036,0.0024 a 1.9999999,1.9999999 0 0 0 -0.269062,0.998815 1.9999999,1.9999999 0 0 0 1.001692,1.731074 l -0.0017,9.81e-4 1.73126,0.998628 3.464472,2.000645 3.464473,2.000643 3.34837,1.932356 a 17.999961,17.999961 0 0 1 -14.476355,7.33633 17.999961,17.999961 0 0 1 -7.198705,-1.527116 l 1.93405,-3.349345 1.997245,-3.46253 1.00032,-1.732235 2.000644,-3.464474 -0.0027,-7.18e-4 a 1.9999999,1.9999999 0 0 0 0.270754,-0.999791 1.9999999,1.9999999 0 0 0 -0.948976,-1.698364 l 0.0024,-0.0036 a 1.9999857,1.9999857 0 0 1 -1.053431,-1.762095 1.9999857,1.9999857 0 0 1 0.269061,-0.998817 l -0.0036,-0.0024 A 1.9999999,1.9999999 0 0 0 22.5283,22.000129 1.9999999,1.9999999 0 0 0 21.526607,20.269055 l 0.0017,-9.82e-4 -1.731261,-0.99863 -3.464472,-2.000641 -3.464473,-2.000644 -1.721304,-0.993102 0.0017,-9.81e-4 -1.6144415,-0.933014 A 17.999961,17.999961 0 0 1 13.33144,9.5316082 l 0.930665,1.6119578 0.993163,1.720211 1.5,2.598075 0.0017,-9.81e-4 a 1.9999999,1.9999999 0 0 0 0.730038,0.733213 1.9999999,1.9999999 0 0 0 2.732559,-0.731915 1.9999999,1.9999999 0 0 0 -0.0019,-1.999345 l 0.0017,-9.82e-4 -0.02344,-0.04059 L 18.219364,9.9977504 16.719366,7.3996738 15.726201,5.6794621 a 1.9999999,1.9999999 0 0 0 -0.04928,-0.077539 1.9999999,1.9999999 0 0 0 -0.0068,-0.01189 1.9999999,1.9999999 0 0 0 -0.0039,-0.00677 1.9999999,1.9999999 0 0 0 -0.06777,-0.09394 1.9999999,1.9999999 0 0 0 -0.05507,-0.071954 1.9999999,1.9999999 0 0 0 -0.118339,-0.134649 1.9999999,1.9999999 0 0 0 -0.0046,-0.00414 1.9999999,1.9999999 0 0 0 -0.102904,-0.0962 1.9999999,1.9999999 0 0 0 -0.06176,-0.052295 1.9999999,1.9999999 0 0 0 -0.01019,-0.00992 1.9999999,1.9999999 0 0 0 -0.131015,-0.098008 1.9999999,1.9999999 0 0 0 -0.01,-0.0055 1.9999999,1.9999999 0 0 0 -0.09815,-0.060592 1.9999999,1.9999999 0 0 0 -0.0136,-0.0079 1.9999999,1.9999999 0 0 0 -0.009,-0.00381 1.9999999,1.9999999 0 0 0 -0.136464,-0.072321 1.9999999,1.9999999 0 0 0 -0.06287,-0.02683 1.9999999,1.9999999 0 0 0 -0.131779,-0.052469 1.9999999,1.9999999 0 0 0 -0.02332,-0.00908 1.9999999,1.9999999 0 0 0 -0.01698,-0.00599 1.9999999,1.9999999 0 0 0 -0.146743,-0.039319 1.9999999,1.9999999 0 0 0 -0.06039,-0.014751 1.9999999,1.9999999 0 0 0 -0.117583,-0.02007 1.9999999,1.9999999 0 0 0 -0.10229,-0.013112 1.9999999,1.9999999 0 0 0 -0.07392,-0.0069 1.9999999,1.9999999 0 0 0 -0.123566,-0.0031 1.9999999,1.9999999 0 0 0 -0.103909,0.0036 1.9999999,1.9999999 0 0 0 -0.08016,0.0057 1.9999999,1.9999999 0 0 0 -0.109438,0.013569 1.9999999,1.9999999 0 0 0 -0.09948,0.019099 1.9999999,1.9999999 0 0 0 -0.09584,0.0215 1.9999999,1.9999999 0 0 0 -0.08953,0.024623 1.9999999,1.9999999 0 0 0 -0.10982,0.036338 1.9999999,1.9999999 0 0 0 -0.08028,0.032817 1.9999999,1.9999999 0 0 0 -0.09284,0.04232 1.9999999,1.9999999 0 0 0 -0.115543,0.05769 1.9999999,1.9999999 0 0 0 -0.03045,0.01758 1.9999999,1.9999999 0 0 0 -0.02875,0.016599 z"
       style="opacity:1;vector-effect:none;fill:url(#linearGradient824);fill-opacity:1;fill-rule:evenodd;stroke:none;stroke-width:4.42491674;stroke-linecap:butt;stroke-linejoin:miter;stroke-miterlimit:4;stroke-dasharray:none;stroke-dashoffset:0;stroke-opacity:1;paint-order:normal" />
    <path
       inkscape:connector-curvature="0"
       id="rect3874"
       d="m 1.9967208,24.075868 a 1.9999999,1.9999999 0 0 0 0.033203,0.30664 l 0.00781,0.240235 c 0.1186199,3.4827 0.9789394,6.718875 2.599609,9.765624 0.082986,0.156014 0.1038577,0.18887 0.1621095,0.294923 a 1.9999999,1.9999999 0 0 0 0.1542973,0.337891 1.9999999,1.9999999 0 0 0 2.7324212,0.732421 l 1.7207029,-0.99414 1.1e-6,0.002 3.4648441,-2 3.462891,-2.000001 -0.002,-0.002 a 1.9999999,1.9999999 0 0 0 0.734375,-0.730468 1.9999999,1.9999999 0 0 0 -0.732422,-2.732422 1.9999999,1.9999999 0 0 0 -2.033202,0.01953 l -0.0078,0.0039 a 1.9999999,1.9999999 0 0 1 -0.002,0.002 l -3.419876,1.974561 -1.7226562,0.994142 -1.623047,0.9375 C 6.804904,29.580474 6.3219955,27.778104 6.1256273,26.009461 l 1.8789066,10e-7 1.9882808,0 3.9999993,0 -1.6e-5,-0.002 a 1.9999999,1.9999999 0 0 0 1,-0.265625 1.9999999,1.9999999 0 0 0 0.73047,-2.732423 1.9999999,1.9999999 0 0 0 -1.73047,-0.998046 l -1.6e-5,-0.002 -3.9999993,10e-7 -4.0000003,-10e-7 -1.9882809,0 a 1.9999999,1.9999999 0 0 0 -1.7695316,1.072265 1.9999999,1.9999999 0 0 0 -0.072266,0.150391 1.9999999,1.9999999 0 0 0 -0.00194,0.0078 1.9999999,1.9999999 0 0 0 -0.1640626,0.835937 z"
       style="fill:url(#linearGradient922);fill-opacity:1;fill-rule:evenodd;stroke:none;stroke-width:0.54634154" />
  </g>
</svg>
