<?xml version="1.0" encoding="UTF-8" standalone="no"?>
<!-- Generator: Gravit.io -->

<svg
   xmlns:dc="http://purl.org/dc/elements/1.1/"
   xmlns:cc="http://creativecommons.org/ns#"
   xmlns:rdf="http://www.w3.org/1999/02/22-rdf-syntax-ns#"
   xmlns:svg="http://www.w3.org/2000/svg"
   xmlns="http://www.w3.org/2000/svg"
   xmlns:xlink="http://www.w3.org/1999/xlink"
   xmlns:sodipodi="http://sodipodi.sourceforge.net/DTD/sodipodi-0.dtd"
   xmlns:inkscape="http://www.inkscape.org/namespaces/inkscape"
   style="isolation:isolate"
   viewBox="0 0 48 48"
   width="48"
   height="48"
   version="1.1"
   id="svg23"
   sodipodi:docname="bittorrent-sync.svg"
   inkscape:version="0.92.4 (unknown)">
  <metadata
     id="metadata27">
    <rdf:RDF>
      <cc:Work
         rdf:about="">
        <dc:format>image/svg+xml</dc:format>
        <dc:type
           rdf:resource="http://purl.org/dc/dcmitype/StillImage" />
      </cc:Work>
    </rdf:RDF>
  </metadata>
  <sodipodi:namedview
     pagecolor="#ffffff"
     bordercolor="#666666"
     borderopacity="1"
     objecttolerance="10"
     gridtolerance="10"
     guidetolerance="10"
     inkscape:pageopacity="0"
     inkscape:pageshadow="2"
     inkscape:window-width="640"
     inkscape:window-height="480"
     id="namedview25"
     showgrid="false"
     showguides="true"
     inkscape:guide-bbox="true"
     inkscape:snap-bbox="true"
     inkscape:bbox-paths="true"
     inkscape:bbox-nodes="true"
     inkscape:snap-bbox-edge-midpoints="true"
     inkscape:snap-bbox-midpoints="true"
     inkscape:object-paths="true"
     inkscape:snap-intersection-paths="true"
     inkscape:snap-smooth-nodes="true"
     inkscape:snap-midpoints="true"
     inkscape:snap-object-midpoints="true"
     inkscape:snap-center="true"
     inkscape:zoom="7.1038257"
     inkscape:cx="12.111073"
     inkscape:cy="22.022886"
     inkscape:current-layer="svg23" />
  <defs
     id="defs5">
    <linearGradient
       inkscape:collect="always"
       id="linearGradient840">
      <stop
         style="stop-color:#ff9900;stop-opacity:1;"
         offset="0"
         id="stop836" />
      <stop
         style="stop-color:#ff4141;stop-opacity:1"
         offset="1"
         id="stop838" />
    </linearGradient>
    <clipPath
       id="_clipPath_Sd08GpmkdqIAy1UR239YV2vyPFIZuRyU">
      <rect
         width="48"
         height="48"
         id="rect2" />
    </clipPath>
    <linearGradient
       inkscape:collect="always"
       xlink:href="#linearGradient840"
       id="linearGradient842"
       x1="30.829086"
       y1="18.51"
       x2="30.829086"
       y2="45.600853"
       gradientUnits="userSpaceOnUse" />
  </defs>
  <g
     id="g834"
     style="fill:url(#linearGradient842);fill-opacity:1">
    <path
       sodipodi:nodetypes="ccsccssscccccccccccccccccssccccccccccccscccccccccccccccccccccscccccccssccccccccc"
       inkscape:connector-curvature="0"
       id="rect891-47-5-6"
       d="m 5.106487,2.4295713 v 0.015118 c -1.10457,-0.0014 -2,0.8940095 -2,1.9985764 v 7.1003342 4.000024 3.999988 c 0,1.104567 0.89543,2.000012 2,2.000012 1.10457,0 2,-0.895445 2,-2.000012 V 15.543624 11.5436 6.4295966 h 1.003906 0.996094 3.003907 3.999999 4 4 4.000001 3.999999 1.042969 v 5.1140034 4.000024 3.999988 3.999987 4.000025 3.966766 c 0,1.104567 0.895431,2.000012 2,2.000012 h 2.912109 l -2.242187,2.242167 -2.828124,2.828145 0.0078,0.0076 -2.177733,2.179692 -1.410157,-1.41018 -2.828125,-2.828107 -2.828125,-2.828145 -0.191407,-0.191244 h 3.19728 v -3.999685 h -4 -4 c -1.104569,0 -2,0.895408 -2,1.999975 5.98e-4,0.529738 0.211325,1.037593 0.585938,1.412107 l -0.002,0.002 0.765625,0.763691 -0.01368,0.01512 2.828126,2.828145 2.830077,2.828107 2.828126,2.828145 2.792969,2.792958 c 0.0045,0.0038 0.0091,0.01134 0.01368,0.01512 l 0.02147,0.0189 c 0.375009,0.374929 0.883659,0.585864 1.414063,0.58594 0.530403,-7.6e-5 1.039051,-0.210898 1.414063,-0.58594 l 2.828124,-2.828145 -0.0039,-0.0038 0.765624,-0.763691 -0.0098,-0.01134 2.828126,-2.828145 2.828127,-2.828107 2.808594,-2.808605 c 0.387084,-0.37644 0.605461,-0.893593 0.605469,-1.433612 0,-1.104567 -0.895431,-1.999975 -2.000001,-1.999975 H 39.153272 37.153271 V 27.509457 23.542654 19.542667 15.542679 11.542655 4.4286769 c 0,-1.104567 -0.919017,-2.2270489 -2,-2.0000127 h -3.042968 -4 -4.000001 -4 -4 -3.999954 -3.003907 -0.996093 z"
       style="vector-effect:none;fill:url(#linearGradient842);fill-opacity:1;fill-rule:evenodd;stroke:none;stroke-width:0.02907307;stroke-linecap:butt;stroke-linejoin:miter;stroke-miterlimit:4;stroke-dasharray:none;stroke-dashoffset:0;stroke-opacity:1;paint-order:normal" />
    <path
       inkscape:connector-curvature="0"
       id="path830"
       d="m 9.9664673,24.38106 c -0.082352,-0.04797 -0.087096,-0.468009 -0.087096,-7.710998 0,-7.5225467 0.00173,-7.6611954 0.096267,-7.7117896 0.1277907,-0.068391 3.0649167,-0.068229 3.7318007,2.059e-4 1.072583,0.1100679 1.952238,0.5427082 2.696636,1.3262847 0.765722,0.806024 1.131158,1.65693 1.17715,2.740955 0.05791,1.364963 -0.325055,2.381595 -1.239628,3.290746 l -0.356433,0.35432 0.356433,0.354319 c 0.914573,0.909151 1.297539,1.925784 1.239628,3.290746 -0.03908,0.921078 -0.308493,1.666408 -0.857963,2.373544 -0.768853,0.989468 -1.773884,1.559743 -2.986759,1.694747 -0.595902,0.06633 -3.655156,0.06383 -3.7700351,-0.0031 z m 3.5951547,-1.888925 c 0.502446,-0.05291 0.924344,-0.211013 1.273261,-0.477145 0.241988,-0.184574 0.581421,-0.676427 0.717126,-1.03915 0.137808,-0.36834 0.185945,-1.032769 0.103557,-1.429352 -0.183816,-0.884809 -0.992771,-1.689928 -1.884187,-1.875254 -0.145056,-0.03016 -0.631387,-0.05483 -1.080734,-0.05483 -0.756802,0 -0.820791,0.0071 -0.868515,0.09627 -0.05954,0.111256 -0.0724,4.622128 -0.01343,4.713168 0.02011,0.03105 0.08136,0.06765 0.136103,0.08132 0.17886,0.04469 1.134077,0.03581 1.61682,-0.01503 z m 0.353114,-6.858211 c 1.740062,-0.454234 2.381093,-2.668284 1.155743,-3.991809 -0.326882,-0.353071 -0.665764,-0.575879 -1.064772,-0.700064 -0.252086,-0.07846 -0.460106,-0.09429 -1.238818,-0.09429 -0.807471,0 -0.940005,0.0108 -0.96607,0.07872 -0.05445,0.141901 -0.03425,4.598588 0.02131,4.702413 0.04797,0.08963 0.110557,0.09607 0.908292,0.0934 0.642076,-0.0022 0.938849,-0.0243 1.184314,-0.08837 z"
       style="opacity:1;vector-effect:none;fill:url(#linearGradient842);fill-opacity:1;fill-rule:evenodd;stroke:none;stroke-width:0.02907307;stroke-linecap:butt;stroke-linejoin:miter;stroke-miterlimit:4;stroke-dasharray:none;stroke-dashoffset:0;stroke-opacity:1;paint-order:normal" />
  </g>
</svg>
