<?xml version="1.0" encoding="UTF-8" standalone="no"?>
<!-- Generator: Gravit.io -->

<svg
   xmlns:dc="http://purl.org/dc/elements/1.1/"
   xmlns:cc="http://creativecommons.org/ns#"
   xmlns:rdf="http://www.w3.org/1999/02/22-rdf-syntax-ns#"
   xmlns:svg="http://www.w3.org/2000/svg"
   xmlns="http://www.w3.org/2000/svg"
   xmlns:xlink="http://www.w3.org/1999/xlink"
   xmlns:sodipodi="http://sodipodi.sourceforge.net/DTD/sodipodi-0.dtd"
   xmlns:inkscape="http://www.inkscape.org/namespaces/inkscape"
   style="isolation:isolate"
   viewBox="0 0 48 48"
   width="48"
   height="48"
   version="1.1"
   id="svg23"
   sodipodi:docname="ark.svg"
   inkscape:version="0.92.4 (unknown)">
  <metadata
     id="metadata27">
    <rdf:RDF>
      <cc:Work
         rdf:about="">
        <dc:format>image/svg+xml</dc:format>
        <dc:type
           rdf:resource="http://purl.org/dc/dcmitype/StillImage" />
      </cc:Work>
    </rdf:RDF>
  </metadata>
  <sodipodi:namedview
     pagecolor="#ffffff"
     bordercolor="#666666"
     borderopacity="1"
     objecttolerance="10"
     gridtolerance="10"
     guidetolerance="10"
     inkscape:pageopacity="0"
     inkscape:pageshadow="2"
     inkscape:window-width="640"
     inkscape:window-height="480"
     id="namedview25"
     showgrid="false"
     showguides="true"
     inkscape:guide-bbox="true"
     inkscape:snap-bbox="true"
     inkscape:bbox-paths="true"
     inkscape:bbox-nodes="true"
     inkscape:snap-bbox-edge-midpoints="true"
     inkscape:snap-bbox-midpoints="true"
     inkscape:object-paths="true"
     inkscape:snap-intersection-paths="true"
     inkscape:snap-smooth-nodes="true"
     inkscape:snap-midpoints="true"
     inkscape:snap-object-midpoints="true"
     inkscape:snap-center="true"
     inkscape:zoom="8.4687501"
     inkscape:cx="-0.51209933"
     inkscape:cy="30.644037"
     inkscape:current-layer="svg23" />
  <defs
     id="defs5">
    <linearGradient
       inkscape:collect="always"
       id="linearGradient965">
      <stop
         style="stop-color:#bdcdd4;stop-opacity:1"
         offset="0"
         id="stop961" />
      <stop
         id="stop973"
         offset="0.30000001"
         style="stop-color:#bdcdd4;stop-opacity:1" />
      <stop
         style="stop-color:#364e59;stop-opacity:1"
         offset="1"
         id="stop963" />
    </linearGradient>
    <clipPath
       id="_clipPath_Sd08GpmkdqIAy1UR239YV2vyPFIZuRyU">
      <rect
         width="48"
         height="48"
         id="rect2" />
    </clipPath>
    <radialGradient
       inkscape:collect="always"
       xlink:href="#linearGradient965"
       id="radialGradient822"
       cx="24"
       cy="24"
       fx="24"
       fy="24"
       r="22"
       gradientUnits="userSpaceOnUse"
       gradientTransform="matrix(0.73163368,0,0,0.88728615,6.4407915,2.7051326)" />
  </defs>
  <path
     style="opacity:1;fill:url(#radialGradient822);fill-opacity:1;fill-rule:evenodd;stroke:none;stroke-width:0.54634154"
     d="m 3.9999999,1.9999999 a 1.9999999,1.9999999 0 0 0 -2,2 v 4 V 12 v 4 4 4 4 4 4 4 4 a 1.9999999,1.9999999 0 0 0 2,2 H 8.0000001 12 16 a 1.9999999,1.9999999 0 0 0 2,-2 1.9999999,1.9999999 0 0 0 -2,-2 h -4 -3.9999999 -2 v -2 -4 -4 -4 -4 -4 -4 -4 -4.0000001 -2 h 2 H 12 h 4 4 2 v 2 A 1.9999999,1.9999999 0 0 0 22.585938,9.414062 L 23.757812,10.585937 25.171875,12 l -1.414063,1.414062 -1.136718,1.136719 a 1.9999999,1.9999999 0 0 0 -0.01563,0.01367 l -0.01953,0.02148 A 1.9999999,1.9999999 0 0 0 22,16 a 1.9999999,1.9999999 0 0 0 0.585938,1.414062 l 1.171874,1.171875 1.414063,1.416016 -1.414063,1.412109 -2.341796,2.34375 -2.830079,2.828126 A 1.9999999,1.9999999 0 0 0 18,28 1.9999999,1.9999999 0 0 0 18.585937,29.414062 L 21.171875,32 19.757812,33.414062 18.585937,34.585938 A 1.9999999,1.9999999 0 0 0 18,36 1.9999999,1.9999999 0 0 0 18.585937,37.414062 L 19.757812,38.585938 22,40.828125 V 44 a 1.9999999,1.9999999 0 0 0 2,2 h 4 4 4 4 4 a 1.9999999,1.9999999 0 0 0 2,-2 v -4 -4 -4 -4 -4 -4 -4 -4 -4.0000001 -4 a 1.9999999,1.9999999 0 0 0 -2,-2 h -4 -4 -4 a 1.9999999,1.9999999 0 0 0 -2,2 1.9999999,1.9999999 0 0 0 2,2 h 4 4 2 v 2 V 12 v 4 4 4 4 4 4 4 2 h -2 -4 -4 -4 -2 v -2 a 1.9999999,1.9999999 0 0 0 -0.587891,-1.412109 l 0.002,-0.002 -1.171874,-1.171876 -1.414063,-1.414062 1.414063,-1.414062 1.171874,-1.171876 -0.002,-0.002 A 1.9999999,1.9999999 0 0 0 26,32 1.9999999,1.9999999 0 0 0 25.414062,30.585938 L 24.242188,29.414062 22.828125,28 l 1.416016,-1.414062 2.341797,-2.34375 0.484374,-0.484376 h 0.002 l 2.341796,-2.34375 -0.002,-0.002 A 1.9999999,1.9999999 0 0 0 30,20 1.9999999,1.9999999 0 0 0 29.414062,18.585937 L 26.828125,16 l 1.414063,-1.414063 1.171874,-1.171875 -0.002,-0.002 A 1.9999999,1.9999999 0 0 0 30,12 1.9999999,1.9999999 0 0 0 29.414062,10.585937 L 26.583984,7.7578124 26,7.1718749 v -3.171875 a 1.9999999,1.9999999 0 0 0 -2,-2 H 20 16 12 8.0000001 Z"
     id="rect4261"
     inkscape:connector-curvature="0" />
</svg>
