<?xml version="1.0" encoding="UTF-8" standalone="no"?>
<!-- Generator: Gravit.io -->

<svg
   xmlns:dc="http://purl.org/dc/elements/1.1/"
   xmlns:cc="http://creativecommons.org/ns#"
   xmlns:rdf="http://www.w3.org/1999/02/22-rdf-syntax-ns#"
   xmlns:svg="http://www.w3.org/2000/svg"
   xmlns="http://www.w3.org/2000/svg"
   xmlns:xlink="http://www.w3.org/1999/xlink"
   xmlns:sodipodi="http://sodipodi.sourceforge.net/DTD/sodipodi-0.dtd"
   xmlns:inkscape="http://www.inkscape.org/namespaces/inkscape"
   style="isolation:isolate"
   viewBox="0 0 48 48"
   width="48"
   height="48"
   version="1.1"
   id="svg23"
   sodipodi:docname="cantata.svg"
   inkscape:version="0.92.4 (unknown)">
  <metadata
     id="metadata27">
    <rdf:RDF>
      <cc:Work
         rdf:about="">
        <dc:format>image/svg+xml</dc:format>
        <dc:type
           rdf:resource="http://purl.org/dc/dcmitype/StillImage" />
      </cc:Work>
    </rdf:RDF>
  </metadata>
  <sodipodi:namedview
     pagecolor="#ffffff"
     bordercolor="#666666"
     borderopacity="1"
     objecttolerance="10"
     gridtolerance="10"
     guidetolerance="10"
     inkscape:pageopacity="0"
     inkscape:pageshadow="2"
     inkscape:window-width="640"
     inkscape:window-height="480"
     id="namedview25"
     showgrid="false"
     showguides="true"
     inkscape:guide-bbox="true"
     inkscape:snap-bbox="true"
     inkscape:bbox-paths="true"
     inkscape:bbox-nodes="true"
     inkscape:snap-bbox-edge-midpoints="true"
     inkscape:snap-bbox-midpoints="true"
     inkscape:object-paths="true"
     inkscape:snap-intersection-paths="true"
     inkscape:snap-smooth-nodes="true"
     inkscape:snap-midpoints="true"
     inkscape:snap-object-midpoints="true"
     inkscape:snap-center="true"
     inkscape:zoom="8.0000001"
     inkscape:cx="11.885312"
     inkscape:cy="16.775141"
     inkscape:current-layer="svg23" />
  <defs
     id="defs5">
    <linearGradient
       inkscape:collect="always"
       id="linearGradient847">
      <stop
         style="stop-color:#19ff56;stop-opacity:1"
         offset="0"
         id="stop843" />
      <stop
         id="stop851"
         offset="0.22624262"
         style="stop-color:#3a7638;stop-opacity:1" />
      <stop
         style="stop-color:#00df59;stop-opacity:1"
         offset="1"
         id="stop845" />
    </linearGradient>
    <clipPath
       id="_clipPath_Sd08GpmkdqIAy1UR239YV2vyPFIZuRyU">
      <rect
         width="48"
         height="48"
         id="rect2" />
    </clipPath>
    <linearGradient
       inkscape:collect="always"
       xlink:href="#linearGradient847"
       id="linearGradient849"
       x1="2"
       y1="24.00293"
       x2="44.017578"
       y2="24.00293"
       gradientUnits="userSpaceOnUse" />
  </defs>
  <g
     id="g841"
     style="fill:url(#linearGradient849);fill-opacity:1">
    <path
       id="path1563"
       d="M 23.763672 2.0058594 C 11.722736 2.1331286 1.9999999 11.928945 2 24 C 2 31.496308 5.758187 38.10317 11.484375 42.074219 C 11.124467 41.671509 10.835292 41.226804 10.634766 40.742188 C 10.030935 39.283366 10.116964 37.665627 10.75 36.097656 C 7.730553 32.800422 6.0073475 28.503091 6 24 C 5.9999786 14.138732 13.932789 6.1416613 23.763672 6.0136719 L 23.763672 2.0058594 z M 27.564453 2.2929688 C 27.992262 3.3402945 28.524912 4.4760726 29.005859 4.9570312 C 29.81258 5.7637433 32.175174 7.0997846 34.296875 9.2734375 C 35.161031 9.8771162 35.966609 10.554574 36.707031 11.292969 L 36.714844 11.285156 A 1.9999999 1.9999999 0 0 0 38.126953 11.871094 A 1.9999999 1.9999999 0 0 0 40.126953 9.8710938 A 1.9999999 1.9999999 0 0 0 39.541016 8.4589844 L 39.548828 8.4511719 C 36.363049 5.2672524 32.210771 3.0504204 27.564453 2.2929688 z M 38.142578 36.142578 A 1.9999999 1.9999999 0 0 0 36.728516 36.728516 C 33.85931 39.597721 30.023835 41.49894 25.753906 41.912109 C 24.876095 42.552786 23.976665 43.187439 23.269531 43.595703 C 21.179369 44.802459 18.266632 45.004578 15.730469 44.388672 C 18.283616 45.426118 21.074374 46 24 46 C 30.057736 46 35.543001 43.550977 39.521484 39.589844 C 39.525684 39.585644 39.530886 39.582345 39.535156 39.578125 A 1.9999999 1.9999999 0 0 0 39.556641 39.556641 A 1.9999999 1.9999999 0 0 0 40.142578 38.142578 A 1.9999999 1.9999999 0 0 0 38.142578 36.142578 z "
       style="opacity:1;vector-effect:none;fill:url(#linearGradient849);fill-opacity:1;fill-rule:evenodd;stroke:none;stroke-width:1.7855072px;stroke-linecap:butt;stroke-linejoin:miter;stroke-miterlimit:4;stroke-dasharray:none;stroke-dashoffset:0;stroke-opacity:1;paint-order:normal" />
    <path
       sodipodi:nodetypes="cccscscsccccc"
       style="fill:url(#linearGradient849);fill-rule:evenodd;stroke:none;stroke-width:0.99999994;fill-opacity:1"
       inkscape:connector-curvature="0"
       d="m 24.505676,3.2317407 3,1.0000252 c 0,0 1.242,3.8219717 2.242,4.8219969 1.581,1.5809772 9.141926,5.1779912 9.141926,13.1780042 0,6 -3.999998,9.999987 -8.999998,12.999987 5,-5.000012 7,-6.999987 7,-12.999987 0,-8.000013 -8.383566,-9 -8.383566,-9 v 21.774992 c 0,2.225008 -3.097362,5.917984 -6.519362,7.339011 -4.338,1.796976 -8.883,0.770986 -10.15,-2.290998 -1.267,-3.061002 1.22,-6.999005 5.557,-8.795037 2.591,-1.07399 5.02,-1.32 7.113,-0.416995 z"
       id="path35" />
  </g>
</svg>
