<?xml version="1.0" encoding="UTF-8" standalone="no"?>
<!-- Generator: Gravit.io -->

<svg
   xmlns:dc="http://purl.org/dc/elements/1.1/"
   xmlns:cc="http://creativecommons.org/ns#"
   xmlns:rdf="http://www.w3.org/1999/02/22-rdf-syntax-ns#"
   xmlns:svg="http://www.w3.org/2000/svg"
   xmlns="http://www.w3.org/2000/svg"
   xmlns:xlink="http://www.w3.org/1999/xlink"
   xmlns:sodipodi="http://sodipodi.sourceforge.net/DTD/sodipodi-0.dtd"
   xmlns:inkscape="http://www.inkscape.org/namespaces/inkscape"
   style="isolation:isolate"
   viewBox="0 0 48 48"
   width="48"
   height="48"
   version="1.1"
   id="svg23"
   sodipodi:docname="postman.svg"
   inkscape:version="0.92.4 (unknown)">
  <metadata
     id="metadata27">
    <rdf:RDF>
      <cc:Work
         rdf:about="">
        <dc:format>image/svg+xml</dc:format>
        <dc:type
           rdf:resource="http://purl.org/dc/dcmitype/StillImage" />
      </cc:Work>
    </rdf:RDF>
  </metadata>
  <sodipodi:namedview
     pagecolor="#ffffff"
     bordercolor="#666666"
     borderopacity="1"
     objecttolerance="10"
     gridtolerance="10"
     guidetolerance="10"
     inkscape:pageopacity="0"
     inkscape:pageshadow="2"
     inkscape:window-width="640"
     inkscape:window-height="480"
     id="namedview25"
     showgrid="false"
     showguides="true"
     inkscape:guide-bbox="true"
     inkscape:snap-bbox="true"
     inkscape:bbox-paths="true"
     inkscape:bbox-nodes="true"
     inkscape:snap-bbox-edge-midpoints="true"
     inkscape:snap-bbox-midpoints="true"
     inkscape:object-paths="true"
     inkscape:snap-intersection-paths="true"
     inkscape:snap-smooth-nodes="true"
     inkscape:snap-midpoints="true"
     inkscape:snap-object-midpoints="true"
     inkscape:snap-center="true"
     inkscape:zoom="10.349331"
     inkscape:cx="27.428691"
     inkscape:cy="23.834718"
     inkscape:current-layer="svg23" />
  <defs
     id="defs5">
    <linearGradient
       inkscape:collect="always"
       id="linearGradient853">
      <stop
         style="stop-color:#ffffff;stop-opacity:1"
         offset="0"
         id="stop849" />
      <stop
         style="stop-color:#364e59;stop-opacity:1"
         offset="1"
         id="stop851" />
    </linearGradient>
    <linearGradient
       inkscape:collect="always"
       id="linearGradient845">
      <stop
         style="stop-color:#ff6600;stop-opacity:1"
         offset="0"
         id="stop841" />
      <stop
         style="stop-color:#ffff3e;stop-opacity:1"
         offset="1"
         id="stop843" />
    </linearGradient>
    <clipPath
       id="_clipPath_Sd08GpmkdqIAy1UR239YV2vyPFIZuRyU">
      <rect
         width="48"
         height="48"
         id="rect2" />
    </clipPath>
    <linearGradient
       inkscape:collect="always"
       xlink:href="#linearGradient845"
       id="linearGradient847"
       x1="14.308236"
       y1="40.13908"
       x2="32.409969"
       y2="10.25548"
       gradientUnits="userSpaceOnUse" />
    <linearGradient
       inkscape:collect="always"
       xlink:href="#linearGradient853"
       id="linearGradient855"
       x1="14.20062"
       y1="23.995249"
       x2="44.749847"
       y2="23.995249"
       gradientUnits="userSpaceOnUse" />
    <linearGradient
       gradientTransform="translate(-21.169659,-13.305789)"
       inkscape:collect="always"
       xlink:href="#linearGradient853"
       id="linearGradient855-3"
       x1="14.20062"
       y1="23.995249"
       x2="44.749847"
       y2="23.995249"
       gradientUnits="userSpaceOnUse" />
  </defs>
  <path
     inkscape:connector-curvature="0"
     style="opacity:1;vector-effect:none;fill:url(#linearGradient847);fill-opacity:1;fill-rule:evenodd;stroke:none;stroke-width:0.02907303;stroke-linecap:butt;stroke-linejoin:miter;stroke-miterlimit:4;stroke-dasharray:none;stroke-dashoffset:0;stroke-opacity:1;paint-order:normal"
     d="m 23.997779,3.8780487 a 20.125,20.125 0 0 0 -20.125,20.1250003 20.125,20.125 0 0 0 20.125,20.125 20.125,20.125 0 0 0 14.00586,-5.70312 1.9999999,1.9999999 0 0 0 0.22461,-0.18946 1.9999999,1.9999999 0 0 0 0,-2.83007 1.9999999,1.9999999 0 0 0 -2.82812,0 l -0.006,-0.006 a 16.125884,16.125884 0 0 1 -11.39649,4.73047 16.125884,16.125884 0 0 1 -16.125,-16.12696 16.125884,16.125884 0 0 1 16.125,-16.1250003 16.125884,16.125884 0 0 1 11.39454,4.7304703 l 0.008,-0.008 a 1.9999999,1.9999999 0 0 0 2.82812,0 1.9999999,1.9999999 0 0 0 0,-2.8281303 1.9999999,1.9999999 0 0 0 -0.24804,-0.20898 1.9999999,1.9999999 0 0 0 -0.0117,-0.01 20.125,20.125 0 0 0 -13.97071,-5.67578 z"
     id="path1428" />
  <path
     inkscape:connector-curvature="0"
     style="opacity:1;vector-effect:none;fill:url(#linearGradient855);fill-opacity:1;fill-rule:evenodd;stroke:none;stroke-width:0.02907303;stroke-linecap:butt;stroke-linejoin:miter;stroke-miterlimit:4;stroke-dasharray:none;stroke-dashoffset:0;stroke-opacity:1;paint-order:normal"
     d="m 31.864969,13.305789 -2.82812,2.82812 -2.21094,2.21289 -2.82813,2.83008 -2.82812,2.82813 2.82812,2.82812 2.82813,2.82812 2.82812,2.82813 0.0117,-0.0117 2.20703,2.20703 2.82813,-2.82812 -2.82813,-2.82813 -0.0117,0.0117 -2.20703,-2.20703 -2.82812,-2.82812 2.82812,-2.82813 2.82813,-2.83008 v -0.002 l 2.21094,-2.21094 z"
     id="rect1476" />
  <path
     inkscape:connector-curvature="0"
     style="opacity:1;vector-effect:none;fill:url(#linearGradient855);fill-opacity:1;fill-rule:evenodd;stroke:none;stroke-width:0.02907303;stroke-linecap:butt;stroke-linejoin:miter;stroke-miterlimit:4;stroke-dasharray:none;stroke-dashoffset:0;stroke-opacity:1;paint-order:normal;font-variant-east_asian:normal"
     d="m 33.279029,12.719849 a 1.9999999,1.9999999 0 0 0 -2,2 1.9999999,1.9999999 0 0 0 0.74414,1.55469 l -0.0117,0.0117 a 11.128691,11.128691 0 0 1 3.11523,7.71876 11.128691,11.128691 0 0 1 -3.24023,7.83789 11.128691,11.128691 0 0 1 -0.0215,0.0215 1.9999999,1.9999999 0 0 0 -0.58594,1.41406 1.9999999,1.9999999 0 0 0 2,2 1.9999999,1.9999999 0 0 0 1.41407,-0.58593 1.9999999,1.9999999 0 0 0 0.0469,-0.0527 1.9999999,1.9999999 0 0 0 0.0781,-0.0859 15.12866,15.12866 0 0 0 4.30859,-10.54882 15.12866,15.12866 0 0 0 -4.26563,-10.50586 1.9999999,1.9999999 0 0 0 -1.58203,-0.7793 z"
     id="circle1423-5" />
</svg>
