<?xml version="1.0" encoding="UTF-8" standalone="no"?>
<!-- Generator: Gravit.io -->

<svg
   xmlns:dc="http://purl.org/dc/elements/1.1/"
   xmlns:cc="http://creativecommons.org/ns#"
   xmlns:rdf="http://www.w3.org/1999/02/22-rdf-syntax-ns#"
   xmlns:svg="http://www.w3.org/2000/svg"
   xmlns="http://www.w3.org/2000/svg"
   xmlns:xlink="http://www.w3.org/1999/xlink"
   xmlns:sodipodi="http://sodipodi.sourceforge.net/DTD/sodipodi-0.dtd"
   xmlns:inkscape="http://www.inkscape.org/namespaces/inkscape"
   style="isolation:isolate"
   viewBox="0 0 48 48"
   width="48"
   height="48"
   version="1.1"
   id="svg23"
   sodipodi:docname="falkon.svg"
   inkscape:version="0.92.4 (unknown)">
  <metadata
     id="metadata27">
    <rdf:RDF>
      <cc:Work
         rdf:about="">
        <dc:format>image/svg+xml</dc:format>
        <dc:type
           rdf:resource="http://purl.org/dc/dcmitype/StillImage" />
      </cc:Work>
    </rdf:RDF>
  </metadata>
  <sodipodi:namedview
     pagecolor="#ffffff"
     bordercolor="#666666"
     borderopacity="1"
     objecttolerance="10"
     gridtolerance="10"
     guidetolerance="10"
     inkscape:pageopacity="0"
     inkscape:pageshadow="2"
     inkscape:window-width="640"
     inkscape:window-height="480"
     id="namedview25"
     showgrid="false"
     showguides="true"
     inkscape:guide-bbox="true"
     inkscape:snap-bbox="true"
     inkscape:bbox-paths="true"
     inkscape:bbox-nodes="true"
     inkscape:snap-bbox-edge-midpoints="true"
     inkscape:snap-bbox-midpoints="true"
     inkscape:object-paths="true"
     inkscape:snap-intersection-paths="true"
     inkscape:snap-smooth-nodes="true"
     inkscape:snap-midpoints="true"
     inkscape:snap-object-midpoints="true"
     inkscape:snap-center="true"
     inkscape:zoom="6.2534757"
     inkscape:cx="27.575187"
     inkscape:cy="13.766761"
     inkscape:current-layer="svg23" />
  <defs
     id="defs5">
    <linearGradient
       id="linearGradient930"
       inkscape:collect="always">
      <stop
         style="stop-color:#ba00ff;stop-opacity:1"
         offset="0"
         id="stop924" />
      <stop
         id="stop926"
         offset="0.60000002"
         style="stop-color:#0084c8;stop-opacity:1" />
      <stop
         style="stop-color:#19aeff;stop-opacity:1"
         offset="1"
         id="stop928" />
    </linearGradient>
    <clipPath
       id="_clipPath_Sd08GpmkdqIAy1UR239YV2vyPFIZuRyU">
      <rect
         width="48"
         height="48"
         id="rect2" />
    </clipPath>
    <linearGradient
       inkscape:collect="always"
       id="linearGradient1959">
      <stop
         id="stop1957"
         offset="0"
         style="stop-color:#ba00ff;stop-opacity:1" />
      <stop
         style="stop-color:#005c94;stop-opacity:1"
         offset="0.40000004"
         id="stop1963" />
      <stop
         id="stop1955"
         offset="1"
         style="stop-color:#19aeff;stop-opacity:1" />
    </linearGradient>
    <linearGradient
       inkscape:collect="always"
       xlink:href="#linearGradient1959"
       id="linearGradient2505"
       x1="20.510914"
       y1="534.56836"
       x2="30.335026"
       y2="534.46503"
       gradientUnits="userSpaceOnUse" />
    <linearGradient
       inkscape:collect="always"
       xlink:href="#linearGradient930"
       id="linearGradient910"
       gradientUnits="userSpaceOnUse"
       gradientTransform="matrix(3.7795276,0,0,3.7795276,-72.851988,-1985.3448)"
       x1="20.510914"
       y1="534.56836"
       x2="30.335026"
       y2="534.46503" />
    <linearGradient
       inkscape:collect="always"
       xlink:href="#linearGradient930"
       id="linearGradient910-3"
       gradientUnits="userSpaceOnUse"
       gradientTransform="matrix(3.7795276,0,0,3.7795276,-81.020089,-2008.2033)"
       x1="20.510914"
       y1="534.56836"
       x2="30.335026"
       y2="534.46503" />
  </defs>
  <path
     style="opacity:1;vector-effect:none;fill:url(#linearGradient910);fill-opacity:1;fill-rule:evenodd;stroke:none;stroke-width:3.77952766;stroke-linecap:round;stroke-linejoin:miter;stroke-miterlimit:4;stroke-dasharray:none;stroke-dashoffset:0;stroke-opacity:1;paint-order:normal;font-variant-east_asian:normal"
     d="M 23.753481,3.52831 C 12.725144,3.52855 3.78497,12.46872 3.78473,23.49706 c 0.0036,4.09665 1.267123,8.09307 3.61914,11.44726 0.234646,-1.25157 0.563063,-2.46283 0.97461,-3.5625 -0.0765,0.0716 -0.22286,0.19275 -0.28125,0.25 -0.645332,0.63273 -0.714844,0.67422 -0.714844,0.42383 0,-0.15307 0.07392,-0.90948 0.164063,-1.68164 0.150172,-1.28413 0.348715,-2.47344 0.589843,-3.5957 C 7.907515,25.70202 7.787373,24.60304 7.78473,23.49706 7.784942,14.67785 14.934272,7.52852 23.753481,7.52831 c 7.513561,1.7e-4 13.794681,5.19454 15.492191,12.18554 1.68012,0.86843 2.82824,1.99647 3.70703,3.63282 0.21567,0.40161 0.46792,1.03144 0.69531,1.65039 0.042,-0.49878 0.0698,-0.9992 0.0742,-1.5 C 43.721972,12.46872 34.781802,3.52855 23.753461,3.52831 Z m 18.972651,23.35742 c -0.2888,-0.003 -0.91992,0.01 -0.91992,0.01 l -0.42578,0.004 c 0,0 -1.3697,0.0361 -2.05469,0.0684 -1.26912,5.69074 -5.53883,10.23746 -11.13867,11.86133 -0.0148,0.21934 -0.037,0.42166 -0.0488,0.64843 l -0.14062,2.70118 -0.80273,-1.28711 c -0.367246,-0.58854 -0.783394,-1.13563 -1.185552,-1.60157 -0.746851,0.11186 -1.500695,0.17061 -2.255859,0.17579 -1.974499,-0.006 -3.930755,-0.37823 -5.769531,-1.09766 -0.0084,0.003 -0.01704,0.006 -0.02539,0.01 -0.946765,0.38584 -2.375926,1.33682 -3.898438,2.55079 2.962989,1.65577 6.299128,2.52896 9.69336,2.53711 9.70944,-10e-4 18.01072,-6.98645 19.67187,-16.55274 -0.24475,-0.007 -0.42216,-0.0251 -0.69922,-0.0273 z"
     id="path1902"
     inkscape:connector-curvature="0"
     sodipodi:nodetypes="cccccsccccccccccccccccccccccccc" />
  <path
     style="opacity:1;vector-effect:none;fill:url(#linearGradient910);fill-opacity:1;fill-rule:evenodd;stroke:none;stroke-width:3.77952766;stroke-linecap:round;stroke-linejoin:miter;stroke-miterlimit:4;stroke-dasharray:none;stroke-dashoffset:0;stroke-opacity:1;paint-order:normal;font-variant-east_asian:normal"
     d="m 8.486454,30.136396 c 0,-0.138331 0.07393,-0.822312 0.164069,-1.520277 0.517595,-4.000668 1.557782,-7.080076 3.24223,-9.598375 0.723293,-1.081323 2.238687,-2.685922 3.189601,-3.377273 l 0.599969,-0.436233 0.991881,0.107717 c 1.091856,0.118677 3.239607,0.529247 4.069496,0.778167 l 0.53062,0.159118 -0.265323,-0.21241 c -0.145814,-0.116787 -0.551218,-0.360189 -0.900662,-0.540926 -1.413411,-0.731225 -2.485859,-1.018847 -5.466459,-1.466041 -0.846161,-0.126992 -1.55308,-0.245291 -1.570945,-0.263433 -0.06592,-0.06614 1.871618,-0.721398 3.003292,-1.016088 2.185455,-0.569083 3.014505,-0.674419 5.306214,-0.674305 1.801138,1.51e-4 2.291195,0.03779 3.236788,0.239244 3.767369,0.808403 6.755093,2.481297 9.942391,5.566866 l 1.187123,1.149241 1.31751,0.448365 c 2.211987,0.752731 3.610817,1.755137 4.645168,3.328706 0.564279,0.858482 1.451198,3.010053 1.182361,2.868321 -4.168011,-2.197493 -8.298747,-3.289512 -13.02138,-3.442394 -6.830053,-0.221102 -13.145133,1.797203 -18.766436,5.997808 -0.651723,0.48703 -1.507306,1.171162 -1.901295,1.520315 -0.645332,0.571918 -0.716349,0.60994 -0.716349,0.383622 z m 23.984119,-9.829947 c 0,-0.558765 -0.400724,-1.275742 -0.851641,-1.523679 -0.296315,-0.162897 -0.539097,-0.196535 -1.235524,-0.170456 -0.476712,0.0189 -0.900045,0.06576 -0.940751,0.106582 -0.117883,0.117922 0.339629,0.964498 0.720601,1.333758 0.435534,0.422135 1.03039,0.644485 1.750167,0.654123 l 0.557148,0.0076 z"
     id="path1896"
     inkscape:connector-curvature="0" />
  <path
     style="opacity:1;vector-effect:none;fill:url(#linearGradient910);fill-opacity:1;fill-rule:evenodd;stroke:none;stroke-width:3.77952766;stroke-linecap:round;stroke-linejoin:miter;stroke-miterlimit:4;stroke-dasharray:none;stroke-dashoffset:0;stroke-opacity:1;paint-order:normal"
     d="M 9.693253,46.051457 C 9.34051,45.345971 8.807275,43.892856 8.591377,43.048698 8.279188,41.828024 8.168101,40.770286 8.168101,39.018437 c 0,-2.974337 0.599312,-6.187503 1.602924,-8.593814 0.296579,-0.711119 0.356258,-0.7776 1.396346,-1.555541 1.756551,-1.313877 2.983144,-2.063622 5.013121,-3.064289 4.031667,-1.987427 7.468501,-2.824933 12.045101,-2.935106 3.433262,-0.08239 6.313255,0.289134 9.33538,1.2048 1.61444,0.489222 4.356677,1.569865 4.235203,1.669039 -0.02192,0.0189 -0.493403,-0.01134 -1.047905,-0.06614 -1.536279,-0.150048 -5.318351,-0.02646 -7.004628,0.229417 -9.829176,1.489965 -17.452483,7.135484 -22.078863,16.35069 -1.014104,2.019969 -1.212526,2.499213 -1.418979,3.427162 -0.100006,0.449802 -0.214601,0.817814 -0.254475,0.817814 -0.03984,0 -0.173934,-0.20296 -0.298054,-0.451011 z"
     id="path1898"
     inkscape:connector-curvature="0" />
  <path
     style="opacity:1;vector-effect:none;fill:url(#linearGradient910);fill-opacity:1;fill-rule:evenodd;stroke:none;stroke-width:3.77952766;stroke-linecap:round;stroke-linejoin:miter;stroke-miterlimit:4;stroke-dasharray:none;stroke-dashoffset:0;stroke-opacity:1;paint-order:normal;font-variant-east_asian:normal"
     d="m 13.333869,40.532969 c 2.291833,-3.963628 5.571114,-7.499716 9.144268,-9.860372 1.987608,-1.313083 3.969732,-2.285707 6.133621,-3.009675 0.981574,-0.328441 3.109119,-0.898999 3.353643,-0.899452 0.04312,-7.6e-5 -0.295597,0.492094 -0.75278,1.093757 -2.387943,3.142148 -3.313946,5.799572 -3.557219,10.208353 l -0.123024,2.228599 -0.697742,-1.061216 c -0.723761,-1.100825 -1.670956,-2.094123 -2.182311,-2.288542 -1.609266,-0.611868 -3.929461,-0.526753 -5.84564,0.214299 -1.160508,0.448857 -3.143146,1.79777 -5.03263,3.423988 -0.391997,0.337512 -0.737707,0.613417 -0.768223,0.613417 -0.03061,0 0.117052,-0.298583 0.327987,-0.663269 z"
     id="path1900"
     inkscape:connector-curvature="0" />
</svg>
