<?xml version="1.0" encoding="UTF-8" standalone="no"?>
<!-- Generator: Gravit.io -->

<svg
   xmlns:dc="http://purl.org/dc/elements/1.1/"
   xmlns:cc="http://creativecommons.org/ns#"
   xmlns:rdf="http://www.w3.org/1999/02/22-rdf-syntax-ns#"
   xmlns:svg="http://www.w3.org/2000/svg"
   xmlns="http://www.w3.org/2000/svg"
   xmlns:xlink="http://www.w3.org/1999/xlink"
   xmlns:sodipodi="http://sodipodi.sourceforge.net/DTD/sodipodi-0.dtd"
   xmlns:inkscape="http://www.inkscape.org/namespaces/inkscape"
   style="isolation:isolate"
   viewBox="0 0 48 48"
   width="48"
   height="48"
   version="1.1"
   id="svg23"
   sodipodi:docname="natronIcon256_linux.svg"
   inkscape:version="0.92.4 (unknown)">
  <metadata
     id="metadata27">
    <rdf:RDF>
      <cc:Work
         rdf:about="">
        <dc:format>image/svg+xml</dc:format>
        <dc:type
           rdf:resource="http://purl.org/dc/dcmitype/StillImage" />
      </cc:Work>
    </rdf:RDF>
  </metadata>
  <sodipodi:namedview
     pagecolor="#ffffff"
     bordercolor="#666666"
     borderopacity="1"
     objecttolerance="10"
     gridtolerance="10"
     guidetolerance="10"
     inkscape:pageopacity="0"
     inkscape:pageshadow="2"
     inkscape:window-width="640"
     inkscape:window-height="480"
     id="namedview25"
     showgrid="false"
     showguides="true"
     inkscape:guide-bbox="true"
     inkscape:snap-bbox="true"
     inkscape:bbox-paths="true"
     inkscape:bbox-nodes="true"
     inkscape:snap-bbox-edge-midpoints="true"
     inkscape:snap-bbox-midpoints="true"
     inkscape:object-paths="true"
     inkscape:snap-intersection-paths="true"
     inkscape:snap-smooth-nodes="true"
     inkscape:snap-midpoints="true"
     inkscape:snap-object-midpoints="true"
     inkscape:snap-center="true"
     inkscape:zoom="4.4609375"
     inkscape:cx="19.745427"
     inkscape:cy="31.81479"
     inkscape:current-layer="svg23" />
  <defs
     id="defs5">
    <linearGradient
       inkscape:collect="always"
       id="linearGradient828">
      <stop
         style="stop-color:#9ade00;stop-opacity:1;"
         offset="0"
         id="stop824" />
      <stop
         style="stop-color:#364e59;stop-opacity:1"
         offset="1"
         id="stop826" />
    </linearGradient>
    <clipPath
       id="_clipPath_Sd08GpmkdqIAy1UR239YV2vyPFIZuRyU">
      <rect
         width="48"
         height="48"
         id="rect2" />
    </clipPath>
    <linearGradient
       inkscape:collect="always"
       xlink:href="#linearGradient828"
       id="linearGradient830"
       x1="4.6900125"
       y1="10.549912"
       x2="46.000004"
       y2="43.051804"
       gradientUnits="userSpaceOnUse" />
  </defs>
  <path
     inkscape:connector-curvature="0"
     style="opacity:1;vector-effect:none;fill:url(#linearGradient830);fill-opacity:1;fill-rule:evenodd;stroke:none;stroke-width:0.02907301;stroke-linecap:butt;stroke-linejoin:miter;stroke-miterlimit:4;stroke-dasharray:none;stroke-dashoffset:0;stroke-opacity:1;paint-order:normal"
     d="m 30.691415,4.9481952 a 1.9999999,1.9999999 0 0 0 -2,2 v 3.9999998 1.19531 4 0.53516 l -0.46484,-0.26758 -3.46289,-2 -2,3.46485 3.46289,2 3.46484,2 0.002,-0.002 a 1.9999999,1.9999999 0 0 0 0.99805,0.26953 1.9999999,1.9999999 0 0 0 2,-2 v -4 -4 -3.1953099 l 8.68945,15.0527399 -6.68164,11.57031 -2.5332,-1.46289 -3.46484,-2 v 0.002 l -3.46289,-2 -3.46485,-2 -3.46289,-2 -0.002,0.002 a 1.9999999,1.9999999 0 0 0 -0.99805,-0.27148 1.9999999,1.9999999 0 0 0 -2,2 v 4 4 3.21094 l -8.69141,-15.05078 6.68946,-11.58399 1.73242,1 0.79297,0.45899 3.46484,2 3.46289,2 2,-3.46485 -3.46289,-2 -3.46484,-2 -0.79297,-0.4589799 -3.46484,-2 v 0.002 a 1.9999999,1.9999999 0 0 0 -1,-0.26953 1.9999999,1.9999999 0 0 0 -1.73047,1 h -0.002 l -0.0234,0.041 -8.82032,15.2753899 11,19.05078 h 4.31055 a 1.9999999,1.9999999 0 0 0 2,-2 v -4 -1.21094 -4 -0.53516 l 0.46289,0.26758 3.46485,2 3.46289,2 3.46484,2 3.46484,2 0.80078,0.46289 v -0.002 a 1.9999999,1.9999999 0 0 0 1,0.26953 1.9999999,1.9999999 0 0 0 1.73047,-1 h 0.002 l 0.0234,-0.041 8.8125,-15.26172 -11,-19.0527399 z"
     id="path1305" />
</svg>
