<?xml version="1.0" encoding="UTF-8" standalone="no"?>
<!-- Generator: Gravit.io -->

<svg
   xmlns:dc="http://purl.org/dc/elements/1.1/"
   xmlns:cc="http://creativecommons.org/ns#"
   xmlns:rdf="http://www.w3.org/1999/02/22-rdf-syntax-ns#"
   xmlns:svg="http://www.w3.org/2000/svg"
   xmlns="http://www.w3.org/2000/svg"
   xmlns:xlink="http://www.w3.org/1999/xlink"
   xmlns:sodipodi="http://sodipodi.sourceforge.net/DTD/sodipodi-0.dtd"
   xmlns:inkscape="http://www.inkscape.org/namespaces/inkscape"
   style="isolation:isolate"
   viewBox="0 0 48 48"
   width="48"
   height="48"
   version="1.1"
   id="svg23"
   sodipodi:docname="gitkraken.svg"
   inkscape:version="0.92.4 (unknown)">
  <metadata
     id="metadata27">
    <rdf:RDF>
      <cc:Work
         rdf:about="">
        <dc:format>image/svg+xml</dc:format>
        <dc:type
           rdf:resource="http://purl.org/dc/dcmitype/StillImage" />
      </cc:Work>
    </rdf:RDF>
  </metadata>
  <sodipodi:namedview
     pagecolor="#ffffff"
     bordercolor="#666666"
     borderopacity="1"
     objecttolerance="10"
     gridtolerance="10"
     guidetolerance="10"
     inkscape:pageopacity="0"
     inkscape:pageshadow="2"
     inkscape:window-width="640"
     inkscape:window-height="480"
     id="namedview25"
     showgrid="false"
     showguides="true"
     inkscape:guide-bbox="true"
     inkscape:snap-bbox="true"
     inkscape:bbox-paths="true"
     inkscape:bbox-nodes="true"
     inkscape:snap-bbox-edge-midpoints="true"
     inkscape:snap-bbox-midpoints="true"
     inkscape:object-paths="true"
     inkscape:snap-intersection-paths="true"
     inkscape:snap-smooth-nodes="true"
     inkscape:snap-midpoints="true"
     inkscape:snap-object-midpoints="true"
     inkscape:snap-center="true"
     inkscape:zoom="6.2534758"
     inkscape:cx="21.998297"
     inkscape:cy="26.067629"
     inkscape:current-layer="svg23" />
  <defs
     id="defs5">
    <linearGradient
       inkscape:collect="always"
       id="linearGradient852">
      <stop
         style="stop-color:#00a67e;stop-opacity:1"
         offset="0"
         id="stop848" />
      <stop
         style="stop-color:#00de7a;stop-opacity:1"
         offset="1"
         id="stop850" />
    </linearGradient>
    <clipPath
       id="_clipPath_Sd08GpmkdqIAy1UR239YV2vyPFIZuRyU">
      <rect
         width="48"
         height="48"
         id="rect2" />
    </clipPath>
    <linearGradient
       x1="37.018002"
       y1="19.24"
       x2="30.865"
       y2="14.64"
       id="linearGradient6957"
       xlink:href="#linearGradient6951"
       gradientUnits="userSpaceOnUse"
       gradientTransform="matrix(-0.11485198,-0.38986401,0.38986401,-0.11485198,33.010266,47.092305)" />
    <linearGradient
       id="linearGradient6951">
      <stop
         style="stop-color:#ffa92d;stop-opacity:1"
         offset="0"
         id="stop28" />
      <stop
         style="stop-color:#cd7223;stop-opacity:1"
         offset="1"
         id="stop30" />
    </linearGradient>
    <linearGradient
       inkscape:collect="always"
       xlink:href="#linearGradient852"
       id="linearGradient854"
       x1="24.003151"
       y1="47.618679"
       x2="24.003151"
       y2="17.443645"
       gradientUnits="userSpaceOnUse" />
  </defs>
  <path
     inkscape:connector-curvature="0"
     style="opacity:1;vector-effect:none;fill:url(#linearGradient854);fill-opacity:1;fill-rule:evenodd;stroke:none;stroke-width:0.02907303;stroke-linecap:butt;stroke-linejoin:miter;stroke-miterlimit:4;stroke-dasharray:none;stroke-dashoffset:0;stroke-opacity:1;paint-order:normal"
     d="m 24.00505,2.6914698 a 1.9999999,1.9999999 0 0 0 -1.41406,0.58594 l -0.01,0.006 -2.82226,2.82031 -2.82813,2.82813 -2.82812,2.8281202 -2.82813,2.82812 0.002,0.002 a 1.9999999,1.9999999 0 0 0 -0.0293,0.0332 1.9999999,1.9999999 0 0 0 -0.31836,0.43555 1.9999999,1.9999999 0 0 0 -0.0371,0.0762 1.9999999,1.9999999 0 0 0 -0.0527,0.11133 1.9999999,1.9999999 0 0 0 -0.0137,0.043 1.9999999,1.9999999 0 0 0 -0.0508,0.14258 1.9999999,1.9999999 0 0 0 -0.0254,0.0996 1.9999999,1.9999999 0 0 0 -0.0215,0.084 1.9999999,1.9999999 0 0 0 -0.0254,0.17969 1.9999999,1.9999999 0 0 0 -0.002,0.0117 1.9999999,1.9999999 0 0 0 -0.0117,0.19726 1.9999999,1.9999999 0 0 0 0.0117,0.18555 1.9999999,1.9999999 0 0 0 0.006,0.0527 1.9999999,1.9999999 0 0 0 0.0195,0.13867 1.9999999,1.9999999 0 0 0 0.0234,0.0996 1.9999999,1.9999999 0 0 0 0.0195,0.0762 1.9999999,1.9999999 0 0 0 0.0352,0.10742 1.9999999,1.9999999 0 0 0 0.0391,0.10547 1.9999999,1.9999999 0 0 0 0.0215,0.0449 1.9999999,1.9999999 0 0 0 0.0605,0.1289 1.9999999,1.9999999 0 0 0 0.0352,0.0606 h -0.002 l 2,3.46484 2,3.46485 1.73046,2.99609 v 3.4668 2.37695 a 16.502591,16.502591 0 0 1 -9.18554,-14.74023 1.9999999,1.9999999 0 0 0 -2,-2.000001 1.9999999,1.9999999 0 0 0 -1.99805,1.970701 c -1e-5,0 -0.004,0 -0.004,0 v 0.002 a 20.50255,20.50255 0 0 0 0.002,0.0274 20.50255,20.50255 0 0 0 0.002,0.0703 1.9999999,1.9999999 0 0 0 0.006,0.082 20.50255,20.50255 0 0 0 20.49219,20.32227 20.50255,20.50255 0 0 0 20.49609,-20.32227 c -0.003,2e-5 -0.007,-2e-5 -0.01,0 a 1.9999999,1.9999999 0 0 0 0.01,-0.18164 1.9999999,1.9999999 0 0 0 -2,-2.000001 1.9999999,1.9999999 0 0 0 -2,2.000001 1.9999999,1.9999999 0 0 0 0.0117,0.1875 c -0.005,2e-5 -0.0102,-1e-5 -0.0156,0 a 16.502591,16.502591 0 0 1 -9.17773,14.59961 v -2.39453 -3.46289 l 1.73242,-3 2,-3.46485 2,-3.46484 -0.002,-0.002 a 1.9999999,1.9999999 0 0 0 0.0332,-0.0605 1.9999999,1.9999999 0 0 0 0.0469,-0.0957 1.9999999,1.9999999 0 0 0 0.041,-0.0899 1.9999999,1.9999999 0 0 0 0.0312,-0.084 1.9999999,1.9999999 0 0 0 0.0371,-0.11523 1.9999999,1.9999999 0 0 0 0.0215,-0.082 1.9999999,1.9999999 0 0 0 0.0215,-0.0918 1.9999999,1.9999999 0 0 0 0.0156,-0.10352 1.9999999,1.9999999 0 0 0 0.0137,-0.11719 1.9999999,1.9999999 0 0 0 0.008,-0.15625 1.9999999,1.9999999 0 0 0 -0.008,-0.1582 1.9999999,1.9999999 0 0 0 -0.0137,-0.11719 1.9999999,1.9999999 0 0 0 -0.0156,-0.10351 1.9999999,1.9999999 0 0 0 -0.0215,-0.0899 1.9999999,1.9999999 0 0 0 -0.0215,-0.084 1.9999999,1.9999999 0 0 0 -0.0371,-0.11524 1.9999999,1.9999999 0 0 0 -0.0312,-0.084 1.9999999,1.9999999 0 0 0 -0.0703,-0.15625 1.9999999,1.9999999 0 0 0 -0.002,-0.004 1.9999999,1.9999999 0 0 0 -0.0977,-0.16992 1.9999999,1.9999999 0 0 0 -0.008,-0.01 1.9999999,1.9999999 0 0 0 -0.0723,-0.10157 1.9999999,1.9999999 0 0 0 -0.0547,-0.0742 1.9999999,1.9999999 0 0 0 -0.11328,-0.12696 1.9999999,1.9999999 0 0 0 -0.0195,-0.0215 L 33.90313,11.76161 31.075,8.9334898 l -2.82812,-2.82813 -2.8086,-2.80859 a 1.9999999,1.9999999 0 0 0 -1.43359,-0.60547 z m 0,4.82813 1.41406,1.41406 2.82813,2.8281202 2.82812,2.82813 1.74219,1.74414 -1.23242,2.13476 -2,3.46485 -2,3.46289 0.002,0.002 A 1.9999999,1.9999999 0 0 0 27.3176,26.3966 v 4 3.75195 a 16.502591,16.502591 0 0 1 -3.31445,0.35742 16.502591,16.502591 0 0 1 -3.31446,-0.33789 v -3.77148 -4 a 1.9999999,1.9999999 0 0 0 -0.26953,-0.99805 l 0.002,-0.002 -2,-3.46289 -2,-3.46485 -1.23243,-2.13476 1.74414,-1.74414 2.82813,-2.82813 2.83008,-2.8281202 z M 6.12419,33.88483 a 1.9999999,1.9999999 0 0 0 -2,2 1.9999999,1.9999999 0 0 0 0.58594,1.41406 27.303502,27.303502 0 0 0 0.0508,0.0469 1.9999999,1.9999999 0 0 0 0.0898,0.0801 27.303502,27.303502 0 0 0 19.15235,7.88281 27.303502,27.303502 0 0 0 19.20312,-7.92774 1.9999999,1.9999999 0 0 0 0.67578,-1.49609 1.9999999,1.9999999 0 0 0 -2,-2 1.9999999,1.9999999 0 0 0 -1.42773,0.60156 A 23.303107,23.303107 0 0 1 24.00308,41.3087 23.303107,23.303107 0 0 1 7.55776,34.49229 1.9999999,1.9999999 0 0 0 6.12417,33.88487 Z"
     id="path1850" />
</svg>
