<?xml version="1.0" encoding="UTF-8" standalone="no"?>
<!-- Generator: Gravit.io -->

<svg
   xmlns:dc="http://purl.org/dc/elements/1.1/"
   xmlns:cc="http://creativecommons.org/ns#"
   xmlns:rdf="http://www.w3.org/1999/02/22-rdf-syntax-ns#"
   xmlns:svg="http://www.w3.org/2000/svg"
   xmlns="http://www.w3.org/2000/svg"
   xmlns:xlink="http://www.w3.org/1999/xlink"
   xmlns:sodipodi="http://sodipodi.sourceforge.net/DTD/sodipodi-0.dtd"
   xmlns:inkscape="http://www.inkscape.org/namespaces/inkscape"
   style="isolation:isolate"
   viewBox="0 0 48 48"
   width="48"
   height="48"
   version="1.1"
   id="svg23"
   sodipodi:docname="inkscape-logo.svg"
   inkscape:version="0.92.4 (unknown)">
  <metadata
     id="metadata29">
    <rdf:RDF>
      <cc:Work
         rdf:about="">
        <dc:format>image/svg+xml</dc:format>
        <dc:type
           rdf:resource="http://purl.org/dc/dcmitype/StillImage" />
      </cc:Work>
    </rdf:RDF>
  </metadata>
  <defs
     id="defs27">
    <linearGradient
       inkscape:collect="always"
       id="linearGradient872">
      <stop
         style="stop-color:#9eabb0;stop-opacity:1"
         offset="0"
         id="stop868" />
      <stop
         style="stop-color:#2d2d2d;stop-opacity:1"
         offset="1"
         id="stop870" />
    </linearGradient>
    <linearGradient
       inkscape:collect="always"
       xlink:href="#linearGradient872"
       id="linearGradient874"
       x1="6.8813577"
       y1="9.050848"
       x2="46.813557"
       y2="45.864407"
       gradientUnits="userSpaceOnUse" />
  </defs>
  <sodipodi:namedview
     pagecolor="#ffffff"
     bordercolor="#666666"
     borderopacity="1"
     objecttolerance="10"
     gridtolerance="10"
     guidetolerance="10"
     inkscape:pageopacity="0"
     inkscape:pageshadow="2"
     inkscape:window-width="640"
     inkscape:window-height="480"
     id="namedview25"
     showgrid="false"
     inkscape:zoom="10.409505"
     inkscape:cx="13.620468"
     inkscape:cy="26.086403"
     inkscape:current-layer="svg23" />
  <linearGradient
     id="_lgradient_8"
     x1="-1.735528038875542"
     y1="0.17491146156190052"
     x2="1.022936493905845"
     y2="0.5042963242965388"
     gradientTransform="matrix(21.681,0,0,15.11,13.273,10.89)"
     gradientUnits="userSpaceOnUse">
    <stop
       offset="0%"
       stop-opacity="1"
       style="stop-color:rgb(242,55,239)"
       id="stop2" />
    <stop
       offset="98.69565217391305%"
       stop-opacity="1"
       style="stop-color:rgb(252,82,82)"
       id="stop4" />
  </linearGradient>
  <linearGradient
     id="_lgradient_9"
     x1="0"
     y1="0.5"
     x2="1"
     y2="0.5"
     gradientTransform="matrix(48,0,0,38.08,0,0.17)"
     gradientUnits="userSpaceOnUse">
    <stop
       offset="0%"
       stop-opacity="1"
       style="stop-color:rgb(242,55,239)"
       id="stop9" />
    <stop
       offset="98.69565217391305%"
       stop-opacity="1"
       style="stop-color:rgb(252,82,82)"
       id="stop11" />
  </linearGradient>
  <linearGradient
     id="_lgradient_10"
     x1="0"
     y1="0.5"
     x2="1"
     y2="0.5"
     gradientTransform="matrix(21.36,0,0,9.92,13.32,38.32)"
     gradientUnits="userSpaceOnUse">
    <stop
       offset="0%"
       stop-opacity="1"
       style="stop-color:rgb(242,55,239)"
       id="stop16" />
    <stop
       offset="98.69565217391305%"
       stop-opacity="1"
       style="stop-color:rgb(252,82,82)"
       id="stop18" />
  </linearGradient>
  <path
     style="opacity:1;vector-effect:none;fill:url(#linearGradient874);fill-opacity:1;fill-rule:evenodd;stroke:none;stroke-width:2.19733095;stroke-linecap:butt;stroke-linejoin:miter;stroke-miterlimit:4;stroke-dasharray:none;stroke-dashoffset:0;stroke-opacity:1;paint-order:normal"
     d="m 23.870998,1.9999768 c -0.530011,0.0011 -1.69415,0.2124094 -2.068361,0.5878677 -0.0049,0.00378 -0.01058,0.00756 -0.0155,0.015118 l -2.812497,2.814463 -2.828122,2.8281071 -2.82813,2.8301103 -2.828118,2.828107 -2.83008,2.828107 -2.2441402,2.244171 -0.002,-0.002 -2.7929727,2.794923 c -0.00491,0.0038 -0.010583,0.0076 -0.015496,0.01512 l -0.019654,0.02268 c -0.3750766,0.370763 -0.5858458,0.879563 -0.5859251,1.409982 7.93e-5,0.530381 0.2108598,1.03903 0.5859401,1.414035 l 2.2441399,2.24417 -0.002,0.002 2.8281186,2.828107 2.246101,2.246098 -0.002,0.002 2.8281304,2.828107 c 2.928178,2.928189 2.695079,2.154558 1.353509,3.496139 l -1.824211,1.824189 c -0.375081,0.374929 -0.585861,0.883691 -0.58594,1.414072 9.9e-4,0.904441 0.60881,1.695647 1.482421,1.929676 v 0.002 l 3.863278,1.035175 2.70508,0.724611 3.359372,0.724611 v -0.002 c 0.168718,0.04611 0.342728,0.06954 0.51758,0.0703 0.174766,-7.6e-5 0.348775,-0.02268 0.51758,-0.06841 l 0.01776,-0.0038 c 0.0042,-0.0013 0.0079,-0.0026 0.01172,-0.0038 l 4.271339,-0.716787 2.880858,-0.771477 3.863282,-1.035175 v -0.002 c 0.873611,-0.233953 1.481431,-1.025273 1.482421,-1.929676 -8.3e-5,-0.530419 -0.210859,-1.039068 -0.58594,-1.414072 l -1.992193,-1.992189 c -1.475259,-1.277518 -1.474159,-0.674306 0,-2.148435 l 2.82813,-2.830072 -0.002,-0.002 2.246101,-2.24417 2.828119,-2.828107 -0.002,-0.002 2.246094,-2.246098 1.123049,-1.123048 c 0.0528,-0.04724 0.102954,-0.09751 0.150388,-0.150426 l 0.140636,-0.140598 -0.0155,-0.01512 c 0.252548,-0.342425 0.389401,-0.756246 0.390633,-1.181632 -5.3e-5,-0.524674 -0.206287,-1.028334 -0.57422,-1.402356 l -2.455083,-2.455067 c -0.376517,-0.3871 -0.893579,-0.605481 -1.43359,-0.605481 h -2.24428 -3.999998 c -0.531081,-4.15e-4 -1.040531,0.21052 -1.416023,0.585941 -2.340488,2.509833 -2.474729,2.710941 -2.960939,2.710941 h -3.999998 -6.253762 c -2.843369,0 -3.232558,0.06274 -2.787107,-0.382828 l 2.82813,-2.828107 2.80664,-2.808605 c 0.388289,-0.376819 0.60743,-0.894576 0.607419,-1.43554 0,-1.104567 -0.895431,-2.000013 -2.000001,-2.000013 -0.5304,1.14e-4 -1.039049,0.210898 -1.414058,0.58594 l -2.82813,2.828145 -2.828122,2.830073 -2.83008,2.828107 -0.968749,0.968768 c -0.375081,0.37493 -0.585861,0.883654 -0.585941,1.414073 0,1.104567 0.895431,1.999975 2.000002,1.999975 h 5.597506 3.999999 4.656254 3.999998 1.078129 c 0.473163,-0.0011 0.930592,-0.170079 1.291011,-0.476561 l 0.0079,0.0076 0.583979,-0.58594 c 1.597973,-2.092724 1.987843,-2.242205 5.416022,-2.242205 h 1.416011 c 0.627511,0 0.713983,0.204095 -0.74219,1.660158 l -1.414061,1.414072 0.0042,0.0038 -2.246102,2.244132 -2.828118,2.828145 v 0.002 l -2.24414,2.244132 -2.792973,2.794923 c -0.0049,0.0038 -0.0102,0.0076 -0.0155,0.01512 l -0.01965,0.02268 c -0.375081,0.374929 -0.58585,0.883653 -0.585929,1.414072 7.9e-5,0.530381 0.21086,0.359433 0.585929,0.734362 l 1.992192,1.992189 c 0.238035,0.23811 0.176126,0.433247 -0.13867,0.517607 l -2.880862,0.771477 c -2.24524,0.601587 -3.977556,0.533782 -5.968596,0 l -3.361332,-0.724635 c -0.279043,-0.07484 -0.305008,-0.351118 -0.138671,-0.517569 l 1.826173,-1.824227 -0.002,-0.002 c 0.375798,-0.374551 0.587293,-0.203716 0.58789,-0.7344 -9.98e-4,-0.530003 -0.21256,-1.037896 -0.58789,-1.412107 l 0.002,-0.002 -2.82813,-2.828107 -0.006,0.0038 -1.349613,-1.349631 -2.24414,-2.244132 0.002,-0.0038 -2.82813,-2.828107 -2.24609,-2.24417 0.002,-0.002 C 6.938469,23.337678 7.021229,23.026736 7.658488,22.389508 h 0.002 l 2.83008,-2.828145 2.828122,-2.828107 2.82813,-2.828145 2.828119,-2.828107 2.828129,-2.8301107 c 1.19867,-1.1986394 4.067641,-1.0142362 5.079931,-0.00193 l 2.828119,2.8300727 h 0.002 l 2.01953,2.019515 1.414061,1.414073 2.82813,2.828145 0.002,-0.0019 c 0.374211,0.375307 0.882101,0.586772 1.412111,0.587906 1.104571,0 2.000002,-0.895446 2.000002,-2.000013 -8.4e-5,-0.530381 -0.21086,-1.03903 -0.585941,-1.414034 l -1.414064,-1.414175 -2.01953,-2.019515 -2.82813,-2.8300723 -2.83008,-2.8281449 -2.806639,-2.8066393 c -0.0068,-0.00756 -0.01436,-0.015118 -0.02154,-0.022677 -0.375005,-0.3749291 -2.48117,-0.5858645 -3.01157,-0.5859401 z"
     id="path931-0-40-6"
     inkscape:connector-curvature="0"
     sodipodi:nodetypes="cccccccccccccccccccccccccccccccccccccccccccccccccccccccccccccccccccccccccscccccccccccccccccccccccccccccccccccccccccccccccccccccccccccccccccc" />
</svg>
