<?xml version="1.0" encoding="UTF-8" standalone="no"?>
<!-- Generator: Gravit.io -->

<svg
   xmlns:dc="http://purl.org/dc/elements/1.1/"
   xmlns:cc="http://creativecommons.org/ns#"
   xmlns:rdf="http://www.w3.org/1999/02/22-rdf-syntax-ns#"
   xmlns:svg="http://www.w3.org/2000/svg"
   xmlns="http://www.w3.org/2000/svg"
   xmlns:xlink="http://www.w3.org/1999/xlink"
   xmlns:sodipodi="http://sodipodi.sourceforge.net/DTD/sodipodi-0.dtd"
   xmlns:inkscape="http://www.inkscape.org/namespaces/inkscape"
   style="isolation:isolate"
   viewBox="0 0 48 48"
   width="48"
   height="48"
   version="1.1"
   id="svg23"
   sodipodi:docname="insync.svg"
   inkscape:version="0.92.4 (unknown)">
  <metadata
     id="metadata27">
    <rdf:RDF>
      <cc:Work
         rdf:about="">
        <dc:format>image/svg+xml</dc:format>
        <dc:type
           rdf:resource="http://purl.org/dc/dcmitype/StillImage" />
      </cc:Work>
    </rdf:RDF>
  </metadata>
  <sodipodi:namedview
     pagecolor="#ffffff"
     bordercolor="#666666"
     borderopacity="1"
     objecttolerance="10"
     gridtolerance="10"
     guidetolerance="10"
     inkscape:pageopacity="0"
     inkscape:pageshadow="2"
     inkscape:window-width="640"
     inkscape:window-height="480"
     id="namedview25"
     showgrid="false"
     showguides="true"
     inkscape:guide-bbox="true"
     inkscape:snap-bbox="true"
     inkscape:bbox-paths="true"
     inkscape:bbox-nodes="true"
     inkscape:snap-bbox-edge-midpoints="true"
     inkscape:snap-bbox-midpoints="true"
     inkscape:object-paths="true"
     inkscape:snap-intersection-paths="true"
     inkscape:snap-smooth-nodes="true"
     inkscape:snap-midpoints="true"
     inkscape:snap-object-midpoints="true"
     inkscape:snap-center="true"
     inkscape:zoom="5.7988371"
     inkscape:cx="37.629718"
     inkscape:cy="22.865672"
     inkscape:current-layer="svg23" />
  <defs
     id="defs5">
    <linearGradient
       inkscape:collect="always"
       id="linearGradient831">
      <stop
         style="stop-color:#ff4141;stop-opacity:1"
         offset="0"
         id="stop827" />
      <stop
         style="stop-color:#ba00ff;stop-opacity:1"
         offset="1"
         id="stop829" />
    </linearGradient>
    <linearGradient
       id="linearGradient911"
       inkscape:collect="always">
      <stop
         id="stop907"
         offset="0"
         style="stop-color:#ff4141;stop-opacity:1" />
      <stop
         id="stop909"
         offset="1"
         style="stop-color:#ba00ff;stop-opacity:1" />
    </linearGradient>
    <clipPath
       id="_clipPath_Sd08GpmkdqIAy1UR239YV2vyPFIZuRyU">
      <rect
         width="48"
         height="48"
         id="rect2" />
    </clipPath>
    <linearGradient
       inkscape:collect="always"
       id="linearGradient1860">
      <stop
         style="stop-color:#19aeff;stop-opacity:1"
         offset="0"
         id="stop1856" />
      <stop
         style="stop-color:#9eabb0;stop-opacity:1"
         offset="1"
         id="stop1858" />
    </linearGradient>
    <linearGradient
       inkscape:collect="always"
       xlink:href="#linearGradient831"
       id="linearGradient882"
       gradientUnits="userSpaceOnUse"
       gradientTransform="translate(159.56432,-574.47082)"
       x1="-161.56445"
       y1="598.4707"
       x2="-97.451111"
       y2="615.64984" />
    <linearGradient
       inkscape:collect="always"
       xlink:href="#linearGradient1860"
       id="linearGradient882-6"
       gradientUnits="userSpaceOnUse"
       gradientTransform="translate(159.56432,-578.47051)"
       x1="-161.56445"
       y1="598.4707"
       x2="-97.451111"
       y2="615.64984" />
    <linearGradient
       inkscape:collect="always"
       xlink:href="#linearGradient911"
       id="linearGradient923"
       gradientUnits="userSpaceOnUse"
       gradientTransform="translate(159.56432,-574.47082)"
       x1="-162.17415"
       y1="598.4707"
       x2="-97.451111"
       y2="615.64984" />
  </defs>
  <path
     style="opacity:1;vector-effect:none;fill:url(#linearGradient882);fill-opacity:1;fill-rule:evenodd;stroke:none;stroke-width:0.02907303;stroke-linecap:butt;stroke-linejoin:miter;stroke-miterlimit:4;stroke-dasharray:none;stroke-dashoffset:0;stroke-opacity:1;paint-order:normal"
     d="m 38.954889,3.9996853 c -1.104559,0 -1.999982,0.8954079 -1.999997,1.9999748 -8e-6,1.104567 0.895423,2.0000127 1.999997,2.0000127 h 1.0451 v 2.0000126 1.9999746 4.000025 3.999987 3.999988 4.000025 3.999988 3.999987 4.000025 H 38.000014 35.900373 C 34.848444,24.255231 21.779551,12.016932 5.9999999,11.99966 5.3324106,12.011 4.6653731,12.04388 4.0000024,12.09944 v 3.984378 1.915994 4.000025 2.132788 c 0.6636851,-0.08126 1.331384,-0.125482 1.9999975,-0.132663 9.1590361,0.01134 16.8495361,6.897714 17.8671891,16.000026 H 22.000004 19.837895 C 18.844703,33.118942 12.952366,28.009172 5.9999999,27.999987 c -0.6696869,0.0076 -1.3380661,0.06047 -1.9999975,0.162142 v 4.050784 1.988259 2.148434 C 1.6049573,37.196372 0.0027364,39.459666 0,42 0,45.313701 2.6862915,48 5.9999999,48 9.3137087,48 12,45.313701 12,42 11.9973,39.459666 10.395046,37.196372 8.0000017,36.349606 V 34.000025 32.203124 C 12.655514,33.153411 15.99949,37.248491 16.000004,42 c -3.52e-4,0.671811 -0.06841,1.341846 -0.203112,2.000013 h 4.044922 2.158205 3.999995 1.890633 C 27.957397,43.335345 27.993866,42.667994 27.999875,42 27.990475,30.63171 19.321093,21.142866 7.9998689,20.109392 V 18 16.101581 C 21.533897,17.145751 31.987069,28.425751 31.999863,42 c -0.0083,0.667729 -0.0421,1.334892 -0.10167,2.000013 h 4.031245 2.070312 4.000025 c 1.104563,0 1.999982,-0.895446 1.999975,-2.000013 V 38.000013 36 32.000013 28.000025 24 20.000013 16.000025 12 8.0000129 6.0000003 C 43.999735,4.8954334 43.104323,4.0000255 41.999775,4.0000255 h -2.000051 z"
     id="circle2869-9"
     inkscape:connector-curvature="0"
     sodipodi:nodetypes="cccccccccccccccccccccccccccccccsccccccccccccccccccccccccccccccccc" />
  <circle
     style="opacity:1;vector-effect:none;fill:#005c94;fill-opacity:1;fill-rule:evenodd;stroke:none;stroke-width:0.02907303;stroke-linecap:butt;stroke-linejoin:miter;stroke-miterlimit:4;stroke-dasharray:none;stroke-dashoffset:0;stroke-opacity:1;paint-order:normal"
     id="path1264-4-7-75-3"
     cx="33.77491"
     cy="5.9996781"
     r="1.9999999" />
  <path
     style="opacity:1;vector-effect:none;fill:#005c94;fill-opacity:1;fill-rule:evenodd;stroke:none;stroke-width:0.02907303;stroke-linecap:butt;stroke-linejoin:miter;stroke-miterlimit:4;stroke-dasharray:none;stroke-dashoffset:0;stroke-opacity:1"
     d="M 33.774911,9.9993074 A 1.9999999,1.9999999 0 0 0 31.774912,11.99932 v 1.999975 2.000012 2.000013 3.999987 a 1.9999999,1.9999999 0 0 0 1.999999,2.000013 1.9999999,1.9999999 0 0 0 2.000001,-2.000013 V 17.99932 15.999307 13.999295 11.99932 A 1.9999999,1.9999999 0 0 0 33.774911,9.9993074 Z"
     id="rect1246-3-60"
     inkscape:connector-curvature="0" />
  <path
     style="opacity:1;vector-effect:none;fill:url(#linearGradient923);fill-opacity:1;fill-rule:evenodd;stroke:none;stroke-width:0.02907303;stroke-linecap:butt;stroke-linejoin:miter;stroke-miterlimit:4;stroke-dasharray:none;stroke-dashoffset:0;stroke-opacity:1;paint-order:normal"
     d="M 30.795415,5.9996601 C 30.795401,4.8950932 29.899967,3.9996853 28.795402,3.9996853 H 26.795427 24.795415 10.000002 6.000015 c -1.1045646,0 -1.9999986,0.8954079 -2.0000126,1.9999748 -7.2e-6,1.104567 0.8954332,2.0000127 2.0000126,2.0000127 h 3.999987 14.795413 2.000012 1.999975 c 1.10458,0 2.00002,-0.8954457 2.000013,-2.0000127 z"
     id="rect1246-3-60-6"
     inkscape:connector-curvature="0"
     sodipodi:nodetypes="ccccccccccccc" />
</svg>
