<?xml version="1.0" encoding="UTF-8" standalone="no"?>
<!-- Generator: Gravit.io -->

<svg
   xmlns:dc="http://purl.org/dc/elements/1.1/"
   xmlns:cc="http://creativecommons.org/ns#"
   xmlns:rdf="http://www.w3.org/1999/02/22-rdf-syntax-ns#"
   xmlns:svg="http://www.w3.org/2000/svg"
   xmlns="http://www.w3.org/2000/svg"
   xmlns:xlink="http://www.w3.org/1999/xlink"
   xmlns:sodipodi="http://sodipodi.sourceforge.net/DTD/sodipodi-0.dtd"
   xmlns:inkscape="http://www.inkscape.org/namespaces/inkscape"
   style="isolation:isolate"
   viewBox="0 0 48 48"
   width="48"
   height="48"
   version="1.1"
   id="svg23"
   sodipodi:docname="accesssories-calculator.svg"
   inkscape:version="0.92.4 (unknown)">
  <metadata
     id="metadata27">
    <rdf:RDF>
      <cc:Work
         rdf:about="">
        <dc:format>image/svg+xml</dc:format>
        <dc:type
           rdf:resource="http://purl.org/dc/dcmitype/StillImage" />
      </cc:Work>
    </rdf:RDF>
  </metadata>
  <sodipodi:namedview
     pagecolor="#ffffff"
     bordercolor="#666666"
     borderopacity="1"
     objecttolerance="10"
     gridtolerance="10"
     guidetolerance="10"
     inkscape:pageopacity="0"
     inkscape:pageshadow="2"
     inkscape:window-width="640"
     inkscape:window-height="480"
     id="namedview25"
     showgrid="false"
     showguides="true"
     inkscape:guide-bbox="true"
     inkscape:snap-bbox="true"
     inkscape:bbox-paths="true"
     inkscape:bbox-nodes="true"
     inkscape:snap-bbox-edge-midpoints="true"
     inkscape:snap-bbox-midpoints="true"
     inkscape:object-paths="true"
     inkscape:snap-intersection-paths="true"
     inkscape:snap-smooth-nodes="true"
     inkscape:snap-midpoints="true"
     inkscape:snap-object-midpoints="true"
     inkscape:snap-center="true"
     inkscape:zoom="5.6568543"
     inkscape:cx="1.244309"
     inkscape:cy="27.26317"
     inkscape:current-layer="svg23" />
  <defs
     id="defs5">
    <linearGradient
       inkscape:collect="always"
       id="linearGradient871">
      <stop
         style="stop-color:#dc0000;stop-opacity:1"
         offset="0"
         id="stop867" />
      <stop
         style="stop-color:#ff6600;stop-opacity:1"
         offset="1"
         id="stop869" />
    </linearGradient>
    <clipPath
       id="_clipPath_Sd08GpmkdqIAy1UR239YV2vyPFIZuRyU">
      <rect
         width="48"
         height="48"
         id="rect2" />
    </clipPath>
    <linearGradient
       inkscape:collect="always"
       xlink:href="#linearGradient871"
       id="linearGradient873"
       x1="2.0887713"
       y1="35.759697"
       x2="36.005726"
       y2="16.177734"
       gradientUnits="userSpaceOnUse" />
  </defs>
  <path
     style="fill:url(#linearGradient873);fill-opacity:1;fill-rule:evenodd;stroke:none;stroke-width:0.54634148"
     d="M 41.976562 2 L 41.976562 2.0449219 L 37.976562 2.0449219 L 33.976562 2.0449219 L 29.976562 2.0449219 L 25.976562 2.0449219 L 21.976562 2.0449219 L 17.976562 2.0449219 L 13.976562 2.0449219 L 9.9785156 2.0449219 L 5.9785156 2.0449219 A 1.9999999 1.9999999 0 0 0 3.9785156 4.0449219 A 1.9999999 1.9999999 0 0 0 5.9785156 6.0449219 L 9.9785156 6.0449219 L 13.976562 6.0449219 L 17.976562 6.0449219 L 21.976562 6.0449219 L 25.976562 6.0449219 L 29.976562 6.0449219 L 33.976562 6.0449219 L 37.976562 6.0449219 L 41.976562 6.0449219 L 41.976562 10 L 41.976562 14 L 41.976562 18 L 41.976562 22 L 41.976562 26 L 41.976562 30 L 41.976562 34 L 41.976562 38 L 41.976562 42 L 41.976562 43.585938 A 1.9999999 1.9999999 0 0 0 41.933594 44 A 1.9999999 1.9999999 0 0 0 43.933594 46 A 1.9999999 1.9999999 0 0 0 45.933594 44 L 45.976562 44 L 45.976562 40 L 45.976562 38 L 45.976562 34 L 45.976562 30 L 45.976562 26 L 45.976562 22 L 45.976562 18 L 45.976562 14 L 45.976562 10 L 45.976562 6 L 45.976562 2 L 41.976562 2 z M 2.0234375 10.089844 L 2.0234375 14.089844 L 2.0234375 18.089844 L 2.0234375 22.089844 L 2.0234375 26.089844 L 2.0234375 30.087891 L 2.0234375 34.087891 L 2.0234375 38 L 2.0234375 42 A 1.9999999 1.9999999 0 0 0 4.0234375 44 A 1.9999999 1.9999999 0 0 0 6.0234375 42 L 6.0234375 38 L 6.0234375 34 L 6.0234375 30.087891 L 6.0234375 26.087891 L 6.0234375 22.089844 L 6.0234375 18.089844 L 6.0234375 14.089844 L 10.023438 14.089844 L 14.023438 14.089844 L 18.023438 14.089844 L 22.023438 14.089844 L 26.023438 14.089844 L 30.023438 14.089844 L 33.931641 14.089844 A 1.9999999 1.9999999 0 0 0 35.931641 12.089844 A 1.9999999 1.9999999 0 0 0 33.931641 10.089844 L 30.023438 10.089844 L 26.023438 10.089844 L 22.023438 10.089844 L 18.023438 10.089844 L 14.023438 10.089844 L 10.023438 10.089844 L 6.0234375 10.089844 L 2.0234375 10.089844 z M 11.068359 16.177734 A 1.9999999 1.9999999 0 0 0 9.0683594 18.177734 L 9.0683594 22.177734 L 9.0683594 26.177734 A 1.9999999 1.9999999 0 0 0 11.068359 28.177734 L 15.068359 28.177734 L 19.068359 28.177734 A 1.9999999 1.9999999 0 0 0 21.068359 26.177734 L 21.068359 22.177734 L 21.068359 18.177734 A 1.9999999 1.9999999 0 0 0 19.068359 16.177734 L 15.068359 16.177734 L 11.068359 16.177734 z M 28.976562 16.177734 A 1.9999999 1.9999999 0 0 0 26.976562 18.177734 L 26.976562 22.177734 L 26.976562 26.177734 A 1.9999999 1.9999999 0 0 0 28.976562 28.177734 L 32.976562 28.177734 L 36.976562 28.177734 A 1.9999999 1.9999999 0 0 0 38.976562 26.177734 L 38.976562 22.177734 L 38.976562 18.177734 A 1.9999999 1.9999999 0 0 0 36.976562 16.177734 L 32.976562 16.177734 L 28.976562 16.177734 z M 11.414062 17.847656 L 13.222656 19.65625 C 14.217551 20.650922 15.049889 21.464844 15.074219 21.464844 C 15.098549 21.464844 15.927874 20.655886 16.916016 19.667969 L 18.710938 17.871094 L 19.048828 18.205078 L 19.382812 18.539062 L 17.566406 20.359375 L 15.744141 22.177734 L 17.566406 23.998047 L 19.382812 25.818359 L 19.048828 26.152344 L 18.710938 26.484375 L 16.916016 24.689453 C 15.927874 23.701536 15.098549 22.892578 15.074219 22.892578 C 15.049889 22.892578 14.217551 23.7065 13.222656 24.701172 L 11.414062 26.509766 L 11.080078 26.173828 L 10.746094 25.837891 L 12.574219 24.007812 L 14.404297 22.177734 L 12.574219 20.347656 L 10.746094 18.519531 L 11.080078 18.183594 L 11.414062 17.847656 z M 32.496094 18.1875 L 32.990234 18.1875 L 33.478516 18.1875 L 33.478516 19.939453 L 33.478516 21.691406 L 35.220703 21.691406 L 36.960938 21.691406 L 36.960938 22.183594 L 36.960938 22.673828 L 35.220703 22.673828 L 33.478516 22.673828 L 33.478516 24.425781 L 33.478516 26.177734 L 32.990234 26.177734 L 32.496094 26.177734 L 32.490234 24.431641 L 32.484375 22.685547 L 30.738281 22.679688 L 28.992188 22.673828 L 28.992188 22.183594 L 28.992188 21.691406 L 30.738281 21.685547 L 32.484375 21.679688 L 32.490234 19.933594 L 32.496094 18.1875 z M 11.068359 32 A 1.9999999 1.9999999 0 0 0 9.0683594 34 L 9.0683594 38 L 9.0683594 42 A 1.9999999 1.9999999 0 0 0 11.068359 44 L 15.068359 44 L 19.068359 44 A 1.9999999 1.9999999 0 0 0 21.068359 42 L 21.068359 38 L 21.068359 34 A 1.9999999 1.9999999 0 0 0 19.068359 32 L 15.068359 32 L 11.068359 32 z M 28.976562 32 A 1.9999999 1.9999999 0 0 0 26.976562 34 L 26.976562 38 L 26.976562 42 A 1.9999999 1.9999999 0 0 0 28.976562 44 L 32.976562 44 L 36.976562 44 A 1.9999999 1.9999999 0 0 0 38.976562 42 L 38.976562 38 L 38.976562 34 A 1.9999999 1.9999999 0 0 0 36.976562 32 L 32.976562 32 L 28.976562 32 z M 14.587891 34.757812 L 15.078125 34.757812 L 15.568359 34.757812 L 15.568359 35.5 L 15.568359 36.240234 L 15.078125 36.240234 L 14.587891 36.240234 L 14.587891 35.5 L 14.587891 34.757812 z M 11.083984 37.503906 L 15.060547 37.503906 L 19.039062 37.503906 L 19.039062 37.992188 L 19.039062 38.482422 L 15.060547 38.482422 L 11.083984 38.482422 L 11.083984 37.992188 L 11.083984 37.503906 z M 28.994141 37.523438 L 32.966797 37.523438 L 36.939453 37.523438 L 36.939453 37.992188 L 36.939453 38.460938 L 32.966797 38.460938 L 28.994141 38.460938 L 28.994141 37.992188 L 28.994141 37.523438 z M 14.587891 39.777344 L 15.078125 39.777344 L 15.568359 39.777344 L 15.568359 40.501953 L 15.568359 41.228516 L 15.078125 41.228516 L 14.587891 41.228516 L 14.587891 40.501953 L 14.587891 39.777344 z "
     id="rect1716-2" />
</svg>
