<?xml version="1.0" encoding="UTF-8" standalone="no"?>
<!-- Generator: Gravit.io -->

<svg
   xmlns:dc="http://purl.org/dc/elements/1.1/"
   xmlns:cc="http://creativecommons.org/ns#"
   xmlns:rdf="http://www.w3.org/1999/02/22-rdf-syntax-ns#"
   xmlns:svg="http://www.w3.org/2000/svg"
   xmlns="http://www.w3.org/2000/svg"
   xmlns:sodipodi="http://sodipodi.sourceforge.net/DTD/sodipodi-0.dtd"
   xmlns:inkscape="http://www.inkscape.org/namespaces/inkscape"
   style="isolation:isolate"
   viewBox="0 0 48 48"
   width="48"
   height="48"
   version="1.1"
   id="svg23"
   sodipodi:docname="kdesvn.svg"
   inkscape:version="0.92.4 (unknown)">
  <metadata
     id="metadata27">
    <rdf:RDF>
      <cc:Work
         rdf:about="">
        <dc:format>image/svg+xml</dc:format>
        <dc:type
           rdf:resource="http://purl.org/dc/dcmitype/StillImage" />
      </cc:Work>
    </rdf:RDF>
  </metadata>
  <sodipodi:namedview
     pagecolor="#ffffff"
     bordercolor="#666666"
     borderopacity="1"
     objecttolerance="10"
     gridtolerance="10"
     guidetolerance="10"
     inkscape:pageopacity="0"
     inkscape:pageshadow="2"
     inkscape:window-width="640"
     inkscape:window-height="480"
     id="namedview25"
     showgrid="false"
     showguides="true"
     inkscape:guide-bbox="true"
     inkscape:snap-bbox="true"
     inkscape:bbox-paths="true"
     inkscape:bbox-nodes="true"
     inkscape:snap-bbox-edge-midpoints="true"
     inkscape:snap-bbox-midpoints="true"
     inkscape:object-paths="true"
     inkscape:snap-intersection-paths="true"
     inkscape:snap-smooth-nodes="true"
     inkscape:snap-midpoints="true"
     inkscape:snap-object-midpoints="true"
     inkscape:snap-center="true"
     inkscape:zoom="9.3619386"
     inkscape:cx="20.183487"
     inkscape:cy="23.20475"
     inkscape:current-layer="svg23" />
  <defs
     id="defs5">
    <clipPath
       id="_clipPath_Sd08GpmkdqIAy1UR239YV2vyPFIZuRyU">
      <rect
         width="48"
         height="48"
         id="rect2" />
    </clipPath>
  </defs>
  <path
     inkscape:connector-curvature="0"
     style="opacity:1;vector-effect:none;fill:#0084c8;fill-opacity:1;fill-rule:evenodd;stroke:none;stroke-width:0.02907303;stroke-linecap:butt;stroke-linejoin:miter;stroke-miterlimit:4;stroke-dasharray:none;stroke-dashoffset:0;stroke-opacity:1"
     d="m 11.10838,4.0292701 a 3.9999461,3.9999461 0 0 0 -4,4 3.9999461,3.9999461 0 0 0 2,3.4589799 v 0.51172 4 4 3.9707 0.0273 0.004 0.0254 3.97266 4 4 0.51172 a 3.9999461,3.9999461 0 0 0 -2,3.45898 3.9999461,3.9999461 0 0 0 4,4 3.9999461,3.9999461 0 0 0 4,-4 3.9999461,3.9999461 0 0 0 -2.00196,-3.46093 v -0.50977 -4 l 0.002,-4 v -2 h 2 2.98046 l 2.15821,2.15625 2.82812,2.82813 2.82813,2.82812 3.41406,3.41406 a 3.9999461,3.9999461 0 0 0 -0.14063,1.03125 3.9999461,3.9999461 0 0 0 4,4 3.9999461,3.9999461 0 0 0 4,-4 3.9999461,3.9999461 0 0 0 -4,-4 3.9999461,3.9999461 0 0 0 -1.0332,0.13868 l -3.41211,-3.41211 -2.82812,-2.82813 -2.15625,-2.15625 h 9.15234 0.61719 a 3.9999461,3.9999461 0 0 0 3.375,1.85352 3.9999461,3.9999461 0 0 0 4,-4 3.9999461,3.9999461 0 0 0 -4,-4 3.9999461,3.9999461 0 0 0 -3.54297,2.14648 h -0.44922 -9.32422 l 2.32813,-2.33008 2.82812,-2.82812 0.38281,-0.38281 a 3.9999461,3.9999461 0 0 0 1.03126,0.14062 3.9999461,3.9999461 0 0 0 4,-4 3.9999461,3.9999461 0 0 0 -4,-3.9999999 3.9999461,3.9999461 0 0 0 -4,3.9999999 3.9999461,3.9999461 0 0 0 0.13671,1.03516 l -0.3789,0.3789 -2.82813,2.82813 -2.82812,2.82812 -2.33008,2.33008 h -2.80859 -2 v -2 -4.00195 -3.99805 -0.51172 a 3.9999461,3.9999461 0 0 0 2,-3.4589799 3.9999461,3.9999461 0 0 0 -4,-4 z m 0,2 a 1.9999999,1.9999999 0 0 1 2,2 1.9999999,1.9999999 0 0 1 -2,1.9999999 1.9999999,1.9999999 0 0 1 -2,-1.9999999 1.9999999,1.9999999 0 0 1 2,-2 z M 30.14549,10.59958 a 1.9999999,1.9999999 0 0 1 2,2 1.9999999,1.9999999 0 0 1 -2,2 1.9999999,1.9999999 0 0 1 -2,-2 1.9999999,1.9999999 0 0 1 2,-2 z m 6.74609,11.25391 a 1.9999999,1.9999999 0 0 1 2,2 1.9999999,1.9999999 0 0 1 -2,2 1.9999999,1.9999999 0 0 1 -2,-2 1.9999999,1.9999999 0 0 1 2,-2 z m -3.71485,14.40429 a 1.9999999,1.9999999 0 0 1 2,2 1.9999999,1.9999999 0 0 1 -2,2 1.9999999,1.9999999 0 0 1 -2,-2 1.9999999,1.9999999 0 0 1 2,-2 z m -22.06835,1.71289 a 1.9999999,1.9999999 0 0 1 2,2 1.9999999,1.9999999 0 0 1 -2,2 1.9999999,1.9999999 0 0 1 -2,-2 1.9999999,1.9999999 0 0 1 2,-2 z"
     id="rect1963-0" />
</svg>
