<?xml version="1.0" encoding="UTF-8" standalone="no"?>
<!-- Generator: Gravit.io -->

<svg
   xmlns:dc="http://purl.org/dc/elements/1.1/"
   xmlns:cc="http://creativecommons.org/ns#"
   xmlns:rdf="http://www.w3.org/1999/02/22-rdf-syntax-ns#"
   xmlns:svg="http://www.w3.org/2000/svg"
   xmlns="http://www.w3.org/2000/svg"
   xmlns:xlink="http://www.w3.org/1999/xlink"
   xmlns:sodipodi="http://sodipodi.sourceforge.net/DTD/sodipodi-0.dtd"
   xmlns:inkscape="http://www.inkscape.org/namespaces/inkscape"
   style="isolation:isolate"
   viewBox="0 0 48 48"
   width="48"
   height="48"
   version="1.1"
   id="svg23"
   sodipodi:docname="konversation.svg"
   inkscape:version="0.92.4 (unknown)">
  <metadata
     id="metadata27">
    <rdf:RDF>
      <cc:Work
         rdf:about="">
        <dc:format>image/svg+xml</dc:format>
        <dc:type
           rdf:resource="http://purl.org/dc/dcmitype/StillImage" />
      </cc:Work>
    </rdf:RDF>
  </metadata>
  <sodipodi:namedview
     pagecolor="#ffffff"
     bordercolor="#666666"
     borderopacity="1"
     objecttolerance="10"
     gridtolerance="10"
     guidetolerance="10"
     inkscape:pageopacity="0"
     inkscape:pageshadow="2"
     inkscape:window-width="640"
     inkscape:window-height="480"
     id="namedview25"
     showgrid="false"
     showguides="true"
     inkscape:guide-bbox="true"
     inkscape:snap-bbox="true"
     inkscape:bbox-paths="true"
     inkscape:bbox-nodes="true"
     inkscape:snap-bbox-edge-midpoints="true"
     inkscape:snap-bbox-midpoints="true"
     inkscape:object-paths="true"
     inkscape:snap-intersection-paths="true"
     inkscape:snap-smooth-nodes="true"
     inkscape:snap-midpoints="true"
     inkscape:snap-object-midpoints="true"
     inkscape:snap-center="true"
     inkscape:zoom="6.710625"
     inkscape:cx="28.742881"
     inkscape:cy="18.145471"
     inkscape:current-layer="svg23" />
  <defs
     id="defs5">
    <linearGradient
       inkscape:collect="always"
       id="linearGradient832">
      <stop
         style="stop-color:#19aeff;stop-opacity:1"
         offset="0"
         id="stop828" />
      <stop
         style="stop-color:#ff6600;stop-opacity:1"
         offset="1"
         id="stop830" />
    </linearGradient>
    <clipPath
       id="_clipPath_Sd08GpmkdqIAy1UR239YV2vyPFIZuRyU">
      <rect
         width="48"
         height="48"
         id="rect2" />
    </clipPath>
    <linearGradient
       inkscape:collect="always"
       xlink:href="#linearGradient832"
       id="linearGradient834"
       x1="-25.943722"
       y1="24.179914"
       x2="80.594116"
       y2="24.179914"
       gradientUnits="userSpaceOnUse" />
  </defs>
  <g
     id="g826"
     transform="translate(1.9151531,-0.1799151)"
     style="fill:url(#linearGradient834);fill-opacity:1">
    <path
       sodipodi:nodetypes="cccccscsccccccccccccccccsccccc"
       id="rect358-2-3"
       d="m 2.0848453,2.1800127 c -1.10455934,0 -1.99998234,0.8954079 -1.99999746,1.9999748 V 26.682803 c -7.56e-6,1.104605 0.895423,2.000051 1.99999746,2.000051 h 9.0566407 0.002 c 1.10457,0 2.000009,-0.895446 1.999997,-2.000051 1.2e-5,-1.104567 -0.895427,-1.999975 -1.999997,-1.999975 h -0.002 -7.0566394 V 6.1800001 H 40.085263 V 24.682828 H 27.028624 17.143436 c -1.027495,-7.5e-5 -1.887889,0.778356 -1.990231,1.800756 -0.0068,0.06614 -0.01021,0.132662 -0.01021,0.199182 v 3.999987 4.000025 1.999975 l 4.000023,-3.999987 v -2.000013 -1.999975 h 7.885187 15.05664 c 1.104574,0 2.000009,-0.895483 2.000001,-2.000012 V 4.1798741 c -3.4e-5,-1.1044913 -0.895457,-1.9998992 -2.000001,-1.9998992 -0.01058,-7.56e-5 -0.02079,-7.56e-5 -0.03137,0 z"
       style="opacity:1;vector-effect:none;fill:url(#linearGradient834);fill-opacity:1;fill-rule:evenodd;stroke:none;stroke-width:0.02907307;stroke-linecap:butt;stroke-linejoin:miter;stroke-miterlimit:4;stroke-dasharray:none;stroke-dashoffset:0;stroke-opacity:1;paint-order:normal"
       inkscape:connector-curvature="0" />
    <path
       inkscape:connector-curvature="0"
       id="path1566-3-2-3"
       d="m 7.838749,31.581033 a 4.0635874,4.0635874 0 0 0 -4.0640429,4.064051 4.0635874,4.0635874 0 0 0 1.5701216,3.201902 7.7534427,7.7534427 0 0 0 -5.25997986,7.332926 H 2.2619766 a 5.5763347,5.5763347 0 0 1 5.5767724,-5.576731 5.5763347,5.5763347 0 0 1 5.57678,5.576731 h 2.177129 a 7.7534427,7.7534427 0 0 0 -5.25786,-7.330772 4.0635874,4.0635874 0 0 0 1.568005,-3.204056 4.0635874,4.0635874 0 0 0 -4.064054,-4.064051 z"
       style="opacity:1;vector-effect:none;fill:url(#linearGradient834);fill-opacity:1;fill-rule:evenodd;stroke:none;stroke-width:0.02907307;stroke-linecap:butt;stroke-linejoin:miter;stroke-miterlimit:4;stroke-dasharray:none;stroke-dashoffset:0;stroke-opacity:1;paint-order:normal" />
  </g>
</svg>
