<?xml version="1.0" encoding="UTF-8" standalone="no"?>
<!-- Generator: Gravit.io -->

<svg
   xmlns:dc="http://purl.org/dc/elements/1.1/"
   xmlns:cc="http://creativecommons.org/ns#"
   xmlns:rdf="http://www.w3.org/1999/02/22-rdf-syntax-ns#"
   xmlns:svg="http://www.w3.org/2000/svg"
   xmlns="http://www.w3.org/2000/svg"
   xmlns:xlink="http://www.w3.org/1999/xlink"
   xmlns:sodipodi="http://sodipodi.sourceforge.net/DTD/sodipodi-0.dtd"
   xmlns:inkscape="http://www.inkscape.org/namespaces/inkscape"
   style="isolation:isolate"
   viewBox="0 0 48 48"
   width="48"
   height="48"
   version="1.1"
   id="svg23"
   sodipodi:docname="krdc.svg"
   inkscape:version="0.92.4 (unknown)">
  <metadata
     id="metadata27">
    <rdf:RDF>
      <cc:Work
         rdf:about="">
        <dc:format>image/svg+xml</dc:format>
        <dc:type
           rdf:resource="http://purl.org/dc/dcmitype/StillImage" />
      </cc:Work>
    </rdf:RDF>
  </metadata>
  <sodipodi:namedview
     pagecolor="#ffffff"
     bordercolor="#666666"
     borderopacity="1"
     objecttolerance="10"
     gridtolerance="10"
     guidetolerance="10"
     inkscape:pageopacity="0"
     inkscape:pageshadow="2"
     inkscape:window-width="640"
     inkscape:window-height="480"
     id="namedview25"
     showgrid="false"
     showguides="true"
     inkscape:guide-bbox="true"
     inkscape:snap-bbox="true"
     inkscape:bbox-paths="true"
     inkscape:bbox-nodes="true"
     inkscape:snap-bbox-edge-midpoints="true"
     inkscape:snap-bbox-midpoints="true"
     inkscape:object-paths="true"
     inkscape:snap-intersection-paths="true"
     inkscape:snap-smooth-nodes="true"
     inkscape:snap-midpoints="true"
     inkscape:snap-object-midpoints="true"
     inkscape:snap-center="true"
     inkscape:zoom="8.4687501"
     inkscape:cx="13.777156"
     inkscape:cy="24.966787"
     inkscape:current-layer="svg23" />
  <defs
     id="defs5">
    <linearGradient
       id="linearGradient893"
       inkscape:collect="always">
      <stop
         id="stop889"
         offset="0"
         style="stop-color:#ffffff;stop-opacity:1" />
      <stop
         id="stop891"
         offset="1"
         style="stop-color:#0084c8;stop-opacity:1" />
    </linearGradient>
    <linearGradient
       inkscape:collect="always"
       id="linearGradient848">
      <stop
         style="stop-color:#ffffff;stop-opacity:1"
         offset="0"
         id="stop844" />
      <stop
         style="stop-color:#804d00;stop-opacity:1"
         offset="1"
         id="stop846" />
    </linearGradient>
    <clipPath
       id="_clipPath_Sd08GpmkdqIAy1UR239YV2vyPFIZuRyU">
      <rect
         width="48"
         height="48"
         id="rect2" />
    </clipPath>
    <radialGradient
       inkscape:collect="always"
       xlink:href="#linearGradient893"
       id="radialGradient850"
       cx="24"
       cy="24"
       fx="24"
       fy="24"
       r="21.999999"
       gradientTransform="matrix(0.67796058,0,0,0.60233346,7.7289461,9.5439968)"
       gradientUnits="userSpaceOnUse" />
    <radialGradient
       inkscape:collect="always"
       xlink:href="#linearGradient848"
       id="radialGradient850-3"
       cx="24"
       cy="24"
       fx="24"
       fy="24"
       r="21.999998"
       gradientTransform="matrix(0.58671592,0,0,0.78415539,-4.6501232,-7.34403)"
       gradientUnits="userSpaceOnUse" />
  </defs>
  <g
     id="g842"
     style="fill-opacity:1;fill:url(#radialGradient850);font-variant-east_asian:normal;opacity:1;vector-effect:none;stroke:none;stroke-width:1.11437702;stroke-linecap:butt;stroke-linejoin:miter;stroke-miterlimit:4;stroke-dasharray:none;stroke-dashoffset:0;stroke-opacity:1;paint-order:normal">
    <path
       sodipodi:nodetypes="cccccccccccccccccscccccccccccccccccc"
       inkscape:connector-curvature="0"
       id="circle2869-3"
       d="m 32.246071,15.626145 c -4.965029,-4.343131 -12.445863,-4.097612 -17.115424,0.561751 -0.194003,0.200693 -0.381445,0.407585 -0.561706,0.620712 l 1.177788,1.177777 0.566369,0.566362 1.182411,1.182425 0.630455,0.630425 c 0.172157,-0.220346 0.356447,-0.430639 0.551985,-0.630387 2.710772,-2.704063 7.019701,-2.941795 10.011186,-0.551962 L 28.137192,19.73521 27.49807,20.374328 C 25.170437,18.633893 21.918202,18.8652 19.860363,20.917635 19.664621,21.11795 19.482712,21.33104 19.31709,21.556753 l 1.197415,1.197392 0.587731,0.587755 0.635082,0.635074 c -0.457675,0.958299 -0.262262,2.100926 0.487854,2.852674 0.979536,0.97954 2.567678,0.97954 3.547215,0 0.979536,-0.97954 0.979532,-2.567698 0,-3.5472 -0.751733,-0.750123 -1.894386,-0.945562 -2.852667,-0.487862 l -0.694537,-0.694563 -0.531167,-0.531137 c 1.657081,-1.095308 3.856074,-0.87326 5.260777,0.531137 0.198463,0.198803 0.376441,0.416881 0.531164,0.65125 l 1.195683,-1.195691 0.637969,-0.637947 1.182403,-1.182425 0.558871,-0.558879 C 30.884152,18.960142 30.697671,18.752079 30.502008,18.552822 27.138739,15.195128 21.771163,14.95286 18.1191,17.993944 l -0.623539,-0.623547 -0.561172,-0.561184 c 4.309319,-3.692032 10.73368,-3.447572 14.750026,0.561184 0.19491,0.199937 0.38217,0.407018 0.561184,0.621241 l 1.19164,-1.191647 z"
       style="opacity:1;isolation:isolate;vector-effect:none;fill:url(#radialGradient850);fill-opacity:1;fill-rule:evenodd;stroke:none;stroke-width:1.11437702;stroke-linecap:butt;stroke-linejoin:miter;stroke-miterlimit:4;stroke-dasharray:none;stroke-dashoffset:0;stroke-opacity:1;paint-order:normal;font-variant-east_asian:normal" />
    <path
       sodipodi:nodetypes="cccccscscccccccccccccccccccccsccccc"
       id="rect358-2-8"
       d="m 3.9999984,6.7486769 c -1.1045593,0 -1.9999823,0.8954079 -1.9999975,1.9999747 V 31.251468 c -7.6e-6,1.104605 0.895423,2.000051 2.0000012,2.000051 h 9.0566399 0.002 c 1.104574,0 2.000009,-0.895446 2.000001,-2.000051 8e-6,-1.104567 -0.895427,-1.999975 -2.000001,-1.999975 h -0.002 -7.0566385 V 10.748665 H 42.00042 V 29.251493 H 28.943781 19.058593 c -1.027499,-7.5e-5 -1.887893,0.778356 -1.990235,1.800756 -0.0068,0.06614 -0.01021,0.132662 -0.01021,0.199182 v 3.999987 4.000025 1.999975 h 4.000003 5.909843 3.999999 v -3.999987 h -3.999979 -5.909843 v -2.000013 -1.999975 h 7.885187 15.05664 c 1.104574,0 2.000009,-0.895483 2.000001,-2.000012 V 8.7485386 c -3e-5,-1.1044916 -0.895457,-1.9998995 -2.000001,-1.9998995 -0.01058,-7.56e-5 -0.02079,-7.56e-5 -0.03137,0 z"
       style="fill:url(#radialGradient850);fill-rule:evenodd;stroke:none;stroke-width:1.11437702;fill-opacity:1;font-variant-east_asian:normal;vector-effect:none;stroke-linecap:butt;stroke-linejoin:miter;stroke-miterlimit:4;stroke-dasharray:none;stroke-dashoffset:0;stroke-opacity:1;paint-order:normal"
       inkscape:connector-curvature="0" />
  </g>
</svg>
