<?xml version="1.0" encoding="UTF-8" standalone="no"?>
<!-- Generator: Gravit.io -->

<svg
   xmlns:dc="http://purl.org/dc/elements/1.1/"
   xmlns:cc="http://creativecommons.org/ns#"
   xmlns:rdf="http://www.w3.org/1999/02/22-rdf-syntax-ns#"
   xmlns:svg="http://www.w3.org/2000/svg"
   xmlns="http://www.w3.org/2000/svg"
   xmlns:xlink="http://www.w3.org/1999/xlink"
   xmlns:sodipodi="http://sodipodi.sourceforge.net/DTD/sodipodi-0.dtd"
   xmlns:inkscape="http://www.inkscape.org/namespaces/inkscape"
   style="isolation:isolate"
   viewBox="0 0 48 48"
   width="48"
   height="48"
   version="1.1"
   id="svg23"
   sodipodi:docname="kwalletmanager.svg"
   inkscape:version="0.92.4 (unknown)">
  <metadata
     id="metadata29">
    <rdf:RDF>
      <cc:Work
         rdf:about="">
        <dc:format>image/svg+xml</dc:format>
        <dc:type
           rdf:resource="http://purl.org/dc/dcmitype/StillImage" />
      </cc:Work>
    </rdf:RDF>
  </metadata>
  <defs
     id="defs27">
    <linearGradient
       inkscape:collect="always"
       id="linearGradient913">
      <stop
         style="stop-color:#009100;stop-opacity:1;"
         offset="0"
         id="stop909" />
      <stop
         style="stop-color:#9ade00;stop-opacity:1"
         offset="1"
         id="stop911" />
    </linearGradient>
    <linearGradient
       inkscape:collect="always"
       xlink:href="#linearGradient913"
       id="linearGradient915"
       x1="1.9999974"
       y1="24"
       x2="38.996143"
       y2="24"
       gradientUnits="userSpaceOnUse" />
  </defs>
  <sodipodi:namedview
     pagecolor="#ffffff"
     bordercolor="#666666"
     borderopacity="1"
     objecttolerance="10"
     gridtolerance="10"
     guidetolerance="10"
     inkscape:pageopacity="0"
     inkscape:pageshadow="2"
     inkscape:window-width="640"
     inkscape:window-height="480"
     id="namedview25"
     showgrid="false"
     inkscape:zoom="7.3606317"
     inkscape:cx="22.379948"
     inkscape:cy="21.295389"
     inkscape:current-layer="svg23" />
  <linearGradient
     id="_lgradient_8"
     x1="-1.735528038875542"
     y1="0.17491146156190052"
     x2="1.022936493905845"
     y2="0.5042963242965388"
     gradientTransform="matrix(21.681,0,0,15.11,13.273,10.89)"
     gradientUnits="userSpaceOnUse">
    <stop
       offset="0%"
       stop-opacity="1"
       style="stop-color:rgb(242,55,239)"
       id="stop2" />
    <stop
       offset="98.69565217391305%"
       stop-opacity="1"
       style="stop-color:rgb(252,82,82)"
       id="stop4" />
  </linearGradient>
  <linearGradient
     id="_lgradient_9"
     x1="0"
     y1="0.5"
     x2="1"
     y2="0.5"
     gradientTransform="matrix(48,0,0,38.08,0,0.17)"
     gradientUnits="userSpaceOnUse">
    <stop
       offset="0%"
       stop-opacity="1"
       style="stop-color:rgb(242,55,239)"
       id="stop9" />
    <stop
       offset="98.69565217391305%"
       stop-opacity="1"
       style="stop-color:rgb(252,82,82)"
       id="stop11" />
  </linearGradient>
  <linearGradient
     id="_lgradient_10"
     x1="0"
     y1="0.5"
     x2="1"
     y2="0.5"
     gradientTransform="matrix(21.36,0,0,9.92,13.32,38.32)"
     gradientUnits="userSpaceOnUse">
    <stop
       offset="0%"
       stop-opacity="1"
       style="stop-color:rgb(242,55,239)"
       id="stop16" />
    <stop
       offset="98.69565217391305%"
       stop-opacity="1"
       style="stop-color:rgb(252,82,82)"
       id="stop18" />
  </linearGradient>
  <path
     style="opacity:1;vector-effect:none;fill:url(#linearGradient915);fill-opacity:1;fill-rule:evenodd;stroke:none;stroke-width:0.02907307;stroke-linecap:butt;stroke-linejoin:miter;stroke-miterlimit:4;stroke-dasharray:none;stroke-dashoffset:0;stroke-opacity:1;paint-order:normal;font-variant-east_asian:normal"
     d="m 10.787107,1.9955359 c -1.1045696,0 -1.9999996,0.89543 -1.9999996,2 v 2.90039 1.09961 2.9003901 h 3.9999996 v -2.9003901 -0.53516 l 0.46484,0.26758 3.46289,2 3.28907,1.8984401 0.28906,0.16797 h -0.53516 -4 -7.7578096 -4 c -1.10458,0 -2.00001,0.89543 -2,2 v 4 4 19.95103 2.25 c -1e-5,1.10457 0.90165,2.11713 2,2 h 4 7.7578096 4 4 4 c 1.10458,0 2.00001,-0.89543 2,-2 v -4 -18.20103 -2 c 0,-1.10457 -0.89543,-2 -2,-2 -1.10457,0 -2,0.89543 -2,2 v 4 16.20103 2 h -2 -4 -4 -7.7578096 -2 v -20.20103 -4 -2 h 2 7.7578096 4 4 4 c 1.10458,0 2.00001,-0.89543 2,-2 10e-6,-0.7396 -0.40701,-1.37856 -1.0039,-1.72461 l 0.004,-0.008 -2.0918,-1.20703 -1.25781,-0.72657 -0.11523,-0.0664 -2.08985,-1.2070301 -1.19921,-0.69141 -3.28907,-1.89844 -3.46289,-2 -3.46484,-2 c -0.30389,-0.17609 -0.64878,-0.26905 -1,-0.26953 z"
     id="path1264-4-7-60-6"
     inkscape:connector-curvature="0"
     sodipodi:nodetypes="cscccccccccccccsccccccccccscccssscccccccccccccccsccccccccccccc" />
  <path
     inkscape:export-ydpi="300"
     inkscape:export-xdpi="300"
     inkscape:connector-curvature="0"
     id="path931-4-0"
     d="m 15.710968,20.198019 v 0.0014 a 8.0270461,7.9035036 0 0 0 -3.708994,1.049575 8.0270461,7.9035036 0 0 0 -2.9380531,10.796712 8.0270461,7.9035036 0 0 0 10.9654711,2.892813 8.0270461,7.9035036 0 0 0 3.705407,-4.708498 0.73505137,0.72373834 0 0 0 6.92e-4,-0.0014 0.73505137,0.72373834 0 0 0 0.05741,-0.280063 0.73505137,0.72373834 0 0 0 -0.73505,-0.723742 0.73505137,0.72373834 0 0 0 -0.709213,0.534349 l -0.0014,-0.0038 a 6.5569486,6.4560318 0 0 1 -3.052928,3.928328 6.5569486,6.4560318 0 0 1 -8.957004,-2.362054 6.5569486,6.4560318 0 0 1 2.399682,-8.81983 6.5569486,6.4560318 0 0 1 4.981697,-0.639647 l -0.0014,-0.0027 a 0.73505137,0.72373834 0 0 0 0.188069,0.02646 0.73505137,0.72373834 0 0 0 0.73505,-0.723742 0.73505137,0.72373834 0 0 0 -0.641019,-0.717392 8.0270461,7.9035036 0 0 0 -2.288417,-0.245291 z m -4.836699,7.170255 a 0.73505137,0.72373834 0 0 0 -0.73505,0.723742 0.73505137,0.72373834 0 0 0 0.73505,0.723741 h 1.470104 1.470104 1.470104 1.4701 1.470104 a 0.73505137,0.72373834 0 0 0 0.73505,-0.723741 0.73505137,0.72373834 0 0 0 -0.73505,-0.723742 h -1.470104 -1.4701 -1.470104 -1.470104 z"
     style="opacity:1;vector-effect:none;fill:#009100;fill-opacity:1;fill-rule:evenodd;stroke:none;stroke-width:0.02907307;stroke-linecap:butt;stroke-linejoin:miter;stroke-miterlimit:4;stroke-dasharray:none;stroke-dashoffset:0;stroke-opacity:1;paint-order:normal;font-variant-east_asian:normal" />
  <path
     style="opacity:1;vector-effect:none;fill:#009100;fill-opacity:1;fill-rule:evenodd;stroke:none;stroke-width:0.02907307;stroke-linecap:butt;stroke-linejoin:miter;stroke-miterlimit:4;stroke-dasharray:none;stroke-dashoffset:0;stroke-opacity:1;paint-order:normal"
     d="m 37.944359,19.980141 v -1.188756 l -0.0934,-3.5e-4 c -0.05137,-2.04e-4 -0.276811,-0.01641 -0.500976,-0.03603 -0.802447,-0.07024 -1.631053,-0.26363 -2.414683,-0.563573 L 34.61584,18.069155 V 17.378438 16.68772 l 0.207408,0.121559 c 0.887178,0.51996 1.803208,0.809075 2.789957,0.880559 l 0.331154,0.02399 v -1.821753 -1.821752 h -0.07233 c -0.133234,0 -0.858018,-0.173715 -1.206237,-0.289109 -1.389622,-0.460498 -2.018077,-1.232293 -2.018586,-2.478996 -3.2e-4,-0.781922 0.18795,-1.3270059 0.621923,-1.8006109 0.532153,-0.5807517 1.250152,-0.8964667 2.36106,-1.0381934 L 37.94436,8.4233327 V 7.5107352 6.5981378 h 0.373609 0.373609 v 0.8960973 0.8960973 l 0.07642,0.02048 c 0.04203,0.011264 0.148236,0.020689 0.236011,0.020943 0.403394,0.00117 1.503608,0.190199 2.119315,0.3641174 L 41.4427,8.8860869 V 9.5570018 10.227917 L 41.196458,10.114432 C 40.86237,9.9604641 40.335146,9.7807174 39.965245,9.694675 39.669942,9.6259846 38.945159,9.5190827 38.774749,9.5190827 h -0.08317 v 1.6904503 1.690451 l 0.415886,0.07948 c 1.651641,0.315658 2.584354,0.938214 2.932389,1.957275 0.123827,0.362569 0.155398,1.075809 0.06694,1.51235 -0.267422,1.31978 -1.37477,2.130258 -3.143502,2.300754 l -0.254733,0.02455 -0.0089,1.197248 -0.0089,1.197248 H 38.317585 37.94441 Z m 1.346177,-2.413867 c 1.01852,-0.263143 1.545931,-0.936904 1.436229,-1.834767 -0.08642,-0.70728 -0.591565,-1.141917 -1.632149,-1.404323 -0.189836,-0.04787 -0.35818,-0.08704 -0.374098,-0.08704 -0.01592,0 -0.02894,0.773812 -0.02894,1.719582 v 1.719581 l 0.165912,-0.02201 c 0.09125,-0.0121 0.286121,-0.05307 0.433047,-0.09103 z M 37.927897,9.5252638 c -0.03251,-0.032509 -0.510769,0.070143 -0.777433,0.1668649 -0.644115,0.2336279 -0.991392,0.6252033 -1.083769,1.2220133 -0.104967,0.678142 0.196696,1.251793 0.811759,1.543666 0.209831,0.09957 0.727154,0.255213 0.980994,0.295138 0.06702,0.01054 0.06805,-0.01086 0.07675,-1.599935 0.0049,-0.885841 0.0011,-1.6183272 -0.0083,-1.6277472 z"
     id="path896"
     inkscape:connector-curvature="0" />
  <path
     inkscape:connector-curvature="0"
     id="path907"
     d="m 37.944359,41.173974 v -1.188756 l -0.0934,-3.5e-4 c -0.05137,-2.04e-4 -0.276811,-0.01641 -0.500976,-0.03603 -0.802447,-0.07024 -1.631053,-0.26363 -2.414683,-0.563573 l -0.31946,-0.122277 v -0.690717 -0.690718 l 0.207408,0.121559 c 0.887178,0.51996 1.803208,0.809075 2.789957,0.880559 l 0.331154,0.02399 v -1.821753 -1.821752 h -0.07233 c -0.133234,0 -0.858018,-0.173715 -1.206237,-0.289109 -1.389622,-0.460498 -2.018077,-1.232293 -2.018586,-2.478996 -3.2e-4,-0.781922 0.18795,-1.327006 0.621923,-1.800611 0.532153,-0.580752 1.250152,-0.896467 2.36106,-1.038193 l 0.314171,-0.04008 v -0.912598 -0.912597 h 0.373609 0.373609 v 0.896097 0.896097 l 0.07642,0.02048 c 0.04203,0.01126 0.148236,0.02069 0.236011,0.02094 0.403394,0.0012 1.503608,0.190199 2.119315,0.364118 l 0.319376,0.09021 v 0.670915 0.670915 L 41.196458,31.308265 C 40.86237,31.154297 40.335146,30.97455 39.965245,30.888508 39.669942,30.819818 38.945159,30.712916 38.774749,30.712916 h -0.08317 v 1.69045 1.690451 l 0.415886,0.07948 c 1.651641,0.315658 2.584354,0.938214 2.932389,1.957275 0.123827,0.362569 0.155398,1.075809 0.06694,1.51235 -0.267422,1.31978 -1.37477,2.130258 -3.143502,2.300754 l -0.254733,0.02455 -0.0089,1.197248 -0.0089,1.197248 H 38.317585 37.94441 Z m 1.346177,-2.413867 c 1.01852,-0.263143 1.545931,-0.936904 1.436229,-1.834767 -0.08642,-0.70728 -0.591565,-1.141917 -1.632149,-1.404323 -0.189836,-0.04787 -0.35818,-0.08704 -0.374098,-0.08704 -0.01592,0 -0.02894,0.773812 -0.02894,1.719582 v 1.719581 l 0.165912,-0.02201 c 0.09125,-0.0121 0.286121,-0.05307 0.433047,-0.09103 z m -1.362639,-8.04101 c -0.03251,-0.03251 -0.510769,0.07014 -0.777433,0.166865 -0.644115,0.233628 -0.991392,0.625203 -1.083769,1.222013 -0.104967,0.678142 0.196696,1.251793 0.811759,1.543666 0.209831,0.09957 0.727154,0.255213 0.980994,0.295138 0.06702,0.01054 0.06805,-0.01086 0.07675,-1.599935 0.0049,-0.885841 0.0011,-1.618327 -0.0083,-1.627747 z"
     style="opacity:1;vector-effect:none;fill:#009100;fill-opacity:1;fill-rule:evenodd;stroke:none;stroke-width:0.02907307;stroke-linecap:butt;stroke-linejoin:miter;stroke-miterlimit:4;stroke-dasharray:none;stroke-dashoffset:0;stroke-opacity:1;paint-order:normal" />
</svg>
