<?xml version="1.0" encoding="UTF-8" standalone="no"?>
<!-- Generator: Gravit.io -->

<svg
   xmlns:dc="http://purl.org/dc/elements/1.1/"
   xmlns:cc="http://creativecommons.org/ns#"
   xmlns:rdf="http://www.w3.org/1999/02/22-rdf-syntax-ns#"
   xmlns:svg="http://www.w3.org/2000/svg"
   xmlns="http://www.w3.org/2000/svg"
   xmlns:xlink="http://www.w3.org/1999/xlink"
   xmlns:sodipodi="http://sodipodi.sourceforge.net/DTD/sodipodi-0.dtd"
   xmlns:inkscape="http://www.inkscape.org/namespaces/inkscape"
   style="isolation:isolate"
   viewBox="0 0 48 48"
   width="48"
   height="48"
   version="1.1"
   id="svg23"
   sodipodi:docname="libreoffice-math.svg"
   inkscape:version="0.92.4 (unknown)">
  <metadata
     id="metadata27">
    <rdf:RDF>
      <cc:Work
         rdf:about="">
        <dc:format>image/svg+xml</dc:format>
        <dc:type
           rdf:resource="http://purl.org/dc/dcmitype/StillImage" />
      </cc:Work>
    </rdf:RDF>
  </metadata>
  <sodipodi:namedview
     pagecolor="#ffffff"
     bordercolor="#666666"
     borderopacity="1"
     objecttolerance="10"
     gridtolerance="10"
     guidetolerance="10"
     inkscape:pageopacity="0"
     inkscape:pageshadow="2"
     inkscape:window-width="640"
     inkscape:window-height="480"
     id="namedview25"
     showgrid="false"
     showguides="true"
     inkscape:guide-bbox="true"
     inkscape:snap-bbox="true"
     inkscape:bbox-paths="true"
     inkscape:bbox-nodes="true"
     inkscape:snap-bbox-edge-midpoints="true"
     inkscape:snap-bbox-midpoints="true"
     inkscape:object-paths="true"
     inkscape:snap-intersection-paths="true"
     inkscape:snap-smooth-nodes="true"
     inkscape:snap-midpoints="true"
     inkscape:snap-object-midpoints="true"
     inkscape:snap-center="true"
     inkscape:zoom="5.6568543"
     inkscape:cx="-23.077385"
     inkscape:cy="24.913439"
     inkscape:current-layer="svg23" />
  <defs
     id="defs5">
    <linearGradient
       inkscape:collect="always"
       id="linearGradient850">
      <stop
         style="stop-color:#101010;stop-opacity:1"
         offset="0"
         id="stop846" />
      <stop
         style="stop-color:#585858;stop-opacity:1"
         offset="1"
         id="stop848" />
    </linearGradient>
    <clipPath
       id="_clipPath_Sd08GpmkdqIAy1UR239YV2vyPFIZuRyU">
      <rect
         width="48"
         height="48"
         id="rect2" />
    </clipPath>
    <linearGradient
       inkscape:collect="always"
       xlink:href="#linearGradient850"
       id="linearGradient852"
       x1="12.589979"
       y1="39.509285"
       x2="41.148998"
       y2="11.258456"
       gradientUnits="userSpaceOnUse" />
    <linearGradient
       inkscape:collect="always"
       xlink:href="#linearGradient850"
       id="linearGradient824"
       gradientUnits="userSpaceOnUse"
       x1="12.589979"
       y1="39.509285"
       x2="41.148998"
       y2="11.258456" />
    <linearGradient
       inkscape:collect="always"
       xlink:href="#linearGradient850"
       id="linearGradient826"
       gradientUnits="userSpaceOnUse"
       x1="12.589979"
       y1="39.509285"
       x2="41.148998"
       y2="11.258456" />
    <linearGradient
       inkscape:collect="always"
       xlink:href="#linearGradient850"
       id="linearGradient828"
       gradientUnits="userSpaceOnUse"
       x1="12.589979"
       y1="39.509285"
       x2="41.148998"
       y2="11.258456" />
    <linearGradient
       inkscape:collect="always"
       xlink:href="#linearGradient850"
       id="linearGradient830"
       gradientUnits="userSpaceOnUse"
       x1="12.589979"
       y1="39.509285"
       x2="41.148998"
       y2="11.258456" />
    <linearGradient
       inkscape:collect="always"
       xlink:href="#linearGradient850"
       id="linearGradient832"
       gradientUnits="userSpaceOnUse"
       x1="12.589979"
       y1="39.509285"
       x2="41.148998"
       y2="11.258456" />
    <linearGradient
       inkscape:collect="always"
       xlink:href="#linearGradient850"
       id="linearGradient834"
       gradientUnits="userSpaceOnUse"
       x1="12.589979"
       y1="39.509285"
       x2="41.148998"
       y2="11.258456" />
  </defs>
  <g
     id="g844"
     transform="translate(-5.1681294,-1.0190297)"
     style="fill:url(#linearGradient852);fill-opacity:1">
    <path
       id="path1264-2"
       d="m 28.466003,23.163535 a 1.9999999,1.9999999 0 0 0 -2,2 1.9999999,1.9999999 0 0 0 0.585937,1.41211 l -0.002,0.002 2.830078,2.828125 1.414063,1.414062 -1.414063,1.414063 -2.830078,2.828125 0.002,0.002 a 1.9999999,1.9999999 0 0 0 -0.585937,1.412109 1.9999999,1.9999999 0 0 0 2,2 h 4 2 4 3.998047 v -4 h -3.998047 -0.002 -3.998047 -1.171875 l 2.242187,-2.242187 -0.002,-0.002 a 1.9999999,1.9999999 0 0 0 0.587891,-1.41211 1.9999999,1.9999999 0 0 0 -0.585938,-1.414062 l -2.242187,-2.242188 h 1.171875 4 3.998047 v -4 h -3.998047 -0.002 -3.998047 -2 z"
       style="opacity:1;vector-effect:none;fill:url(#linearGradient824);fill-opacity:1;fill-rule:evenodd;stroke:none;stroke-width:0.37145898;stroke-linecap:butt;stroke-linejoin:miter;stroke-miterlimit:4;stroke-dasharray:none;stroke-dashoffset:0;stroke-opacity:1;paint-order:normal"
       inkscape:connector-curvature="0" />
    <path
       id="path1264-3"
       d="m 10.341003,4.1928324 a 1.9999999,1.9999999 0 0 0 -2.0000003,2 1.9999999,1.9999999 0 0 0 0.00195,0.046875 v 3.9531246 3 4 3 4 3 2 2.416016 a 1.9999999,1.9999999 0 0 0 -0.00195,0.03906 1.9999999,1.9999999 0 0 0 2.0000003,2 h 4 3.396484 0.966797 v 2 2.265625 h 0.002 a 1.9999999,1.9999999 0 0 0 2,2 1.9999999,1.9999999 0 0 0 2,-2 1.9999999,1.9999999 0 0 0 -0.002,-0.07031 v -3.929688 -2.224609 a 1.9999999,1.9999999 0 0 0 0.002,-0.04102 1.9999999,1.9999999 0 0 0 -2,-2 h -2.968797 -3.396484 -1.998047 v -2 -2.455078 -2 -3 -4 -3 -3.9999996 -1 h 1.998047 4 4 4 4 4 4 4 2 1.654297 v 1.9999996 3.042969 3 4 3 4 3 4 3 3.609375 1 h -2.240235 -4 -4 -4 -4 -4 -3.171875 l -1.292968,-1.291012 -2.457032,-2.458984 -2.828125,-2.828125 -0.002,0.002 a 1.9999999,1.9999999 0 0 0 -1.412109,-0.58789 1.9999999,1.9999999 0 0 0 -2,2 1.9999999,1.9999999 0 0 0 0.583984,1.414062 l 2.830078,2.828125 1.50586,1.507813 2.794921,2.792968 a 1.9999999,1.9999999 0 0 0 0.01367,0.01563 l 0.02149,0.01953 a 1.9999999,1.9999999 0 0 0 1.414062,0.585938 h 4 4 4 4 4 4 2.240235 2 a 1.9999999,1.9999999 0 0 0 2,-2 v -4 -3 -3.609375 -3 -4 -3 -4 -3 -4 -2.9999998 -3.0429688 a 1.9999999,1.9999999 0 0 0 -2,-2 h -3.654297 -2 -4 -4 -4 -4 -4 -4 -4 z"
       style="opacity:1;vector-effect:none;fill:url(#linearGradient826);fill-opacity:1;fill-rule:evenodd;stroke:none;stroke-width:0.37145898;stroke-linecap:butt;stroke-linejoin:miter;stroke-miterlimit:4;stroke-dasharray:none;stroke-dashoffset:0;stroke-opacity:1;paint-order:normal"
       inkscape:connector-curvature="0" />
    <path
       inkscape:connector-curvature="0"
       id="circle1584"
       d="m 39.126122,17.157695 a 1.6874999,1.6874999 0 0 0 -1.6875,1.687484 1.6874999,1.6874999 0 0 0 1.6875,1.687521 1.6874999,1.6874999 0 0 0 1.6875,-1.687521 1.6874999,1.6874999 0 0 0 -1.6875,-1.687484 z m 0,0.705071 a 0.98150356,0.98150356 0 0 1 0.982421,0.982413 0.98150356,0.98150356 0 0 1 -0.982421,0.98245 0.98150356,0.98150356 0 0 1 -0.980469,-0.98245 0.98150356,0.98150356 0 0 1 0.980469,-0.982413 z"
       style="opacity:1;vector-effect:none;fill:url(#linearGradient828);fill-opacity:1;fill-rule:evenodd;stroke:none;stroke-width:0.51848036;stroke-linecap:butt;stroke-linejoin:miter;stroke-miterlimit:4;stroke-dasharray:none;stroke-dashoffset:0;stroke-opacity:1;paint-order:normal" />
    <path
       id="circle1584-3"
       d="m 33.564601,11.595214 a 1.6874999,1.6874999 0 0 0 -1.6875,1.687483 1.6874999,1.6874999 0 0 0 1.6875,1.687521 1.6874999,1.6874999 0 0 0 1.6875,-1.687521 1.6874999,1.6874999 0 0 0 -1.6875,-1.687483 z m 0,0.705071 a 0.98150356,0.98150356 0 0 1 0.982421,0.982412 0.98150356,0.98150356 0 0 1 -0.982421,0.98245 0.98150356,0.98150356 0 0 1 -0.980469,-0.98245 0.98150356,0.98150356 0 0 1 0.980469,-0.982412 z"
       style="opacity:1;vector-effect:none;fill:url(#linearGradient830);fill-opacity:1;fill-rule:evenodd;stroke:none;stroke-width:0.51848036;stroke-linecap:butt;stroke-linejoin:miter;stroke-miterlimit:4;stroke-dasharray:none;stroke-dashoffset:0;stroke-opacity:1;paint-order:normal"
       inkscape:connector-curvature="0" />
    <path
       inkscape:connector-curvature="0"
       id="path1608"
       d="m 16.190881,19.311041 -0.828205,-3.091884 h -0.713067 -0.713066 v -0.497392 -0.497393 l 1.087906,0.0057 1.087906,0.0057 0.451751,1.685413 c 0.248463,0.926977 0.458494,1.677725 0.466736,1.66833 0.01344,-0.01533 1.855448,-6.873301 1.855448,-6.908028 0,-0.0079 1.80478,-0.0144 4.010622,-0.0144 h 4.010621 v 0.486136 0.486136 H 23.27712 19.646708 l -1.300226,4.855835 c -0.715124,2.670709 -1.306339,4.867495 -1.313811,4.881747 -0.0075,0.01425 -0.386277,-1.365434 -0.84179,-3.06597 z"
       style="opacity:1;vector-effect:none;fill:url(#linearGradient832);fill-opacity:1;fill-rule:evenodd;stroke:none;stroke-width:0.01145691;stroke-linecap:butt;stroke-linejoin:miter;stroke-miterlimit:4;stroke-dasharray:none;stroke-dashoffset:0;stroke-opacity:1;paint-order:normal" />
    <path
       inkscape:connector-curvature="0"
       id="path1610"
       d="m 31.879247,20.51691 -0.3421,-0.342635 4.45791,-4.45791 4.457909,-4.457909 0.348016,0.348015 0.348015,0.348016 -4.452488,4.452529 c -2.448869,2.448891 -4.45759,4.452529 -4.463825,4.452529 -0.0062,0 -0.165281,-0.154185 -0.353437,-0.342635 z"
       style="opacity:1;vector-effect:none;fill:url(#linearGradient834);fill-opacity:1;fill-rule:evenodd;stroke:none;stroke-width:0.01145691;stroke-linecap:butt;stroke-linejoin:miter;stroke-miterlimit:4;stroke-dasharray:none;stroke-dashoffset:0;stroke-opacity:1;paint-order:normal" />
  </g>
</svg>
