<?xml version="1.0" encoding="UTF-8" standalone="no"?>
<!-- Generator: Gravit.io -->

<svg
   xmlns:dc="http://purl.org/dc/elements/1.1/"
   xmlns:cc="http://creativecommons.org/ns#"
   xmlns:rdf="http://www.w3.org/1999/02/22-rdf-syntax-ns#"
   xmlns:svg="http://www.w3.org/2000/svg"
   xmlns="http://www.w3.org/2000/svg"
   xmlns:xlink="http://www.w3.org/1999/xlink"
   xmlns:sodipodi="http://sodipodi.sourceforge.net/DTD/sodipodi-0.dtd"
   xmlns:inkscape="http://www.inkscape.org/namespaces/inkscape"
   style="isolation:isolate"
   viewBox="0 0 48 48"
   width="48"
   height="48"
   version="1.1"
   id="svg23"
   sodipodi:docname="libreoffice-template.svg"
   inkscape:version="0.92.4 (unknown)">
  <metadata
     id="metadata27">
    <rdf:RDF>
      <cc:Work
         rdf:about="">
        <dc:format>image/svg+xml</dc:format>
        <dc:type
           rdf:resource="http://purl.org/dc/dcmitype/StillImage" />
      </cc:Work>
    </rdf:RDF>
  </metadata>
  <sodipodi:namedview
     pagecolor="#ffffff"
     bordercolor="#666666"
     borderopacity="1"
     objecttolerance="10"
     gridtolerance="10"
     guidetolerance="10"
     inkscape:pageopacity="0"
     inkscape:pageshadow="2"
     inkscape:window-width="640"
     inkscape:window-height="480"
     id="namedview25"
     showgrid="false"
     showguides="true"
     inkscape:guide-bbox="true"
     inkscape:snap-bbox="true"
     inkscape:bbox-paths="true"
     inkscape:bbox-nodes="true"
     inkscape:snap-bbox-edge-midpoints="true"
     inkscape:snap-bbox-midpoints="true"
     inkscape:object-paths="true"
     inkscape:snap-intersection-paths="true"
     inkscape:snap-smooth-nodes="true"
     inkscape:snap-midpoints="true"
     inkscape:snap-object-midpoints="true"
     inkscape:snap-center="true"
     inkscape:zoom="5.6568543"
     inkscape:cx="-11.886521"
     inkscape:cy="14.683993"
     inkscape:current-layer="svg23" />
  <defs
     id="defs5">
    <linearGradient
       id="linearGradient859"
       inkscape:collect="always">
      <stop
         id="stop855"
         offset="0"
         style="stop-color:#009bef;stop-opacity:1" />
      <stop
         id="stop857"
         offset="1"
         style="stop-color:#5ac5ff;stop-opacity:1" />
    </linearGradient>
    <linearGradient
       inkscape:collect="always"
       id="linearGradient847">
      <stop
         style="stop-color:#19aeff;stop-opacity:1;"
         offset="0"
         id="stop843" />
      <stop
         style="stop-color:#5ac5ff;stop-opacity:1"
         offset="1"
         id="stop845" />
    </linearGradient>
    <clipPath
       id="_clipPath_Sd08GpmkdqIAy1UR239YV2vyPFIZuRyU">
      <rect
         width="48"
         height="48"
         id="rect2" />
    </clipPath>
    <linearGradient
       inkscape:collect="always"
       xlink:href="#linearGradient847"
       id="linearGradient849"
       x1="-48.75787"
       y1="42.16637"
       x2="-28.051065"
       y2="23.671177"
       gradientUnits="userSpaceOnUse" />
    <linearGradient
       inkscape:collect="always"
       xlink:href="#linearGradient847"
       id="linearGradient851"
       gradientUnits="userSpaceOnUse"
       x1="-48.75787"
       y1="42.16637"
       x2="-14.87919"
       y2="6.4250612" />
    <linearGradient
       inkscape:collect="always"
       xlink:href="#linearGradient859"
       id="linearGradient853"
       gradientUnits="userSpaceOnUse"
       x1="-40.513908"
       y1="36.145767"
       x2="-21.333551"
       y2="13.771682" />
  </defs>
  <g
     id="g841"
     style="fill:url(#linearGradient849);fill-opacity:1"
     transform="translate(54.052063,0.7487373)">
    <path
       id="path1264-3"
       d="m -48.87919,2.4250654 a 1.9999999,1.9999999 0 0 0 -2,2 1.9999999,1.9999999 0 0 0 0.002,0.046875 v 3.953125 2.9999996 4 3 4 3 2 2.416016 a 1.9999999,1.9999999 0 0 0 -0.002,0.03906 1.9999999,1.9999999 0 0 0 2,2 h 4 3.396485 0.966796 v 2 2.265625 h 0.002 a 1.9999999,1.9999999 0 0 0 2,2 1.9999999,1.9999999 0 0 0 2,-2 1.9999999,1.9999999 0 0 0 -0.002,-0.07031 v -3.929688 -2.224609 a 1.9999999,1.9999999 0 0 0 0.002,-0.04102 1.9999999,1.9999999 0 0 0 -2,-2 h -2.968796 -3.396485 -1.998046 v -2 -2.455078 -2 -3 -4 -3 -3.9999996 -1 h 1.998046 4 4 4 4 4 4 4 2 1.654297 v 2 3.0429686 3 4 3 4 3 4 3 3.609375 1 h -2.240235 -4 -4 -4 -4 -4 -3.171875 l -1.292968,-1.291012 -2.457031,-2.458984 -2.828125,-2.828125 -0.002,0.002 a 1.9999999,1.9999999 0 0 0 -1.412109,-0.58789 1.9999999,1.9999999 0 0 0 -2,2 1.9999999,1.9999999 0 0 0 0.583984,1.414062 l 2.830078,2.828125 1.505859,1.507813 2.794922,2.792968 a 1.9999999,1.9999999 0 0 0 0.01367,0.01563 l 0.02149,0.01953 a 1.9999999,1.9999999 0 0 0 1.414062,0.585938 h 4 4 4 4 4 4 2.240235 2 a 1.9999999,1.9999999 0 0 0 1.9999997,-2 v -4 -3 -3.609375 -3 -4 -3 -4 -3 -4 -2.9999998 -3.0429688 a 1.9999999,1.9999999 0 0 0 -1.9999997,-2 h -3.654297 -2 -4 -4 -4 -4 -4 -4 -4 z"
       style="opacity:1;vector-effect:none;fill:url(#linearGradient853);fill-opacity:1;fill-rule:evenodd;stroke:none;stroke-width:0.37145898;stroke-linecap:butt;stroke-linejoin:miter;stroke-miterlimit:4;stroke-dasharray:none;stroke-dashoffset:0;stroke-opacity:1;paint-order:normal"
       inkscape:connector-curvature="0" />
    <path
       inkscape:connector-curvature="0"
       id="rect891-8"
       d="m -34.051065,19.671188 v 3.999988 h 4 2 v 4.000025 3.999988 3.999987 a 1.9999999,1.9999999 0 0 0 2,2.000013 1.9999999,1.9999999 0 0 0 2,-2.000013 v -3.999987 -3.999988 -4.000025 h 2 3.998047 v -3.999988 h -3.998047 -0.002 -3.998047 -4 z"
       style="fill:url(#linearGradient851);fill-opacity:1;fill-rule:evenodd;stroke:none;stroke-width:0.54634148" />
    <path
       id="rect1751-8"
       d="m -45.435361,9.079365 v 8.486324 h 2.242187 a 1.9999999,1.9999999 0 0 0 2.000001,2.000013 1.9999999,1.9999999 0 0 0 1.999999,-2.000013 h 2.242188 v -2.242167 a 1.9999999,1.9999999 0 0 1 -2,-2.000012 1.9999999,1.9999999 0 0 1 2,-2.000013 V 9.079365 Z"
       style="fill:url(#linearGradient849);fill-rule:evenodd;stroke-width:0.65753418;fill-opacity:1"
       inkscape:connector-curvature="0" />
    <path
       id="rect1753-9"
       d="m -34.950986,9.079365 v 2.244132 a 1.9999999,1.9999999 0 0 0 -2,2.000013 1.9999999,1.9999999 0 0 0 2,2.000012 v 2.242167 h 2.244141 a 1.9999999,1.9999999 0 0 1 2,-2.000012 1.9999999,1.9999999 0 0 1 2,2.000012 h 2.242187 V 9.079365 h -2.242187 a 1.9999999,1.9999999 0 0 1 -2,2.000013 1.9999999,1.9999999 0 0 1 -2,-2.000013 z"
       style="fill:url(#linearGradient849);fill-rule:evenodd;stroke-width:0.65753424;fill-opacity:1"
       inkscape:connector-curvature="0" />
    <path
       id="rect1753-7-1"
       d="m -20.052042,7.0813178 a 1.9999999,1.9999999 0 0 0 -2,2.0000126 h -2.244141 v 2.2421666 a 1.9999999,1.9999999 0 0 0 -2,2.000013 1.9999999,1.9999999 0 0 0 2,2.000012 v 2.242167 h 2.244141 a 1.9999999,1.9999999 0 0 1 2,-2.000012 1.9999999,1.9999999 0 0 1 2,2.000012 h 2.242186 v -2.242167 a 1.9999999,1.9999999 0 0 0 2.000002,-2.000012 1.9999999,1.9999999 0 0 0 -2.000002,-2.000013 V 9.0813304 h -2.242186 a 1.9999999,1.9999999 0 0 0 -2,-2.0000126 z"
       style="fill:url(#linearGradient849);fill-rule:evenodd;stroke-width:0.65753424;fill-opacity:1"
       inkscape:connector-curvature="0" />
  </g>
</svg>
