<?xml version="1.0" encoding="UTF-8" standalone="no"?>
<!-- Generator: Gravit.io -->

<svg
   xmlns:dc="http://purl.org/dc/elements/1.1/"
   xmlns:cc="http://creativecommons.org/ns#"
   xmlns:rdf="http://www.w3.org/1999/02/22-rdf-syntax-ns#"
   xmlns:svg="http://www.w3.org/2000/svg"
   xmlns="http://www.w3.org/2000/svg"
   xmlns:xlink="http://www.w3.org/1999/xlink"
   xmlns:sodipodi="http://sodipodi.sourceforge.net/DTD/sodipodi-0.dtd"
   xmlns:inkscape="http://www.inkscape.org/namespaces/inkscape"
   style="isolation:isolate"
   viewBox="0 0 48 48"
   width="48"
   height="48"
   version="1.1"
   id="svg23"
   sodipodi:docname="presentation.svg"
   inkscape:version="0.92.4 (unknown)">
  <metadata
     id="metadata27">
    <rdf:RDF>
      <cc:Work
         rdf:about="">
        <dc:format>image/svg+xml</dc:format>
        <dc:type
           rdf:resource="http://purl.org/dc/dcmitype/StillImage" />
      </cc:Work>
    </rdf:RDF>
  </metadata>
  <sodipodi:namedview
     pagecolor="#ffffff"
     bordercolor="#666666"
     borderopacity="1"
     objecttolerance="10"
     gridtolerance="10"
     guidetolerance="10"
     inkscape:pageopacity="0"
     inkscape:pageshadow="2"
     inkscape:window-width="640"
     inkscape:window-height="480"
     id="namedview25"
     showgrid="false"
     showguides="true"
     inkscape:guide-bbox="true"
     inkscape:snap-bbox="true"
     inkscape:bbox-paths="true"
     inkscape:bbox-nodes="true"
     inkscape:snap-bbox-edge-midpoints="true"
     inkscape:snap-bbox-midpoints="true"
     inkscape:object-paths="true"
     inkscape:snap-intersection-paths="true"
     inkscape:snap-smooth-nodes="true"
     inkscape:snap-midpoints="true"
     inkscape:snap-object-midpoints="true"
     inkscape:snap-center="true"
     inkscape:zoom="5.6568543"
     inkscape:cx="-9.1733885"
     inkscape:cy="9.8787909"
     inkscape:current-layer="svg23" />
  <defs
     id="defs5">
    <linearGradient
       inkscape:collect="always"
       id="linearGradient911">
      <stop
         style="stop-color:#ff6600;stop-opacity:1;"
         offset="0"
         id="stop907" />
      <stop
         style="stop-color:#ffff3e;stop-opacity:1"
         offset="1"
         id="stop909" />
    </linearGradient>
    <linearGradient
       inkscape:collect="always"
       id="linearGradient2881">
      <stop
         style="stop-color:#19aeff;stop-opacity:1;"
         offset="0"
         id="stop2877" />
      <stop
         style="stop-color:#005c94;stop-opacity:1"
         offset="1"
         id="stop2879" />
    </linearGradient>
    <clipPath
       id="_clipPath_Sd08GpmkdqIAy1UR239YV2vyPFIZuRyU">
      <rect
         width="48"
         height="48"
         id="rect2" />
    </clipPath>
    <linearGradient
       inkscape:collect="always"
       xlink:href="#linearGradient2881"
       id="linearGradient2889"
       gradientUnits="userSpaceOnUse"
       x1="3.1728549"
       y1="23.999985"
       x2="44.827144"
       y2="23.999985" />
    <linearGradient
       inkscape:collect="always"
       xlink:href="#linearGradient911"
       id="linearGradient913"
       x1="18.547836"
       y1="29.249983"
       x2="47.202156"
       y2="2.7499831"
       gradientUnits="userSpaceOnUse" />
    <linearGradient
       inkscape:collect="always"
       xlink:href="#linearGradient911"
       id="linearGradient831"
       gradientUnits="userSpaceOnUse"
       x1="18.547836"
       y1="29.249983"
       x2="47.202156"
       y2="2.7499831"
       gradientTransform="translate(0,1.5909902)" />
  </defs>
  <g
     transform="matrix(3.7795276,0,0,3.7795276,47.157765,-1133.1677)"
     id="g2681"
     style="fill:url(#linearGradient2889);fill-opacity:1;stroke:none" />
  <g
     id="g897"
     style="fill:url(#linearGradient913);fill-opacity:1">
    <path
       id="path1264-3-3"
       d="m 5.1728365,3.1751655 a 1.9999999,1.9999999 0 0 0 -2,2.0000126 1.9999999,1.9999999 0 0 0 0.00195,0.046866 v 3.9531213 3.0000006 3.999987 3 4.000025 3 1.999975 2.416025 a 1.9999999,1.9999999 0 0 0 -0.00195,0.03893 1.9999999,1.9999999 0 0 0 2,1.999974 h 4 3.3964845 0.966796 v 2.000013 2.265638 h 0.002 a 1.9999999,1.9999999 0 0 0 2,1.999975 1.9999999,1.9999999 0 0 0 1.999999,-1.999975 1.9999999,1.9999999 0 0 0 -0.002,-0.0703 v -3.929689 -2.224592 a 1.9999999,1.9999999 0 0 0 0.002,-0.0412 1.9999999,1.9999999 0 0 0 -1.999999,-1.999975 H 12.569321 9.1728365 7.1747896 v -2.000012 -2.455068 -2.000012 -3.000001 -3.999987 -3 -3.9999875 -1.0000252 h 1.9980469 3.9999995 4.000001 4 3.999999 4.000001 4 4 2 1.654297 v 2.0000126 3.0429731 3 3.999988 3 3.999987 3 4.000025 3 3.609374 0.999987 h -2.240235 -4 -4 -4 -4.000001 -3.999999 -3.171876 l -1.292967,-1.291011 -2.457032,-2.458961 -2.8281252,-2.828144 -0.00195,0.002 a 1.9999999,1.9999999 0 0 0 -1.4121094,-0.587906 1.9999999,1.9999999 0 0 0 -2.0000001,2.000013 1.9999999,1.9999999 0 0 0 0.5839842,1.414072 l 2.8300781,2.828107 1.5058594,1.507805 2.794922,2.792995 a 1.9999999,1.9999999 0 0 0 0.01368,0.01512 l 0.0215,0.0189 a 1.9999999,1.9999999 0 0 0 1.414062,0.58594 h 4.000001 3.999999 4 4.000001 4 4 2.240236 1.999997 a 1.9999999,1.9999999 0 0 0 1.999998,-2.000012 v -3.999988 -3 -3.609373 -3 -3.999987 -3.000001 -4.000025 -3 V 11.216791 8.2167907 5.1738175 A 1.9999999,1.9999999 0 0 0 42.827166,3.1738048 h -3.654323 -2 -4 -4 -4 -4 -4 -4 -4.0000001 z"
       style="opacity:1;vector-effect:none;fill:url(#linearGradient913);fill-opacity:1;fill-rule:evenodd;stroke:none;stroke-width:0.37145898;stroke-linecap:butt;stroke-linejoin:miter;stroke-miterlimit:4;stroke-dasharray:none;stroke-dashoffset:0;stroke-opacity:1;paint-order:normal"
       inkscape:connector-curvature="0" />
    <path
       id="path1264-2-7"
       d="m 23.073227,21.105998 a 1.9999999,1.9999999 0 0 0 -2,2.000013 1.9999999,1.9999999 0 0 0 2,1.999975 h 4 3.203125 3.027344 0.970703 v 2.000012 h 0.002 v 1.423824 h -0.972656 -3.027344 -2.550781 -4 a 1.9999999,1.9999999 0 0 0 -2.000001,2.000012 v 3.999988 2.519546 a 1.9999999,1.9999999 0 0 0 2.000001,1.999975 1.9999999,1.9999999 0 0 0 2,-1.999975 v -4.000025 -0.519534 h 2 2.550781 3.027344 2.972656 a 1.9999999,1.9999999 0 0 0 2,-1.999975 v -4.000025 h -0.002 v -3.384756 a 1.9999999,1.9999999 0 0 0 0.002,-0.03893 1.9999999,1.9999999 0 0 0 -2,-2.000012 h -2.972656 -3.027344 -3.203125 z"
       style="opacity:1;vector-effect:none;fill:url(#linearGradient831);fill-opacity:1;fill-rule:evenodd;stroke:none;stroke-width:0.37145898;stroke-linecap:butt;stroke-linejoin:miter;stroke-miterlimit:4;stroke-dasharray:none;stroke-dashoffset:0;stroke-opacity:1;paint-order:normal"
       inkscape:connector-curvature="0" />
    <path
       inkscape:connector-curvature="0"
       id="path833"
       d="M 9.4728866,14.257758 A 5.2149604,5.2149604 0 0 0 14.6886,19.472162 5.2149604,5.2149604 0 0 0 19.903003,14.257758 H 14.6886 V 9.0420446 A 5.2149604,5.2149604 0 0 0 9.4728866,14.257758 Z"
       style="opacity:1;vector-effect:none;fill:url(#linearGradient913);fill-opacity:1;fill-rule:evenodd;stroke:none;stroke-width:0.34762073;stroke-linecap:butt;stroke-linejoin:miter;stroke-miterlimit:4;stroke-dasharray:none;stroke-dashoffset:0;stroke-opacity:1;paint-order:normal" />
    <path
       sodipodi:nodetypes="ccccccccc"
       inkscape:connector-curvature="0"
       id="path862"
       d="m 24.236969,16.345317 v -1.963583 h 5.942421 5.942421 v 1.963583 1.317667 H 30.17939 24.236969 Z"
       style="opacity:1;vector-effect:none;fill:url(#linearGradient913);fill-opacity:1;fill-rule:evenodd;stroke:none;stroke-width:0.02679155;stroke-linecap:butt;stroke-linejoin:miter;stroke-miterlimit:4;stroke-dasharray:none;stroke-dashoffset:0;stroke-opacity:1;paint-order:normal" />
    <path
       style="opacity:1;vector-effect:none;fill:url(#linearGradient913);fill-opacity:1;fill-rule:evenodd;stroke:none;stroke-width:0.02679155;stroke-linecap:butt;stroke-linejoin:miter;stroke-miterlimit:4;stroke-dasharray:none;stroke-dashoffset:0;stroke-opacity:1;paint-order:normal"
       d="M 24.236969,11.657817 V 9.694234 h 5.942421 5.942421 v 1.963583 1.317667 H 30.17939 24.236969 Z"
       id="path866"
       inkscape:connector-curvature="0"
       sodipodi:nodetypes="ccccccccc" />
  </g>
</svg>
