<?xml version="1.0" encoding="UTF-8" standalone="no"?>
<!-- Generator: Gravit.io -->

<svg
   xmlns:dc="http://purl.org/dc/elements/1.1/"
   xmlns:cc="http://creativecommons.org/ns#"
   xmlns:rdf="http://www.w3.org/1999/02/22-rdf-syntax-ns#"
   xmlns:svg="http://www.w3.org/2000/svg"
   xmlns="http://www.w3.org/2000/svg"
   xmlns:xlink="http://www.w3.org/1999/xlink"
   xmlns:sodipodi="http://sodipodi.sourceforge.net/DTD/sodipodi-0.dtd"
   xmlns:inkscape="http://www.inkscape.org/namespaces/inkscape"
   style="isolation:isolate"
   viewBox="0 0 48 48"
   width="48"
   height="48"
   version="1.1"
   id="svg23"
   sodipodi:docname="libreoffice-draw.svg"
   inkscape:version="0.92.4 (unknown)">
  <metadata
     id="metadata27">
    <rdf:RDF>
      <cc:Work
         rdf:about="">
        <dc:format>image/svg+xml</dc:format>
        <dc:type
           rdf:resource="http://purl.org/dc/dcmitype/StillImage" />
      </cc:Work>
    </rdf:RDF>
  </metadata>
  <sodipodi:namedview
     pagecolor="#ffffff"
     bordercolor="#666666"
     borderopacity="1"
     objecttolerance="10"
     gridtolerance="10"
     guidetolerance="10"
     inkscape:pageopacity="0"
     inkscape:pageshadow="2"
     inkscape:window-width="640"
     inkscape:window-height="480"
     id="namedview25"
     showgrid="false"
     showguides="true"
     inkscape:guide-bbox="true"
     inkscape:snap-bbox="true"
     inkscape:bbox-paths="true"
     inkscape:bbox-nodes="true"
     inkscape:snap-bbox-edge-midpoints="true"
     inkscape:snap-bbox-midpoints="true"
     inkscape:object-paths="true"
     inkscape:snap-intersection-paths="true"
     inkscape:snap-smooth-nodes="true"
     inkscape:snap-midpoints="true"
     inkscape:snap-object-midpoints="true"
     inkscape:snap-center="true"
     inkscape:zoom="5.6568543"
     inkscape:cx="-15.510443"
     inkscape:cy="14.683993"
     inkscape:current-layer="svg23" />
  <defs
     id="defs5">
    <linearGradient
       inkscape:collect="always"
       id="linearGradient914">
      <stop
         style="stop-color:#804d00;stop-opacity:1;"
         offset="0"
         id="stop910" />
      <stop
         style="stop-color:#ffff3e;stop-opacity:1"
         offset="1"
         id="stop912" />
    </linearGradient>
    <clipPath
       id="_clipPath_Sd08GpmkdqIAy1UR239YV2vyPFIZuRyU">
      <rect
         width="48"
         height="48"
         id="rect2" />
    </clipPath>
    <linearGradient
       inkscape:collect="always"
       xlink:href="#linearGradient914"
       id="linearGradient916"
       x1="10.465662"
       y1="297.33475"
       x2="1.6419921"
       y2="286.48279"
       gradientUnits="userSpaceOnUse" />
  </defs>
  <g
     id="g904"
     transform="translate(1.1250009,0.87454885)">
    <path
       id="path1339"
       transform="matrix(3.6972197,0,0,4.269182,-0.02100444,-1216.2507)"
       style="opacity:1;vector-effect:none;fill:url(#linearGradient916);fill-opacity:1;fill-rule:evenodd;stroke:none;stroke-width:0.13718127;stroke-linecap:butt;stroke-linejoin:miter;stroke-miterlimit:4;stroke-dasharray:none;stroke-dashoffset:0;stroke-opacity:1;paint-order:normal"
       d="m 8.797657,287.24688 0.5517765,0.9557 0.5517765,0.95571 H 8.797657 7.694104 l 0.5517765,-0.95571 z m -1.4745303,0.95572 a 1.1035529,0.955705 0 0 1 -1.1035527,0.9557 1.1035529,0.955705 0 0 1 -1.1035531,-0.9557 1.1035529,0.955705 0 0 1 1.1035531,-0.95571 1.1035529,0.955705 0 0 1 1.1035527,0.95571 z m -4.7851909,-0.85735 h 2.2071061 v 1.91141 H 2.5379358 Z m 3.8928109,2.35209 a 0.540947,0.4684738 0 0 0 -0.540947,0.46847 0.540947,0.4684738 0 0 0 0.540947,0.46847 h 1.0818941 1.081894 0.540947 v 0.46848 0.81114 l -0.4685742,0.70317 -0.2493428,0.37422 H 7.6478775 7.1069305 v -0.23423 -0.23424 -0.70271 -0.46847 a 0.540947,0.4684738 0 0 0 -0.540947,-0.46848 0.540947,0.4684738 0 0 0 -0.5409471,0.46848 v 0.93694 0.23424 0.23424 0.70271 a 0.540947,0.4684738 0 0 0 0.5409471,0.46847 h 1.081894 1.0818941 a 0.540947,0.4684738 0 0 0 0.468046,-0.23424 h 5.41e-4 l 0.540947,-0.81159 0.4057104,-0.60847 h -5.41e-4 a 0.540947,0.4684738 0 0 0 0.0729,-0.23423 v -0.93695 -0.93695 A 0.540947,0.4684738 0 0 0 9.6764291,289.69734 H 8.5945351 7.512641 Z m -5.3302299,-4.26807 a 0.540947,0.4684738 0 0 0 -0.54094699,0.46847 0.540947,0.4684738 0 0 0 5.2743e-4,0.011 v 0.92597 0.70271 0.93695 0.70271 0.93695 0.70271 0.46847 0.56592 a 0.540947,0.4684738 0 0 0 -5.2743e-4,0.009 0.540947,0.4684738 0 0 0 0.54094699,0.46848 h 1.0818941 0.9186589 0.261493 v 0.46847 0.53069 h 5.41e-4 a 0.540947,0.4684738 0 0 0 0.540947,0.46848 0.540947,0.4684738 0 0 0 0.540947,-0.46848 0.540947,0.4684738 0 0 0 -5.409e-4,-0.0165 v -0.92047 -0.52109 a 0.540947,0.4684738 0 0 0 5.409e-4,-0.01 0.540947,0.4684738 0 0 0 -0.540947,-0.46847 H 3.1010698 2.1824109 1.6419921 v -0.46848 -0.57507 -0.46847 -0.70271 -0.93695 -0.70271 -0.93695 -0.23423 h 0.5404188 1.081894 1.0818941 1.081894 1.0818941 1.081894 1.0818941 1.081894 0.5409468 0.447444 v 0.46847 0.71278 0.70271 0.93694 0.70272 0.93694 0.70271 0.93695 0.70271 0.84545 0.23424 H 10.138136 9.0562415 7.9743474 6.8924534 5.8105593 4.7286653 3.8707571 l -0.3497136,-0.3024 -0.6645621,-0.57599 -0.7649327,-0.66245 -5.275e-4,4.7e-4 a 0.540947,0.4684738 0 0 0 -0.3819381,-0.13771 0.540947,0.4684738 0 0 0 -0.540947,0.46848 0.540947,0.4684738 0 0 0 0.1579522,0.33122 l 0.7654612,0.66245 0.4072951,0.35319 0.7559521,0.65421 a 0.540947,0.4684738 0 0 0 0.0037,0.004 l 0.00581,0.005 a 0.540947,0.4684738 0 0 0 0.3824664,0.13725 h 1.081894 1.0818941 1.081894 1.0818941 1.081894 1.0818937 0.605924 0.540947 a 0.540947,0.4684738 0 0 0 0.540947,-0.46848 v -0.93694 -0.70271 -0.84545 -0.70271 -0.93695 -0.70271 -0.93695 -0.70271 -0.93695 -0.70271 -0.71277 a 0.540947,0.4684738 0 0 0 -0.540947,-0.46848 H 10.296618 9.7556708 8.6737768 7.5918827 6.5099887 5.4280946 4.3462006 3.2643065 2.1824127 Z"
       inkscape:connector-curvature="0" />
  </g>
</svg>
