<?xml version="1.0" encoding="UTF-8" standalone="no"?>
<!-- Generator: Gravit.io -->

<svg
   xmlns:dc="http://purl.org/dc/elements/1.1/"
   xmlns:cc="http://creativecommons.org/ns#"
   xmlns:rdf="http://www.w3.org/1999/02/22-rdf-syntax-ns#"
   xmlns:svg="http://www.w3.org/2000/svg"
   xmlns="http://www.w3.org/2000/svg"
   xmlns:xlink="http://www.w3.org/1999/xlink"
   xmlns:sodipodi="http://sodipodi.sourceforge.net/DTD/sodipodi-0.dtd"
   xmlns:inkscape="http://www.inkscape.org/namespaces/inkscape"
   style="isolation:isolate"
   viewBox="0 0 48 48"
   width="48"
   height="48"
   version="1.1"
   id="svg23"
   sodipodi:docname="eclipse.svg"
   inkscape:version="0.92.4 (unknown)">
  <metadata
     id="metadata29">
    <rdf:RDF>
      <cc:Work
         rdf:about="">
        <dc:format>image/svg+xml</dc:format>
        <dc:type
           rdf:resource="http://purl.org/dc/dcmitype/StillImage" />
      </cc:Work>
    </rdf:RDF>
  </metadata>
  <defs
     id="defs27">
    <linearGradient
       inkscape:collect="always"
       id="linearGradient854">
      <stop
         style="stop-color:#7700a3;stop-opacity:1;"
         offset="0"
         id="stop850" />
      <stop
         style="stop-color:#19aeff;stop-opacity:1"
         offset="1"
         id="stop852" />
    </linearGradient>
    <linearGradient
       inkscape:collect="always"
       xlink:href="#linearGradient854"
       id="linearGradient856"
       x1="5.3730469"
       y1="24"
       x2="55.337997"
       y2="24"
       gradientUnits="userSpaceOnUse"
       gradientTransform="matrix(1.0567682,0,0,1.0567682,-1.3624378,-1.3624378)" />
  </defs>
  <sodipodi:namedview
     pagecolor="#ffffff"
     bordercolor="#666666"
     borderopacity="1"
     objecttolerance="10"
     gridtolerance="10"
     guidetolerance="10"
     inkscape:pageopacity="0"
     inkscape:pageshadow="2"
     inkscape:window-width="640"
     inkscape:window-height="480"
     id="namedview25"
     showgrid="false"
     inkscape:zoom="6.6198901"
     inkscape:cx="27.654639"
     inkscape:cy="13.486839"
     inkscape:current-layer="svg23"
     showguides="false" />
  <linearGradient
     id="_lgradient_8"
     x1="-1.735528038875542"
     y1="0.17491146156190052"
     x2="1.022936493905845"
     y2="0.5042963242965388"
     gradientTransform="matrix(21.681,0,0,15.11,13.273,10.89)"
     gradientUnits="userSpaceOnUse">
    <stop
       offset="0%"
       stop-opacity="1"
       style="stop-color:rgb(242,55,239)"
       id="stop2" />
    <stop
       offset="98.69565217391305%"
       stop-opacity="1"
       style="stop-color:rgb(252,82,82)"
       id="stop4" />
  </linearGradient>
  <linearGradient
     id="_lgradient_9"
     x1="0"
     y1="0.5"
     x2="1"
     y2="0.5"
     gradientTransform="matrix(48,0,0,38.08,0,0.17)"
     gradientUnits="userSpaceOnUse">
    <stop
       offset="0%"
       stop-opacity="1"
       style="stop-color:rgb(242,55,239)"
       id="stop9" />
    <stop
       offset="98.69565217391305%"
       stop-opacity="1"
       style="stop-color:rgb(252,82,82)"
       id="stop11" />
  </linearGradient>
  <linearGradient
     id="_lgradient_10"
     x1="0"
     y1="0.5"
     x2="1"
     y2="0.5"
     gradientTransform="matrix(21.36,0,0,9.92,13.32,38.32)"
     gradientUnits="userSpaceOnUse">
    <stop
       offset="0%"
       stop-opacity="1"
       style="stop-color:rgb(242,55,239)"
       id="stop16" />
    <stop
       offset="98.69565217391305%"
       stop-opacity="1"
       style="stop-color:rgb(252,82,82)"
       id="stop18" />
  </linearGradient>
  <path
     style="opacity:1;vector-effect:none;fill:url(#linearGradient856);fill-opacity:1;fill-rule:evenodd;stroke:none;stroke-width:0.02907302;stroke-linecap:butt;stroke-linejoin:miter;stroke-miterlimit:4;stroke-dasharray:none;stroke-dashoffset:0;stroke-opacity:1;paint-order:markers stroke fill"
     d="M 23.999999,4.3156273 A 19.683517,19.683517 0 0 0 7.4198839,13.432317 h 1.1248802 4.2270729 4.227073 4.227072 4.227073 4.227073 4.227073 4.227073 2.468545 A 19.683517,19.683517 0 0 0 23.999999,4.3156273 Z M 8.5447641,17.65939 v 4.227073 h 4.2270729 4.227073 4.227072 4.227073 4.227073 4.227073 4.227073 v 4.227072 H 33.907201 29.680128 25.453055 21.225982 16.99891 12.771837 8.5447641 v 4.227073 h 4.2270729 4.227073 4.227072 4.227073 4.227073 4.227073 4.227073 4.227072 0.251808 A 19.683517,19.683517 0 0 0 43.684371,23.999999 19.683517,19.683517 0 0 0 42.609027,17.65939 H 42.361346 38.134274 33.907201 29.680128 25.453055 21.225982 16.99891 12.771837 Z M 4.3176913,23.95872 A 19.683517,19.683517 0 0 0 4.3156313,24 a 19.683517,19.683517 0 0 0 0.00206,0.05779 z m 3.0794886,10.608961 a 19.683517,19.683517 0 0 0 16.6028191,9.11669 19.683517,19.683517 0 0 0 16.580115,-9.11669 H 38.134274 33.907201 29.680128 25.453055 21.225982 16.99891 12.771837 8.5447641 Z"
     id="path1809"
     inkscape:connector-curvature="0" />
</svg>
