<?xml version="1.0" encoding="UTF-8" standalone="no"?>
<!-- Generator: Gravit.io -->

<svg
   xmlns:dc="http://purl.org/dc/elements/1.1/"
   xmlns:cc="http://creativecommons.org/ns#"
   xmlns:rdf="http://www.w3.org/1999/02/22-rdf-syntax-ns#"
   xmlns:svg="http://www.w3.org/2000/svg"
   xmlns="http://www.w3.org/2000/svg"
   xmlns:xlink="http://www.w3.org/1999/xlink"
   xmlns:sodipodi="http://sodipodi.sourceforge.net/DTD/sodipodi-0.dtd"
   xmlns:inkscape="http://www.inkscape.org/namespaces/inkscape"
   style="isolation:isolate"
   viewBox="0 0 48 48"
   width="48"
   height="48"
   version="1.1"
   id="svg23"
   sodipodi:docname="qbittorrent.svg"
   inkscape:version="0.92.4 (unknown)">
  <metadata
     id="metadata27">
    <rdf:RDF>
      <cc:Work
         rdf:about="">
        <dc:format>image/svg+xml</dc:format>
        <dc:type
           rdf:resource="http://purl.org/dc/dcmitype/StillImage" />
      </cc:Work>
    </rdf:RDF>
  </metadata>
  <sodipodi:namedview
     pagecolor="#ffffff"
     bordercolor="#666666"
     borderopacity="1"
     objecttolerance="10"
     gridtolerance="10"
     guidetolerance="10"
     inkscape:pageopacity="0"
     inkscape:pageshadow="2"
     inkscape:window-width="640"
     inkscape:window-height="480"
     id="namedview25"
     showgrid="false"
     showguides="true"
     inkscape:guide-bbox="true"
     inkscape:snap-bbox="true"
     inkscape:bbox-paths="true"
     inkscape:bbox-nodes="true"
     inkscape:snap-bbox-edge-midpoints="true"
     inkscape:snap-bbox-midpoints="true"
     inkscape:object-paths="true"
     inkscape:snap-intersection-paths="true"
     inkscape:snap-smooth-nodes="true"
     inkscape:snap-midpoints="true"
     inkscape:snap-object-midpoints="true"
     inkscape:snap-center="true"
     inkscape:zoom="5.3174893"
     inkscape:cx="23.466696"
     inkscape:cy="14.184487"
     inkscape:current-layer="svg23" />
  <defs
     id="defs5">
    <linearGradient
       inkscape:collect="always"
       id="linearGradient867">
      <stop
         style="stop-color:#9ade00;stop-opacity:1;"
         offset="0"
         id="stop863" />
      <stop
         style="stop-color:#009100;stop-opacity:1"
         offset="1"
         id="stop865" />
    </linearGradient>
    <linearGradient
       inkscape:collect="always"
       id="linearGradient840">
      <stop
         style="stop-color:#ff9900;stop-opacity:1;"
         offset="0"
         id="stop836" />
      <stop
         style="stop-color:#ff4141;stop-opacity:1"
         offset="1"
         id="stop838" />
    </linearGradient>
    <clipPath
       id="_clipPath_Sd08GpmkdqIAy1UR239YV2vyPFIZuRyU">
      <rect
         width="48"
         height="48"
         id="rect2" />
    </clipPath>
    <linearGradient
       gradientTransform="translate(-3.106487,-2.3991468)"
       inkscape:collect="always"
       xlink:href="#linearGradient840"
       id="linearGradient828-3"
       gradientUnits="userSpaceOnUse"
       x1="30.829086"
       y1="18.51"
       x2="30.829086"
       y2="45.600853" />
    <linearGradient
       inkscape:collect="always"
       xlink:href="#linearGradient867"
       id="linearGradient869"
       x1="31.823435"
       y1="11.023952"
       x2="31.823435"
       y2="45.600853"
       gradientUnits="userSpaceOnUse" />
  </defs>
  <g
     id="g861"
     style="fill:url(#linearGradient869);fill-opacity:1">
    <path
       sodipodi:nodetypes="ccsccssscccccccccccccccccssccccccccccccscccccccccccccccccccccscccccccssccccccccc"
       inkscape:connector-curvature="0"
       id="rect891-47-5-6"
       d="m 5.106487,2.4295713 v 0.015118 c -1.10457,-0.0014 -2,0.8940095 -2,1.9985764 v 7.1003343 4.000024 3.999988 c 0,1.104567 0.89543,2.000012 2,2.000012 1.10457,0 2,-0.895445 2,-2.000012 V 15.543624 11.5436 6.4295966 h 1.003906 0.996094 3.003907 3.999999 4 4 4.000001 3.999999 1.042969 v 5.1140034 4.000024 3.999988 3.999987 4.000025 3.966766 c 0,1.104567 0.895431,2.000012 2,2.000012 h 2.912109 l -2.242187,2.242167 -2.828124,2.828145 0.0078,0.0076 -2.177733,2.179692 -1.410157,-1.41018 -2.828125,-2.828107 -2.828125,-2.828145 -0.191407,-0.191244 h 3.19728 v -3.999685 h -4 -4 c -1.104569,0 -2,0.895408 -2,1.999975 5.98e-4,0.529738 0.211325,1.037593 0.585938,1.412107 l -0.002,0.002 0.765625,0.763691 -0.01368,0.01512 2.828126,2.828145 2.830077,2.828107 2.828126,2.828145 2.792969,2.792958 c 0.0045,0.0038 0.0091,0.01134 0.01368,0.01512 l 0.02147,0.0189 c 0.375009,0.374929 0.883659,0.585864 1.414063,0.58594 0.530403,-7.6e-5 1.039051,-0.210898 1.414063,-0.58594 l 2.828124,-2.828145 -0.0039,-0.0038 0.765624,-0.763691 -0.0098,-0.01134 2.828126,-2.828145 2.828127,-2.828107 2.808594,-2.808605 c 0.387084,-0.37644 0.605461,-0.893593 0.605469,-1.433612 0,-1.104567 -0.895431,-1.999975 -2.000001,-1.999975 H 39.153272 37.153271 V 27.509457 23.542654 19.542667 15.542679 11.542655 4.4286769 c 0,-1.104567 -0.919017,-2.2270489 -2,-2.0000127 h -3.042968 -4 -4.000001 -4 -4 -3.999954 -3.003907 -0.996093 z"
       style="vector-effect:none;fill:url(#linearGradient869);fill-opacity:1;fill-rule:evenodd;stroke:none;stroke-width:0.02907307;stroke-linecap:butt;stroke-linejoin:miter;stroke-miterlimit:4;stroke-dasharray:none;stroke-dashoffset:0;stroke-opacity:1;paint-order:normal" />
    <path
       inkscape:connector-curvature="0"
       id="path831"
       d="m 14.181599,27.102708 c -0.01778,-0.01778 -0.03233,-1.012583 -0.03233,-2.210674 0,-1.19809 -0.0076,-2.178346 -0.01689,-2.178346 -0.0093,0 -0.173251,0.07217 -0.364364,0.160371 -0.568804,0.26252 -0.87882,0.326516 -1.593366,0.328918 -0.523596,0.0018 -0.700536,-0.01662 -1.010815,-0.10499 C 10.082296,22.789951 9.1705078,22.043328 8.6742217,21.059349 8.3107454,20.338691 8.295945,20.213031 8.295945,17.84767 c 0,-1.838136 0.00957,-2.10944 0.085868,-2.434743 0.2295416,-0.978645 0.9702715,-1.894674 1.95927,-2.422946 0.55144,-0.29455 0.920746,-0.391229 1.600897,-0.419093 0.819524,-0.03357 1.29097,0.08193 1.874877,0.459324 0.158715,0.102582 0.298437,0.186513 0.310493,0.186513 0.01206,0 0.02192,-0.136774 0.02192,-0.303941 0,-0.252381 0.01543,-0.312198 0.09094,-0.35261 0.135684,-0.07262 1.609924,-0.06391 1.710474,0.0101 0.07461,0.05491 0.07905,0.533734 0.06776,7.299027 l -0.01209,7.240259 -0.896213,0.01274 c -0.492917,0.007 -0.910759,-0.0018 -0.928539,-0.01959 z M 12.92689,21.203623 c 0.618087,-0.188858 1.054573,-0.627012 1.172526,-1.177005 0.06929,-0.323084 0.06675,-3.857744 -0.003,-4.186511 -0.146343,-0.68973 -0.677274,-1.202397 -1.407389,-1.358978 -0.141874,-0.03043 -0.433191,-0.04361 -0.66793,-0.03022 -0.35503,0.02024 -0.466283,0.04843 -0.755762,0.191501 -0.38806,0.19179 -0.731306,0.506081 -0.873501,0.799817 -0.177218,0.366085 -0.197315,0.655621 -0.18249,2.629175 l 0.01421,1.891933 0.124494,0.265537 c 0.416504,0.888382 1.509479,1.301506 2.57885,0.974756 z"
       style="opacity:1;vector-effect:none;fill:url(#linearGradient869);fill-opacity:1;fill-rule:evenodd;stroke:none;stroke-width:0.02907307;stroke-linecap:butt;stroke-linejoin:miter;stroke-miterlimit:4;stroke-dasharray:none;stroke-dashoffset:0;stroke-opacity:1;paint-order:normal;font-variant-east_asian:normal" />
    <path
       inkscape:connector-curvature="0"
       id="path833"
       d="m 18.061891,23.175431 c -0.08294,-0.08294 -0.08393,-15.3670874 -9.99e-4,-15.4500196 0.05953,-0.059532 1.603221,-0.084128 1.749802,-0.02788 0.0666,0.025555 0.07437,0.305569 0.07437,2.6798356 0,1.512644 0.01792,2.651299 0.04174,2.651299 0.02295,0 0.17634,-0.06298 0.340856,-0.139968 0.479899,-0.22456 0.981197,-0.332268 1.554006,-0.333891 0.610878,-0.0017 0.986372,0.06148 1.440175,0.242452 0.906335,0.361432 1.814563,1.22495 2.196343,2.088222 0.276616,0.62548 0.28021,0.66377 0.28021,2.985696 0,2.420153 -0.01541,2.560805 -0.354277,3.233992 -0.974871,1.936648 -3.617763,2.738409 -5.223671,1.58468 -0.125719,-0.09032 -0.238184,-0.16422 -0.24992,-0.16422 -0.01174,0 -0.02755,0.153386 -0.03515,0.340857 l -0.01381,0.340856 -0.871123,0.01275 c -0.637903,0.0093 -0.886495,-0.0026 -0.92854,-0.04466 z m 4.479499,-1.952334 c 0.499885,-0.152725 0.922556,-0.520063 1.145504,-0.995544 l 0.123892,-0.264223 v -2.092153 c 0,-2.050334 -0.0021,-2.096586 -0.102458,-2.313932 -0.126335,-0.273464 -0.484493,-0.663061 -0.755626,-0.821956 -0.830352,-0.486619 -1.964118,-0.360591 -2.624467,0.291733 -0.41034,0.405352 -0.411701,0.413467 -0.432178,2.575504 -0.01919,2.025832 0.0067,2.377776 0.20314,2.765499 0.396551,0.782556 1.46039,1.155032 2.442193,0.855072 z"
       style="opacity:1;vector-effect:none;fill:url(#linearGradient869);fill-opacity:1;fill-rule:evenodd;stroke:none;stroke-width:0.02907307;stroke-linecap:butt;stroke-linejoin:miter;stroke-miterlimit:4;stroke-dasharray:none;stroke-dashoffset:0;stroke-opacity:1;paint-order:normal;font-variant-east_asian:normal" />
  </g>
</svg>
