<?xml version="1.0" encoding="UTF-8" standalone="no"?>
<!-- Generator: Gravit.io -->

<svg
   xmlns:dc="http://purl.org/dc/elements/1.1/"
   xmlns:cc="http://creativecommons.org/ns#"
   xmlns:rdf="http://www.w3.org/1999/02/22-rdf-syntax-ns#"
   xmlns:svg="http://www.w3.org/2000/svg"
   xmlns="http://www.w3.org/2000/svg"
   xmlns:xlink="http://www.w3.org/1999/xlink"
   xmlns:sodipodi="http://sodipodi.sourceforge.net/DTD/sodipodi-0.dtd"
   xmlns:inkscape="http://www.inkscape.org/namespaces/inkscape"
   style="isolation:isolate"
   viewBox="0 0 48 48"
   width="48"
   height="48"
   version="1.1"
   id="svg23"
   sodipodi:docname="rhythmbox.svg"
   inkscape:version="0.92.4 (unknown)">
  <metadata
     id="metadata27">
    <rdf:RDF>
      <cc:Work
         rdf:about="">
        <dc:format>image/svg+xml</dc:format>
        <dc:type
           rdf:resource="http://purl.org/dc/dcmitype/StillImage" />
      </cc:Work>
    </rdf:RDF>
  </metadata>
  <sodipodi:namedview
     pagecolor="#ffffff"
     bordercolor="#666666"
     borderopacity="1"
     objecttolerance="10"
     gridtolerance="10"
     guidetolerance="10"
     inkscape:pageopacity="0"
     inkscape:pageshadow="2"
     inkscape:window-width="640"
     inkscape:window-height="480"
     id="namedview25"
     showgrid="false"
     showguides="true"
     inkscape:guide-bbox="true"
     inkscape:snap-bbox="true"
     inkscape:bbox-paths="true"
     inkscape:bbox-nodes="true"
     inkscape:snap-bbox-edge-midpoints="true"
     inkscape:snap-bbox-midpoints="true"
     inkscape:object-paths="true"
     inkscape:snap-intersection-paths="true"
     inkscape:snap-smooth-nodes="true"
     inkscape:snap-midpoints="true"
     inkscape:snap-object-midpoints="true"
     inkscape:snap-center="true"
     inkscape:zoom="4.4824829"
     inkscape:cx="9.8997623"
     inkscape:cy="21.665873"
     inkscape:current-layer="svg23" />
  <defs
     id="defs5">
    <linearGradient
       inkscape:collect="always"
       id="linearGradient850">
      <stop
         style="stop-color:#bdcdd4;stop-opacity:1"
         offset="0"
         id="stop846" />
      <stop
         style="stop-color:#ff6600;stop-opacity:1"
         offset="1"
         id="stop848" />
    </linearGradient>
    <clipPath
       id="_clipPath_Sd08GpmkdqIAy1UR239YV2vyPFIZuRyU">
      <rect
         width="48"
         height="48"
         id="rect2" />
    </clipPath>
    <linearGradient
       inkscape:collect="always"
       xlink:href="#linearGradient850"
       id="linearGradient852"
       x1="2.7447717"
       y1="3.1642635"
       x2="42.562511"
       y2="39.393253"
       gradientUnits="userSpaceOnUse" />
  </defs>
  <g
     id="g844"
     style="fill:url(#linearGradient852);fill-opacity:1">
    <path
       id="circle1755"
       d="m 21.436687,6.3797495 a 5.4608128,5.4608128 0 0 0 -5.46093,5.4589905 5.4608128,5.4608128 0 0 0 5.46093,5.460929 5.4608128,5.4608128 0 0 0 5.46094,-5.460929 5.4608128,5.4608128 0 0 0 -5.46094,-5.4589905 z m 0,3.45899 a 1.9999999,1.9999999 0 0 1 2,2.0000005 1.9999999,1.9999999 0 0 1 -2,2 1.9999999,1.9999999 0 0 1 -2,-2 1.9999999,1.9999999 0 0 1 2,-2.0000005 z"
       style="opacity:1;vector-effect:none;fill:url(#linearGradient852);fill-opacity:1;fill-rule:evenodd;stroke:none;stroke-width:0.02907303;stroke-linecap:butt;stroke-linejoin:miter;stroke-miterlimit:4;stroke-dasharray:none;stroke-dashoffset:0;stroke-opacity:1;paint-order:normal"
       inkscape:connector-curvature="0" />
    <path
       inkscape:connector-curvature="0"
       id="circle1746"
       d="m 21.436687,17.699168 a 8.8341828,8.8341828 0 0 0 -8.833981,8.833965 8.8341828,8.8341828 0 0 0 8.833981,8.834003 8.8341828,8.8341828 0 0 0 8.835942,-8.834002 8.8341828,8.8341828 0 0 0 -8.835942,-8.833966 z m 0,3.999987 a 4.8341303,4.8341303 0 0 1 4.833989,4.833978 4.8341303,4.8341303 0 0 1 -4.833989,4.834016 4.8341303,4.8341303 0 0 1 -4.833978,-4.834016 4.8341303,4.8341303 0 0 1 4.833978,-4.833978 z"
       style="opacity:1;vector-effect:none;fill:url(#linearGradient852);fill-opacity:1;fill-rule:evenodd;stroke:none;stroke-width:0.02907303;stroke-linecap:butt;stroke-linejoin:miter;stroke-miterlimit:4;stroke-dasharray:none;stroke-dashoffset:0;stroke-opacity:1;paint-order:normal" />
    <path
       inkscape:connector-curvature="0"
       id="path1264-4-0-3-3-36"
       d="m 7.43749,2.0722575 c -1.104571,0 -2.000001,0.895446 -2.000001,2.000013 v 3.999987 4.0000255 3.999988 3.999987 4.000024 3.999989 3.999986 A 1.9999999,1.9999999 0 0 0 7.43749,34.072271 1.9999999,1.9999999 0 0 0 9.437491,32.072257 V 28.072271 24.072282 20.072257 16.072271 12.072283 8.0722575 6.0722825 h 1.999998 6 4.000003 3.999998 3.999999 4.000003 0.679687 v 1.999975 4.0000255 3.999988 3.999987 4.000024 3.999989 3.999986 3.667994 H 32.11914 28.119141 24.119138 20.11914 16.119141 11.437489 7.43749 c -1.104571,0 -2.000001,0.895409 -2.000001,2.000014 8.31e-4,0.350361 0.09381,0.694715 0.269556,0.998021 l -0.002,0.002 1.999997,3.462879 1.572272,2.724624 0.002,-0.002 c 0.356485,0.619049 1.0161,1.000971 1.730468,1.001953 h 6.000001 3.999999 4.000002 4.001949 3.998049 4.000003 3.550779 c 1.104571,0 2.001948,-0.895446 2.001948,-2.000013 v -3.999988 -3.999988 -5.830072 -4.000025 -3.999988 -3.999987 -4.000025 -3.999988 h -0.002 A 1.9999999,1.9999999 0 0 0 40.560564,8.0976565 1.9999999,1.9999999 0 0 0 38.562513,10.097668 h -0.002 v 3.999988 4.000025 3.999987 3.999988 4.000025 5.830072 3.999988 2.000012 h -1.550736 -4.000003 -3.998049 -4.001949 -4.000002 -3.998049 -4.845698 l -0.996091,-1.724636 -0.26759,-0.462878 h 5.216799 3.999998 3.999999 4.000003 3.999998 3.999999 c 1.104552,0 2.000002,-0.895446 2.000002,-1.999975 -4.69e-4,-0.01512 -0.0011,-0.03024 -0.002,-0.04687 V 31.910191 28.072308 24.07232 20.072296 16.072308 12.072321 8.0722955 4.1113885 c 7.78e-4,-0.01134 0.0013,-0.02646 0.002,-0.03893 0,-1.104567 -0.89545,-2.000013 -2.000002,-2.000013 h -2.681646 -4.000003 -3.999999 -3.999999 -4.000002 -6 z"
       style="opacity:1;vector-effect:none;fill:url(#linearGradient852);fill-opacity:1;fill-rule:evenodd;stroke:none;stroke-width:0.02907303;stroke-linecap:butt;stroke-linejoin:miter;stroke-miterlimit:4;stroke-dasharray:none;stroke-dashoffset:0;stroke-opacity:1;paint-order:normal" />
    <circle
       r="1.9999999"
       cy="26.532635"
       cx="21.437479"
       id="path1264-4-7-75-7-7"
       style="opacity:1;vector-effect:none;fill:url(#linearGradient852);fill-opacity:1;fill-rule:evenodd;stroke:none;stroke-width:0.02907303;stroke-linecap:butt;stroke-linejoin:miter;stroke-miterlimit:4;stroke-dasharray:none;stroke-dashoffset:0;stroke-opacity:1;paint-order:normal" />
  </g>
</svg>
