<?xml version="1.0" encoding="UTF-8" standalone="no"?>
<!-- Generator: Gravit.io -->

<svg
   xmlns:dc="http://purl.org/dc/elements/1.1/"
   xmlns:cc="http://creativecommons.org/ns#"
   xmlns:rdf="http://www.w3.org/1999/02/22-rdf-syntax-ns#"
   xmlns:svg="http://www.w3.org/2000/svg"
   xmlns="http://www.w3.org/2000/svg"
   xmlns:xlink="http://www.w3.org/1999/xlink"
   xmlns:sodipodi="http://sodipodi.sourceforge.net/DTD/sodipodi-0.dtd"
   xmlns:inkscape="http://www.inkscape.org/namespaces/inkscape"
   style="isolation:isolate"
   viewBox="0 0 48 48"
   width="48"
   height="48"
   version="1.1"
   id="svg23"
   sodipodi:docname="system-file-manager.svg"
   inkscape:version="0.92.4 (unknown)">
  <metadata
     id="metadata27">
    <rdf:RDF>
      <cc:Work
         rdf:about="">
        <dc:format>image/svg+xml</dc:format>
        <dc:type
           rdf:resource="http://purl.org/dc/dcmitype/StillImage" />
        <dc:title />
      </cc:Work>
    </rdf:RDF>
  </metadata>
  <sodipodi:namedview
     pagecolor="#ffffff"
     bordercolor="#666666"
     borderopacity="1"
     objecttolerance="10"
     gridtolerance="10"
     guidetolerance="10"
     inkscape:pageopacity="0"
     inkscape:pageshadow="2"
     inkscape:window-width="640"
     inkscape:window-height="480"
     id="namedview25"
     showgrid="false"
     inkscape:zoom="8.0124958"
     inkscape:cx="3.7971111"
     inkscape:cy="15.233888"
     inkscape:current-layer="svg23" />
  <defs
     id="defs5">
    <linearGradient
       inkscape:collect="always"
       id="linearGradient847">
      <stop
         style="stop-color:#19aeff;stop-opacity:1"
         offset="0"
         id="stop843" />
      <stop
         id="stop851"
         offset="0.49321881"
         style="stop-color:#0084c8;stop-opacity:1" />
      <stop
         style="stop-color:#005c94;stop-opacity:1"
         offset="1"
         id="stop845" />
    </linearGradient>
    <clipPath
       id="_clipPath_hE1aGe8mB9p3d3DRMG7HZVp3mjWvwDpA">
      <rect
         width="48"
         height="48"
         id="rect2" />
    </clipPath>
    <linearGradient
       inkscape:collect="always"
       xlink:href="#linearGradient847"
       id="linearGradient849"
       x1="13.690106"
       y1="12.71171"
       x2="40.185726"
       y2="38.4585"
       gradientUnits="userSpaceOnUse" />
  </defs>
  <path
     style="fill:url(#linearGradient849);fill-opacity:1;fill-rule:evenodd;stroke:none;stroke-width:0.54634154"
     d="m 4.0000007,2.0000499 c -1.104571,0 -2.000002,0.8954457 -2.000002,2.0000127 v 3.999987 3.1210974 4.14342 2.000013 6.585033 3.999988 4.000025 3.999987 3.999988 0 2.1504 1.999975 c 0,1.104567 0.8954311,2.000012 2.000002,2.000012 h 3.9999985 3.9999988 2.320309 4.000002 3.999999 3.999999 4.000002 3.999999 1.679686 4.000003 4.000004 c 1.10457,0 2,-0.895445 2,-2.000012 V 39.999988 37.999976 39.849601 35.849613 31.849626 27.849601 23.849613 17.26458 13.264593 11.26458 h -0.002 c 8.5e-4,-0.01512 10e-4,-0.03402 0.002,-0.04876 0,-1.104567 -0.89543,-2.0000131 -2,-2.0000131 h -0.83985 -3.999999 -3.999999 -4.000003 v 0 h -3.999998 c -0.713968,5.67e-4 -1.373488,0.381694 -1.730468,1.0000251 h -0.002 l -2.000001,3.462879 c -1.12111,1.771881 -1.822757,1.63476 -3.789063,1.63476 h -7.766737 c -1.104571,0 -2.0000008,0.895445 -2.0000008,2.000012 0,1.104567 0.8954298,1.999975 2.0000008,1.999975 h 7.766737 4.000002 c 0.713964,-5.67e-4 1.373484,-0.381657 1.730468,-0.999987 h 0.002 l 1.521482,-2.634747 c 1.4025,-2.429216 1.666043,-2.462891 4.267578,-2.462891 v 0 h 3.999999 4.000003 c 2.498933,0 2.839846,0.465675 2.839846,2.048806 v 2.000013 6.585033 4.000025 3.999988 3.999987 3.999987 0 c 0,1.725128 -0.326135,2.1504 -2.000001,2.1504 H 35.999994 34.320308 30.320305 26.320307 22.320308 18.320305 14.320307 11.999998 7.9999992 c -1.7930954,0 -2.0000014,-0.182551 -2.0000014,-2.000012 V 38.000051 39.849676 35.849689 31.849702 27.849714 23.849689 17.264656 13.264668 10.148561 7.1212346 C 6.1292957,5.8288248 6.8470172,6.1033319 7.9999992,6.0001508 h 6.3203078 3.999998 3.318361 c 0.895457,0.111874 1.063113,0.4422426 1.515625,1.1601638 l 0.002,-0.002 c 0.36635,0.57823 1.002966,0.92897 1.687503,0.929688 1.104567,0 1.999997,-0.895446 1.999997,-2.0000125 -9.8e-5,-0.3231496 -0.0785,-0.6414992 -0.22851,-0.9277228 h 0.002 L 25.371188,2.9999996 h -0.002 C 25.012208,2.3817066 24.352685,2.0005791 23.638717,2.0000122 H 21.638719 18.320358 14.320359 8.0000482 Z"
     id="rect891-6-6-4"
     inkscape:connector-curvature="0"
     sodipodi:nodetypes="sscccccccccccssccccccccccssccccccccccccsccccccccccssscccccccccccccccccccccccccccccccccccccccccccccccccccccccs" />
</svg>
