<?xml version="1.0" encoding="UTF-8" standalone="no"?>
<!-- Generator: Gravit.io -->

<svg
   xmlns:dc="http://purl.org/dc/elements/1.1/"
   xmlns:cc="http://creativecommons.org/ns#"
   xmlns:rdf="http://www.w3.org/1999/02/22-rdf-syntax-ns#"
   xmlns:svg="http://www.w3.org/2000/svg"
   xmlns="http://www.w3.org/2000/svg"
   xmlns:xlink="http://www.w3.org/1999/xlink"
   xmlns:sodipodi="http://sodipodi.sourceforge.net/DTD/sodipodi-0.dtd"
   xmlns:inkscape="http://www.inkscape.org/namespaces/inkscape"
   style="isolation:isolate"
   viewBox="0 0 48 48"
   width="48"
   height="48"
   version="1.1"
   id="svg23"
   sodipodi:docname="system-software-install.svg"
   inkscape:version="0.92.4 (unknown)">
  <metadata
     id="metadata27">
    <rdf:RDF>
      <cc:Work
         rdf:about="">
        <dc:format>image/svg+xml</dc:format>
        <dc:type
           rdf:resource="http://purl.org/dc/dcmitype/StillImage" />
      </cc:Work>
    </rdf:RDF>
  </metadata>
  <sodipodi:namedview
     pagecolor="#ffffff"
     bordercolor="#666666"
     borderopacity="1"
     objecttolerance="10"
     gridtolerance="10"
     guidetolerance="10"
     inkscape:pageopacity="0"
     inkscape:pageshadow="2"
     inkscape:window-width="640"
     inkscape:window-height="480"
     id="namedview25"
     showgrid="false"
     showguides="true"
     inkscape:guide-bbox="true"
     inkscape:snap-bbox="true"
     inkscape:bbox-paths="true"
     inkscape:bbox-nodes="true"
     inkscape:snap-bbox-edge-midpoints="true"
     inkscape:snap-bbox-midpoints="true"
     inkscape:object-paths="true"
     inkscape:snap-intersection-paths="true"
     inkscape:snap-smooth-nodes="true"
     inkscape:snap-midpoints="true"
     inkscape:snap-object-midpoints="true"
     inkscape:snap-center="true"
     inkscape:zoom="8.4687501"
     inkscape:cx="6.1442298"
     inkscape:cy="14.429962"
     inkscape:current-layer="svg23" />
  <defs
     id="defs5">
    <linearGradient
       inkscape:collect="always"
       id="linearGradient828">
      <stop
         style="stop-color:#9ade00;stop-opacity:1"
         offset="0"
         id="stop824" />
      <stop
         style="stop-color:#19aeff;stop-opacity:1"
         offset="1"
         id="stop826" />
    </linearGradient>
    <clipPath
       id="_clipPath_Sd08GpmkdqIAy1UR239YV2vyPFIZuRyU">
      <rect
         width="48"
         height="48"
         id="rect2" />
    </clipPath>
    <linearGradient
       inkscape:collect="always"
       xlink:href="#linearGradient828"
       id="linearGradient830"
       x1="29.712257"
       y1="7.0518699"
       x2="29.712257"
       y2="44.087826"
       gradientUnits="userSpaceOnUse"
       gradientTransform="matrix(1,0,0,-1,0,48)" />
  </defs>
  <path
     style="opacity:1;vector-effect:none;fill:url(#linearGradient830);fill-opacity:1;fill-rule:evenodd;stroke:none;stroke-width:1.10022521px;stroke-linecap:butt;stroke-linejoin:miter;stroke-miterlimit:4;stroke-dasharray:none;stroke-dashoffset:0;stroke-opacity:1;paint-order:normal"
     d="M 24.000102,45.955999 A 21.95544,21.95544 0 0 1 2.0450265,23.998986 1.9999999,1.9999999 0 0 1 4.0450245,21.998973 h 4.000002 a 1.9999999,1.9999999 0 0 1 1.9999975,2.000013 1.9999999,1.9999999 0 0 1 -1.9999975,2.000012 H 6.1661175 A 17.955439,17.955439 0 0 0 24.000102,41.956011 17.955439,17.955439 0 0 0 41.955182,23.998986 17.955439,17.955439 0 0 0 26.000103,6.1786637 v 1.865235 0.617197 3.9999873 a 1.9999999,1.9999999 0 0 1 -2.000001,2.000013 h -0.779297 v 2.000012 3.999988 3.999987 4.000025 1.472656 h -2.242186 l 1.607421,1.60936 0.634765,0.632807 v 0.002 l 0.777346,0.777335 1.414061,-1.414072 0.002,0.002 2.195313,-2.195301 2.806639,-2.806639 a 1.9999999,1.9999999 0 0 1 1.435548,-0.607446 1.9999999,1.9999999 0 0 1 2.000001,2.000013 1.9999999,1.9999999 0 0 1 -0.58789,1.412107 l 0.0019,0.002 -2.828122,2.828108 -2.828126,2.828144 -0.002,-0.002 -2.146485,2.146469 a 1.9999999,1.9999999 0 0 1 -1.460938,0.636737 1.9999999,1.9999999 0 0 1 -1.412108,-0.587905 l -0.002,0.002 -2.828126,-2.828145 0.002,-0.0019 -2.195312,-2.193373 -2.83008,-2.828108 A 1.9999999,1.9999999 0 0 1 14.14849,28.133883 1.9999999,1.9999999 0 0 1 16.148491,26.13387 h 3.072265 V 24.661215 20.661228 16.66124 12.661215 a 1.9999999,1.9999999 0 0 1 2.000001,-1.999975 1.9999999,1.9999999 0 0 1 0.01739,0 h 0.761718 V 8.6612277 4.6612397 4.0440427 a 1.9999999,1.9999999 0 0 1 2.000002,-2.000042 1.9999999,1.9999999 0 0 1 0.160138,0.0076 21.95544,21.95544 0 0 1 21.794968,21.9471203 21.95544,21.95544 0 0 1 -21.955079,21.957014 z"
     id="circle2486"
     inkscape:connector-curvature="0" />
</svg>
