<?xml version="1.0" encoding="UTF-8" standalone="no"?>
<!-- Generator: Gravit.io -->

<svg
   xmlns:dc="http://purl.org/dc/elements/1.1/"
   xmlns:cc="http://creativecommons.org/ns#"
   xmlns:rdf="http://www.w3.org/1999/02/22-rdf-syntax-ns#"
   xmlns:svg="http://www.w3.org/2000/svg"
   xmlns="http://www.w3.org/2000/svg"
   xmlns:xlink="http://www.w3.org/1999/xlink"
   xmlns:sodipodi="http://sodipodi.sourceforge.net/DTD/sodipodi-0.dtd"
   xmlns:inkscape="http://www.inkscape.org/namespaces/inkscape"
   style="isolation:isolate"
   viewBox="0 0 48 48"
   width="48"
   height="48"
   version="1.1"
   id="svg23"
   sodipodi:docname="uget.svg"
   inkscape:version="0.92.4 (unknown)">
  <metadata
     id="metadata29">
    <rdf:RDF>
      <cc:Work
         rdf:about="">
        <dc:format>image/svg+xml</dc:format>
        <dc:type
           rdf:resource="http://purl.org/dc/dcmitype/StillImage" />
      </cc:Work>
    </rdf:RDF>
  </metadata>
  <defs
     id="defs27">
    <linearGradient
       gradientTransform="matrix(3.7795276,0,0,3.7795276,-230.39867,-1778.3868)"
       inkscape:collect="always"
       xlink:href="#linearGradient2061"
       id="linearGradient2063"
       x1="65.250313"
       y1="477.31635"
       x2="65.250313"
       y2="472.28552"
       gradientUnits="userSpaceOnUse" />
    <linearGradient
       inkscape:collect="always"
       id="linearGradient2061">
      <stop
         style="stop-color:#7cc92b;stop-opacity:1;"
         offset="0"
         id="stop2057" />
      <stop
         style="stop-color:#009100;stop-opacity:1"
         offset="1"
         id="stop2059" />
    </linearGradient>
    <linearGradient
       gradientTransform="matrix(3.7795276,0,0,3.7795276,-230.39867,-1778.3868)"
       inkscape:collect="always"
       xlink:href="#linearGradient2061"
       id="linearGradient2090"
       gradientUnits="userSpaceOnUse"
       x1="65.250313"
       y1="481.57355"
       x2="65.250313"
       y2="471.2095" />
  </defs>
  <sodipodi:namedview
     pagecolor="#ffffff"
     bordercolor="#666666"
     borderopacity="1"
     objecttolerance="10"
     gridtolerance="10"
     guidetolerance="10"
     inkscape:pageopacity="0"
     inkscape:pageshadow="2"
     inkscape:window-width="640"
     inkscape:window-height="480"
     id="namedview25"
     showgrid="false"
     inkscape:zoom="5.9883105"
     inkscape:cx="7.0153024"
     inkscape:cy="14.558217"
     inkscape:current-layer="svg23"
     showguides="false" />
  <linearGradient
     id="_lgradient_8"
     x1="-1.735528038875542"
     y1="0.17491146156190052"
     x2="1.022936493905845"
     y2="0.5042963242965388"
     gradientTransform="matrix(21.681,0,0,15.11,13.273,10.89)"
     gradientUnits="userSpaceOnUse">
    <stop
       offset="0%"
       stop-opacity="1"
       style="stop-color:rgb(242,55,239)"
       id="stop2" />
    <stop
       offset="98.69565217391305%"
       stop-opacity="1"
       style="stop-color:rgb(252,82,82)"
       id="stop4" />
  </linearGradient>
  <linearGradient
     id="_lgradient_9"
     x1="0"
     y1="0.5"
     x2="1"
     y2="0.5"
     gradientTransform="matrix(48,0,0,38.08,0,0.17)"
     gradientUnits="userSpaceOnUse">
    <stop
       offset="0%"
       stop-opacity="1"
       style="stop-color:rgb(242,55,239)"
       id="stop9" />
    <stop
       offset="98.69565217391305%"
       stop-opacity="1"
       style="stop-color:rgb(252,82,82)"
       id="stop11" />
  </linearGradient>
  <linearGradient
     id="_lgradient_10"
     x1="0"
     y1="0.5"
     x2="1"
     y2="0.5"
     gradientTransform="matrix(21.36,0,0,9.92,13.32,38.32)"
     gradientUnits="userSpaceOnUse">
    <stop
       offset="0%"
       stop-opacity="1"
       style="stop-color:rgb(242,55,239)"
       id="stop16" />
    <stop
       offset="98.69565217391305%"
       stop-opacity="1"
       style="stop-color:rgb(252,82,82)"
       id="stop18" />
  </linearGradient>
  <g
     id="g850"
     transform="translate(4.3985239,3.867159)">
    <path
       sodipodi:nodetypes="ccsccssscccccccccccccccccssccccccccccccscccccccccccccccccccccscccccccssccccccccc"
       inkscape:connector-curvature="0"
       id="rect891-47-5-6-3"
       d="m 0.70781067,-1.4375696 v 0.015118 c -1.10457072,-0.0014 -1.99999747,0.89400949 -1.99999747,1.99857641 v 7.10033399 4.0000252 3.999987 c 0,1.104567 0.89542675,2.000013 1.99999747,2.000013 1.10457073,0 2.00000133,-0.895446 2.00000133,-2.000013 V 11.676484 7.6764589 2.5624557 h 1.0039068 0.9960945 3.0039042 3.9999985 4.000003 3.999998 4.000003 3.999999 1.042968 v 5.1140032 4.0000251 3.999987 3.999988 4.000025 3.966766 c 0,1.104566 0.895431,2.000012 2.000001,2.000012 h 2.912107 l -2.242185,2.242167 -2.828126,2.828145 0.0079,0.0076 -2.177734,2.179691 -1.410157,-1.410179 -2.828122,-2.828107 -2.828126,-2.828145 -0.191395,-0.191244 h 3.19728 v -3.999685 h -3.999988 -3.999999 c -1.10457,0 -2.000001,0.895408 -2.000001,1.999975 5.97e-4,0.529738 0.211314,1.037593 0.58594,1.412107 l -0.002,0.002 0.765627,0.763691 -0.01361,0.01512 2.828126,2.828145 2.830077,2.828107 2.828126,2.828145 2.792968,2.792958 c 0.0045,0.0038 0.0091,0.01134 0.01361,0.01512 l 0.02154,0.0189 c 0.375005,0.37493 0.883661,0.585865 1.414065,0.585941 0.530404,-7.6e-5 1.039049,-0.210898 1.414061,-0.585941 l 2.828126,-2.828144 -0.0038,-0.0038 0.765622,-0.763691 -0.0098,-0.01134 2.828126,-2.828145 2.82813,-2.828107 2.808594,-2.808605 c 0.387084,-0.376441 0.605461,-0.893593 0.605469,-1.433612 0,-1.104567 -0.895431,-1.999975 -2.000002,-1.999975 H 34.75491 32.754909 V 23.642279 19.675476 15.675489 11.675501 7.6754762 0.56149821 c 0,-1.10456699 -0.919015,-2.22704891 -2.000001,-2.00001271 H 27.711942 23.711943 19.71194 15.711942 11.711939 7.7119859 4.7080778 3.7119871 Z"
       style="opacity:1;isolation:isolate;vector-effect:none;fill:url(#linearGradient2090);fill-opacity:1;fill-rule:evenodd;stroke:none;stroke-width:0.37145898;stroke-linecap:butt;stroke-linejoin:miter;stroke-miterlimit:4;stroke-dasharray:none;stroke-dashoffset:0;stroke-opacity:1;paint-order:normal" />
    <path
       sodipodi:nodetypes="ccccccccsccccccccccccccccc"
       inkscape:connector-curvature="0"
       id="path2010"
       d="m 11.819402,19.98861 c -1.005426,0 -1.665981,-0.837732 -2.2170058,-1.842935 -1.331422,0 -3.4474396,-0.103937 -3.4474396,-1.263232 v -6.733115 l 2.1160176,3.8e-5 v 5.201688 h 1.331422 v -3.013417 c 0,-2.8734239 0.4784348,-4.8253608 1.0105998,-5.747112 0.181191,-0.3137008 0.818,-1.1142803 1.511142,-1.1142803 h 10.84913 v 4.1421734 l -4.411971,-0.03402 V 6.6293029 h -4.689226 l 8e-6,6.1337201 H 11.65819 l 4.344076,5.932648 4.671122,-5.932648 h -2.112091 v -1.611175 h 4.411971 v 6.62279 c 0,1.12853 -0.766431,2.214652 -2.631401,2.214652 h -3.91423 z"
       style="opacity:1;vector-effect:none;fill:url(#linearGradient2063);fill-opacity:1;fill-rule:evenodd;stroke:none;stroke-width:0.37145898;stroke-linecap:butt;stroke-linejoin:miter;stroke-miterlimit:4;stroke-dasharray:none;stroke-dashoffset:0;stroke-opacity:1;paint-order:normal" />
  </g>
</svg>
