<?xml version="1.0" encoding="UTF-8" standalone="no"?>
<!-- Generator: Gravit.io -->

<svg
   xmlns:dc="http://purl.org/dc/elements/1.1/"
   xmlns:cc="http://creativecommons.org/ns#"
   xmlns:rdf="http://www.w3.org/1999/02/22-rdf-syntax-ns#"
   xmlns:svg="http://www.w3.org/2000/svg"
   xmlns="http://www.w3.org/2000/svg"
   xmlns:xlink="http://www.w3.org/1999/xlink"
   xmlns:sodipodi="http://sodipodi.sourceforge.net/DTD/sodipodi-0.dtd"
   xmlns:inkscape="http://www.inkscape.org/namespaces/inkscape"
   style="isolation:isolate"
   viewBox="0 0 48 48"
   width="48"
   height="48"
   version="1.1"
   id="svg23"
   sodipodi:docname="utilities-system-monitor.svg"
   inkscape:version="0.92.4 (unknown)">
  <metadata
     id="metadata27">
    <rdf:RDF>
      <cc:Work
         rdf:about="">
        <dc:format>image/svg+xml</dc:format>
        <dc:type
           rdf:resource="http://purl.org/dc/dcmitype/StillImage" />
      </cc:Work>
    </rdf:RDF>
  </metadata>
  <sodipodi:namedview
     pagecolor="#ffffff"
     bordercolor="#666666"
     borderopacity="1"
     objecttolerance="10"
     gridtolerance="10"
     guidetolerance="10"
     inkscape:pageopacity="0"
     inkscape:pageshadow="2"
     inkscape:window-width="640"
     inkscape:window-height="480"
     id="namedview25"
     showgrid="false"
     inkscape:zoom="6.9532167"
     inkscape:cx="7.4263592"
     inkscape:cy="22.927713"
     inkscape:current-layer="svg23" />
  <defs
     id="defs5">
    <linearGradient
       inkscape:collect="always"
       id="linearGradient847">
      <stop
         style="stop-color:#0084c8;stop-opacity:1"
         offset="0"
         id="stop843" />
      <stop
         id="stop851"
         offset="0.5"
         style="stop-color:#008a64;stop-opacity:1;" />
      <stop
         style="stop-color:#009100;stop-opacity:1"
         offset="1"
         id="stop845" />
    </linearGradient>
    <clipPath
       id="_clipPath_lLIFBSKHLUc14vICK1EzX9lsCCiKGpla">
      <rect
         width="48"
         height="48"
         id="rect2" />
    </clipPath>
    <linearGradient
       inkscape:collect="always"
       xlink:href="#linearGradient847"
       id="linearGradient849"
       x1="-3.6089382"
       y1="24"
       x2="59.662766"
       y2="24"
       gradientUnits="userSpaceOnUse" />
  </defs>
  <path
     inkscape:connector-curvature="0"
     style="opacity:1;vector-effect:none;fill:url(#linearGradient849);fill-opacity:1;fill-rule:evenodd;stroke:none;stroke-width:0.37145898;stroke-linecap:butt;stroke-linejoin:miter;stroke-miterlimit:4;stroke-dasharray:none;stroke-dashoffset:0;stroke-opacity:1;paint-order:normal"
     d="m 3.9999765,1.9999999 a 1.9999999,1.9999999 0 0 0 -2,2 v 4 V 12 v 4 4 4 4 4 4 4 4 a 1.9999999,1.9999999 0 0 0 2,2 h 4 3.9999995 4 4 4 4 4 4 4 4 a 1.9999999,1.9999999 0 0 0 2,-2 v -4 -4 -4 a 1.9999999,1.9999999 0 0 0 -2,-2 1.9999999,1.9999999 0 0 0 -2,2 v 4 4 2 h -2 -4 -4 -3.326172 A 3.1269514,3.1269514 0 0 1 25.89646,43.697265 3.1269514,3.1269514 0 0 1 23.11521,42 h -3.115234 -4 -4 -3.9999995 -2 v -2 -4 -4 -4 -4 -4 -4 -4 -4.0000001 -2 h 2 3.9999995 2.236328 a 3.1269514,3.1269514 0 0 1 2.779297,-1.6992188 3.1269514,3.1269514 0 0 1 2.78125,1.6992188 h 0.203125 4 4 4 4 4 2 v 2 1.4746093 3.9999998 4 4 2 H 41.804664 39.999976 39.804664 37.33982 L 36.874976,21.746094 35.83982,17.882812 34.804664,14.019531 a 1.9999999,1.9999999 0 0 0 -1.931641,-1.482422 1.9999999,1.9999999 0 0 0 -1.929687,1.482422 h -0.002 l -1.035156,3.863281 -0.769531,2.869141 -1.035156,3.863281 -1.035157,3.865234 -1.035156,3.863282 -0.134766,0.5 -0.736328,-2.751953 -1.035156,-3.863282 -1.035156,-3.863281 -1.035156,-3.863281 v -0.002 L 21.019507,14.636718 19.984351,10.773437 18.947242,6.9101561 A 1.9999999,1.9999999 0 0 0 17.015601,5.4277342 1.9999999,1.9999999 0 0 0 15.085914,6.9101561 h -0.002 l -1.035156,3.8632809 -0.695312,2.59375 -1.035156,3.863281 -1.035157,3.863282 -1.035156,3.863281 h 0.0039 a 1.9999999,1.9999999 0 0 0 -0.07226,0.517578 1.9999999,1.9999999 0 0 0 2,2 1.9999999,1.9999999 0 0 0 1.93164,-1.482422 h 0.002 l 1.035157,-3.863281 1.035156,-3.863281 0.832031,-3.109375 0.138672,0.515625 1.035156,3.865234 1.035157,3.863281 1.037109,3.863282 1.035156,3.863281 1.035156,3.863281 1.035157,3.865234 0.597657,2.232422 h 0.002 a 1.9999999,1.9999999 0 0 0 1.929687,1.482422 1.9999999,1.9999999 0 0 0 1.931641,-1.482422 l 1.035156,-3.863281 1.03711,-3.863281 1.029297,-3.845703 1.035156,-3.865235 0.908203,-3.386718 0.138672,0.517578 0.861328,3.210937 a 1.9999999,1.9999999 0 0 0 1.931641,1.482422 h 4 0.195312 1.804688 2.195312 a 1.9999999,1.9999999 0 0 0 2,-2 v -4 -4 -4 -3.9999998 -4 -1.4746093 a 1.9999999,1.9999999 0 0 0 -2,-2 h -4 -4 -4 -4 -4 -4 -4 -4 -4.0000005 z"
     id="path1264-4-0-5" />
</svg>
