<?xml version="1.0" encoding="UTF-8" standalone="no"?>
<!-- Generator: Gravit.io -->

<svg
   xmlns:dc="http://purl.org/dc/elements/1.1/"
   xmlns:cc="http://creativecommons.org/ns#"
   xmlns:rdf="http://www.w3.org/1999/02/22-rdf-syntax-ns#"
   xmlns:svg="http://www.w3.org/2000/svg"
   xmlns="http://www.w3.org/2000/svg"
   xmlns:xlink="http://www.w3.org/1999/xlink"
   xmlns:sodipodi="http://sodipodi.sourceforge.net/DTD/sodipodi-0.dtd"
   xmlns:inkscape="http://www.inkscape.org/namespaces/inkscape"
   style="isolation:isolate"
   viewBox="0 0 48 48"
   width="48"
   height="48"
   version="1.1"
   id="svg23"
   sodipodi:docname="vivaldi.svg"
   inkscape:version="0.92.4 (unknown)">
  <metadata
     id="metadata27">
    <rdf:RDF>
      <cc:Work
         rdf:about="">
        <dc:format>image/svg+xml</dc:format>
        <dc:type
           rdf:resource="http://purl.org/dc/dcmitype/StillImage" />
      </cc:Work>
    </rdf:RDF>
  </metadata>
  <sodipodi:namedview
     pagecolor="#ffffff"
     bordercolor="#666666"
     borderopacity="1"
     objecttolerance="10"
     gridtolerance="10"
     guidetolerance="10"
     inkscape:pageopacity="0"
     inkscape:pageshadow="2"
     inkscape:window-width="640"
     inkscape:window-height="480"
     id="namedview25"
     showgrid="false"
     showguides="true"
     inkscape:guide-bbox="true"
     inkscape:snap-bbox="true"
     inkscape:bbox-paths="true"
     inkscape:bbox-nodes="true"
     inkscape:snap-bbox-edge-midpoints="true"
     inkscape:snap-bbox-midpoints="true"
     inkscape:object-paths="true"
     inkscape:snap-intersection-paths="true"
     inkscape:snap-smooth-nodes="true"
     inkscape:snap-midpoints="true"
     inkscape:snap-object-midpoints="true"
     inkscape:snap-center="true"
     inkscape:zoom="6.7106249"
     inkscape:cx="21.671727"
     inkscape:cy="24.409684"
     inkscape:current-layer="svg23" />
  <defs
     id="defs5">
    <linearGradient
       inkscape:collect="always"
       id="linearGradient835">
      <stop
         style="stop-color:#ff7878;stop-opacity:1"
         offset="0"
         id="stop831" />
      <stop
         style="stop-color:#b50000;stop-opacity:1"
         offset="1"
         id="stop833" />
    </linearGradient>
    <clipPath
       id="_clipPath_Sd08GpmkdqIAy1UR239YV2vyPFIZuRyU">
      <rect
         width="48"
         height="48"
         id="rect2" />
    </clipPath>
    <radialGradient
       inkscape:collect="always"
       xlink:href="#linearGradient835"
       id="radialGradient837"
       cx="24"
       cy="21.200453"
       fx="24"
       fy="21.200453"
       r="22"
       gradientTransform="matrix(1.4876934,-3.079921e-8,2.7272727e-8,1.3173538,-11.704642,-7.6164895)"
       gradientUnits="userSpaceOnUse" />
  </defs>
  <path
     style="opacity:1;vector-effect:none;fill:url(#radialGradient837);fill-opacity:1;fill-rule:evenodd;stroke:none;stroke-width:0.02907284;stroke-linecap:butt;stroke-linejoin:miter;stroke-miterlimit:4;stroke-dasharray:none;stroke-dashoffset:0;stroke-opacity:1;paint-order:normal"
     d="m 37.93163,4.5029499 c 0,0 -0.293307,-0.39467 -1.976717,-0.39467 -0.899099,0 -2.009344,0.79307 -2.717212,1.56126 -0.90861,0.98604 -1.58704,2.69518 -1.71274,3.63967 -0.1257,0.9444901 -0.33521,1.6066301 0.0356,2.2640601 0.31698,0.56202 1.02232,0.67036 1.64063,1.02734 v 0.002 c 0.883862,1.5309 1.24065,3.81261 0.10742,5.77539 l -2,3.46485 -2,3.46484 c -1.35861,2.35321 -2.89711,4.69792 -6.95312,-2.3125 l -2.000001,-3.46484 -2,-3.46485 -2,-3.46289 -1,-1.73242 -1,-1.7324201 -1,-1.73242 -0.002,0.002 c -0.35648,-0.61905 -0.74087,-1.00504 -1.29296,-1.2207 -0.56219,-0.21959 -1.22851,-0.13952 -1.81055,0.0215 -1.1114196,0.30489 -2.2745196,0.794 -3.0996096,1.59961 l -0.0117,-0.0137 c -0.0371,0.0443 -0.0687,0.0922 -0.10547,0.13672 -0.0849,0.0899 -0.17,0.1798 -0.24609,0.27734 -0.0471,0.0604 -0.0782,0.13359 -0.11914,0.19922 -3.00286,3.8504301 -4.66046,8.5868001 -4.66797,13.4843801 0,12.15026 9.8497396,22 22.0000006,22 12.150263,0 21.999998,-9.84974 21.999999,-22 C 45.9986,15.15098 43.227369,8.6735199 37.93164,4.5030399 Z m 1.830079,8.7343801 c 1.442035,2.61796 2.233332,5.58679 2.238281,8.6543 2.2e-5,9.94113 -8.058866,18.00002 -17.999999,18 -9.941131,2e-5 -18.0000206,-8.05887 -18.0000006,-18 0.006,-2.77912 0.66782,-5.49592 1.88867,-7.95703 l 1.53906,2.66796 1.9999996,3.46289 2,3.46485 2,3.46484 2,3.46289 1.30469,2.25977 2,3.46484 0.002,-0.002 c 0.35649,0.61905 1.0161,1.00097 1.730471,1.00195 h 2.1543 c 0.0533,0.004 0.10671,0.008 0.16016,0.008 0.0528,-4.9e-4 0.10559,-0.003 0.1582,-0.008 h 0.0234 v -0.002 c 0.64565,-0.0597 1.22226,-0.42894 1.54687,-0.99024 h 0.002 c 0.008,-0.0151 0.0159,-0.0267 0.0234,-0.041 l 1.97656,-3.42383 1.88672,-3.26758 2,-3.46289 2.000003,-3.46484 2,-3.46485 2,-3.46289 z"
     id="path1264-4-7-75-6-6-5"
     inkscape:connector-curvature="0"
     sodipodi:nodetypes="csazacccccccccccccccccccccscccccccccccccccccccccccccccccccc" />
</svg>
