<?xml version="1.0" encoding="UTF-8" standalone="no"?>
<!-- Generator: Gravit.io -->

<svg
   xmlns:dc="http://purl.org/dc/elements/1.1/"
   xmlns:cc="http://creativecommons.org/ns#"
   xmlns:rdf="http://www.w3.org/1999/02/22-rdf-syntax-ns#"
   xmlns:svg="http://www.w3.org/2000/svg"
   xmlns="http://www.w3.org/2000/svg"
   xmlns:xlink="http://www.w3.org/1999/xlink"
   xmlns:sodipodi="http://sodipodi.sourceforge.net/DTD/sodipodi-0.dtd"
   xmlns:inkscape="http://www.inkscape.org/namespaces/inkscape"
   style="isolation:isolate"
   viewBox="0 0 48 48"
   width="48"
   height="48"
   version="1.1"
   id="svg23"
   sodipodi:docname="vlc.svg"
   inkscape:version="0.92.4 (unknown)">
  <metadata
     id="metadata27">
    <rdf:RDF>
      <cc:Work
         rdf:about="">
        <dc:format>image/svg+xml</dc:format>
        <dc:type
           rdf:resource="http://purl.org/dc/dcmitype/StillImage" />
        <dc:title />
      </cc:Work>
    </rdf:RDF>
  </metadata>
  <sodipodi:namedview
     pagecolor="#ffffff"
     bordercolor="#666666"
     borderopacity="1"
     objecttolerance="10"
     gridtolerance="10"
     guidetolerance="10"
     inkscape:pageopacity="0"
     inkscape:pageshadow="2"
     inkscape:window-width="640"
     inkscape:window-height="480"
     id="namedview25"
     showgrid="false"
     inkscape:zoom="4.9166666"
     inkscape:cx="-2.1374867"
     inkscape:cy="11.3763"
     inkscape:current-layer="svg23" />
  <defs
     id="defs5">
    <linearGradient
       inkscape:collect="always"
       id="linearGradient835">
      <stop
         id="stop833"
         offset="0"
         style="stop-color:#ffc022;stop-opacity:1" />
      <stop
         id="stop831"
         offset="1"
         style="stop-color:#ff6600;stop-opacity:1;" />
    </linearGradient>
    <clipPath
       id="_clipPath_jQanXeq0YpXAFHXzP2VCVd5UcAx8TgD4">
      <rect
         width="48"
         height="48"
         id="rect2" />
    </clipPath>
    <linearGradient
       inkscape:collect="always"
       xlink:href="#linearGradient835"
       id="linearGradient837"
       x1="18.080853"
       y1="5.4488168"
       x2="32.576271"
       y2="38.440678"
       gradientUnits="userSpaceOnUse" />
  </defs>
  <path
     style="opacity:1;vector-effect:none;fill:url(#linearGradient837);fill-opacity:1;fill-rule:evenodd;stroke:none;stroke-width:2.19733095;stroke-linecap:butt;stroke-linejoin:miter;stroke-miterlimit:4;stroke-dasharray:none;stroke-dashoffset:0;stroke-opacity:1;paint-order:normal"
     d="m 21.676872,1.9999935 c -0.772755,4.54e-4 -1.192846,0.323906 -1.416106,1.157065 l -0.265852,0.992201 -1.193091,4.452662 -0.51758,1.9316415 h 0.002 c -0.04596,0.168567 -0.06962,0.342803 -0.0703,0.517568 0,1.104567 0.895431,2.000013 2.000001,2.000013 0.905152,-1.14e-4 1.697398,-0.608126 1.931641,-1.482444 l 0.517576,-1.9316414 c 0.495614,-1.8496251 0.566918,-2.0331971 1.067177,-2.0331971 0.421315,0 0.715086,0.825222 0.980469,1.8164031 l 1.035156,3.8632824 c 0.151824,0.464844 -0.08602,0.781266 -0.58789,0.781266 h -2.20314 -0.08281 -3.999999 c -0.905151,1.13e-4 -1.697397,0.608088 -1.931641,1.482406 l -1.03711,3.863282 -1.035156,3.863282 -0.517579,1.931641 h 0.002 l -0.726664,2.710942 c -0.05824,0.189732 -0.08784,0.387364 -0.08787,0.58594 0,1.104567 0.895431,2.000013 1.999998,2.000013 h 4.000002 3.404296 1.084755 2.029297 2.433592 c 1.987593,0 1.987378,0.440768 2.507811,2.380838 l 0.882815,3.298847 h 0.002 c 0.190639,0.711534 -0.09702,0.822274 -0.421924,0.822274 h -3.404296 -3.999999 -0.08474 -3.32931 -3.404296 c -1.4577,0 -1.374652,-0.06803 -1.351559,-0.154205 l 0.621093,-2.32029 h -0.002 c 0.04596,-0.168567 0.06962,-0.342803 0.0703,-0.517606 0,-1.104567 -0.89543,-1.999975 -1.999997,-1.999975 H 13.716646 9.7166469 c -0.766114,0.0017 -1.463947,0.440844 -1.796874,1.130835 l -1.927737,3.335962 0.01739,0.01134 -1.753905,3.03908 0.0061,0.0038 -2.000001,3.462878 0.0079,0.0038 c -0.176091,0.304211 -0.26903,0.648904 -0.269521,1.000135 0,1.104567 0.89543,1.999975 2.000001,1.999975 H 7.9999989 12.000002 16 h 3.999999 3.401579 0.680455 4.000002 3.999999 3.999999 3.999999 3.917967 c 1.104571,0 2.000002,-0.895408 2.000002,-1.999975 -0.0014,-0.35074 -0.09506,-0.694941 -0.271484,-0.99806 l 0.0038,-0.002 -1.882813,-3.261732 -1.884768,-3.261695 -1.999997,-3.462916 h -0.002 c -0.356637,-0.617688 -1.015246,-0.99874 -1.728514,-0.999988 -1.104571,0 -2.000002,0.895446 -2.000002,2.000013 8.24e-4,0.350362 0.09377,0.694715 0.269518,0.998022 l -0.002,0.002 1.999998,3.462917 1.765625,3.058583 c 0.24669,0.427237 -0.01096,0.464844 -0.185537,0.464844 H 36.081931 32.081932 28.081933 24.081934 23.401476 19.999901 15.999902 11.999899 7.9999009 c -0.461409,0 -0.379809,-0.282709 -0.273449,-0.46681 l -0.0079,-0.0038 2.000001,-3.464844 -0.01776,-0.01134 0.9705861,-1.682041 c 0.214983,-0.372261 0.372438,-0.359033 0.584561,-0.359033 h 0.248579 c 0.407743,0 0.464961,0.01134 0.426728,0.154205 l -0.623048,2.320327 h 0.0038 c -0.04664,0.168567 -0.0709,0.342803 -0.07227,0.517569 0,1.104567 0.895431,2.000012 2.000002,2.000012 h 4.000025 3.4043 3.32931 0.08485 3.999999 3.404296 3.248047 c 1.104571,0 2.000001,-0.895445 2.000001,-2.000012 -7.1e-4,-0.174992 -0.02419,-0.348851 -0.0703,-0.517569 h 0.002 L 35.607043,34.62499 h -0.002 l -0.742185,-2.775383 -1.03516,-3.863282 h -0.002 c -0.233953,-0.8736 -1.025167,-1.481424 -1.929593,-1.482444 h -3.404296 -2.433596 -2.029297 -1.08475 -3.4043 c -1.468169,0 -1.282284,-0.411591 -1.01367,-1.414035 l 0.726562,-2.710942 0.51758,-1.931641 c 0.548583,-2.04737 0.721761,-2.380875 3.103513,-2.380875 h 0.08281 2.203124 3.402342 c 1.104571,0 2.000001,-0.895408 2.000001,-1.999975 -7.5e-5,-0.174992 -0.02305,-0.34885 -0.06837,-0.517606 l -0.0038,-0.0189 c -0.0013,-0.0038 -0.0026,-0.0076 -0.0038,-0.01512 l -0.874984,-3.26479 -0.882815,-3.2988475 -1.1535,-4.302841 -0.401027,-1.496617 c -0.234179,-0.874318 -0.509072,-1.151547 -1.414224,-1.15166 h -2.027191 z"
     id="path931-7-5"
     inkscape:connector-curvature="0"
     sodipodi:nodetypes="ccccccccccccccccccccccccsccccccccccccccccccsccccccccccsccccccccccsccccccccccccccccccccccccccccccccccsccccccsccccccccccccccccccccsccccccccccc" />
</svg>
