<?xml version="1.0" encoding="UTF-8" standalone="no"?>
<!-- Generator: Gravit.io -->

<svg
   xmlns:dc="http://purl.org/dc/elements/1.1/"
   xmlns:cc="http://creativecommons.org/ns#"
   xmlns:rdf="http://www.w3.org/1999/02/22-rdf-syntax-ns#"
   xmlns:svg="http://www.w3.org/2000/svg"
   xmlns="http://www.w3.org/2000/svg"
   xmlns:xlink="http://www.w3.org/1999/xlink"
   xmlns:sodipodi="http://sodipodi.sourceforge.net/DTD/sodipodi-0.dtd"
   xmlns:inkscape="http://www.inkscape.org/namespaces/inkscape"
   style="isolation:isolate"
   viewBox="0 0 48 48"
   width="48"
   height="48"
   version="1.1"
   id="svg23"
   sodipodi:docname="xdman.svg"
   inkscape:version="0.92.4 (unknown)">
  <metadata
     id="metadata27">
    <rdf:RDF>
      <cc:Work
         rdf:about="">
        <dc:format>image/svg+xml</dc:format>
        <dc:type
           rdf:resource="http://purl.org/dc/dcmitype/StillImage" />
      </cc:Work>
    </rdf:RDF>
  </metadata>
  <sodipodi:namedview
     pagecolor="#ffffff"
     bordercolor="#666666"
     borderopacity="1"
     objecttolerance="10"
     gridtolerance="10"
     guidetolerance="10"
     inkscape:pageopacity="0"
     inkscape:pageshadow="2"
     inkscape:window-width="640"
     inkscape:window-height="480"
     id="namedview25"
     showgrid="false"
     showguides="true"
     inkscape:guide-bbox="true"
     inkscape:snap-bbox="true"
     inkscape:bbox-paths="true"
     inkscape:bbox-nodes="true"
     inkscape:snap-bbox-edge-midpoints="true"
     inkscape:snap-bbox-midpoints="true"
     inkscape:object-paths="true"
     inkscape:snap-intersection-paths="true"
     inkscape:snap-smooth-nodes="true"
     inkscape:snap-midpoints="true"
     inkscape:snap-object-midpoints="true"
     inkscape:snap-center="true"
     inkscape:zoom="13.42125"
     inkscape:cx="12.871462"
     inkscape:cy="28.756004"
     inkscape:current-layer="svg23" />
  <defs
     id="defs5">
    <linearGradient
       id="linearGradient865"
       inkscape:collect="always">
      <stop
         id="stop861"
         offset="0"
         style="stop-color:#19aeff;stop-opacity:1" />
      <stop
         id="stop863"
         offset="1"
         style="stop-color:#005c94;stop-opacity:1" />
    </linearGradient>
    <linearGradient
       inkscape:collect="always"
       id="linearGradient862">
      <stop
         style="stop-color:#b50000;stop-opacity:1;"
         offset="0"
         id="stop858" />
      <stop
         style="stop-color:#ff4141;stop-opacity:1"
         offset="1"
         id="stop860" />
    </linearGradient>
    <clipPath
       id="_clipPath_Sd08GpmkdqIAy1UR239YV2vyPFIZuRyU">
      <rect
         width="48"
         height="48"
         id="rect2" />
    </clipPath>
    <linearGradient
       inkscape:collect="always"
       xlink:href="#linearGradient865"
       id="linearGradient864"
       x1="30.527979"
       y1="35.303959"
       x2="6.3813939"
       y2="21.997744"
       gradientUnits="userSpaceOnUse"
       gradientTransform="translate(1.1068874,0.41456845)" />
    <linearGradient
       inkscape:collect="always"
       xlink:href="#linearGradient862"
       id="linearGradient864-3"
       x1="30.527979"
       y1="35.303959"
       x2="6.3813939"
       y2="21.997744"
       gradientUnits="userSpaceOnUse"
       gradientTransform="translate(-1.9996032,-1.9851911)" />
    <linearGradient
       inkscape:collect="always"
       xlink:href="#linearGradient865"
       id="linearGradient864-35"
       x1="30.527979"
       y1="35.303959"
       x2="6.3813939"
       y2="21.997744"
       gradientUnits="userSpaceOnUse"
       gradientTransform="translate(-1.9996032,-1.9851911)" />
  </defs>
  <path
     style="opacity:1;vector-effect:none;fill:url(#linearGradient864);fill-opacity:1;fill-rule:evenodd;stroke:none;stroke-width:4.87786674;stroke-linecap:butt;stroke-linejoin:miter;stroke-miterlimit:4;stroke-dasharray:none;stroke-dashoffset:0;stroke-opacity:1;paint-order:normal"
     d="m 5.1064906,2.4293604 v 0.0137 c -1.10457,0 -2,0.8954299 -2,2 v 7.1003296 4 4 c 0,1.10457 0.89543,2 2,2 1.10457,0 2,-0.89543 2,-2 v -4 -4 -5.1139997 h 1.0039064 0.9960937 3.0039063 3.999999 4 4 4 4 1.042969 v 5.1139997 4 4 4 4 3.96679 c 0,1.10457 0.89543,2 2,2 h 2.912109 l -2.242187,2.24219 -2.828125,2.82813 0.0078,0.008 -2.177734,2.17969 -1.410156,-1.41016 -2.828125,-2.82812 -2.828125,-2.82813 -0.191406,-0.19141 h 3.197265 v -4 h -4 -4 c -1.104569,0 -2,0.89543 -2,2 5.98e-4,0.52973 0.211325,1.03758 0.585938,1.41211 l -0.002,0.002 0.765625,0.76367 -0.01367,0.0137 2.828125,2.82813 2.830078,2.82812 2.828125,2.82813 2.792969,2.79297 c 0.0045,0.005 0.0091,0.0104 0.01367,0.0156 l 0.02148,0.0195 c 0.37501,0.37509 0.883659,0.58586 1.414062,0.58594 0.530403,-8e-5 1.039052,-0.21085 1.414063,-0.58594 l 2.828125,-2.82812 -0.0039,-0.004 0.765625,-0.76367 -0.0098,-0.01 2.828125,-2.82812 2.828125,-2.82813 2.808594,-2.80859 c 0.387086,-0.37653 0.605462,-0.89359 0.605469,-1.4336 0,-1.10457 -0.89543,-2 -2,-2 h -3.740235 -2 v -2 -3.96679 -4 -4 -4 -7.1139996 c 0,-1.10457 -0.919017,-2.22705 -2,-2 h -3.042969 -4 -4 -4 -4 -3.999954 -3.0039062 -0.9960937 z"
     id="rect891-47-5"
     inkscape:connector-curvature="0"
     sodipodi:nodetypes="ccsccssscccccccccccccccccssccccccccccccscccccccccccccccccccccscccccccssccccccccc" />
  <path
     style="opacity:1;vector-effect:none;fill:url(#linearGradient864);fill-opacity:1;fill-rule:evenodd;stroke:none;stroke-width:4.87786674;stroke-linecap:butt;stroke-linejoin:miter;stroke-miterlimit:4;stroke-dasharray:none;stroke-dashoffset:0;stroke-opacity:1;paint-order:normal;font-variant-east_asian:normal"
     d="m 16.242892,8.2506511 c -2.610889,0.00263 -4.919704,1.695244 -5.709001,4.1839769 -1.7111297,0.685522 -2.3418339,1.632096 -1.6784784,2.519084 0.3101685,0.408635 0.8824811,0.78592 1.6716854,1.102014 0.788377,2.493003 3.101108,4.187853 5.715794,4.188734 2.610902,-0.0026 4.919717,-1.695245 5.709014,-4.183977 1.71113,-0.685522 2.341834,-1.632097 1.678478,-2.519085 -0.118911,-0.154913 -0.275914,-0.305793 -0.469181,-0.450852 0.095,0.417032 -0.07161,0.707714 -0.303626,1.019933 l -6.95e-4,6.95e-4 c -0.157344,0.179642 -0.368849,0.352661 -0.630796,0.516036 v -0.0053 c -0.101173,0.06412 -0.209902,0.126532 -0.325909,0.187394 -0.131762,0.0678 -0.272472,0.133246 -0.421657,0.196237 l -6.95e-4,0.0066 c -0.960305,0.407348 -2.247637,0.699791 -3.688319,0.837873 -0.353043,0.03311 -0.712576,0.05676 -1.075526,0.07056 v -0.03127 c -1.35563,0.06846 -2.729288,-0.02812 -3.885226,-0.272958 l -0.0013,-0.0066 c -0.01629,-0.0026 -0.03259,-0.0066 -0.04888,-0.0092 -0.16494,-0.03557 -0.324479,-0.07419 -0.478013,-0.115452 -0.153502,-0.04126 -0.300795,-0.08527 -0.441347,-0.131721 -0.140644,-0.04651 -0.274351,-0.09552 -0.400607,-0.146662 -0.126138,-0.05111 -0.244603,-0.104326 -0.355105,-0.159565 -0.110634,-0.05545 -0.213055,-0.112735 -0.30691,-0.171797 -0.09381,-0.05886 -0.179064,-0.119306 -0.255312,-0.181284 -0.07621,-0.06215 -0.143258,-0.125613 -0.20098,-0.190114 -0.322572,-0.396455 -0.279672,-0.696926 -0.02168,-1.155557 0,1.301128 1.606199,1.600628 2.390069,1.766749 -0.05427,-0.285624 -0.08252,-0.575939 -0.08422,-0.867068 0.0013,-0.74306 0.175306,-1.474858 0.50722,-2.133418 0.429304,-0.08488 0.886647,-0.151011 1.361387,-0.196907 2.700236,-0.257138 5.517361,0.173217 6.747195,1.03072 -0.55309,-0.957967 -3.577173,-1.422339 -4.928835,-1.42929 -0.691185,-0.0026 -1.38007,0.02864 -2.047866,0.09237 -0.310261,0.03048 -0.614832,0.06793 -0.911888,0.112079 0.82229,-1.308697 2.22609,-2.0985709 3.732442,-2.1001479 2.463334,-1.45e-4 4.460338,2.0704269 4.460338,4.6246589 -0.0013,0.04533 -0.0039,0.09053 -0.0079,0.135796 0.262867,-0.124693 0.493752,-0.257703 0.689858,-0.397217 C 22.086569,10.782218 19.44994,8.2550791 16.242391,8.2512292 Z m 4.799833,8.1194479 c -0.764975,1.535483 -2.291799,2.500545 -3.958544,2.502109 -1.507443,-6.96e-4 -2.912504,-0.791031 -3.735162,-2.100818 1.546218,0.226588 3.2579,0.266178 4.873151,0.112736 1.030392,-0.0992 1.99117,-0.274312 2.820555,-0.514 z"
     id="path4835"
     inkscape:connector-curvature="0"
     sodipodi:nodetypes="cccccccccccccccccccccccccccccccccccccccccccccccc" />
</svg>
