<?xml version="1.0" encoding="UTF-8" standalone="no"?>
<!-- Generator: Gravit.io -->

<svg
   xmlns:dc="http://purl.org/dc/elements/1.1/"
   xmlns:cc="http://creativecommons.org/ns#"
   xmlns:rdf="http://www.w3.org/1999/02/22-rdf-syntax-ns#"
   xmlns:svg="http://www.w3.org/2000/svg"
   xmlns="http://www.w3.org/2000/svg"
   xmlns:xlink="http://www.w3.org/1999/xlink"
   xmlns:sodipodi="http://sodipodi.sourceforge.net/DTD/sodipodi-0.dtd"
   xmlns:inkscape="http://www.inkscape.org/namespaces/inkscape"
   style="isolation:isolate"
   viewBox="0 0 48 48"
   width="48"
   height="48"
   version="1.1"
   id="svg16"
   sodipodi:docname="folder-grey.svg"
   inkscape:version="0.92.4 (unknown)">
  <metadata
     id="metadata20">
    <rdf:RDF>
      <cc:Work
         rdf:about="">
        <dc:format>image/svg+xml</dc:format>
        <dc:type
           rdf:resource="http://purl.org/dc/dcmitype/StillImage" />
      </cc:Work>
    </rdf:RDF>
  </metadata>
  <sodipodi:namedview
     pagecolor="#ffffff"
     bordercolor="#666666"
     borderopacity="1"
     objecttolerance="10"
     gridtolerance="10"
     guidetolerance="10"
     inkscape:pageopacity="0"
     inkscape:pageshadow="2"
     inkscape:window-width="640"
     inkscape:window-height="480"
     id="namedview18"
     showgrid="false"
     inkscape:snap-bbox="true"
     inkscape:bbox-paths="true"
     inkscape:bbox-nodes="true"
     inkscape:snap-bbox-edge-midpoints="true"
     inkscape:snap-bbox-midpoints="true"
     inkscape:snap-nodes="false"
     inkscape:snap-others="false"
     inkscape:zoom="6.9532167"
     inkscape:cx="19.555323"
     inkscape:cy="25.610962"
     inkscape:current-layer="svg16" />
  <defs
     id="defs5">
    <linearGradient
       inkscape:collect="always"
       id="linearGradient825">
      <stop
         style="stop-color:#63737a;stop-opacity:1"
         offset="0"
         id="stop821" />
      <stop
         style="stop-color:#a7b3b7;stop-opacity:1"
         offset="1"
         id="stop823" />
    </linearGradient>
    <clipPath
       id="_clipPath_hf1KAfSzcDT4iOqegkCrm2Gm9WczwtKi">
      <rect
         width="48"
         height="48"
         id="rect2" />
    </clipPath>
    <linearGradient
       inkscape:collect="always"
       xlink:href="#linearGradient825"
       id="linearGradient827"
       x1="17.68339"
       y1="36.974995"
       x2="34.139042"
       y2="22.827429"
       gradientUnits="userSpaceOnUse" />
  </defs>
  <g
     transform="translate(0.0528895,-2.1113349)"
     style="isolation:isolate"
     id="g969">
    <path
       sodipodi:nodetypes="sscccccccccccssccccccccccssccccccccccccsccccccccccssscccccccccccccccccccccccccccccccccccccccccccccccccccccccs"
       inkscape:connector-curvature="0"
       id="rect891-6-6-4-6"
       d="m 3.947111,10.335193 c -1.104571,10e-6 -2.000002,0.895446 -2.000002,2.000013 v 3.999987 3.121097 4.14342 2.000013 3.664538 -1.303313 4.000025 3.999987 3.999988 0 2.1504 1.999975 c 0,1.104567 0.895431,2.000012 2.000002,2.000012 h 3.999998 3.999999 2.320309 4.000002 3.999999 3.999999 4.000002 3.999999 1.679686 4.000003 4.000005 c 1.10457,0 2,-0.895445 2,-2.000012 v -3.999988 -2.000012 1.849625 -3.999988 -3.999987 -4.000025 1.303313 -3.664538 -3.999987 -2.000013 h -0.002 c 8.5e-4,-0.01512 10e-4,-0.03402 0.002,-0.04876 0,-1.104567 -0.89543,-2.000013 -2,-2.000013 h -0.83985 -4 -3.999999 -4.000003 v 0 h -3.999998 c -0.713968,5.67e-4 -1.373488,0.381694 -1.730468,1.000025 h -0.002 l -2.000001,3.462879 c -1.12111,1.771881 -1.822757,1.63476 -3.789063,1.63476 h -7.766737 c -1.104571,0 -2.000001,0.895445 -2.000001,2.000012 0,1.104567 0.89543,1.999975 2.000001,1.999975 h 7.766737 4.000002 c 0.713964,-5.67e-4 1.373484,-0.381657 1.730468,-0.999987 h 0.002 l 1.521482,-2.634747 c 1.4025,-2.429216 1.666043,-2.462891 4.267578,-2.462891 v 0 h 3.999999 4.000003 c 2.498933,0 2.839846,0.465675 2.839846,2.048806 v 2.000013 3.664538 -1.303276 3.999988 3.999987 3.999987 0 c 0,1.725128 -0.326135,2.1504 -2.000001,2.1504 H 35.947104 34.267418 30.267415 26.267417 22.267418 18.267415 14.267417 11.947108 7.947109 c -1.793095,0 -2.000001,-0.182551 -2.000001,-2.000012 v -2.000009 1.849625 -3.999987 -3.999987 -3.999988 1.303276 -3.664538 -3.999988 -3.116107 -3.027326 c 0.129298,-1.29241 0.847019,-1.017903 2.000001,-1.121084 h 6.320308 3.999998 3.318361 c 0.895457,0.111874 1.063113,0.442243 1.515625,1.160164 l 0.002,-0.002 c 0.36635,0.57823 1.002966,0.92897 1.687503,0.929688 1.104567,0 1.999997,-0.895446 1.999997,-2.000013 -9.8e-5,-0.323149 -0.0785,-0.641499 -0.22851,-0.927723 h 0.002 l -1.246093,-2.160267 h -0.002 C 24.959318,10.71685 24.299795,10.335722 23.585827,10.335155 H 21.585829 18.267468 14.267469 7.947158 Z"
       style="isolation:isolate;fill:url(#linearGradient827);fill-opacity:1;fill-rule:evenodd;stroke:none;stroke-width:0.54634154" />
    <g
       transform="translate(62.591178,-12.905602)"
       id="g959" />
  </g>
</svg>
