<?xml version="1.0" encoding="UTF-8" standalone="no"?>
<!-- Generator: Gravit.io -->

<svg
   xmlns:dc="http://purl.org/dc/elements/1.1/"
   xmlns:cc="http://creativecommons.org/ns#"
   xmlns:rdf="http://www.w3.org/1999/02/22-rdf-syntax-ns#"
   xmlns:svg="http://www.w3.org/2000/svg"
   xmlns="http://www.w3.org/2000/svg"
   xmlns:xlink="http://www.w3.org/1999/xlink"
   xmlns:sodipodi="http://sodipodi.sourceforge.net/DTD/sodipodi-0.dtd"
   xmlns:inkscape="http://www.inkscape.org/namespaces/inkscape"
   style="isolation:isolate"
   viewBox="0 0 48 48"
   width="48"
   height="48"
   version="1.1"
   id="svg28"
   sodipodi:docname="user-home.svg"
   inkscape:version="0.92.4 (unknown)">
  <metadata
     id="metadata32">
    <rdf:RDF>
      <cc:Work
         rdf:about="">
        <dc:format>image/svg+xml</dc:format>
        <dc:type
           rdf:resource="http://purl.org/dc/dcmitype/StillImage" />
      </cc:Work>
    </rdf:RDF>
  </metadata>
  <sodipodi:namedview
     pagecolor="#ffffff"
     bordercolor="#666666"
     borderopacity="1"
     objecttolerance="10"
     gridtolerance="10"
     guidetolerance="10"
     inkscape:pageopacity="0"
     inkscape:pageshadow="2"
     inkscape:window-width="640"
     inkscape:window-height="480"
     id="namedview30"
     showgrid="false"
     showguides="true"
     inkscape:guide-bbox="true"
     inkscape:snap-bbox="true"
     inkscape:bbox-paths="true"
     inkscape:bbox-nodes="true"
     inkscape:snap-bbox-edge-midpoints="true"
     inkscape:snap-bbox-midpoints="true"
     inkscape:zoom="6.9532167"
     inkscape:cx="17.030873"
     inkscape:cy="30.702804"
     inkscape:current-layer="svg28" />
  <defs
     id="defs5">
    <clipPath
       id="_clipPath_18B4cYk6gJAGj34wMeG14O8wRyLO6dlP">
      <rect
         width="48"
         height="48"
         id="rect2" />
    </clipPath>
    <linearGradient
       gradientTransform="translate(32.387742,11.196092)"
       inkscape:collect="always"
       xlink:href="#linearGradient847"
       id="linearGradient849-1"
       x1="-22.307833"
       y1="-0.4861922"
       x2="8.5337086"
       y2="30.355349"
       gradientUnits="userSpaceOnUse" />
    <linearGradient
       inkscape:collect="always"
       id="linearGradient847">
      <stop
         style="stop-color:#19aeff;stop-opacity:1"
         offset="0"
         id="stop843" />
      <stop
         id="stop851"
         offset="0.5"
         style="stop-color:#0084c8;stop-opacity:1" />
      <stop
         style="stop-color:#005c94;stop-opacity:1"
         offset="1"
         id="stop845" />
    </linearGradient>
    <linearGradient
       gradientTransform="translate(-1.999999,-10.223808)"
       inkscape:collect="always"
       xlink:href="#linearGradient847"
       id="linearGradient849-1-9"
       x1="3.8305073"
       y1="4.4745765"
       x2="43.355934"
       y2="43.525425"
       gradientUnits="userSpaceOnUse" />
  </defs>
  <path
     style="opacity:1;vector-effect:none;fill:url(#linearGradient849-1);fill-opacity:1;fill-rule:evenodd;stroke:none;stroke-width:0.54634154;stroke-linecap:butt;stroke-linejoin:miter;stroke-miterlimit:4;stroke-dasharray:none;stroke-dashoffset:0;stroke-opacity:1;paint-order:normal"
     d="M 24.000932,2.0075712 C 23.468608,2.0076846 22.958285,2.2199806 22.582963,2.597442 L 20.344682,4.8357161 V 3.0505696 H 17.670856 14.957967 10.95796 v 3.9999874 3.999987 3.169928 l -2.2421858,2.244132 -2.828126,2.828145 -2.828126,2.828108 0.002,0.002 c -0.352328,0.370397 -0.549415,0.861774 -0.550779,1.372993 -8e-6,1.104604 0.895423,2.000012 1.999997,2.000012 h 3.376955 v 5.428536 4.000025 1.999975 3.724611 3.343748 c -8e-6,1.104567 0.895427,2.000012 2.000001,2.000012 h 4.0000038 2.769532 1.999994 4.000002 3.999998 c 1.104575,0 2.000009,-0.895445 2.000002,-2.000012 -1.5e-5,-1.104567 -0.895442,-1.999975 -2.000002,-1.999975 H 22.657228 18.657226 16.657232 13.8877 11.887694 V 39.992769 36.649021 32.92441 30.924398 23.757582 h -0.01965 c 0.01247,-0.08693 0.0189,-0.174236 0.01965,-0.261921 -1.5e-5,-1.10453 -0.895438,-1.999975 -1.9999978,-1.999975 h -0.546875 l 2.2031248,-2.203126 2.808598,-2.808604 c 0.387081,-0.376441 0.605454,-0.893556 0.605469,-1.433575 V 11.050355 7.0503681 h 1.386717 v 2.6132787 c -8e-6,1.1046052 0.895423,2.0000122 1.999997,2.0000122 0.530404,-7.5e-5 1.039053,-0.210897 1.414065,-0.58594 l 2.828125,-2.8281446 1.410153,-1.4101418 1.414065,1.4140725 2.828122,2.8281069 2.828126,2.830073 2.828126,2.828145 2.828126,2.828107 1.929687,1.927749 h -0.765626 c -1.10456,0 -1.999983,0.895445 -1.999998,1.999975 v 7.166853 3.999988 3.218759 2.767559 1.343773 H 33.97754 V 39.99258 36.648832 33.881273 30.969147 c -9.8e-5,-1.104491 -0.895498,-1.999823 -1.999997,-1.999823 h -2.000002 -2.558592 -4.000003 c -1.104573,0 -2.000004,0.895445 -1.999996,2.000012 v 3.999988 3.109379 1.111333 c -8e-6,1.104566 0.895423,2.000012 1.999996,2.000012 1.104575,0 2.000009,-0.895446 2.000001,-2.000012 v -3.999988 -1.111332 -1.109367 h 2.000002 2.558592 v 1.999975 2.912126 2.767559 3.343748 c 9.94e-4,1.068926 0.842321,1.94812 1.910155,1.99612 v 0.0038 h 4.000002 1.999998 c 1.104574,0 2.000009,-0.895446 2.000001,-2.000013 V 39.992618 36.64887 33.881311 30.662552 25.495711 h 1.999998 1.601564 c 1.104575,0 2.000005,-0.895408 1.999998,-2.000013 -8.7e-5,-0.530381 -0.21086,-1.03903 -0.585937,-1.414034 l -2.828123,-2.828146 -0.0038,0.0038 -2.517569,-2.517619 -2.83008,-2.828145 L 33.895642,11.081461 31.067519,8.2533539 28.239393,5.425209 25.485486,2.671294 C 25.107076,2.2497255 24.56762,2.0083649 24.00111,2.007231 Z"
     id="rect891-6-33"
     inkscape:connector-curvature="0"
     sodipodi:nodetypes="ccccccccccccccccccccccsccccscscccccccccccccccccccccccccccccccccccccccccccccccccccscccccccccccccscccccccccccccccccccc" />
</svg>
