<?xml version="1.0" encoding="UTF-8" standalone="no"?>
<!-- Generator: Gravit.io -->

<svg
   xmlns:dc="http://purl.org/dc/elements/1.1/"
   xmlns:cc="http://creativecommons.org/ns#"
   xmlns:rdf="http://www.w3.org/1999/02/22-rdf-syntax-ns#"
   xmlns:svg="http://www.w3.org/2000/svg"
   xmlns="http://www.w3.org/2000/svg"
   xmlns:xlink="http://www.w3.org/1999/xlink"
   xmlns:sodipodi="http://sodipodi.sourceforge.net/DTD/sodipodi-0.dtd"
   xmlns:inkscape="http://www.inkscape.org/namespaces/inkscape"
   style="isolation:isolate"
   viewBox="0 0 48 48"
   width="48"
   height="48"
   version="1.1"
   id="svg28"
   sodipodi:docname="user-trash.svg"
   inkscape:version="0.92.4 (unknown)">
  <metadata
     id="metadata32">
    <rdf:RDF>
      <cc:Work
         rdf:about="">
        <dc:format>image/svg+xml</dc:format>
        <dc:type
           rdf:resource="http://purl.org/dc/dcmitype/StillImage" />
      </cc:Work>
    </rdf:RDF>
  </metadata>
  <sodipodi:namedview
     pagecolor="#ffffff"
     bordercolor="#666666"
     borderopacity="1"
     objecttolerance="10"
     gridtolerance="10"
     guidetolerance="10"
     inkscape:pageopacity="0"
     inkscape:pageshadow="2"
     inkscape:window-width="640"
     inkscape:window-height="480"
     id="namedview30"
     showgrid="false"
     showguides="true"
     inkscape:guide-bbox="true"
     inkscape:snap-bbox="true"
     inkscape:bbox-paths="true"
     inkscape:bbox-nodes="true"
     inkscape:snap-bbox-edge-midpoints="true"
     inkscape:snap-bbox-midpoints="true"
     inkscape:zoom="6.9532167"
     inkscape:cx="14.226416"
     inkscape:cy="30.702804"
     inkscape:current-layer="svg28" />
  <defs
     id="defs5">
    <linearGradient
       inkscape:collect="always"
       id="linearGradient830">
      <stop
         style="stop-color:#009100;stop-opacity:1;"
         offset="0"
         id="stop826" />
      <stop
         style="stop-color:#2fb700;stop-opacity:1"
         offset="1"
         id="stop828" />
    </linearGradient>
    <clipPath
       id="_clipPath_18B4cYk6gJAGj34wMeG14O8wRyLO6dlP">
      <rect
         width="48"
         height="48"
         id="rect2" />
    </clipPath>
    <linearGradient
       inkscape:collect="always"
       id="linearGradient847">
      <stop
         style="stop-color:#19aeff;stop-opacity:1"
         offset="0"
         id="stop843" />
      <stop
         id="stop851"
         offset="0.5"
         style="stop-color:#0084c8;stop-opacity:1" />
      <stop
         style="stop-color:#005c94;stop-opacity:1"
         offset="1"
         id="stop845" />
    </linearGradient>
    <linearGradient
       gradientTransform="translate(-1.999999,-10.223808)"
       inkscape:collect="always"
       xlink:href="#linearGradient847"
       id="linearGradient849-1-9"
       x1="3.8305073"
       y1="4.4745765"
       x2="43.355934"
       y2="43.525425"
       gradientUnits="userSpaceOnUse" />
    <linearGradient
       inkscape:collect="always"
       xlink:href="#linearGradient830"
       id="linearGradient832"
       x1="6.8898201"
       y1="3.9570308"
       x2="43.411274"
       y2="44.042969"
       gradientUnits="userSpaceOnUse" />
  </defs>
  <path
     inkscape:connector-curvature="0"
     style="opacity:1;vector-effect:none;fill:url(#linearGradient832);fill-opacity:1;fill-rule:evenodd;stroke:none;stroke-width:0.37145898;stroke-linecap:butt;stroke-linejoin:miter;stroke-miterlimit:4;stroke-dasharray:none;stroke-dashoffset:0;stroke-opacity:1;paint-order:normal"
     d="m 18.740235,3.9570308 c -0.714368,9.827e-4 -1.373983,0.3829039 -1.730472,1.0019528 l -0.002,-0.00196 -1.999996,3.4629167 h 0.002 l -0.94336,1.6347587 h -2.41016 -3.6562503 -3.999999 c -1.1045749,0 -2.0000089,0.895445 -2.0000009,2.000012 6.76e-4,0.198803 0.03099,0.39617 0.08984,0.58594 h -0.002 l 0.896485,3.351535 1.0351559,3.863281 h 0.002 l 0.64453,2.406274 h -0.002 l 0.904298,3.373039 0.898435,3.351572 1.03516,3.863282 0.64453,2.404271 0.921876,3.441411 1.0351563,3.865247 c 0.234255,0.874318 1.026497,1.482293 1.931641,1.482406 h 3.999999 3.470702 2.882873 3.083985 1.691406 2.484382 3.074219 3.083981 c 0.904422,-9.82e-4 1.695628,-0.608806 1.929691,-1.482406 h 0.002 l 0.46484,-1.73828 h 0.002 l 0.88086,-3.291024 1.035156,-3.863282 0.898439,-3.351572 h -0.002 l 0.904296,-3.373039 0.644531,-2.404309 1.035155,-3.863282 0.898436,-3.351571 h -0.002 c 0.04596,-0.168567 0.06958,-0.342804 0.0703,-0.517568 -1.6e-5,-1.104567 -0.895442,-1.999975 -2.000002,-1.999975 H 39.437507 36.353526 32.94923 29.810559 26.794927 c -0.713964,5.67e-4 -1.373481,0.381695 -1.730468,0.999988 -0.0079,0.01512 -0.01587,0.02646 -0.02343,0.0412 l -1.398437,2.421882 H 22.794927 20.658149 16.65815 c -1.104575,0 -2.000009,0.895446 -2.000001,2.000013 1.5e-5,1.104567 0.895441,1.999975 2.000001,1.999975 h 3.999999 2.136778 2.000001 c 0.731638,3.02e-4 1.40504,-0.398967 1.755859,-1.040996 l 1.398437,-2.421883 h 1.861334 3.138671 3.404296 3.083985 0.523438 l -0.359357,1.345701 -0.898439,3.351571 -0.880857,3.289059 -0.79883,2.978532 -0.904293,3.373039 h 0.002 l -0.744144,2.777348 h -0.002 l -1.035156,3.86521 -0.06837,0.255874 H 32.72267 29.648451 27.164073 25.472667 22.388682 19.505809 16.035107 13.570261 L 13.044877,38.08205 12.246047,35.103517 11.365186,31.814459 10.466751,28.462887 9.5624537,25.089848 h 0.002 l -0.798826,-2.978532 -0.88086,-3.290986 -0.898436,-3.349606 -0.378909,-1.416037 h 1.392579 3.6562503 3.5625 c 0.731638,3.02e-4 1.405044,-0.398968 1.755863,-1.040996 l 1.498046,-2.593777 1.421873,-2.4628908 h 2.324281 2.486332 3.072265 1.929687 l 1.490237,2.5800948 0.999999,1.732422 0.01361,-0.0076 c 0.317896,0.727559 1.036093,1.198185 1.830077,1.199206 h 3.999996 3.208985 2.749998 c 1.104575,0 2.000009,-0.895446 2.000002,-2.000013 -1.5e-5,-1.104566 -0.895442,-1.9999737 -2.000002,-1.9999737 h -2.750009 -3.208986 -2.8457 L 34.662101,8.5373292 32.662104,5.074413 l -0.006,0.00197 C 32.32017,4.3915303 31.623977,3.9573381 30.86117,3.9570358 h -3.083985 -3.072264 -2.486332 z"
     id="path1264-4-9"
     sodipodi:nodetypes="ccccccccscccccccccccccccccccccccccccccccccccccsccccccccccscsccccccccccccccccccccccccccccccccccccccccccccccccccccccscsccccccccccc" />
</svg>
