<?xml version="1.0" encoding="UTF-8" standalone="no"?>
<svg
   xmlns:dc="http://purl.org/dc/elements/1.1/"
   xmlns:cc="http://creativecommons.org/ns#"
   xmlns:rdf="http://www.w3.org/1999/02/22-rdf-syntax-ns#"
   xmlns:svg="http://www.w3.org/2000/svg"
   xmlns="http://www.w3.org/2000/svg"
   xmlns:sodipodi="http://sodipodi.sourceforge.net/DTD/sodipodi-0.dtd"
   xmlns:inkscape="http://www.inkscape.org/namespaces/inkscape"
   viewBox="0 0 16 16"
   version="1.1"
   id="svg8"
   sodipodi:docname="folder-locked.svg"
   inkscape:version="0.92.4 (unknown)">
  <metadata
     id="metadata12">
    <rdf:RDF>
      <cc:Work
         rdf:about="">
        <dc:format>image/svg+xml</dc:format>
        <dc:type
           rdf:resource="http://purl.org/dc/dcmitype/StillImage" />
      </cc:Work>
    </rdf:RDF>
  </metadata>
  <sodipodi:namedview
     pagecolor="#ffffff"
     bordercolor="#666666"
     borderopacity="1"
     objecttolerance="10"
     gridtolerance="10"
     guidetolerance="10"
     inkscape:pageopacity="0"
     inkscape:pageshadow="2"
     inkscape:window-width="640"
     inkscape:window-height="480"
     id="namedview10"
     showgrid="false"
     inkscape:zoom="29.5"
     inkscape:cx="5.9225211"
     inkscape:cy="7.9404104"
     inkscape:current-layer="svg8"
     inkscape:snap-bbox="true"
     inkscape:bbox-paths="true"
     inkscape:bbox-nodes="true"
     inkscape:snap-bbox-edge-midpoints="true"
     inkscape:snap-bbox-midpoints="true"
     inkscape:object-paths="true"
     inkscape:snap-intersection-paths="true"
     inkscape:snap-smooth-nodes="true"
     inkscape:snap-midpoints="true"
     inkscape:snap-object-midpoints="true"
     showguides="true"
     inkscape:guide-bbox="true" />
  <defs
     id="defs3051">
    <style
       type="text/css"
       id="current-color-scheme">
      .ColorScheme-Text {
        color:#4d4d4d;
      }
      </style>
  </defs>
  <path
     style="opacity:1;vector-effect:none;fill:#0e232e;fill-opacity:1;fill-rule:evenodd;stroke:none;stroke-width:0.01852005;stroke-linecap:butt;stroke-linejoin:miter;stroke-miterlimit:4;stroke-dasharray:none;stroke-dashoffset:0;stroke-opacity:1;paint-order:normal"
     d="M 2.6615041,11.574844 V 8.6087421 H 5.3225211 7.983538 V 9.1850133 9.7612845 H 5.8987923 3.8140465 v 1.8135595 1.813559 H 8.0004872 12.186928 V 11.574844 9.7612845 H 11.005547 9.8241665 L 9.8009099,8.091793 C 9.7686547,5.7763354 9.7195428,4.9659557 9.5579824,4.0833184 9.4161075,3.3082291 9.2227004,2.8749938 8.9583502,2.7401323 8.7723879,2.6452614 8.266154,2.5972945 7.7293008,2.623677 7.2162716,2.6488886 7.0758211,2.6799481 6.9335672,2.7996471 6.6253892,3.0589616 6.4241584,3.767475 6.3044821,5.0145886 6.2605346,5.4725543 6.1889502,7.1680716 6.1874438,7.7867082 L 6.1869279,7.9985727 H 5.6106567 5.0343855 L 5.0346126,7.5155218 C 5.0351963,6.2728194 5.1376082,4.7343512 5.272657,3.9395314 5.4801345,2.7184379 5.880401,2.0095851 6.5402601,1.6946672 6.9046828,1.5207463 7.0811723,1.4877006 7.763897,1.4655546 c 1.2223404,-0.03965 1.8225675,0.1415896 2.258757,0.6820344 0.641525,0.7948595 0.871793,2.0889993 0.931552,5.2354647 l 0.02328,1.2256884 h 1.180992 1.180993 v 2.9661019 2.966102 H 8.0004872 2.6615041 Z"
     id="path830"
     inkscape:connector-curvature="0" />
</svg>
