<?xml version="1.0" encoding="UTF-8" standalone="no"?>
<svg
   xmlns:dc="http://purl.org/dc/elements/1.1/"
   xmlns:cc="http://creativecommons.org/ns#"
   xmlns:rdf="http://www.w3.org/1999/02/22-rdf-syntax-ns#"
   xmlns:svg="http://www.w3.org/2000/svg"
   xmlns="http://www.w3.org/2000/svg"
   xmlns:sodipodi="http://sodipodi.sourceforge.net/DTD/sodipodi-0.dtd"
   xmlns:inkscape="http://www.inkscape.org/namespaces/inkscape"
   viewBox="0 0 16 16"
   version="1.1"
   id="svg5"
   sodipodi:docname="mail-folder-inbox.svg"
   inkscape:version="0.92.4 (unknown)">
  <metadata
     id="metadata9">
    <rdf:RDF>
      <cc:Work
         rdf:about="">
        <dc:format>image/svg+xml</dc:format>
        <dc:type
           rdf:resource="http://purl.org/dc/dcmitype/StillImage" />
      </cc:Work>
    </rdf:RDF>
  </metadata>
  <sodipodi:namedview
     pagecolor="#ffffff"
     bordercolor="#666666"
     borderopacity="1"
     objecttolerance="10"
     gridtolerance="10"
     guidetolerance="10"
     inkscape:pageopacity="0"
     inkscape:pageshadow="2"
     inkscape:window-width="640"
     inkscape:window-height="480"
     id="namedview7"
     showgrid="false"
     inkscape:zoom="20.85965"
     inkscape:cx="2.3933023"
     inkscape:cy="7.3645706"
     inkscape:current-layer="svg5" />
  <defs
     id="defs3051">
    <style
       type="text/css"
       id="current-color-scheme">
      .ColorScheme-Text {
        color:#4d4d4d;
      }
      </style>
  </defs>
  <g
     id="g847"
     transform="translate(1.9e-7,-1.0068352)">
    <path
       id="path839"
       d="m 2.4980469,2.5117188 v 2 2.0019531 H 1.5039062 0.50976562 v 4.4941401 4.494141 H 8 15.490234 V 11.007812 6.5136719 h -0.84375 -0.845703 l -1.537109,1.5371093 v 1.3671876 l 1.919922,-1.921875 h 0.162109 0.162109 v 3.5117182 3.511719 H 7.9882812 1.46875 l 0.00586,-3.505859 0.00586,-3.5058595 1,-0.00586 1.0019531,-0.00586 v -2.0019532 -2 h 4.5058593 4.5058596 v 0.765625 0.7675782 h -3.7519533 -3.75 v 0.4921874 0.4902344 h 4.2421875 4.2421868 v -1.75 -1.7480468 H 7.9882812 Z"
       style="opacity:1;vector-effect:none;fill:#0e232e;fill-opacity:1;fill-rule:evenodd;stroke:none;stroke-width:0.01309565;stroke-linecap:butt;stroke-linejoin:miter;stroke-miterlimit:4;stroke-dasharray:none;stroke-dashoffset:0;stroke-opacity:1;paint-order:normal"
       inkscape:connector-curvature="0" />
    <path
       inkscape:connector-curvature="0"
       id="path843"
       d="m 5.0120781,8.73928 v 1.709408 l 1.613468,1.545653 1.613468,1.545654 0.7000915,-0.672932 C 9.3241558,12.496951 10.046489,11.806325 10.54429,11.33234 l 0.905093,-0.861791 0.0017,-1.720339 0.0017,-1.720339 H 8.2324171 5.0120781 Z m 5.4915259,0.285076 v 1.011433 L 9.3787385,11.109853 C 8.7600629,11.700588 8.242401,12.179765 8.228379,12.17469 8.2143571,12.169616 7.6988323,11.684956 7.0827685,11.097668 L 5.9626525,10.029871 5.9619416,9.021397 5.9612307,8.012922 h 2.2711864 2.2711869 z"
       style="opacity:1;vector-effect:none;fill:#0e232e;fill-opacity:1;fill-rule:evenodd;stroke:none;stroke-width:0.01852005;stroke-linecap:butt;stroke-linejoin:miter;stroke-miterlimit:4;stroke-dasharray:none;stroke-dashoffset:0;stroke-opacity:1;paint-order:normal" />
  </g>
</svg>
