<?xml version="1.0" encoding="UTF-8" standalone="no"?>
<svg
   xmlns:dc="http://purl.org/dc/elements/1.1/"
   xmlns:cc="http://creativecommons.org/ns#"
   xmlns:rdf="http://www.w3.org/1999/02/22-rdf-syntax-ns#"
   xmlns:svg="http://www.w3.org/2000/svg"
   xmlns="http://www.w3.org/2000/svg"
   xmlns:sodipodi="http://sodipodi.sourceforge.net/DTD/sodipodi-0.dtd"
   xmlns:inkscape="http://www.inkscape.org/namespaces/inkscape"
   viewBox="0 0 16 16"
   version="1.1"
   id="svg6"
   sodipodi:docname="mail-message.svg"
   inkscape:version="0.92.4 (unknown)">
  <metadata
     id="metadata10">
    <rdf:RDF>
      <cc:Work
         rdf:about="">
        <dc:format>image/svg+xml</dc:format>
        <dc:type
           rdf:resource="http://purl.org/dc/dcmitype/StillImage" />
      </cc:Work>
    </rdf:RDF>
  </metadata>
  <sodipodi:namedview
     pagecolor="#ffffff"
     bordercolor="#666666"
     borderopacity="1"
     objecttolerance="10"
     gridtolerance="10"
     guidetolerance="10"
     inkscape:pageopacity="0"
     inkscape:pageshadow="2"
     inkscape:window-width="640"
     inkscape:window-height="480"
     id="namedview8"
     showgrid="false"
     inkscape:snap-bbox="true"
     inkscape:bbox-paths="true"
     inkscape:bbox-nodes="true"
     inkscape:snap-bbox-edge-midpoints="true"
     inkscape:snap-bbox-midpoints="true"
     inkscape:object-paths="true"
     inkscape:snap-intersection-paths="true"
     inkscape:snap-smooth-nodes="true"
     inkscape:snap-midpoints="true"
     inkscape:snap-object-midpoints="true"
     inkscape:snap-center="true"
     showguides="true"
     inkscape:guide-bbox="true"
     inkscape:zoom="20.85965"
     inkscape:cx="0.60342629"
     inkscape:cy="12.094564"
     inkscape:current-layer="svg6" />
  <defs
     id="defs3051">
    <style
       type="text/css"
       id="current-color-scheme">
      .ColorScheme-Text {
        color:#4d4d4d;
      }
      </style>
  </defs>
  <path
     style="opacity:1;vector-effect:none;fill:#0e232e;fill-opacity:1;fill-rule:evenodd;stroke:none;stroke-width:0.01309565;stroke-linecap:butt;stroke-linejoin:miter;stroke-miterlimit:4;stroke-dasharray:none;stroke-dashoffset:0;stroke-opacity:1;paint-order:normal"
     d="M 0.50946202,10.001472 V 5.5071488 H 1.5042055 2.4989489 V 3.5056772 1.5042054 H 7.9880151 13.477081 V 3.2539951 5.0037848 H 9.2344406 4.9917999 V 4.5124054 4.0210261 H 8.7430613 12.494323 V 3.2539951 2.486964 H 7.9880151 3.4817075 v 2.0012088 2.0012088 l -1.0007359,0.00626 -1.0007359,0.00626 -0.00607,3.5055714 -0.00607,3.505572 H 7.9879353 14.507779 V 10.001472 6.4899075 H 14.345948 14.184117 L 11.152035,9.5220607 8.1199526,12.554214 6.5678611,11.00226 5.0157697,9.4503064 V 7.7304095 6.010513 H 8 10.98423 V 6.5018924 6.9932717 H 8.4913793 5.9985282 V 8.0300642 9.0668568 L 7.0473045,10.11543 c 0.576827,0.576716 1.0595345,1.048573 1.0726831,1.048573 0.013149,0 1.2966649,-1.272792 2.8522574,-2.8284269 l 2.828351,-2.8284273 h 0.844971 0.844971 v 4.4943232 4.494323 H 8 0.50946202 Z"
     id="path839"
     inkscape:connector-curvature="0" />
</svg>
