<?xml version="1.0" encoding="UTF-8" standalone="no"?>
<svg
   xmlns:dc="http://purl.org/dc/elements/1.1/"
   xmlns:cc="http://creativecommons.org/ns#"
   xmlns:rdf="http://www.w3.org/1999/02/22-rdf-syntax-ns#"
   xmlns:svg="http://www.w3.org/2000/svg"
   xmlns="http://www.w3.org/2000/svg"
   xmlns:sodipodi="http://sodipodi.sourceforge.net/DTD/sodipodi-0.dtd"
   xmlns:inkscape="http://www.inkscape.org/namespaces/inkscape"
   viewBox="0 0 16 16"
   version="1.1"
   id="svg6"
   sodipodi:docname="mail-folder-outbox.svg"
   inkscape:version="0.92.4 (unknown)">
  <metadata
     id="metadata10">
    <rdf:RDF>
      <cc:Work
         rdf:about="">
        <dc:format>image/svg+xml</dc:format>
        <dc:type
           rdf:resource="http://purl.org/dc/dcmitype/StillImage" />
      </cc:Work>
    </rdf:RDF>
  </metadata>
  <sodipodi:namedview
     pagecolor="#ffffff"
     bordercolor="#666666"
     borderopacity="1"
     objecttolerance="10"
     gridtolerance="10"
     guidetolerance="10"
     inkscape:pageopacity="0"
     inkscape:pageshadow="2"
     inkscape:window-width="640"
     inkscape:window-height="480"
     id="namedview8"
     showgrid="false"
     inkscape:snap-bbox="true"
     inkscape:bbox-paths="true"
     inkscape:bbox-nodes="true"
     inkscape:snap-bbox-edge-midpoints="true"
     inkscape:snap-bbox-midpoints="true"
     inkscape:object-paths="true"
     inkscape:snap-intersection-paths="true"
     inkscape:snap-smooth-nodes="true"
     inkscape:snap-midpoints="true"
     inkscape:snap-object-midpoints="true"
     showguides="true"
     inkscape:guide-bbox="true"
     inkscape:zoom="20.85965"
     inkscape:cx="10.68259"
     inkscape:cy="5.837917"
     inkscape:current-layer="svg6" />
  <defs
     id="defs3051">
    <style
       type="text/css"
       id="current-color-scheme">
      .ColorScheme-Text {
        color:#4d4d4d;
      }
      </style>
  </defs>
  <g
     id="g847"
     transform="translate(1.9e-7,-1.0068352)">
    <path
       id="path839"
       d="m 2.4980469,2.5117188 v 2 2.0019531 H 1.5039062 0.50976562 v 4.4941401 4.494141 H 8 15.490234 V 11.007812 6.5136719 h -0.84375 -0.845703 l -1.537109,1.5371093 v 1.3671876 l 1.919922,-1.921875 h 0.162109 0.162109 v 3.5117182 3.511719 H 7.9882812 1.46875 l 0.00586,-3.505859 0.00586,-3.5058595 1,-0.00586 1.0019531,-0.00586 v -2.0019532 -2 h 4.5058593 4.5058596 v 0.765625 0.7675782 h -3.7519533 -3.75 v 0.4921874 0.4902344 h 4.2421875 4.2421868 v -1.75 -1.7480468 H 7.9882812 Z"
       style="opacity:1;vector-effect:none;fill:#0e232e;fill-opacity:1;fill-rule:evenodd;stroke:none;stroke-width:0.01309565;stroke-linecap:butt;stroke-linejoin:miter;stroke-miterlimit:4;stroke-dasharray:none;stroke-dashoffset:0;stroke-opacity:1;paint-order:normal"
       inkscape:connector-curvature="0" />
    <path
       inkscape:connector-curvature="0"
       id="path843"
       d="M 5.0120781,11.830586 V 10.121178 L 6.6255461,8.5755246 8.2390141,7.029871 8.9391056,7.7028028 C 9.3241558,8.0729154 10.046489,8.7635406 10.54429,9.2375257 l 0.905093,0.8617913 0.0017,1.720339 0.0017,1.720339 H 8.2324171 5.0120781 Z M 10.503604,11.54551 V 10.534077 L 9.3787385,9.4600133 C 8.7600629,8.8692783 8.242401,8.3901014 8.228379,8.3951756 8.2143571,8.4002498 7.6988323,8.8849098 7.0827685,9.472198 l -1.120116,1.067797 -7.109e-4,1.008474 -7.109e-4,1.008475 h 2.2711864 2.2711869 z"
       style="opacity:1;vector-effect:none;fill:#0e232e;fill-opacity:1;fill-rule:evenodd;stroke:none;stroke-width:0.01852005;stroke-linecap:butt;stroke-linejoin:miter;stroke-miterlimit:4;stroke-dasharray:none;stroke-dashoffset:0;stroke-opacity:1;paint-order:normal" />
  </g>
</svg>
