<?xml version="1.0" encoding="UTF-8" standalone="no"?>
<svg
   xmlns:dc="http://purl.org/dc/elements/1.1/"
   xmlns:cc="http://creativecommons.org/ns#"
   xmlns:rdf="http://www.w3.org/1999/02/22-rdf-syntax-ns#"
   xmlns:svg="http://www.w3.org/2000/svg"
   xmlns="http://www.w3.org/2000/svg"
   xmlns:sodipodi="http://sodipodi.sourceforge.net/DTD/sodipodi-0.dtd"
   xmlns:inkscape="http://www.inkscape.org/namespaces/inkscape"
   viewBox="0 0 16 16"
   version="1.1"
   id="svg6"
   sodipodi:docname="user-trash.svg"
   inkscape:version="0.92.4 (unknown)">
  <metadata
     id="metadata10">
    <rdf:RDF>
      <cc:Work
         rdf:about="">
        <dc:format>image/svg+xml</dc:format>
        <dc:type
           rdf:resource="http://purl.org/dc/dcmitype/StillImage" />
      </cc:Work>
    </rdf:RDF>
  </metadata>
  <sodipodi:namedview
     pagecolor="#ffffff"
     bordercolor="#666666"
     borderopacity="1"
     objecttolerance="10"
     gridtolerance="10"
     guidetolerance="10"
     inkscape:pageopacity="0"
     inkscape:pageshadow="2"
     inkscape:window-width="640"
     inkscape:window-height="480"
     id="namedview8"
     showgrid="false"
     inkscape:zoom="14.75"
     inkscape:cx="-4.1694915"
     inkscape:cy="8"
     inkscape:current-layer="svg6" />
  <defs
     id="defs3051">
    <style
       type="text/css"
       id="current-color-scheme">
      .ColorScheme-Text {
        color:#4d4d4d;
      }
      </style>
  </defs>
  <path
     style="opacity:1;vector-effect:none;fill:#0e232e;fill-opacity:1;fill-rule:evenodd;stroke:#0e232e;stroke-width:0.01207256;stroke-linecap:butt;stroke-linejoin:miter;stroke-miterlimit:4;stroke-dasharray:none;stroke-dashoffset:0;stroke-opacity:1;paint-order:normal"
     d="M 3.0031907,8.994369 V 4.0004274 H 2.5088304 2.0144702 L 2.0020261,3.9175633 C 1.9584641,3.6274885 1.8946678,3.0465555 1.9052162,3.036007 1.9121667,3.0290566 2.8257956,2.7960329 3.9355026,2.5181765 L 5.9531518,2.0129832 8.0028446,2.0123364 10.052538,2.0116896 12.046612,2.509203 c 1.09674,0.2736324 2.009797,0.5048231 2.029015,0.5137572 0.03145,0.014623 0.02889,0.063648 -0.02567,0.4913313 -0.03334,0.261298 -0.06149,0.4775733 -0.06256,0.4806116 -0.0011,0.00304 -0.335068,0.00552 -0.742207,0.00552 H 12.504938 V 3.8179319 3.6354363 L 11.23988,3.320134 9.9748218,3.0048316 l -1.9776895,0.00112 -1.9776892,0.00112 -1.0054175,0.252069 -1.0054175,0.2520689 -0.00557,4.752411 -0.00557,4.7524115 H 8.0081305 12.018802 V 9.3921166 c 0,-3.100612 -0.0045,-3.6239223 -0.0311,-3.6239223 -0.01711,0 -0.470464,0.1342398 -1.007463,0.2983107 -0.536999,0.1640709 -0.9804142,0.2983107 -0.9853652,0.2983107 -0.005,0 -0.009,1.1534679 -0.009,2.5632621 V 11.49134 H 7.9971323 6.0083945 V 8.7513011 6.0112623 h 0.4860312 0.4860312 l 0.00563,2.2483786 0.00563,2.2483781 1.0109417,0.0057 1.0109417,0.0057 V 8.0775629 c 0,-1.3430731 0.00521,-2.4419511 0.011587,-2.4419511 0.00637,0 0.8909355,-0.2684796 1.9656947,-0.5966213 1.07476,-0.3281418 1.964478,-0.5966214 1.977151,-0.5966214 0.01592,0 0.02304,1.4751253 0.02304,4.7729708 V 13.988311 H 7.9971323 3.0031907 Z"
     id="path837"
     inkscape:connector-curvature="0" />
</svg>
