<?xml version="1.0" encoding="UTF-8" standalone="no"?>
<!-- Generator: Gravit.io -->

<svg
   xmlns:dc="http://purl.org/dc/elements/1.1/"
   xmlns:cc="http://creativecommons.org/ns#"
   xmlns:rdf="http://www.w3.org/1999/02/22-rdf-syntax-ns#"
   xmlns:svg="http://www.w3.org/2000/svg"
   xmlns="http://www.w3.org/2000/svg"
   xmlns:xlink="http://www.w3.org/1999/xlink"
   xmlns:sodipodi="http://sodipodi.sourceforge.net/DTD/sodipodi-0.dtd"
   xmlns:inkscape="http://www.inkscape.org/namespaces/inkscape"
   style="isolation:isolate"
   viewBox="0 0 48 48"
   width="48"
   height="48"
   version="1.1"
   id="svg23"
   sodipodi:docname="camera-web.svg"
   inkscape:version="0.92.4 (unknown)">
  <metadata
     id="metadata27">
    <rdf:RDF>
      <cc:Work
         rdf:about="">
        <dc:format>image/svg+xml</dc:format>
        <dc:type
           rdf:resource="http://purl.org/dc/dcmitype/StillImage" />
      </cc:Work>
    </rdf:RDF>
  </metadata>
  <sodipodi:namedview
     pagecolor="#ffffff"
     bordercolor="#666666"
     borderopacity="1"
     objecttolerance="10"
     gridtolerance="10"
     guidetolerance="10"
     inkscape:pageopacity="0"
     inkscape:pageshadow="2"
     inkscape:window-width="640"
     inkscape:window-height="480"
     id="namedview25"
     showgrid="false"
     showguides="true"
     inkscape:guide-bbox="true"
     inkscape:snap-bbox="true"
     inkscape:bbox-paths="true"
     inkscape:bbox-nodes="true"
     inkscape:snap-bbox-edge-midpoints="true"
     inkscape:snap-bbox-midpoints="true"
     inkscape:object-paths="true"
     inkscape:snap-intersection-paths="true"
     inkscape:snap-smooth-nodes="true"
     inkscape:snap-midpoints="true"
     inkscape:snap-object-midpoints="true"
     inkscape:snap-center="true"
     inkscape:zoom="6.2534759"
     inkscape:cx="-4.3850764"
     inkscape:cy="22.695876"
     inkscape:current-layer="svg23">
    <sodipodi:guide
       position="5.955078,27.84961"
       orientation="1,0"
       id="guide851"
       inkscape:locked="false" />
    <sodipodi:guide
       position="42.044922,27.84961"
       orientation="1,0"
       id="guide853"
       inkscape:locked="false" />
    <sodipodi:guide
       position="11.955078,17.84961"
       orientation="1,0"
       id="guide855"
       inkscape:locked="false" />
    <sodipodi:guide
       position="36.044922,17.84961"
       orientation="1,0"
       id="guide857"
       inkscape:locked="false" />
  </sodipodi:namedview>
  <defs
     id="defs5">
    <linearGradient
       inkscape:collect="always"
       id="linearGradient871">
      <stop
         style="stop-color:#9ade00;stop-opacity:1;"
         offset="0"
         id="stop867" />
      <stop
         style="stop-color:#009100;stop-opacity:1"
         offset="1"
         id="stop869" />
    </linearGradient>
    <linearGradient
       inkscape:collect="always"
       id="linearGradient887">
      <stop
         style="stop-color:#ffffff;stop-opacity:1"
         offset="0"
         id="stop883" />
      <stop
         style="stop-color:#364e59;stop-opacity:1"
         offset="1"
         id="stop885" />
    </linearGradient>
    <clipPath
       id="_clipPath_Sd08GpmkdqIAy1UR239YV2vyPFIZuRyU">
      <rect
         width="48"
         height="48"
         id="rect2" />
    </clipPath>
    <radialGradient
       inkscape:collect="always"
       xlink:href="#linearGradient887"
       id="radialGradient891-3"
       cx="24"
       cy="24"
       fx="24"
       fy="24"
       r="21.999977"
       gradientTransform="matrix(0.70887635,0,0,0.88610173,4.9869445,-1.7722238)"
       gradientUnits="userSpaceOnUse" />
    <linearGradient
       inkscape:collect="always"
       xlink:href="#linearGradient871"
       id="linearGradient873-3"
       x1="3.7050779"
       y1="39.662109"
       x2="57.169922"
       y2="8.4121103"
       gradientUnits="userSpaceOnUse"
       gradientTransform="matrix(1,0,0,-1,-5.955078,38.349609)" />
  </defs>
  <path
     style="opacity:1;vector-effect:none;fill:#bdcdd4;fill-opacity:1;fill-rule:evenodd;stroke:none;stroke-width:1;stroke-linecap:butt;stroke-linejoin:miter;stroke-miterlimit:4;stroke-dasharray:none;stroke-dashoffset:0;stroke-opacity:1;paint-order:normal;font-variant-east_asian:normal"
     d="M 24 11.738281 C 19.581717 11.738268 15.999987 15.319998 16 19.738281 L 16 23.736328 L 16 27.736328 L 16 30.361328 L 16 32.261719 L 14.044922 32.261719 L 11.955078 32.261719 L 7.9550781 32.261719 L 3.9550781 32.261719 C 2.8505086 32.261719 1.9550781 33.15715 1.9550781 34.261719 L 1.9550781 38.261719 L 1.9550781 46.136719 L 5.9550781 46.136719 L 5.9550781 38.261719 L 5.9550781 36.261719 L 7.9550781 36.261719 L 11.955078 36.261719 L 14.044922 36.261719 L 17.865234 36.261719 L 18 36.261719 L 21.865234 36.261719 L 22 36.261719 L 25.865234 36.261719 L 28 36.261719 L 29.865234 36.261719 L 30 36.261719 L 33.865234 36.261719 L 37.865234 36.261719 L 40.044922 36.261719 L 42.044922 36.261719 L 42.044922 38.261719 L 42.044922 46.136719 L 46.044922 46.136719 L 46.044922 38.261719 L 46.044922 34.261719 C 46.044922 33.15715 45.149492 32.261719 44.044922 32.261719 L 40.044922 32.261719 L 37.865234 32.261719 L 33.865234 32.261719 L 32 32.261719 L 32 27.736328 L 32 23.738281 L 32 19.738281 C 32.000013 15.319998 28.418283 11.738268 24 11.738281 z M 24 15.738281 C 26.209151 15.738251 28.00003 17.52913 28 19.738281 C 28.00003 21.947432 26.209151 23.738311 24 23.738281 C 21.790849 23.738311 19.99997 21.947432 20 19.738281 C 19.99997 17.52913 21.790849 15.738251 24 15.738281 z M 28 26.654297 L 28 27.736328 L 28 29.636719 L 28 32.261719 L 25.865234 32.261719 L 22 32.261719 L 21.865234 32.261719 L 20 32.261719 L 20 27.736328 L 20 26.65625 C 21.215161 27.361975 22.594776 27.735181 24 27.738281 C 25.405402 27.734578 26.785028 27.360705 28 26.654297 z "
     id="circle2512" />
  <path
     inkscape:connector-curvature="0"
     style="opacity:1;vector-effect:none;fill:#bdcdd4;fill-opacity:1;fill-rule:evenodd;stroke:none;stroke-width:1;stroke-linecap:butt;stroke-linejoin:miter;stroke-miterlimit:4;stroke-dasharray:none;stroke-dashoffset:0;stroke-opacity:1;paint-order:normal"
     d="m 7.955078,28.201417 c -1.1045695,0 -1.969384,-0.895854 -2,-2 v -4 -4 -4 -4.4999999 -3.9999996 c 0,-1.104569 0.8954305,-2 2,-2 h 4 5.910156 4 4 4 4 6.179688 c 1.10457,0 2,0.895431 2,2 v 3.9999996 4.4999999 4 4 4 c 0,1.10457 -0.89543,2 -2,2 h -4 c -1.10457,0 -2,-0.89543 -2,-2 0,-1.10457 0.89543,-2 2,-2 h 2 v -2 -4 -4 -4.4999999 -1.9999996 h -4.179688 -4 -4 -4 -4 -5.910156 -2 v 1.9999996 4.4999999 4 4 2 h 2 c 1.10457,0 2,0.89543 2,2 0,1.10457 -0.89543,2 -2,2 z"
     id="rect2354"
     sodipodi:nodetypes="csccccsscccccccsccccsccsccccccccccccccccccccscc" />
</svg>
