<?xml version="1.0" encoding="UTF-8" standalone="no"?>
<!-- Generator: Gravit.io -->

<svg
   xmlns:dc="http://purl.org/dc/elements/1.1/"
   xmlns:cc="http://creativecommons.org/ns#"
   xmlns:rdf="http://www.w3.org/1999/02/22-rdf-syntax-ns#"
   xmlns:svg="http://www.w3.org/2000/svg"
   xmlns="http://www.w3.org/2000/svg"
   xmlns:xlink="http://www.w3.org/1999/xlink"
   xmlns:sodipodi="http://sodipodi.sourceforge.net/DTD/sodipodi-0.dtd"
   xmlns:inkscape="http://www.inkscape.org/namespaces/inkscape"
   style="isolation:isolate"
   viewBox="0 0 48 48"
   width="48"
   height="48"
   version="1.1"
   id="svg23"
   sodipodi:docname="computer-laptop.svg"
   inkscape:version="0.92.4 (unknown)">
  <metadata
     id="metadata27">
    <rdf:RDF>
      <cc:Work
         rdf:about="">
        <dc:format>image/svg+xml</dc:format>
        <dc:type
           rdf:resource="http://purl.org/dc/dcmitype/StillImage" />
      </cc:Work>
    </rdf:RDF>
  </metadata>
  <sodipodi:namedview
     pagecolor="#ffffff"
     bordercolor="#666666"
     borderopacity="1"
     objecttolerance="10"
     gridtolerance="10"
     guidetolerance="10"
     inkscape:pageopacity="0"
     inkscape:pageshadow="2"
     inkscape:window-width="640"
     inkscape:window-height="480"
     id="namedview25"
     showgrid="false"
     showguides="true"
     inkscape:guide-bbox="true"
     inkscape:snap-bbox="true"
     inkscape:bbox-paths="true"
     inkscape:bbox-nodes="true"
     inkscape:snap-bbox-edge-midpoints="true"
     inkscape:snap-bbox-midpoints="true"
     inkscape:object-paths="true"
     inkscape:snap-intersection-paths="true"
     inkscape:snap-smooth-nodes="true"
     inkscape:snap-midpoints="true"
     inkscape:snap-object-midpoints="true"
     inkscape:snap-center="true"
     inkscape:zoom="6.2534759"
     inkscape:cx="-10.726919"
     inkscape:cy="10.394119"
     inkscape:current-layer="svg23" />
  <defs
     id="defs5">
    <linearGradient
       inkscape:collect="always"
       id="linearGradient887">
      <stop
         style="stop-color:#ffffff;stop-opacity:1"
         offset="0"
         id="stop883" />
      <stop
         style="stop-color:#364e59;stop-opacity:1"
         offset="1"
         id="stop885" />
    </linearGradient>
    <clipPath
       id="_clipPath_Sd08GpmkdqIAy1UR239YV2vyPFIZuRyU">
      <rect
         width="48"
         height="48"
         id="rect2" />
    </clipPath>
    <radialGradient
       inkscape:collect="always"
       xlink:href="#linearGradient887"
       id="radialGradient891-3"
       cx="24"
       cy="24"
       fx="24"
       fy="24"
       r="21.999977"
       gradientTransform="matrix(0.70887635,0,0,0.88610173,4.9869445,-1.7722238)"
       gradientUnits="userSpaceOnUse" />
  </defs>
  <path
     style="opacity:1;vector-effect:none;fill:#bdcdd4;fill-opacity:1;fill-rule:evenodd;stroke:none;stroke-width:4.87786722;stroke-linecap:butt;stroke-linejoin:miter;stroke-miterlimit:4;stroke-dasharray:none;stroke-dashoffset:0;stroke-opacity:1;paint-order:normal"
     d="m 8.1543919,3.0537636 c -1.10457,0 -2.093454,0.8994142 -2.000001,2.0000126 v 3.9999872 2.2089826 4.000025 1.999975 2.000012 2.000013 c 0,1.104567 0.895431,1.999975 2.000001,1.999975 1.104571,0 2.0000021,-0.895408 2.0000021,-1.999975 V 19.262758 17.262746 15.262771 11.262746 7.2627589 7.053751 h 1.999997 6.107422 3.999998 3.999999 3.476561 6.107422 1.998051 v 1.9999754 3.4062606 3.312491 3.406262 3.999987 2.261707 h -2.000002 -5.84375 -3.999999 -3.999999 -4.000002 -5.845701 -3.9999991 c -0.904422,9.83e-4 -1.695632,0.608806 -1.929687,1.482444 h -0.002 l -1.035155,3.863282 -0.945313,3.523427 -0.08984,0.339779 -0.945313,3.523427 h 0.002 l -0.623051,2.324221 -0.51953,1.931641 h 0.0038 c -0.04596,0.168567 -0.06962,0.342803 -0.0703,0.517568 0,1.104567 0.895431,2.000013 1.999998,2.000013 h 3.992186 4.0000031 6.107418 3.999998 3.900393 3.999999 6.107422 3.999999 H 44 c 1.10457,0 1.999997,-0.895446 1.999997,-2.000013 -3.8e-5,-0.198425 -0.02986,-0.396056 -0.08791,-0.58594 h 0.002 l -0.566428,-2.115213 -1.035148,-3.863281 -1.03516,-3.863282 h -0.002 c -0.234033,-0.873638 -1.025262,-1.481462 -1.929692,-1.482444 h -4.000002 -1.482418 -6.107422 -4.000002 -3.999999 -3.738282 -6.107418 c -1.10457,0 -2.0000011,0.895445 -2.0000011,2.000012 0,1.104567 0.8954311,2.000013 2.0000011,2.000013 h 6.107418 3.738282 3.999999 4.000002 6.107422 1.482418 2.464841 l 0.63868,2.380838 0.945309,3.529285 h -1.28699 -3.999998 -6.107422 -3.999999 -3.900389 -4.000003 -6.107418 -3.9999991 -1.38672 l 0.878907,-3.277342 0.53125,-1.984365 1.035156,-3.863282 0.638672,-2.380838 h 2.4648571 5.845701 4.000002 3.999999 3.999999 5.84375 3.999999 0.002 c 1.10457,0 2.000001,-0.895446 2.000001,-2.000013 -4.61e-4,-0.01512 -9.98e-4,-0.03024 -0.002,-0.04687 V 22.58296 19.178664 15.178677 11.772415 8.4599244 5.0927431 c 7.78e-4,-0.011338 10e-4,-0.026457 0.002,-0.038929 0,-1.104567 -0.895431,-1.9999748 -2.000001,-1.9999748 h -3.999999 -6.107418 -3.476561 -4.000002 -3.999999 -6.107418 z"
     id="rect3136-0"
     inkscape:connector-curvature="0"
     sodipodi:nodetypes="sscccccssscccccccccccccccccccccccccccccccccccccsccccccccsccccccccccccccssscccccccccccccccccccccccccccccscccccccccsccccccs" />
</svg>
