<?xml version="1.0" encoding="UTF-8" standalone="no"?>
<!-- Generator: Gravit.io -->

<svg
   xmlns:dc="http://purl.org/dc/elements/1.1/"
   xmlns:cc="http://creativecommons.org/ns#"
   xmlns:rdf="http://www.w3.org/1999/02/22-rdf-syntax-ns#"
   xmlns:svg="http://www.w3.org/2000/svg"
   xmlns="http://www.w3.org/2000/svg"
   xmlns:xlink="http://www.w3.org/1999/xlink"
   xmlns:sodipodi="http://sodipodi.sourceforge.net/DTD/sodipodi-0.dtd"
   xmlns:inkscape="http://www.inkscape.org/namespaces/inkscape"
   style="isolation:isolate"
   viewBox="0 0 48 48"
   width="48"
   height="48"
   version="1.1"
   id="svg23"
   sodipodi:docname="computer.svg"
   inkscape:version="0.92.4 (unknown)">
  <metadata
     id="metadata27">
    <rdf:RDF>
      <cc:Work
         rdf:about="">
        <dc:format>image/svg+xml</dc:format>
        <dc:type
           rdf:resource="http://purl.org/dc/dcmitype/StillImage" />
      </cc:Work>
    </rdf:RDF>
  </metadata>
  <sodipodi:namedview
     pagecolor="#ffffff"
     bordercolor="#666666"
     borderopacity="1"
     objecttolerance="10"
     gridtolerance="10"
     guidetolerance="10"
     inkscape:pageopacity="0"
     inkscape:pageshadow="2"
     inkscape:window-width="640"
     inkscape:window-height="480"
     id="namedview25"
     showgrid="false"
     showguides="true"
     inkscape:guide-bbox="true"
     inkscape:snap-bbox="true"
     inkscape:bbox-paths="true"
     inkscape:bbox-nodes="true"
     inkscape:snap-bbox-edge-midpoints="true"
     inkscape:snap-bbox-midpoints="true"
     inkscape:object-paths="true"
     inkscape:snap-intersection-paths="true"
     inkscape:snap-smooth-nodes="true"
     inkscape:snap-midpoints="true"
     inkscape:snap-object-midpoints="true"
     inkscape:snap-center="true"
     inkscape:zoom="8.8437504"
     inkscape:cx="10.942326"
     inkscape:cy="27.269455"
     inkscape:current-layer="svg23" />
  <defs
     id="defs5">
    <linearGradient
       inkscape:collect="always"
       id="linearGradient887">
      <stop
         style="stop-color:#ffffff;stop-opacity:1"
         offset="0"
         id="stop883" />
      <stop
         style="stop-color:#364e59;stop-opacity:1"
         offset="1"
         id="stop885" />
    </linearGradient>
    <clipPath
       id="_clipPath_Sd08GpmkdqIAy1UR239YV2vyPFIZuRyU">
      <rect
         width="48"
         height="48"
         id="rect2" />
    </clipPath>
    <radialGradient
       inkscape:collect="always"
       xlink:href="#linearGradient887"
       id="radialGradient891-3"
       cx="24"
       cy="24"
       fx="24"
       fy="24"
       r="21.999977"
       gradientTransform="matrix(0.70887635,0,0,0.88610173,4.9869445,-1.7722238)"
       gradientUnits="userSpaceOnUse" />
  </defs>
  <path
     style="opacity:1;vector-effect:none;fill:#bdcdd4;fill-opacity:1;fill-rule:evenodd;stroke:none;stroke-width:0.02907303;stroke-linecap:butt;stroke-linejoin:miter;stroke-miterlimit:4;stroke-dasharray:none;stroke-dashoffset:0;stroke-opacity:1;paint-order:normal;font-variant-east_asian:normal"
     d="m 3.9999994,5.4179351 c -1.10457,0 -2,0.89543 -2,2 v 3.9999999 2.85938 4 4 4 4 0.55273 c 0,1.10457 0.89543,2 2,2 h 3.9999999 7.5235337 4.000001 0.650391 c 1.10457,0 2,-0.89543 2,-2 0,-1.10457 -0.89543,-2 -2,-2 H 19.523534 15.523533 7.9999993 5.9999994 v -2 -0.55273 -4 -4 -4 -4 -0.8593799 h 1.9999999 7.5235337 4.000001 4 4 4 3.714847 6.76162 v 1.9999999 2.85938 4 4 4 2.55273 h -5.121 -3.867186 -3.597656 -4 c -1.10457,0 -2,0.89543 -2,2 4.68e-4,0.0156 0.0011,0.0313 0.002,0.0469 v 3.95312 1.94532 c -7.78e-4,0.013 -0.0014,0.026 -0.002,0.0391 4.26e-4,0.74129 0.410833,1.42155 1.066406,1.76758 h -0.896484 -4 c -1.10457,0 -2,0.89543 -2,2 0,1.10457 0.89543,2 2,2 h 4 4 3.1875 c 1.10457,0 2,-0.89543 2,-2 -0.0013,-0.0778 -0.0072,-0.15536 -0.01758,-0.23243 h 0.01758 v -3.53515 c 0,-1.10457 -0.89543,-2 -2,-2 h -3.355469 v -1.98438 h 1.998047 3.597656 3.867186 7.121 c 1.10457,0 2,-0.89543 2,-2 v -4 -0.55273 -4 -4 -4 -4 -2.8593801 c 0,-1.10457 -0.89543,-2 -2,-2 h -1.23828 -7.52334 -3.714847 -4 -4 -4 -4.000001 -7.5235337 z"
     id="path1264-4-0-3-8-2"
     inkscape:connector-curvature="0"
     sodipodi:nodetypes="ssccccccsscccsssccccccccccccccccccccccccccccscccccccsssccscccsscccccssccccccssccccccccs" />
  <path
     inkscape:export-ydpi="300"
     inkscape:export-xdpi="300"
     inkscape:connector-curvature="0"
     id="path931-4-2"
     d="m 23.845925,12.351484 v 0.0012 a 6.8841716,6.7782188 0 0 0 -3.180919,0.900138 6.8841716,6.7782188 0 0 0 -2.519736,9.259498 6.8841716,6.7782188 0 0 0 9.404229,2.48094 6.8841716,6.7782188 0 0 0 3.177839,-4.038111 0.63039625,0.62069395 0 0 0 5.94e-4,-0.0012 0.63039625,0.62069395 0 0 0 0.04924,-0.240187 0.63039625,0.62069395 0 0 0 -0.630399,-0.620697 0.63039625,0.62069395 0 0 0 -0.608233,0.45827 l -0.0012,-0.0033 a 5.6233836,5.5368351 0 0 1 -2.61826,3.369021 5.6233836,5.5368351 0 0 1 -7.681724,-2.025749 5.6233836,5.5368351 0 0 1 2.058025,-7.56408 5.6233836,5.5368351 0 0 1 4.272413,-0.548576 l -0.0012,-0.0023 a 0.63039625,0.62069395 0 0 0 0.161291,0.02269 0.63039625,0.62069395 0 0 0 0.630394,-0.620697 0.63039625,0.62069395 0 0 0 -0.549749,-0.615251 6.8841716,6.7782188 0 0 0 -1.9626,-0.210367 z m -4.148061,6.149369 a 0.63039625,0.62069395 0 0 0 -0.630395,0.620697 0.63039625,0.62069395 0 0 0 0.630395,0.620696 h 1.260794 1.260793 1.260791 1.260793 1.260794 a 0.63039625,0.62069395 0 0 0 0.630395,-0.620696 0.63039625,0.62069395 0 0 0 -0.630395,-0.620697 h -1.260794 -1.260793 -1.260791 -1.260793 z"
     style="opacity:1;vector-effect:none;fill:#bdcdd4;fill-opacity:1;fill-rule:evenodd;stroke:none;stroke-width:0.00895604;stroke-linecap:butt;stroke-linejoin:miter;stroke-miterlimit:4;stroke-dasharray:none;stroke-dashoffset:0;stroke-opacity:1;paint-order:normal" />
</svg>
