<?xml version="1.0" encoding="UTF-8" standalone="no"?>
<!-- Generator: Gravit.io -->

<svg
   xmlns:dc="http://purl.org/dc/elements/1.1/"
   xmlns:cc="http://creativecommons.org/ns#"
   xmlns:rdf="http://www.w3.org/1999/02/22-rdf-syntax-ns#"
   xmlns:svg="http://www.w3.org/2000/svg"
   xmlns="http://www.w3.org/2000/svg"
   xmlns:sodipodi="http://sodipodi.sourceforge.net/DTD/sodipodi-0.dtd"
   xmlns:inkscape="http://www.inkscape.org/namespaces/inkscape"
   style="isolation:isolate"
   viewBox="0 0 48 48"
   width="48"
   height="48"
   version="1.1"
   id="svg23"
   sodipodi:docname="drive-removable-media.svg"
   inkscape:version="0.92.4 (unknown)">
  <metadata
     id="metadata27">
    <rdf:RDF>
      <cc:Work
         rdf:about="">
        <dc:format>image/svg+xml</dc:format>
        <dc:type
           rdf:resource="http://purl.org/dc/dcmitype/StillImage" />
      </cc:Work>
    </rdf:RDF>
  </metadata>
  <sodipodi:namedview
     pagecolor="#ffffff"
     bordercolor="#666666"
     borderopacity="1"
     objecttolerance="10"
     gridtolerance="10"
     guidetolerance="10"
     inkscape:pageopacity="0"
     inkscape:pageshadow="2"
     inkscape:window-width="640"
     inkscape:window-height="480"
     id="namedview25"
     showgrid="false"
     showguides="true"
     inkscape:guide-bbox="true"
     inkscape:snap-bbox="true"
     inkscape:bbox-paths="true"
     inkscape:bbox-nodes="true"
     inkscape:snap-bbox-edge-midpoints="true"
     inkscape:snap-bbox-midpoints="true"
     inkscape:object-paths="true"
     inkscape:snap-intersection-paths="true"
     inkscape:snap-smooth-nodes="true"
     inkscape:snap-midpoints="true"
     inkscape:snap-object-midpoints="true"
     inkscape:snap-center="true"
     inkscape:zoom="8.8437504"
     inkscape:cx="6.395064"
     inkscape:cy="19.56433"
     inkscape:current-layer="svg23" />
  <defs
     id="defs5">
    <clipPath
       id="_clipPath_Sd08GpmkdqIAy1UR239YV2vyPFIZuRyU">
      <rect
         width="48"
         height="48"
         id="rect2" />
    </clipPath>
  </defs>
  <g
     id="g841"
     transform="translate(-6.9359201,-5.9687665)"
     style="fill:#bdcdd4">
    <g
       transform="matrix(3.7795276,0,0,3.7795276,6.1016555,-1069.0225)"
       id="g2500-2-9"
       style="fill:#bdcdd4">
      <path
         style="opacity:1;vector-effect:none;fill:#bdcdd4;fill-opacity:1;fill-rule:evenodd;stroke:none;stroke-width:0.02907303;stroke-linecap:butt;stroke-linejoin:miter;stroke-miterlimit:4;stroke-dasharray:none;stroke-dashoffset:0;stroke-opacity:1;paint-order:normal"
         d="m 4.8012458,20.072517 c -1.1045695,-2e-6 -2,0.89543 -2,2 v 4 5.884514 h 4.0000004 v -5.884514 -2 h 2 8.9741448 4 4 4 7.902758 0.679687 v 2 3.999999 5.552382 h -1.998047 -7.902758 -4 -4 -4 -7.6557848 -4.0000004 c -1.1045695,0 -2.0000001,0.895431 -2,2 8.234e-4,0.350555 0.093772,0.694736 0.2695313,0.998047 l -0.00195,0.002 2.0000002,3.46289 1.572265,2.72461 0.002,-0.002 c 0.356486,0.619065 1.0160989,1.000985 1.7304679,1.001953 h 8.9741448 4 4 4 7.902758 4 3.550782 c 1.10457,0 2.371349,-0.959724 2,-2 v -4 -11.714491 h -4 v 11.714491 2 h -1.550782 -4 -7.902758 -4 -4 -4 -7.8198478 l -0.994141,-1.72461 -0.267578,-0.46289 h 8.1909418 4 4 4 7.902758 4 c 1.10457,0 2,-0.89543 2,-2 l -0.002,-0.04687 v -7.505507 -3.999999 -3.960938 c 7.78e-4,-0.01301 0.0014,-0.02604 0.002,-0.03906 0,-1.104569 -0.89543,-2 -2,-2 0,0 -1.78776,0 -2.68164,0 -1.333333,0 -7.902758,0 -7.902758,0 h -4 -4 -4 -8.9741448 z"
         transform="matrix(0.26458333,0,0,0.26458333,0,284.29998)"
         id="path1264-4-0-3-3-2-1"
         inkscape:connector-curvature="0"
         sodipodi:nodetypes="sscccccccccccccccccccccscccccccccccccsscccccccccccccccccccsccccccsscccccs" />
    </g>
    <g
       transform="matrix(3.7795276,0,0,3.7795276,2.8538353,-1082.818)"
       id="g2500-2-1-6-7"
       style="fill:#bdcdd4">
      <path
         style="opacity:1;vector-effect:none;fill:#bdcdd4;fill-opacity:1;fill-rule:evenodd;stroke:none;stroke-width:0.02907303;stroke-linecap:butt;stroke-linejoin:miter;stroke-miterlimit:4;stroke-dasharray:none;stroke-dashoffset:0;stroke-opacity:1;paint-order:normal"
         d="m 13.874187,16.948486 c -1.10457,-2e-6 -2,0.89543 -2,2 v 4 9.008545 h 4 v -9.008545 -2 h 2 3.083185 0.818019 4 4 4 0.679687 v 2 9.008545 H 38.45508 V 18.987553 c 7.78e-4,-0.01301 0.0014,-0.02604 0.002,-0.03906 0,-1.104569 -0.912179,-2.191624 -2,-2 h -2.68164 -4 -4 -4 -0.818019 -3.083185 z"
         transform="matrix(0.26458333,0,0,0.26458333,0,284.29998)"
         id="path1264-4-0-3-3-2-0-1-7"
         inkscape:connector-curvature="0"
         sodipodi:nodetypes="sscccccccccccccccccsccccccs" />
    </g>
    <rect
       y="17.212629"
       x="21.947548"
       height="3.9999998"
       width="3.9999998"
       id="rect891-6-59-1"
       style="opacity:1;vector-effect:none;fill:#bdcdd4;fill-opacity:1;fill-rule:evenodd;stroke:none;stroke-width:0.10988232;stroke-linecap:butt;stroke-linejoin:miter;stroke-miterlimit:4;stroke-dasharray:none;stroke-dashoffset:0;stroke-opacity:1;paint-order:normal" />
    <rect
       style="opacity:1;vector-effect:none;fill:#bdcdd4;fill-opacity:1;fill-rule:evenodd;stroke:none;stroke-width:0.10988232;stroke-linecap:butt;stroke-linejoin:miter;stroke-miterlimit:4;stroke-dasharray:none;stroke-dashoffset:0;stroke-opacity:1;paint-order:normal"
       id="rect2641-1"
       width="3.9999998"
       height="3.9999998"
       x="30.019468"
       y="17.212629" />
  </g>
</svg>
