<?xml version="1.0" encoding="UTF-8" standalone="no"?>
<!-- Generator: Gravit.io -->

<svg
   xmlns:dc="http://purl.org/dc/elements/1.1/"
   xmlns:cc="http://creativecommons.org/ns#"
   xmlns:rdf="http://www.w3.org/1999/02/22-rdf-syntax-ns#"
   xmlns:svg="http://www.w3.org/2000/svg"
   xmlns="http://www.w3.org/2000/svg"
   xmlns:sodipodi="http://sodipodi.sourceforge.net/DTD/sodipodi-0.dtd"
   xmlns:inkscape="http://www.inkscape.org/namespaces/inkscape"
   style="isolation:isolate"
   viewBox="0 0 48 48"
   width="48"
   height="48"
   version="1.1"
   id="svg23"
   sodipodi:docname="drive-harddisk.svg"
   inkscape:version="0.92.4 (unknown)">
  <metadata
     id="metadata27">
    <rdf:RDF>
      <cc:Work
         rdf:about="">
        <dc:format>image/svg+xml</dc:format>
        <dc:type
           rdf:resource="http://purl.org/dc/dcmitype/StillImage" />
      </cc:Work>
    </rdf:RDF>
  </metadata>
  <sodipodi:namedview
     pagecolor="#ffffff"
     bordercolor="#666666"
     borderopacity="1"
     objecttolerance="10"
     gridtolerance="10"
     guidetolerance="10"
     inkscape:pageopacity="0"
     inkscape:pageshadow="2"
     inkscape:window-width="640"
     inkscape:window-height="480"
     id="namedview25"
     showgrid="false"
     showguides="true"
     inkscape:guide-bbox="true"
     inkscape:snap-bbox="true"
     inkscape:bbox-paths="true"
     inkscape:bbox-nodes="true"
     inkscape:snap-bbox-edge-midpoints="true"
     inkscape:snap-bbox-midpoints="true"
     inkscape:object-paths="true"
     inkscape:snap-intersection-paths="true"
     inkscape:snap-smooth-nodes="true"
     inkscape:snap-midpoints="true"
     inkscape:snap-object-midpoints="true"
     inkscape:snap-center="true"
     inkscape:zoom="17.687501"
     inkscape:cx="13.531608"
     inkscape:cy="18.225743"
     inkscape:current-layer="svg23" />
  <defs
     id="defs5">
    <clipPath
       id="_clipPath_Sd08GpmkdqIAy1UR239YV2vyPFIZuRyU">
      <rect
         width="48"
         height="48"
         id="rect2" />
    </clipPath>
  </defs>
  <g
     transform="matrix(3.7795276,0,0,3.7795276,-0.33693876,-1074.4043)"
     id="g2500"
     style="fill:#bdcdd4">
    <path
       sodipodi:nodetypes="ssccccccccccccccccccccccccccccccccccccscccccccccccccsscccccccccccccccccccccccccccccccscccccccccccsccccccs"
       inkscape:connector-curvature="0"
       id="path1264-4-0-3-3"
       transform="matrix(0.26458333,0,0,0.26458333,0,284.29998)"
       d="m 7.7753906,1.9570312 c -1.1045695,-1.3e-6 -2,0.8954305 -2,2 v 4 3.9999998 4 4 4 4 4 H 9.775391 v -4 -4 -4 -4 -4 -3.9999998 -2 h 2 6 4 4 4 4 0.679687 v 2 3.9999998 4 4 4 4 4 3.667867 h -1.998047 -4 -4 -4 -4 -4.68164 -4.0000004 c -1.1045695,0 -2.0000001,0.895431 -2,2 8.234e-4,0.350555 0.093772,0.694736 0.2695313,0.998047 l -0.00195,0.002 2.0000002,3.46289 1.572265,2.72461 0.002,-0.002 c 0.356486,0.619065 1.0160989,1.000985 1.7304679,1.001953 h 6 4 4 4 4 4 3.550782 c 1.10457,0 2,-0.89543 2,-2 v -4 -4 -5.829976 -4 -4 -4 -4 -4.0000001 h -4 v 4.0000001 4 4 4 4 5.829976 4 2 h -1.550782 -4 -4 -4 -4 -4 -4.845703 l -0.994141,-1.72461 -0.267578,-0.46289 h 5.216797 4 4 4 4 4 c 1.10457,0 2,-0.89543 2,-2 -4.68e-4,-0.01563 -0.0011,-0.03126 -0.002,-0.04687 v -5.783101 -3.837891 -4 -4 -4 -4 -3.9999998 -3.9609374 c 7.78e-4,-0.013014 0.0014,-0.026036 0.002,-0.039063 0,-1.1045695 -0.89543,-2.0000001 -2,-2 h -2.68164 -4 -4 -4 -4 -6 z"
       style="opacity:1;vector-effect:none;fill:#bdcdd4;fill-opacity:1;fill-rule:evenodd;stroke:none;stroke-width:0.02907303;stroke-linecap:butt;stroke-linejoin:miter;stroke-miterlimit:4;stroke-dasharray:none;stroke-dashoffset:0;stroke-opacity:1;paint-order:normal" />
    <path
       inkscape:export-ydpi="300"
       inkscape:export-xdpi="300"
       inkscape:connector-curvature="0"
       id="path931-4"
       d="m 5.7425286,287.82449 v 3.6e-4 a 2.1238226,2.0911353 0 0 0 -0.9813384,0.2777 2.1238226,2.0911353 0 0 0 -0.7773597,2.85663 2.1238226,2.0911353 0 0 0 2.9012817,0.76539 2.1238226,2.0911353 0 0 0 0.9803885,-1.24579 0.19448234,0.1914891 0 0 0 1.828e-4,-3.6e-4 0.19448234,0.1914891 0 0 0 0.015194,-0.0741 0.19448234,0.1914891 0 0 0 -0.1944822,-0.19149 0.19448234,0.1914891 0 0 0 -0.1876453,0.14138 l -3.771e-4,-0.001 a 1.7348593,1.7081584 0 0 1 -0.8077468,1.03936 1.7348593,1.7081584 0 0 1 -2.3698739,-0.62496 1.7348593,1.7081584 0 0 1 0.6349165,-2.33358 1.7348593,1.7081584 0 0 1 1.3180739,-0.16924 l -3.772e-4,-7.2e-4 a 0.19448234,0.1914891 0 0 0 0.04976,0.007 0.19448234,0.1914891 0 0 0 0.1944822,-0.19149 0.19448234,0.1914891 0 0 0 -0.1696024,-0.18981 2.1238226,2.0911353 0 0 0 -0.6054778,-0.0649 z m -1.2797096,1.89713 a 0.19448234,0.1914891 0 0 0 -0.1944824,0.19149 0.19448234,0.1914891 0 0 0 0.1944824,0.19149 h 0.3889649 0.3889648 0.3889646 0.3889644 0.3889648 a 0.19448234,0.1914891 0 0 0 0.1944824,-0.19149 0.19448234,0.1914891 0 0 0 -0.1944824,-0.19149 H 6.0186777 5.6297133 5.2407487 4.8517839 Z"
       style="opacity:1;vector-effect:none;fill:#bdcdd4;fill-opacity:1;fill-rule:evenodd;stroke:none;stroke-width:0.00276301;stroke-linecap:butt;stroke-linejoin:miter;stroke-miterlimit:4;stroke-dasharray:none;stroke-dashoffset:0;stroke-opacity:1;paint-order:normal" />
  </g>
</svg>
