<?xml version="1.0" encoding="UTF-8" standalone="no"?>
<!-- Generator: Gravit.io -->

<svg
   xmlns:dc="http://purl.org/dc/elements/1.1/"
   xmlns:cc="http://creativecommons.org/ns#"
   xmlns:rdf="http://www.w3.org/1999/02/22-rdf-syntax-ns#"
   xmlns:svg="http://www.w3.org/2000/svg"
   xmlns="http://www.w3.org/2000/svg"
   xmlns:sodipodi="http://sodipodi.sourceforge.net/DTD/sodipodi-0.dtd"
   xmlns:inkscape="http://www.inkscape.org/namespaces/inkscape"
   style="isolation:isolate"
   viewBox="0 0 48 48"
   width="48"
   height="48"
   version="1.1"
   id="svg23"
   sodipodi:docname="input-keyboard.svg"
   inkscape:version="0.92.4 (unknown)">
  <metadata
     id="metadata27">
    <rdf:RDF>
      <cc:Work
         rdf:about="">
        <dc:format>image/svg+xml</dc:format>
        <dc:type
           rdf:resource="http://purl.org/dc/dcmitype/StillImage" />
      </cc:Work>
    </rdf:RDF>
  </metadata>
  <sodipodi:namedview
     pagecolor="#ffffff"
     bordercolor="#666666"
     borderopacity="1"
     objecttolerance="10"
     gridtolerance="10"
     guidetolerance="10"
     inkscape:pageopacity="0"
     inkscape:pageshadow="2"
     inkscape:window-width="640"
     inkscape:window-height="480"
     id="namedview25"
     showgrid="false"
     showguides="true"
     inkscape:guide-bbox="true"
     inkscape:snap-bbox="true"
     inkscape:bbox-paths="true"
     inkscape:bbox-nodes="true"
     inkscape:snap-bbox-edge-midpoints="true"
     inkscape:snap-bbox-midpoints="true"
     inkscape:object-paths="true"
     inkscape:snap-intersection-paths="true"
     inkscape:snap-smooth-nodes="true"
     inkscape:snap-midpoints="true"
     inkscape:snap-object-midpoints="true"
     inkscape:snap-center="true"
     inkscape:zoom="4.4218752"
     inkscape:cx="-22.564586"
     inkscape:cy="4.4448479"
     inkscape:current-layer="svg23" />
  <defs
     id="defs5">
    <clipPath
       id="_clipPath_Sd08GpmkdqIAy1UR239YV2vyPFIZuRyU">
      <rect
         width="48"
         height="48"
         id="rect2" />
    </clipPath>
  </defs>
  <path
     style="opacity:1;vector-effect:none;fill:#bdcdd4;fill-opacity:1;fill-rule:evenodd;stroke:none;stroke-width:0.01306163;stroke-linecap:butt;stroke-linejoin:miter;stroke-miterlimit:4;stroke-dasharray:none;stroke-dashoffset:0;stroke-opacity:1;paint-order:normal"
     d="m 23.89476,8.4280852 c -1.10457,0 -2,0.89543 -2,1.9999998 v 6.2981 0.043 h -0.28125 -6.64282 -3.46679 -4 l -1.03516,3.86328 -0.87109,3.25 c -0.0576,0.18997 -0.0865,0.38744 -0.0859,0.58594 0,1.10457 0.89543,2 2,2 h 4 4 6.64282 4 4.20092 2.46485 l 0.4707,1.7539 h -1.96289 -6.71655 -4 -6.64282 -4 -4 c -0.9037,0.002 -1.69387,0.60951 -1.92773,1.48243 h -0.004 l -1.03516,3.86328 -0.93359,3.48633 h 0.002 c -0.046,0.16871 -0.0696,0.34271 -0.0703,0.51757 0,1.10457 0.89543,2 2,2 h 4 4 4 6.64282 6.71655 4 4 4 H 44 c 1.10456,0 2,-0.89543 2,-2 -8e-5,-0.17477 -0.0231,-0.34877 -0.0684,-0.51757 l -0.004,-0.0176 c -10e-4,-0.004 -0.003,-0.008 -0.004,-0.0117 l -1.02734,-3.83398 v -0.002 l -1.03516,-3.86328 -1.03515,-3.86328 -1.03516,-3.86328 -0.39844,-1.48438 -1.03515,-3.86328 h -3.32813 -4 c -1.10457,0 -2,0.89543 -2,2 0,1.10457 0.89543,2 2,2 h 4 0.25977 l 0.63867,2.38281 1.03516,3.86329 1.03515,3.86328 1.03516,3.86523 0.36133,1.3457 h -0.0352 -4 -4 -4 -6.71655 -6.64282 -4 -4 -1.39453 l 0.25976,-0.96679 0.63868,-2.38282 h 2.46484 4 6.64282 4 6.71655 4 0.57031 c 1.10456,0 2,-0.89543 2,-2 -7.2e-4,-0.17486 -0.0244,-0.34886 -0.0703,-0.51757 h 0.002 l -0.50781,-1.89063 -0.52734,-1.97265 h -0.002 l -0.50586,-1.89063 c -0.23425,-0.87431 -1.0265,-1.48232 -1.93164,-1.48242 h -4 -4.20092 -4 -6.64282 -4 -1.39453 l 0.3418,-1.27734 0.11328,-0.42188 h 0.93164 3.46679 6.64282 2 v -0.043 h 2.28125 v -4 -6.2981 c 0,-1.4286398 -1.00764,-1.9698398 -1.99977,-1.9999598 z"
     id="path1264-4-5"
     inkscape:connector-curvature="0"
     sodipodi:nodetypes="cscccccccccscccccccccccccccccccsccccccccsccccccccccccsssccccccccccccccccccccccccscccccccccccccccccccccccsc" />
</svg>
