<?xml version="1.0" encoding="UTF-8" standalone="no"?>
<!-- Generator: Gravit.io -->

<svg
   xmlns:dc="http://purl.org/dc/elements/1.1/"
   xmlns:cc="http://creativecommons.org/ns#"
   xmlns:rdf="http://www.w3.org/1999/02/22-rdf-syntax-ns#"
   xmlns:svg="http://www.w3.org/2000/svg"
   xmlns="http://www.w3.org/2000/svg"
   xmlns:sodipodi="http://sodipodi.sourceforge.net/DTD/sodipodi-0.dtd"
   xmlns:inkscape="http://www.inkscape.org/namespaces/inkscape"
   style="isolation:isolate"
   viewBox="0 0 48 48"
   width="48"
   height="48"
   version="1.1"
   id="svg23"
   sodipodi:docname="input-tablet.svg"
   inkscape:version="0.92.4 (unknown)">
  <metadata
     id="metadata27">
    <rdf:RDF>
      <cc:Work
         rdf:about="">
        <dc:format>image/svg+xml</dc:format>
        <dc:type
           rdf:resource="http://purl.org/dc/dcmitype/StillImage" />
      </cc:Work>
    </rdf:RDF>
  </metadata>
  <sodipodi:namedview
     pagecolor="#ffffff"
     bordercolor="#666666"
     borderopacity="1"
     objecttolerance="10"
     gridtolerance="10"
     guidetolerance="10"
     inkscape:pageopacity="0"
     inkscape:pageshadow="2"
     inkscape:window-width="640"
     inkscape:window-height="480"
     id="namedview25"
     showgrid="false"
     showguides="true"
     inkscape:guide-bbox="true"
     inkscape:snap-bbox="true"
     inkscape:bbox-paths="true"
     inkscape:bbox-nodes="true"
     inkscape:snap-bbox-edge-midpoints="true"
     inkscape:snap-bbox-midpoints="true"
     inkscape:object-paths="true"
     inkscape:snap-intersection-paths="true"
     inkscape:snap-smooth-nodes="true"
     inkscape:snap-midpoints="true"
     inkscape:snap-object-midpoints="true"
     inkscape:snap-center="true"
     inkscape:zoom="12.506952"
     inkscape:cx="13.212964"
     inkscape:cy="21.592436"
     inkscape:current-layer="svg23" />
  <defs
     id="defs5">
    <clipPath
       id="_clipPath_Sd08GpmkdqIAy1UR239YV2vyPFIZuRyU">
      <rect
         width="48"
         height="48"
         id="rect2" />
    </clipPath>
  </defs>
  <path
     style="fill:#bdcdd4;fill-rule:evenodd;stroke-width:0.02478558;stroke-miterlimit:4;stroke-dasharray:none"
     d="M 10.009762,1.9999935 A 1.9999999,1.9999999 0 0 0 8.0097602,4.0000061 V 43.999994 a 1.9999999,1.9999999 0 0 0 2.0000018,2.000013 h 27.98047 A 1.9999999,1.9999999 0 0 0 39.99024,43.999994 V 4.0000061 A 1.9999999,1.9999999 0 0 0 37.990232,1.9999935 Z m 2.000001,4.0000252 H 35.99023 V 42.000019 H 12.009763 Z"
     id="rect3866"
     inkscape:connector-curvature="0" />
  <path
     inkscape:export-ydpi="300"
     inkscape:export-xdpi="300"
     inkscape:connector-curvature="0"
     id="path931-4-2"
     d="m 23.820345,16.101982 v 0.0014 a 8.0270461,7.9035036 0 0 0 -3.708997,1.049575 8.0270461,7.9035036 0 0 0 -2.93805,10.796712 8.0270461,7.9035036 0 0 0 10.965471,2.892812 8.0270461,7.9035036 0 0 0 3.705407,-4.708497 0.73505137,0.72373834 0 0 0 6.92e-4,-0.0014 0.73505137,0.72373834 0 0 0 0.05741,-0.280063 0.73505137,0.72373834 0 0 0 -0.735054,-0.723742 0.73505137,0.72373834 0 0 0 -0.709209,0.53435 l -0.0014,-0.0038 a 6.5569486,6.4560318 0 0 1 -3.052929,3.928328 6.5569486,6.4560318 0 0 1 -8.957003,-2.362054 6.5569486,6.4560318 0 0 1 2.399686,-8.81983 6.5569486,6.4560318 0 0 1 4.981696,-0.639647 l -0.0014,-0.0027 a 0.73505137,0.72373834 0 0 0 0.188069,0.02646 0.73505137,0.72373834 0 0 0 0.73505,-0.723742 0.73505137,0.72373834 0 0 0 -0.641015,-0.717392 8.0270461,7.9035036 0 0 0 -2.288421,-0.245292 z m -4.836698,7.170255 a 0.73505137,0.72373834 0 0 0 -0.73505,0.723742 0.73505137,0.72373834 0 0 0 0.73505,0.723742 h 1.470104 1.470104 1.470099 1.470104 1.470104 a 0.73505137,0.72373834 0 0 0 0.73505,-0.723742 0.73505137,0.72373834 0 0 0 -0.73505,-0.723742 h -1.470104 -1.470104 -1.470099 -1.470104 z"
     style="opacity:1;vector-effect:none;fill:#bdcdd4;fill-opacity:1;fill-rule:evenodd;stroke:none;stroke-width:0.01044287;stroke-linecap:butt;stroke-linejoin:miter;stroke-miterlimit:4;stroke-dasharray:none;stroke-dashoffset:0;stroke-opacity:1;paint-order:normal" />
</svg>
