<?xml version="1.0" encoding="UTF-8" standalone="no"?>
<!-- Generator: Gravit.io -->

<svg
   xmlns:dc="http://purl.org/dc/elements/1.1/"
   xmlns:cc="http://creativecommons.org/ns#"
   xmlns:rdf="http://www.w3.org/1999/02/22-rdf-syntax-ns#"
   xmlns:svg="http://www.w3.org/2000/svg"
   xmlns="http://www.w3.org/2000/svg"
   xmlns:sodipodi="http://sodipodi.sourceforge.net/DTD/sodipodi-0.dtd"
   xmlns:inkscape="http://www.inkscape.org/namespaces/inkscape"
   style="isolation:isolate"
   viewBox="0 0 48 48"
   width="48"
   height="48"
   version="1.1"
   id="svg23"
   sodipodi:docname="input-touchpad.svg"
   inkscape:version="0.92.4 (unknown)">
  <metadata
     id="metadata27">
    <rdf:RDF>
      <cc:Work
         rdf:about="">
        <dc:format>image/svg+xml</dc:format>
        <dc:type
           rdf:resource="http://purl.org/dc/dcmitype/StillImage" />
      </cc:Work>
    </rdf:RDF>
  </metadata>
  <sodipodi:namedview
     pagecolor="#ffffff"
     bordercolor="#666666"
     borderopacity="1"
     objecttolerance="10"
     gridtolerance="10"
     guidetolerance="10"
     inkscape:pageopacity="0"
     inkscape:pageshadow="2"
     inkscape:window-width="640"
     inkscape:window-height="480"
     id="namedview25"
     showgrid="false"
     showguides="true"
     inkscape:guide-bbox="true"
     inkscape:snap-bbox="true"
     inkscape:bbox-paths="true"
     inkscape:bbox-nodes="true"
     inkscape:snap-bbox-edge-midpoints="true"
     inkscape:snap-bbox-midpoints="true"
     inkscape:object-paths="true"
     inkscape:snap-intersection-paths="true"
     inkscape:snap-smooth-nodes="true"
     inkscape:snap-midpoints="true"
     inkscape:snap-object-midpoints="true"
     inkscape:snap-center="true"
     inkscape:zoom="12.506952"
     inkscape:cx="-4.3763164"
     inkscape:cy="21.592436"
     inkscape:current-layer="svg23" />
  <defs
     id="defs5">
    <clipPath
       id="_clipPath_Sd08GpmkdqIAy1UR239YV2vyPFIZuRyU">
      <rect
         width="48"
         height="48"
         id="rect2" />
    </clipPath>
  </defs>
  <g
     id="g825"
     style="fill:#bdcdd4"
     transform="translate(26.474874,-7.206215)">
    <path
       id="rect3866-2"
       d="m -22.47487,15.21586 a 1.9999999,1.9999999 0 0 0 -2.000001,2 v 19.16602 a 1.9999999,1.9999999 0 0 0 0,0.01 1.9999999,1.9999999 0 0 0 2.000001,2 h 4 4 4 3.9999995 2 v 2 a 1.9999999,1.9999999 0 0 0 2,2 1.9999999,1.9999999 0 0 0 2.00000002,-2 v -4 a 1.9999999,1.9999999 0 0 0 -2.00000002,-2 h -4 -3.9999995 -4 -4 -2 V 19.2161 h 36 v 23.98047 h -33.93945 -2.06055 -4.000001 v 2 a 1.9999999,1.9999999 0 0 0 2.000001,2 h 40 a 1.9999999,1.9999999 0 0 0 2,-2 V 17.2161 a 1.9999999,1.9999999 0 0 0 -2,-2 z"
       style="fill:#bdcdd4;fill-rule:evenodd;stroke-width:0.02478557;stroke-miterlimit:4;stroke-dasharray:none"
       inkscape:connector-curvature="0" />
    <circle
       r="1.9999999"
       cy="27.020617"
       cx="-2.4751225"
       id="path1264-4-7-8"
       style="opacity:1;vector-effect:none;fill:#bdcdd4;fill-opacity:1;fill-rule:evenodd;stroke:none;stroke-width:0.02478558;stroke-linecap:butt;stroke-linejoin:miter;stroke-miterlimit:4;stroke-dasharray:none;stroke-dashoffset:0;stroke-opacity:1;paint-order:normal" />
  </g>
</svg>
