<?xml version="1.0" encoding="UTF-8" standalone="no"?>
<!-- Generator: Gravit.io -->

<svg
   xmlns:dc="http://purl.org/dc/elements/1.1/"
   xmlns:cc="http://creativecommons.org/ns#"
   xmlns:rdf="http://www.w3.org/1999/02/22-rdf-syntax-ns#"
   xmlns:svg="http://www.w3.org/2000/svg"
   xmlns="http://www.w3.org/2000/svg"
   xmlns:sodipodi="http://sodipodi.sourceforge.net/DTD/sodipodi-0.dtd"
   xmlns:inkscape="http://www.inkscape.org/namespaces/inkscape"
   style="isolation:isolate"
   viewBox="0 0 48 48"
   width="48"
   height="48"
   version="1.1"
   id="svg23"
   sodipodi:docname="media-optical-blu-ray.svg"
   inkscape:version="0.92.4 (unknown)">
  <metadata
     id="metadata27">
    <rdf:RDF>
      <cc:Work
         rdf:about="">
        <dc:format>image/svg+xml</dc:format>
        <dc:type
           rdf:resource="http://purl.org/dc/dcmitype/StillImage" />
      </cc:Work>
    </rdf:RDF>
  </metadata>
  <sodipodi:namedview
     pagecolor="#ffffff"
     bordercolor="#666666"
     borderopacity="1"
     objecttolerance="10"
     gridtolerance="10"
     guidetolerance="10"
     inkscape:pageopacity="0"
     inkscape:pageshadow="2"
     inkscape:window-width="640"
     inkscape:window-height="480"
     id="namedview25"
     showgrid="false"
     showguides="true"
     inkscape:guide-bbox="true"
     inkscape:snap-bbox="true"
     inkscape:bbox-paths="true"
     inkscape:bbox-nodes="true"
     inkscape:snap-bbox-edge-midpoints="true"
     inkscape:snap-bbox-midpoints="true"
     inkscape:object-paths="true"
     inkscape:snap-intersection-paths="true"
     inkscape:snap-smooth-nodes="true"
     inkscape:snap-midpoints="true"
     inkscape:snap-object-midpoints="true"
     inkscape:snap-center="true"
     inkscape:zoom="10.491183"
     inkscape:cx="16.269357"
     inkscape:cy="28.115124"
     inkscape:current-layer="svg23" />
  <defs
     id="defs5">
    <clipPath
       id="_clipPath_Sd08GpmkdqIAy1UR239YV2vyPFIZuRyU">
      <rect
         width="48"
         height="48"
         id="rect2" />
    </clipPath>
  </defs>
  <path
     style="opacity:1;isolation:isolate;vector-effect:none;fill:#bdcdd4;fill-opacity:1;fill-rule:evenodd;stroke:none;stroke-width:0.02907303;stroke-linecap:butt;stroke-linejoin:miter;stroke-miterlimit:4;stroke-dasharray:none;stroke-dashoffset:0;stroke-opacity:1;paint-order:normal"
     d="M 11.215914,11.579278 A 18.449015,18.449015 0 0 0 3.0453091,33.67349 l 0.0121,-0.0025 a 1.9999999,1.9999999 0 0 0 0.198614,0.480756 1.9999999,1.9999999 0 0 0 2.246971,0.930898 l 0.002,0.0034 3.535173,-0.947226 -0.378901,0.37886 -2.213102,2.213707 a 1.9999999,1.9999999 0 0 0 -0.316309,2.413078 1.9999999,1.9999999 0 0 0 0.317027,0.412346 l -0.0042,0.0038 A 18.449015,18.449015 0 0 0 29.665096,43.533446 18.449015,18.449015 0 0 0 36.417982,18.331329 18.449015,18.449015 0 0 0 11.215877,11.578447 Z m 1.928962,3.505135 a 14.449042,14.449042 0 0 1 0.07105,-0.0412 14.449042,14.449042 0 0 1 19.738001,5.288768 14.449042,14.449042 0 0 1 -5.288784,19.738016 14.449042,14.449042 0 0 1 -17.000413,-1.898721 l 0.824609,-0.825638 2.828119,-2.828107 1.873032,-1.87302 a 6.638018,6.638018 0 0 0 7.568405,0.65964 6.638018,6.638018 0 0 0 2.430898,-9.066897 6.638018,6.638018 0 0 0 -9.068595,-2.429934 6.638018,6.638018 0 0 0 -3.216321,6.886224 l -2.555191,0.683641 9.75e-4,0.0017 -3.0168829,0.805833 -1.960914,0.525468 A 14.449042,14.449042 0 0 1 13.144891,15.084224 Z m 5.976313,10.187225 a 2.6380346,2.6380346 0 0 1 3.604491,0.96582 2.6380346,2.6380346 0 0 1 -0.966796,3.602797 2.6380346,2.6380346 0 0 1 -3.603515,-0.964119 2.6380346,2.6380346 0 0 1 0.96582,-3.604498 z m -3.046503,4.00063 a 0.69627179,0.69627179 0 0 1 0.950789,0.256252 0.69627179,0.69627179 0 0 1 -0.254513,0.949795 0.69627179,0.69627179 0 0 1 -0.94981,-0.254362 0.69627179,0.69627179 0 0 1 0.25353,-0.951496 z"
     id="circle2307"
     inkscape:connector-curvature="0" />
  <path
     style="opacity:1;isolation:isolate;vector-effect:none;fill:#005c94;fill-opacity:1;fill-rule:evenodd;stroke:none;stroke-width:0.00970398;stroke-linecap:butt;stroke-linejoin:miter;stroke-miterlimit:4;stroke-dasharray:none;stroke-dashoffset:0;stroke-opacity:1;paint-order:normal"
     d="m 36.763016,2.8253207 a 6.1579013,6.1579013 0 0 0 -2.72718,7.3745933 l 0.0041,-8.35e-4 a 0.66755878,0.66755878 0 0 0 0.06629,0.160467 0.66755878,0.66755878 0 0 0 0.749993,0.310714 l 6.67e-4,0.0011 1.179968,-0.316165 -0.126469,0.126456 -0.738688,0.73889 a 0.66755878,0.66755878 0 0 0 -0.105574,0.805436 0.66755878,0.66755878 0 0 0 0.10582,0.137632 l -0.0014,0.0012 A 6.1579013,6.1579013 0 0 0 42.921039,13.49086 6.1579013,6.1579013 0 0 0 45.175014,5.0789122 6.1579013,6.1579013 0 0 0 36.76307,2.8249395 Z m 0.643848,1.1699419 a 4.8227927,4.8227927 0 0 1 0.02372,-0.013752 4.8227927,4.8227927 0 0 1 6.588138,1.7652817 4.8227927,4.8227927 0 0 1 -1.765287,6.5881437 4.8227927,4.8227927 0 0 1 -5.674388,-0.633754 l 0.275237,-0.275581 0.943969,-0.943964 0.625179,-0.6251757 a 2.2156337,2.2156337 0 0 0 2.526177,0.2201747 2.2156337,2.2156337 0 0 0 0.811384,-3.026344 2.2156337,2.2156337 0 0 0 -3.02691,-0.8110619 2.2156337,2.2156337 0 0 0 -1.073541,2.2984797 l -0.852871,0.2281854 3.25e-4,5.673e-4 -1.006972,0.2689705 -0.654514,0.1753904 a 4.8227927,4.8227927 0 0 1 2.260363,-5.2156241 z m 1.99477,3.4002857 a 0.88052163,0.88052163 0 0 1 1.203105,0.3223709 0.88052163,0.88052163 0 0 1 -0.322697,1.2025394 0.88052163,0.88052163 0 0 1 -1.202779,-0.321803 0.88052163,0.88052163 0 0 1 0.322371,-1.2031073 z m -1.01686,1.335328 a 0.23240118,0.23240118 0 0 1 0.317355,0.085531 0.23240118,0.23240118 0 0 1 -0.08495,0.317022 0.23240118,0.23240118 0 0 1 -0.317027,-0.084901 0.23240118,0.23240118 0 0 1 0.08463,-0.3175898 z"
     id="circle2307-3"
     inkscape:connector-curvature="0" />
</svg>
