<?xml version="1.0" encoding="UTF-8" standalone="no"?>
<!-- Generator: Gravit.io -->

<svg
   xmlns:dc="http://purl.org/dc/elements/1.1/"
   xmlns:cc="http://creativecommons.org/ns#"
   xmlns:rdf="http://www.w3.org/1999/02/22-rdf-syntax-ns#"
   xmlns:svg="http://www.w3.org/2000/svg"
   xmlns="http://www.w3.org/2000/svg"
   xmlns:sodipodi="http://sodipodi.sourceforge.net/DTD/sodipodi-0.dtd"
   xmlns:inkscape="http://www.inkscape.org/namespaces/inkscape"
   style="isolation:isolate"
   viewBox="0 0 48 48"
   width="48"
   height="48"
   version="1.1"
   id="svg23"
   sodipodi:docname="media-optical-dvd.svg"
   inkscape:version="0.92.4 (unknown)">
  <metadata
     id="metadata27">
    <rdf:RDF>
      <cc:Work
         rdf:about="">
        <dc:format>image/svg+xml</dc:format>
        <dc:type
           rdf:resource="http://purl.org/dc/dcmitype/StillImage" />
      </cc:Work>
    </rdf:RDF>
  </metadata>
  <sodipodi:namedview
     pagecolor="#ffffff"
     bordercolor="#666666"
     borderopacity="1"
     objecttolerance="10"
     gridtolerance="10"
     guidetolerance="10"
     inkscape:pageopacity="0"
     inkscape:pageshadow="2"
     inkscape:window-width="640"
     inkscape:window-height="480"
     id="namedview25"
     showgrid="false"
     showguides="true"
     inkscape:guide-bbox="true"
     inkscape:snap-bbox="true"
     inkscape:bbox-paths="true"
     inkscape:bbox-nodes="true"
     inkscape:snap-bbox-edge-midpoints="true"
     inkscape:snap-bbox-midpoints="true"
     inkscape:object-paths="true"
     inkscape:snap-intersection-paths="true"
     inkscape:snap-smooth-nodes="true"
     inkscape:snap-midpoints="true"
     inkscape:snap-object-midpoints="true"
     inkscape:snap-center="true"
     inkscape:zoom="15.706115"
     inkscape:cx="40.126866"
     inkscape:cy="36.706543"
     inkscape:current-layer="svg23" />
  <defs
     id="defs5">
    <clipPath
       id="_clipPath_Sd08GpmkdqIAy1UR239YV2vyPFIZuRyU">
      <rect
         width="48"
         height="48"
         id="rect2" />
    </clipPath>
  </defs>
  <path
     style="opacity:1;isolation:isolate;vector-effect:none;fill:#bdcdd4;fill-opacity:1;fill-rule:evenodd;stroke:none;stroke-width:0.02907303;stroke-linecap:butt;stroke-linejoin:miter;stroke-miterlimit:4;stroke-dasharray:none;stroke-dashoffset:0;stroke-opacity:1;paint-order:normal"
     d="M 11.215914,11.579278 A 18.449015,18.449015 0 0 0 3.0453094,33.67349 l 0.012095,-0.0025 a 1.9999999,1.9999999 0 0 0 0.1986142,0.480756 1.9999999,1.9999999 0 0 0 2.2469707,0.930898 l 0.00195,0.0034 3.5351727,-0.947226 -0.378901,0.37886 -2.2131015,2.213707 a 1.9999999,1.9999999 0 0 0 -0.3163091,2.413078 1.9999999,1.9999999 0 0 0 0.3170271,0.412346 l -0.00416,0.0038 A 18.449015,18.449015 0 0 0 29.665081,43.533446 18.449015,18.449015 0 0 0 36.417967,18.331329 18.449015,18.449015 0 0 0 11.215862,11.578447 Z m 1.928962,3.505135 a 14.449042,14.449042 0 0 1 0.07105,-0.0412 14.449042,14.449042 0 0 1 19.738001,5.288768 14.449042,14.449042 0 0 1 -5.288784,19.738016 14.449042,14.449042 0 0 1 -17.000413,-1.898721 l 0.824609,-0.825638 2.828119,-2.828107 1.873032,-1.87302 a 6.638018,6.638018 0 0 0 7.568405,0.65964 6.638018,6.638018 0 0 0 2.430898,-9.066897 6.638018,6.638018 0 0 0 -9.068595,-2.429934 6.638018,6.638018 0 0 0 -3.216321,6.886224 l -2.555191,0.683641 9.75e-4,0.0017 -3.016883,0.805833 -1.9609132,0.525468 A 14.449042,14.449042 0 0 1 13.144891,15.084224 Z m 5.976313,10.187225 a 2.6380346,2.6380346 0 0 1 3.604491,0.96582 2.6380346,2.6380346 0 0 1 -0.966796,3.602797 2.6380346,2.6380346 0 0 1 -3.603515,-0.964119 2.6380346,2.6380346 0 0 1 0.96582,-3.604498 z m -3.046503,4.00063 a 0.69627179,0.69627179 0 0 1 0.950789,0.256252 0.69627179,0.69627179 0 0 1 -0.254513,0.949795 0.69627179,0.69627179 0 0 1 -0.94981,-0.254362 0.69627179,0.69627179 0 0 1 0.25353,-0.951496 z"
     id="circle2307"
     inkscape:connector-curvature="0" />
  <path
     inkscape:connector-curvature="0"
     id="path4101"
     d="m 37.201743,2.8612061 a 0.57955389,0.57955389 0 0 0 -0.0052,0.00361 0.57955389,0.57955389 0 0 0 -0.04185,0.029391 0.57955389,0.57955389 0 0 0 -0.03238,0.026541 0.57955389,0.57955389 0 0 0 -0.0015,8.405e-4 6.3750931,6.3750931 0 0 0 -2.192256,2.2022097 0.57955389,0.57955389 0 0 0 -0.0445,0.065555 0.57955389,0.57955389 0 0 0 0.212092,0.7918318 l 0.498795,0.2877787 1.003148,0.5795361 1.003925,0.57974 1.003924,0.5797403 0.08826,0.050994 a 1.7386373,1.7386373 0 0 0 -0.03124,0.316042 1.7386373,1.7386373 0 0 0 0.417872,1.1278795 l -0.340857,0.5902293 -0.289378,0.501679 -0.579251,1.003642 -0.57974,1.003924 -0.289381,0.501679 a 0.57955389,0.57955389 0 0 0 0.212093,0.791832 0.57955389,0.57955389 0 0 0 0.109377,0.04795 6.3750931,6.3750931 0 0 0 3.077751,0.80645 6.3750931,6.3750931 0 0 0 5.456876,-3.098246 0.57955389,0.57955389 0 0 0 0.06411,-0.0893 0.57955389,0.57955389 0 0 0 -0.212582,-0.791549 L 45.208008,10.481316 44.204368,9.9020662 43.200443,9.3223259 42.698482,9.0324559 42.10826,8.6915914 A 1.7386373,1.7386373 0 0 0 42.13999,8.3752552 1.7386373,1.7386373 0 0 0 41.721834,7.2468854 l 0.218883,-0.3792865 0.411154,-0.7118402 0.57974,-1.0039244 0.28938,-0.501679 0.579741,-1.0039245 a 0.57955389,0.57955389 0 0 0 -0.212098,-0.7918321 0.57955389,0.57955389 0 0 0 -0.04341,-0.021986 6.3750931,6.3750931 0 0 0 -0.08729,-0.051561 6.3750931,6.3750931 0 0 0 -3.056436,-0.7808524 0.57955389,0.57955389 0 0 0 -4.92e-4,2.843e-4 0.57955389,0.57955389 0 0 0 -0.579103,0.5794177 0.57955389,0.57955389 0 0 0 0.57921,0.5798762 5.2159739,5.2159739 0 0 1 2.088394,0.4398452 l -0.272174,0.4714858 -0.289664,0.5011887 -0.579741,1.0039245 -0.57925,1.0036413 -0.289868,0.5019618 7.82e-4,2.084e-4 a 0.57955389,0.57955389 0 0 0 -0.07847,0.2897168 0.57955389,0.57955389 0 0 0 0.290474,0.5008521 l -6.94e-4,0.00104 a 0.57954977,0.57954977 0 0 1 0.290269,0.5016209 0.57954977,0.57954977 0 0 1 -0.07797,0.2894341 l 10e-4,6.953e-4 a 0.57955389,0.57955389 0 0 0 -0.07797,0.2894337 0.57955389,0.57955389 0 0 0 0.290268,0.5016252 l -4.93e-4,2.842e-4 0.501679,0.2893796 1.003925,0.5797409 1.003924,0.57974 0.97028,0.559953 a 5.2159739,5.2159739 0 0 1 -4.194896,2.1259 5.2159739,5.2159739 0 0 1 -2.086019,-0.442523 l 0.560442,-0.970563 0.578756,-1.003362 0.28987,-0.501962 0.57974,-1.0039246 -7.82e-4,-2.081e-4 A 0.57955389,0.57955389 0 0 0 40.401446,9.378992 0.57955389,0.57955389 0 0 0 40.126453,8.8868453 l 6.96e-4,-0.00104 A 0.57954977,0.57954977 0 0 1 39.82189,8.3751876 0.57954977,0.57954977 0 0 1 39.899859,8.0857534 l -10e-4,-6.954e-4 A 0.57955389,0.57955389 0 0 0 39.976784,7.7956242 0.57955389,0.57955389 0 0 0 39.686516,7.2939988 L 39.687,7.2937142 39.185321,7.0043343 38.181396,6.4245949 37.177472,5.8448544 36.678678,5.5570762 36.67917,5.556792 36.211342,5.2864261 a 5.2159739,5.2159739 0 0 1 1.100395,-1.1038916 l 0.269685,0.4671082 0.287795,0.4984774 0.434667,0.7528623 4.91e-4,-2.843e-4 a 0.57955389,0.57955389 0 0 0 0.21155,0.2124683 0.57955389,0.57955389 0 0 0 0.791832,-0.2120921 0.57955389,0.57955389 0 0 0 -5.5e-4,-0.5793641 l 4.92e-4,-2.846e-4 -0.0068,-0.011764 -0.572755,-0.99205 L 38.29348,3.564749 38.005683,3.0662712 a 0.57955389,0.57955389 0 0 0 -0.01436,-0.02247 0.57955389,0.57955389 0 0 0 -0.002,-0.00344 0.57955389,0.57955389 0 0 0 -0.0011,-0.00197 0.57955389,0.57955389 0 0 0 -0.01964,-0.027222 0.57955389,0.57955389 0 0 0 -0.01602,-0.02085 0.57955389,0.57955389 0 0 0 -0.0343,-0.039018 0.57955389,0.57955389 0 0 0 -0.0013,-0.00119 0.57955389,0.57955389 0 0 0 -0.02983,-0.027876 0.57955389,0.57955389 0 0 0 -0.01786,-0.015152 0.57955389,0.57955389 0 0 0 -0.0029,-0.00287 0.57955389,0.57955389 0 0 0 -0.03796,-0.0284 0.57955389,0.57955389 0 0 0 -0.0029,-0.00159 0.57955389,0.57955389 0 0 0 -0.02844,-0.017564 0.57955389,0.57955389 0 0 0 -0.0039,-0.00228 0.57955389,0.57955389 0 0 0 -0.0026,-0.0011 0.57955389,0.57955389 0 0 0 -0.03955,-0.020957 0.57955389,0.57955389 0 0 0 -0.01823,-0.00777 0.57955389,0.57955389 0 0 0 -0.03818,-0.015207 0.57955389,0.57955389 0 0 0 -0.0068,-0.00263 0.57955389,0.57955389 0 0 0 -0.005,-0.00174 0.57955389,0.57955389 0 0 0 -0.04253,-0.011396 0.57955389,0.57955389 0 0 0 -0.01749,-0.00427 0.57955389,0.57955389 0 0 0 -0.03408,-0.00582 0.57955389,0.57955389 0 0 0 -0.02964,-0.00379 0.57955389,0.57955389 0 0 0 -0.02141,-0.00201 0.57955389,0.57955389 0 0 0 -0.03581,-8.982e-4 0.57955389,0.57955389 0 0 0 -0.03012,0.00104 0.57955389,0.57955389 0 0 0 -0.02323,0.00165 0.57955389,0.57955389 0 0 0 -0.03172,0.00394 0.57955389,0.57955389 0 0 0 -0.02883,0.00554 0.57955389,0.57955389 0 0 0 -0.02776,0.00622 0.57955389,0.57955389 0 0 0 -0.02594,0.00714 0.57955389,0.57955389 0 0 0 -0.03183,0.010531 0.57955389,0.57955389 0 0 0 -0.02327,0.00952 0.57955389,0.57955389 0 0 0 -0.0269,0.012262 0.57955389,0.57955389 0 0 0 -0.03349,0.016717 0.57955389,0.57955389 0 0 0 -0.0088,0.0051 0.57955389,0.57955389 0 0 0 -0.0083,0.00481 z"
     style="opacity:1;isolation:isolate;vector-effect:none;fill:#0084c8;fill-opacity:1;fill-rule:evenodd;stroke:none;stroke-width:1.28223884;stroke-linecap:butt;stroke-linejoin:miter;stroke-miterlimit:4;stroke-dasharray:none;stroke-dashoffset:0;stroke-opacity:1;paint-order:normal" />
</svg>
