<?xml version="1.0" encoding="UTF-8" standalone="no"?>
<!-- Generator: Gravit.io -->

<svg
   xmlns:dc="http://purl.org/dc/elements/1.1/"
   xmlns:cc="http://creativecommons.org/ns#"
   xmlns:rdf="http://www.w3.org/1999/02/22-rdf-syntax-ns#"
   xmlns:svg="http://www.w3.org/2000/svg"
   xmlns="http://www.w3.org/2000/svg"
   xmlns:sodipodi="http://sodipodi.sourceforge.net/DTD/sodipodi-0.dtd"
   xmlns:inkscape="http://www.inkscape.org/namespaces/inkscape"
   style="isolation:isolate"
   viewBox="0 0 48 48"
   width="48"
   height="48"
   version="1.1"
   id="svg23"
   sodipodi:docname="media-optical.svg"
   inkscape:version="0.92.4 (unknown)">
  <metadata
     id="metadata27">
    <rdf:RDF>
      <cc:Work
         rdf:about="">
        <dc:format>image/svg+xml</dc:format>
        <dc:type
           rdf:resource="http://purl.org/dc/dcmitype/StillImage" />
      </cc:Work>
    </rdf:RDF>
  </metadata>
  <sodipodi:namedview
     pagecolor="#ffffff"
     bordercolor="#666666"
     borderopacity="1"
     objecttolerance="10"
     gridtolerance="10"
     guidetolerance="10"
     inkscape:pageopacity="0"
     inkscape:pageshadow="2"
     inkscape:window-width="640"
     inkscape:window-height="480"
     id="namedview25"
     showgrid="false"
     showguides="true"
     inkscape:guide-bbox="true"
     inkscape:snap-bbox="true"
     inkscape:bbox-paths="true"
     inkscape:bbox-nodes="true"
     inkscape:snap-bbox-edge-midpoints="true"
     inkscape:snap-bbox-midpoints="true"
     inkscape:object-paths="true"
     inkscape:snap-intersection-paths="true"
     inkscape:snap-smooth-nodes="true"
     inkscape:snap-midpoints="true"
     inkscape:snap-object-midpoints="true"
     inkscape:snap-center="true"
     inkscape:zoom="16.626395"
     inkscape:cx="29.034055"
     inkscape:cy="33.003394"
     inkscape:current-layer="svg23" />
  <defs
     id="defs5">
    <clipPath
       id="_clipPath_Sd08GpmkdqIAy1UR239YV2vyPFIZuRyU">
      <rect
         width="48"
         height="48"
         id="rect2" />
    </clipPath>
  </defs>
  <path
     style="opacity:1;isolation:isolate;vector-effect:none;fill:#bdcdd4;fill-opacity:1;fill-rule:evenodd;stroke:none;stroke-width:0.02907303;stroke-linecap:butt;stroke-linejoin:miter;stroke-miterlimit:4;stroke-dasharray:none;stroke-dashoffset:0;stroke-opacity:1;paint-order:normal"
     d="M 11.215914,11.579278 A 18.449015,18.449015 0 0 0 3.0453094,33.67349 l 0.012095,-0.0025 a 1.9999999,1.9999999 0 0 0 0.1986142,0.480756 1.9999999,1.9999999 0 0 0 2.2469707,0.930898 l 0.00195,0.0034 3.5351727,-0.947226 -0.378901,0.37886 -2.2131015,2.213707 a 1.9999999,1.9999999 0 0 0 -0.3163091,2.413078 1.9999999,1.9999999 0 0 0 0.3170271,0.412346 l -0.00416,0.0038 A 18.449015,18.449015 0 0 0 29.665081,43.533446 18.449015,18.449015 0 0 0 36.417967,18.331329 18.449015,18.449015 0 0 0 11.215862,11.578447 Z m 1.928962,3.505135 a 14.449042,14.449042 0 0 1 0.07105,-0.0412 14.449042,14.449042 0 0 1 19.738001,5.288768 14.449042,14.449042 0 0 1 -5.288784,19.738016 14.449042,14.449042 0 0 1 -17.000413,-1.898721 l 0.824609,-0.825638 2.828119,-2.828107 1.873032,-1.87302 a 6.638018,6.638018 0 0 0 7.568405,0.65964 6.638018,6.638018 0 0 0 2.430898,-9.066897 6.638018,6.638018 0 0 0 -9.068595,-2.429934 6.638018,6.638018 0 0 0 -3.216321,6.886224 l -2.555191,0.683641 9.75e-4,0.0017 -3.016883,0.805833 -1.9609132,0.525468 A 14.449042,14.449042 0 0 1 13.144891,15.084224 Z m 5.976313,10.187225 a 2.6380346,2.6380346 0 0 1 3.604491,0.96582 2.6380346,2.6380346 0 0 1 -0.966796,3.602797 2.6380346,2.6380346 0 0 1 -3.603515,-0.964119 2.6380346,2.6380346 0 0 1 0.96582,-3.604498 z m -3.046503,4.00063 a 0.69627179,0.69627179 0 0 1 0.950789,0.256252 0.69627179,0.69627179 0 0 1 -0.254513,0.949795 0.69627179,0.69627179 0 0 1 -0.94981,-0.254362 0.69627179,0.69627179 0 0 1 0.25353,-0.951496 z"
     id="circle2307"
     inkscape:connector-curvature="0" />
</svg>
