<?xml version="1.0" encoding="UTF-8" standalone="no"?>
<!-- Generator: Gravit.io -->

<svg
   xmlns:dc="http://purl.org/dc/elements/1.1/"
   xmlns:cc="http://creativecommons.org/ns#"
   xmlns:rdf="http://www.w3.org/1999/02/22-rdf-syntax-ns#"
   xmlns:svg="http://www.w3.org/2000/svg"
   xmlns="http://www.w3.org/2000/svg"
   xmlns:sodipodi="http://sodipodi.sourceforge.net/DTD/sodipodi-0.dtd"
   xmlns:inkscape="http://www.inkscape.org/namespaces/inkscape"
   style="isolation:isolate"
   viewBox="0 0 48 48"
   width="48"
   height="48"
   version="1.1"
   id="svg23"
   sodipodi:docname="media-flash.svg"
   inkscape:version="0.92.4 (unknown)">
  <metadata
     id="metadata27">
    <rdf:RDF>
      <cc:Work
         rdf:about="">
        <dc:format>image/svg+xml</dc:format>
        <dc:type
           rdf:resource="http://purl.org/dc/dcmitype/StillImage" />
      </cc:Work>
    </rdf:RDF>
  </metadata>
  <sodipodi:namedview
     pagecolor="#ffffff"
     bordercolor="#666666"
     borderopacity="1"
     objecttolerance="10"
     gridtolerance="10"
     guidetolerance="10"
     inkscape:pageopacity="0"
     inkscape:pageshadow="2"
     inkscape:window-width="640"
     inkscape:window-height="480"
     id="namedview25"
     showgrid="false"
     showguides="true"
     inkscape:guide-bbox="true"
     inkscape:snap-bbox="true"
     inkscape:bbox-paths="true"
     inkscape:bbox-nodes="true"
     inkscape:snap-bbox-edge-midpoints="true"
     inkscape:snap-bbox-midpoints="true"
     inkscape:object-paths="true"
     inkscape:snap-intersection-paths="true"
     inkscape:snap-smooth-nodes="true"
     inkscape:snap-midpoints="true"
     inkscape:snap-object-midpoints="true"
     inkscape:snap-center="true"
     inkscape:zoom="19.820981"
     inkscape:cx="30.927194"
     inkscape:cy="27.451198"
     inkscape:current-layer="svg23" />
  <defs
     id="defs5">
    <clipPath
       id="_clipPath_Sd08GpmkdqIAy1UR239YV2vyPFIZuRyU">
      <rect
         width="48"
         height="48"
         id="rect2" />
    </clipPath>
  </defs>
  <path
     style="opacity:1;isolation:isolate;vector-effect:none;fill:#bdcdd4;fill-opacity:0.98999999;fill-rule:evenodd;stroke:none;stroke-width:0.37145898;stroke-linecap:butt;stroke-linejoin:miter;stroke-miterlimit:4;stroke-dasharray:none;stroke-dashoffset:0;stroke-opacity:1;paint-order:normal"
     d="m 3.173828,26.943881 c 0,1.10457 0.8954304,2 1.9999999,2 h 3.0742189 v -0.002 c 1.0877601,-0.02231 1.9581502,-0.910058 1.9589842,-1.998047 -8.34e-4,-1.087989 -0.8712241,-1.975735 -1.9589842,-1.998047 v -0.002 H 7.1738279 v -2 l 1e-7,-5.887573 v -2 h 1.6523438 2.0000002 4 4 4 4 4 4 4 2 v 2 2.011719 11.875854 2 h -2 -4 -4 -4 -4 -2 -3.652344 -2 v -2 -4 c 0,-1.10457 -0.89543,-2 -2,-2 -1.10457,0 -2,0.89543 -2,2 v 4 4 c 0,1.10457 0.89543,2 2,2 h 3.652344 2 H 20 v -2 h 4 v 2 h 2.826172 4 4 4 4 c 1.10457,0 2,-0.89543 2,-2 v -4 -11.411011 -2 -0.476562 -4.000001 c 0,-1.10457 -0.89543,-2 -2,-2 h -4 -4 -4 -4 -4 -4 H 17 v 2 H 13 8.9999999 v -2 H 5.173828 c -1.1045695,0 -2.0000001,0.89543 -2,2 v 4.000001 5.887573 z"
     id="path1264-3-217-3"
     inkscape:connector-curvature="0"
     sodipodi:nodetypes="ssccccccccccccccccccccccccccccccccssscssccccccccccssccccsscccccccccccssccs" />
</svg>
