<?xml version="1.0" encoding="UTF-8" standalone="no"?>
<!-- Generator: Gravit.io -->

<svg
   xmlns:dc="http://purl.org/dc/elements/1.1/"
   xmlns:cc="http://creativecommons.org/ns#"
   xmlns:rdf="http://www.w3.org/1999/02/22-rdf-syntax-ns#"
   xmlns:svg="http://www.w3.org/2000/svg"
   xmlns="http://www.w3.org/2000/svg"
   xmlns:sodipodi="http://sodipodi.sourceforge.net/DTD/sodipodi-0.dtd"
   xmlns:inkscape="http://www.inkscape.org/namespaces/inkscape"
   style="isolation:isolate"
   viewBox="0 0 48 48"
   width="48"
   height="48"
   version="1.1"
   id="svg23"
   sodipodi:docname="media-flash-memory-stick.svg"
   inkscape:version="0.92.4 (unknown)">
  <metadata
     id="metadata27">
    <rdf:RDF>
      <cc:Work
         rdf:about="">
        <dc:format>image/svg+xml</dc:format>
        <dc:type
           rdf:resource="http://purl.org/dc/dcmitype/StillImage" />
      </cc:Work>
    </rdf:RDF>
  </metadata>
  <sodipodi:namedview
     pagecolor="#ffffff"
     bordercolor="#666666"
     borderopacity="1"
     objecttolerance="10"
     gridtolerance="10"
     guidetolerance="10"
     inkscape:pageopacity="0"
     inkscape:pageshadow="2"
     inkscape:window-width="640"
     inkscape:window-height="480"
     id="namedview25"
     showgrid="false"
     showguides="true"
     inkscape:guide-bbox="true"
     inkscape:snap-bbox="true"
     inkscape:bbox-paths="true"
     inkscape:bbox-nodes="true"
     inkscape:snap-bbox-edge-midpoints="true"
     inkscape:snap-bbox-midpoints="true"
     inkscape:object-paths="true"
     inkscape:snap-intersection-paths="true"
     inkscape:snap-smooth-nodes="true"
     inkscape:snap-midpoints="true"
     inkscape:snap-object-midpoints="true"
     inkscape:snap-center="true"
     inkscape:zoom="12.506952"
     inkscape:cx="1.1921493"
     inkscape:cy="21.592436"
     inkscape:current-layer="svg23" />
  <defs
     id="defs5">
    <clipPath
       id="_clipPath_Sd08GpmkdqIAy1UR239YV2vyPFIZuRyU">
      <rect
         width="48"
         height="48"
         id="rect2" />
    </clipPath>
  </defs>
  <g
     id="g829"
     transform="translate(23.292893,10.117901)"
     style="fill:#bdcdd4">
    <path
       id="path1264-3-217-3"
       d="m -18.119178,-3.3560807 a 1.9999999,1.9999999 0 0 0 -2,2 v 4 2.47656 4 3.9999997 4 4 a 1.9999999,1.9999999 0 0 0 2,2 h 3.07422 v -0.002 a 1.9999999,1.9999999 0 0 0 1.95898,-1.99805 1.9999999,1.9999999 0 0 0 -1.95898,-1.99805 v -0.002 h -1.07422 v -2 -4 -3.9999997 -4 -2.47656 -1.99999998 h 1.65234 2 3.9999997 4 4.00000005 3.99999995 4 4.0000003 4 2 v 1.99999998 2.01172 a 6.0000033,6.0000033 0 0 0 -2,4.46484 6.0000033,6.0000033 0 0 0 2,4.4628897 v 3.53711 4 4 2 h -2 -4 -4.0000003 -4 -3.99999995 -2.00000005 -3.65234 -2 v -2 -4 a 1.9999999,1.9999999 0 0 0 -1.9999997,-2 1.9999999,1.9999999 0 0 0 -2,2 v 4 4 a 1.9999999,1.9999999 0 0 0 2,2 h 3.6523397 2 4.00000005 3.99999995 4 4.0000003 4 4 a 1.9999999,1.9999999 0 0 0 2,-2 v -4 -4 -4 -2 -4 a 1.9999999,1.9999999 0 0 1 -2,-1.9999997 1.9999999,1.9999999 0 0 1 0.01,-0.19922 1.9999999,1.9999999 0 0 1 1.99023,-1.80078 v -2 -2 -0.47656 -4 a 1.9999999,1.9999999 0 0 0 -2,-2 h -4 -4 -4.0000003 -4 -3.99999995 -4.00000005 -4 -1.9999997 -3.65234 z"
       style="opacity:1;isolation:isolate;vector-effect:none;fill:#bdcdd4;fill-opacity:0.98999999;fill-rule:evenodd;stroke:none;stroke-width:0.37145898;stroke-linecap:butt;stroke-linejoin:miter;stroke-miterlimit:4;stroke-dasharray:none;stroke-dashoffset:0;stroke-opacity:1;paint-order:normal"
       inkscape:connector-curvature="0" />
    <path
       style="opacity:1;vector-effect:none;fill:#bdcdd4;fill-opacity:1;fill-rule:evenodd;stroke:none;stroke-width:0.01044287;stroke-linecap:butt;stroke-linejoin:miter;stroke-miterlimit:4;stroke-dasharray:none;stroke-dashoffset:0;stroke-opacity:1;paint-order:normal"
       d="m 0.52733775,5.9842565 v 0.00136 a 8.0270461,7.9035036 0 0 0 -3.70899805,1.0495748 8.0270461,7.9035036 0 0 0 -2.93805,10.7967117 8.0270461,7.9035036 0 0 0 10.965472,2.892812 8.0270461,7.9035036 0 0 0 3.705407,-4.708497 0.73505137,0.72373834 0 0 0 6.92e-4,-0.0014 0.73505137,0.72373834 0 0 0 0.05741,-0.280063 0.73505137,0.72373834 0 0 0 -0.735054,-0.723742 0.73505137,0.72373834 0 0 0 -0.70921,0.53435 l -0.0014,-0.0038 a 6.5569486,6.4560318 0 0 1 -3.052929,3.928328 6.5569486,6.4560318 0 0 1 -8.957004,-2.362054 6.5569486,6.4560318 0 0 1 2.399686,-8.8198297 6.5569486,6.4560318 0 0 1 4.981697,-0.639647 l -0.0014,-0.0027 a 0.73505137,0.72373834 0 0 0 0.188069,0.02646 0.73505137,0.72373834 0 0 0 0.73505,-0.723742 A 0.73505137,0.72373834 0 0 0 2.8157317,6.2309841 8.0270461,7.9035036 0 0 0 0.52731075,5.9856927 Z M -4.3093623,13.154511 a 0.73505137,0.72373834 0 0 0 -0.73505,0.723742 0.73505137,0.72373834 0 0 0 0.73505,0.723742 h 1.470104 1.470104 1.47010005 1.47010395 1.470104 a 0.73505137,0.72373834 0 0 0 0.73505,-0.723742 0.73505137,0.72373834 0 0 0 -0.73505,-0.723742 H 1.5710497 0.10094575 -1.3691543 -2.8392583 Z"
       id="path931-4-2-2"
       inkscape:connector-curvature="0"
       inkscape:export-xdpi="300"
       inkscape:export-ydpi="300" />
  </g>
</svg>
