<?xml version="1.0" encoding="UTF-8" standalone="no"?>
<!-- Generator: Gravit.io -->

<svg
   xmlns:dc="http://purl.org/dc/elements/1.1/"
   xmlns:cc="http://creativecommons.org/ns#"
   xmlns:rdf="http://www.w3.org/1999/02/22-rdf-syntax-ns#"
   xmlns:svg="http://www.w3.org/2000/svg"
   xmlns="http://www.w3.org/2000/svg"
   xmlns:sodipodi="http://sodipodi.sourceforge.net/DTD/sodipodi-0.dtd"
   xmlns:inkscape="http://www.inkscape.org/namespaces/inkscape"
   style="isolation:isolate"
   viewBox="0 0 48 48"
   width="48"
   height="48"
   version="1.1"
   id="svg23"
   sodipodi:docname="media-flash-smart-media.svg"
   inkscape:version="0.92.4 (unknown)">
  <metadata
     id="metadata27">
    <rdf:RDF>
      <cc:Work
         rdf:about="">
        <dc:format>image/svg+xml</dc:format>
        <dc:type
           rdf:resource="http://purl.org/dc/dcmitype/StillImage" />
      </cc:Work>
    </rdf:RDF>
  </metadata>
  <sodipodi:namedview
     pagecolor="#ffffff"
     bordercolor="#666666"
     borderopacity="1"
     objecttolerance="10"
     gridtolerance="10"
     guidetolerance="10"
     inkscape:pageopacity="0"
     inkscape:pageshadow="2"
     inkscape:window-width="640"
     inkscape:window-height="480"
     id="namedview25"
     showgrid="false"
     showguides="true"
     inkscape:guide-bbox="true"
     inkscape:snap-bbox="true"
     inkscape:bbox-paths="true"
     inkscape:bbox-nodes="true"
     inkscape:snap-bbox-edge-midpoints="true"
     inkscape:snap-bbox-midpoints="true"
     inkscape:object-paths="true"
     inkscape:snap-intersection-paths="true"
     inkscape:snap-smooth-nodes="true"
     inkscape:snap-midpoints="true"
     inkscape:snap-object-midpoints="true"
     inkscape:snap-center="true"
     inkscape:zoom="9.3619392"
     inkscape:cx="7.1182339"
     inkscape:cy="8.6156318"
     inkscape:current-layer="svg23" />
  <defs
     id="defs5">
    <clipPath
       id="_clipPath_Sd08GpmkdqIAy1UR239YV2vyPFIZuRyU">
      <rect
         width="48"
         height="48"
         id="rect2" />
    </clipPath>
  </defs>
  <path
     style="opacity:1;isolation:isolate;vector-effect:none;fill:#bdcdd4;fill-opacity:0.98999999;fill-rule:evenodd;stroke:none;stroke-width:0.37145898;stroke-linecap:butt;stroke-linejoin:miter;stroke-miterlimit:4;stroke-dasharray:none;stroke-dashoffset:0;stroke-opacity:1;paint-order:normal"
     d="m 16.761719,3.1738281 c -1.10457,-1e-7 -2,0.8954305 -2,2 v 3.0742188 h 0.002 c 0.02231,1.0877601 0.910058,1.9581501 1.998047,1.9589841 1.087989,-8.34e-4 1.975735,-0.871224 1.998047,-1.9589841 h 0.002 V 7.1738281 h 2 4 4 4 2.476562 2 v 1.6523438 2.0000001 4 4 4 4 4 4 4 2 h -2 -2.011719 -8.927734 -3.537109 -4 -4 -2 v -2 -4 -4 -4 -4 -2 -3.652344 -2 h 2 4 c 1.10457,0 2,-0.89543 2,-2 0,-1.10457 -0.89543,-2 -2,-2 h -4 -4.0000002 c -1.1045695,0 -2.0000001,0.89543 -2,2 v 3.652344 2 V 20 h 2 v 4 h -2 v 2.826172 4 4 4 4 c -10e-8,1.10457 0.8954305,2 2,2 h 4.0000002 4 4 2 4 4 2 2 0.476562 4 c 1.10457,0 2,-0.89543 2,-2 v -4 -4 -4 -4 -4 -4 V 17 h -2 V 13 9 h 2 V 5.1738281 c 0,-1.1045695 -0.89543,-2.0000001 -2,-2 h -4 -2.476562 -4 -4 -4 z"
     id="path1264-3-217-3"
     inkscape:connector-curvature="0"
     sodipodi:nodetypes="ssccccccccccccccccccccccccccccccccccccccssscssccccccccccsscccccccccsscccccccccccsscccccs" />
  <path
     inkscape:export-ydpi="300"
     inkscape:export-xdpi="300"
     inkscape:connector-curvature="0"
     id="path931-4-2-2"
     d="m 23.820346,16.101983 v 0.0014 a 8.0270461,7.9035036 0 0 0 -3.708998,1.049575 8.0270461,7.9035036 0 0 0 -2.93805,10.796712 8.0270461,7.9035036 0 0 0 10.965472,2.892812 8.0270461,7.9035036 0 0 0 3.705407,-4.708497 0.73505137,0.72373834 0 0 0 6.92e-4,-0.0014 0.73505137,0.72373834 0 0 0 0.05741,-0.280063 0.73505137,0.72373834 0 0 0 -0.735054,-0.723742 0.73505137,0.72373834 0 0 0 -0.70921,0.53435 l -0.0014,-0.0038 a 6.5569486,6.4560318 0 0 1 -3.052929,3.928328 6.5569486,6.4560318 0 0 1 -8.957004,-2.362054 6.5569486,6.4560318 0 0 1 2.399686,-8.81983 6.5569486,6.4560318 0 0 1 4.981697,-0.639647 l -0.0014,-0.0027 a 0.73505137,0.72373834 0 0 0 0.188069,0.02646 0.73505137,0.72373834 0 0 0 0.73505,-0.723742 0.73505137,0.72373834 0 0 0 -0.641044,-0.717394 8.0270461,7.9035036 0 0 0 -2.288421,-0.245292 z m -4.8367,7.170255 a 0.73505137,0.72373834 0 0 0 -0.73505,0.723742 0.73505137,0.72373834 0 0 0 0.73505,0.723742 h 1.470104 1.470104 1.4701 1.470104 1.470104 a 0.73505137,0.72373834 0 0 0 0.73505,-0.723742 0.73505137,0.72373834 0 0 0 -0.73505,-0.723742 h -1.470104 -1.470104 -1.4701 -1.470104 z"
     style="opacity:1;vector-effect:none;fill:#bdcdd4;fill-opacity:1;fill-rule:evenodd;stroke:none;stroke-width:0.01044287;stroke-linecap:butt;stroke-linejoin:miter;stroke-miterlimit:4;stroke-dasharray:none;stroke-dashoffset:0;stroke-opacity:1;paint-order:normal" />
</svg>
