<?xml version="1.0" encoding="UTF-8" standalone="no"?>
<!-- Generator: Gravit.io -->

<svg
   xmlns:dc="http://purl.org/dc/elements/1.1/"
   xmlns:cc="http://creativecommons.org/ns#"
   xmlns:rdf="http://www.w3.org/1999/02/22-rdf-syntax-ns#"
   xmlns:svg="http://www.w3.org/2000/svg"
   xmlns="http://www.w3.org/2000/svg"
   xmlns:sodipodi="http://sodipodi.sourceforge.net/DTD/sodipodi-0.dtd"
   xmlns:inkscape="http://www.inkscape.org/namespaces/inkscape"
   style="isolation:isolate"
   viewBox="0 0 48 48"
   width="48"
   height="48"
   version="1.1"
   id="svg23"
   sodipodi:docname="multimedia-player.svg"
   inkscape:version="0.92.4 (unknown)">
  <metadata
     id="metadata27">
    <rdf:RDF>
      <cc:Work
         rdf:about="">
        <dc:format>image/svg+xml</dc:format>
        <dc:type
           rdf:resource="http://purl.org/dc/dcmitype/StillImage" />
      </cc:Work>
    </rdf:RDF>
  </metadata>
  <sodipodi:namedview
     pagecolor="#ffffff"
     bordercolor="#666666"
     borderopacity="1"
     objecttolerance="10"
     gridtolerance="10"
     guidetolerance="10"
     inkscape:pageopacity="0"
     inkscape:pageshadow="2"
     inkscape:window-width="640"
     inkscape:window-height="480"
     id="namedview25"
     showgrid="false"
     showguides="true"
     inkscape:guide-bbox="true"
     inkscape:snap-bbox="true"
     inkscape:bbox-paths="true"
     inkscape:bbox-nodes="true"
     inkscape:snap-bbox-edge-midpoints="true"
     inkscape:snap-bbox-midpoints="true"
     inkscape:object-paths="true"
     inkscape:snap-intersection-paths="true"
     inkscape:snap-smooth-nodes="true"
     inkscape:snap-midpoints="true"
     inkscape:snap-object-midpoints="true"
     inkscape:snap-center="true"
     inkscape:zoom="8.8002992"
     inkscape:cx="16.203875"
     inkscape:cy="22.38732"
     inkscape:current-layer="svg23" />
  <defs
     id="defs5">
    <clipPath
       id="_clipPath_Sd08GpmkdqIAy1UR239YV2vyPFIZuRyU">
      <rect
         width="48"
         height="48"
         id="rect2" />
    </clipPath>
  </defs>
  <path
     style="opacity:1;vector-effect:none;fill:#bdcdd4;fill-opacity:1;fill-rule:evenodd;stroke:none;stroke-width:0.02907303;stroke-linecap:butt;stroke-linejoin:miter;stroke-miterlimit:4;stroke-dasharray:none;stroke-dashoffset:0;stroke-opacity:1;paint-order:normal"
     d="M 10.009762,1.9999931 A 1.9999999,1.9999999 0 0 0 8.0097599,4.0000061 V 43.999994 a 1.9999999,1.9999999 0 0 0 2.0000021,2.000013 h 27.98047 A 1.9999999,1.9999999 0 0 0 39.99024,43.999994 V 4.0000061 a 1.9999999,1.9999999 0 0 0 -2.000008,-2.000013 z m 2.000001,4.0000252 H 35.99023 V 42.00002 H 12.009763 Z"
     id="rect3866"
     inkscape:connector-curvature="0" />
  <path
     inkscape:connector-curvature="0"
     style="isolation:isolate;fill:#bdcdd4;fill-rule:evenodd;stroke-width:0.53878468"
     d="m 14.392433,10.457739 v 3.576007 3.576024 h 0.844241 v -0.845117 h 0.845112 v 0.845117 h 6.571458 v -3.576024 -3.576007 h -0.844241 v 0.845117 h -0.845112 v -0.845117 z m 0.844241,1.24758 h 0.845112 v 0.844256 h -0.845112 z m 5.727217,0.439141 h 0.845112 v 0.844239 h -0.845112 z m -5.727217,1.247579 h 0.845112 v 0.844239 h -0.845112 z m 5.727217,0.439158 h 0.845112 v 0.844239 h -0.845112 z m -5.727217,1.24758 h 0.845112 v 0.844239 h -0.845112 z m 5.727217,0.43914 h 0.845112 v 0.844257 h -0.845112 z"
     id="rect2241-3-68" />
  <path
     id="path35"
     d="m 29.695318,17.689294 0.905016,0.301679 c 0,0 0.374677,1.152981 0.676348,1.45466 0.476943,0.476936 2.757863,1.562054 2.757863,3.975432 0,1.810031 -1.206687,3.016715 -2.715047,3.92173 1.50836,-1.508363 2.111702,-2.111699 2.111702,-3.92173 0,-2.413378 -2.529085,-2.715046 -2.529085,-2.715046 v 6.568901 c 0,0.671223 -0.934387,1.785289 -1.966707,2.213973 -1.308653,0.542097 -2.679751,0.232585 -3.061969,-0.69113 -0.382218,-0.923417 0.36804,-2.111402 1.67639,-2.653214 0.781632,-0.323993 1.514392,-0.398207 2.145792,-0.125796 z"
     inkscape:connector-curvature="0"
     style="fill:#bdcdd4;fill-rule:evenodd;stroke:none;stroke-width:0.30167177"
     sodipodi:nodetypes="cccscscsccccc" />
  <path
     style="opacity:1;vector-effect:none;fill:#bdcdd4;fill-opacity:1;fill-rule:evenodd;stroke:none;stroke-width:0.00651039;stroke-linecap:butt;stroke-linejoin:miter;stroke-miterlimit:4;stroke-dasharray:none;stroke-dashoffset:0;stroke-opacity:1;paint-order:normal"
     d="m 16.029197,29.834346 a 4.13133,4.13133 0 0 0 -1.829663,4.947607 l 0.0027,-5.59e-4 a 0.44786453,0.44786453 0 0 0 0.04448,0.107656 0.44786453,0.44786453 0 0 0 0.503169,0.208458 l 4.37e-4,7.62e-4 0.791639,-0.212115 -0.08485,0.08484 -0.495585,0.495721 a 0.44786453,0.44786453 0 0 0 -0.07083,0.540366 0.44786453,0.44786453 0 0 0 0.07099,0.09234 l -9.32e-4,8.51e-4 a 4.13133,4.13133 0 0 0 5.199801,0.889647 4.13133,4.13133 0 0 0 1.512189,-5.643568 4.13133,4.13133 0 0 0 -5.643565,-1.512188 z m 0.431957,0.784913 a 3.2356068,3.2356068 0 0 1 0.01591,-0.0092 3.2356068,3.2356068 0 0 1 4.419976,1.184326 3.2356068,3.2356068 0 0 1 -1.18433,4.419979 3.2356068,3.2356068 0 0 1 -3.806941,-0.425185 l 0.184657,-0.184887 0.633307,-0.633305 0.419432,-0.419429 a 1.4864665,1.4864665 0 0 0 1.69481,0.147714 1.4864665,1.4864665 0 0 0 0.544357,-2.03037 1.4864665,1.4864665 0 0 0 -2.030751,-0.544141 1.4864665,1.4864665 0 0 0 -0.720238,1.542048 l -0.57219,0.153089 2.18e-4,3.81e-4 -0.675577,0.180452 -0.439112,0.117669 a 3.2356068,3.2356068 0 0 1 1.516473,-3.499158 z m 1.338289,2.281249 a 0.5907411,0.5907411 0 0 1 0.807162,0.216278 0.5907411,0.5907411 0 0 1 -0.216497,0.806782 0.5907411,0.5907411 0 0 1 -0.806943,-0.215897 0.5907411,0.5907411 0 0 1 0.216278,-0.807163 z m -0.682211,0.89587 a 0.15591773,0.15591773 0 0 1 0.212913,0.05738 0.15591773,0.15591773 0 0 1 -0.05699,0.212689 0.15591773,0.15591773 0 0 1 -0.212693,-0.05696 0.15591773,0.15591773 0 0 1 0.05677,-0.213071 z"
     id="circle2307"
     inkscape:connector-curvature="0" />
</svg>
