<?xml version="1.0" encoding="UTF-8" standalone="no"?>
<!-- Generator: Gravit.io -->

<svg
   xmlns:dc="http://purl.org/dc/elements/1.1/"
   xmlns:cc="http://creativecommons.org/ns#"
   xmlns:rdf="http://www.w3.org/1999/02/22-rdf-syntax-ns#"
   xmlns:svg="http://www.w3.org/2000/svg"
   xmlns="http://www.w3.org/2000/svg"
   xmlns:sodipodi="http://sodipodi.sourceforge.net/DTD/sodipodi-0.dtd"
   xmlns:inkscape="http://www.inkscape.org/namespaces/inkscape"
   style="isolation:isolate"
   viewBox="0 0 48 48"
   width="48"
   height="48"
   version="1.1"
   id="svg23"
   sodipodi:docname="network-card.svg"
   inkscape:version="0.92.4 (unknown)">
  <metadata
     id="metadata27">
    <rdf:RDF>
      <cc:Work
         rdf:about="">
        <dc:format>image/svg+xml</dc:format>
        <dc:type
           rdf:resource="http://purl.org/dc/dcmitype/StillImage" />
      </cc:Work>
    </rdf:RDF>
  </metadata>
  <sodipodi:namedview
     pagecolor="#ffffff"
     bordercolor="#666666"
     borderopacity="1"
     objecttolerance="10"
     gridtolerance="10"
     guidetolerance="10"
     inkscape:pageopacity="0"
     inkscape:pageshadow="2"
     inkscape:window-width="640"
     inkscape:window-height="480"
     id="namedview25"
     showgrid="false"
     showguides="true"
     inkscape:guide-bbox="true"
     inkscape:snap-bbox="true"
     inkscape:bbox-paths="true"
     inkscape:bbox-nodes="true"
     inkscape:snap-bbox-edge-midpoints="true"
     inkscape:snap-bbox-midpoints="true"
     inkscape:object-paths="true"
     inkscape:snap-intersection-paths="true"
     inkscape:snap-smooth-nodes="true"
     inkscape:snap-midpoints="true"
     inkscape:snap-object-midpoints="true"
     inkscape:snap-center="true"
     inkscape:zoom="12.445502"
     inkscape:cx="42.962009"
     inkscape:cy="19.896709"
     inkscape:current-layer="svg23" />
  <defs
     id="defs5">
    <clipPath
       id="_clipPath_Sd08GpmkdqIAy1UR239YV2vyPFIZuRyU">
      <rect
         width="48"
         height="48"
         id="rect2" />
    </clipPath>
  </defs>
  <path
     style="opacity:1;vector-effect:none;fill:#bdcdd4;fill-opacity:1;fill-rule:evenodd;stroke:none;stroke-width:0.02907303;stroke-linecap:butt;stroke-linejoin:miter;stroke-miterlimit:4;stroke-dasharray:none;stroke-dashoffset:0;stroke-opacity:1;paint-order:normal"
     d="m 8.017579,2.0000002 a 1.9999999,1.9999999 0 0 0 -2,2 v 4 H 5.999999 V 12 v 4 4 4 4 4 4 4 4 a 1.9999999,1.9999999 0 0 0 2,2 1.9999999,1.9999999 0 0 0 2,-2 v -4 -1.822265 h 3.892578 a 1.9999999,1.9999999 0 0 0 0,0.01953 1.9999999,1.9999999 0 0 0 2,2 1.9999999,1.9999999 0 0 0 2,-2 1.9999999,1.9999999 0 0 0 0,-0.01953 h 0.107422 a 1.9999999,1.9999999 0 0 0 0,0.01953 1.9999999,1.9999999 0 0 0 2,2 1.9999999,1.9999999 0 0 0 2,-2 1.9999999,1.9999999 0 0 0 2,2 1.9999999,1.9999999 0 0 0 2,-2 1.9999999,1.9999999 0 0 0 2,2 1.9999999,1.9999999 0 0 0 2,-2 1.9999999,1.9999999 0 0 0 2,2 1.9999999,1.9999999 0 0 0 2,-2 1.9999999,1.9999999 0 0 0 0,-0.01953 h 4.000002 a 1.9999999,1.9999999 0 0 0 2,-2 v -2 a 1.9999999,1.9999999 0 0 0 -2,-2 h -4 -4 -4 -4 -4 -4 -4 V 32 28 24 20 16 h 4 4 4 4 4 4 4 v 2 2 4 4 a 1.9999999,1.9999999 0 0 0 2,2 1.9999999,1.9999999 0 0 0 2,-2 v -4 -4 -4 -2 a 1.9999999,1.9999999 0 0 0 -2,-2 h -2 -4 -4 -4 -4 -4 -4 -4 V 8.0000002 h 0.01758 v -4 a 1.9999999,1.9999999 0 0 0 -2.0000001,-2 z"
     id="rect891-6-5"
     inkscape:connector-curvature="0" />
  <path
     style="opacity:1;vector-effect:none;fill:#bdcdd4;fill-opacity:1;fill-rule:evenodd;stroke:none;stroke-width:0.00921884;stroke-linecap:butt;stroke-linejoin:miter;stroke-miterlimit:4;stroke-dasharray:none;stroke-dashoffset:0;stroke-opacity:1;paint-order:normal"
     d="m 24,18.530154 c -2.381432,0.0029 -4.487323,1.54625 -5.207251,3.816256 -1.560746,0.625272 -2.136022,1.488652 -1.530966,2.297684 0.282913,0.372717 0.804926,0.716842 1.524772,1.005158 0.719083,2.273899 2.828558,3.819792 5.213445,3.820594 2.381436,-0.0029 4.487326,-1.54625 5.207255,-3.816259 1.560742,-0.625269 2.136018,-1.488649 1.530962,-2.297681 -0.108462,-0.141303 -0.251666,-0.278914 -0.427952,-0.411231 0.0201,0.07637 0.0298,0.153058 0.0291,0.229768 -8.97e-4,0.07903 -0.0129,0.157981 -0.03593,0.236579 -8.96e-4,0.0019 -0.0016,0.0036 -0.0027,0.0056 -0.02295,0.07692 -0.05645,0.153398 -0.100331,0.22915 -6.35e-4,8.98e-4 -0.0012,0.0016 -0.0019,0.0027 -0.04464,0.07648 -0.09982,0.152132 -0.165359,0.226676 l -6.34e-4,6.33e-4 c -0.143513,0.163857 -0.336426,0.321674 -0.575348,0.470682 v -0.005 c -0.09227,0.05845 -0.191458,0.115481 -0.297275,0.170932 -0.12018,0.0618 -0.248522,0.121532 -0.384597,0.178983 l -6.34e-4,0.0056 c -0.875909,0.37155 -2.050097,0.638293 -3.364157,0.764242 -0.322023,0.03019 -0.649948,0.05173 -0.981004,0.0644 v -0.02847 c -1.236484,0.0624 -2.489421,-0.02562 -3.543757,-0.248969 l -0.0012,-0.0056 c -0.0149,-0.0029 -0.02977,-0.0058 -0.04459,-0.0087 -0.15045,-0.03252 -0.295964,-0.06767 -0.436002,-0.105284 -0.140018,-0.03767 -0.27437,-0.07776 -0.402559,-0.120156 -0.128288,-0.0424 -0.250243,-0.08707 -0.365402,-0.133771 -0.115009,-0.04657 -0.223108,-0.09515 -0.323903,-0.14554 -0.100899,-0.05053 -0.194327,-0.102831 -0.279932,-0.15669 -0.0856,-0.0537 -0.163325,-0.108884 -0.232867,-0.165358 -0.06949,-0.05666 -0.130673,-0.114526 -0.183316,-0.17341 -0.294227,-0.361612 -0.255096,-0.635673 -0.01981,-1.053989 -0.03456,0.223319 -0.05523,0.448562 -0.06194,0.674441 0.413828,0.393155 1.204375,0.723569 2.241946,0.937034 -0.04956,-0.260531 -0.07526,-0.525331 -0.0768,-0.790873 0.0012,-0.677754 0.159893,-1.345232 0.462631,-1.945908 0.391575,-0.0774 0.808726,-0.137742 1.241742,-0.179606 2.462913,-0.234534 5.032455,0.157994 6.154195,0.940132 0.0023,-0.149217 -0.05028,-0.297588 -0.15607,-0.441578 -0.120168,-0.156277 -0.302305,-0.305701 -0.541287,-0.444052 -1.125706,-0.267835 -2.445381,-0.413079 -3.798296,-0.418041 -0.630431,-0.0023 -1.258775,0.02615 -1.867875,0.08423 -0.282995,0.02779 -0.560797,0.06193 -0.831746,0.102192 0.75002,-1.193669 2.030448,-1.91413 3.404407,-1.915562 2.246836,-1.37e-4 4.068322,1.888456 4.068322,4.218199 -0.0016,0.04133 -0.004,0.08261 -0.0068,0.123862 0.23977,-0.113789 0.450364,-0.235044 0.62923,-0.362303 -0.127532,-2.922861 -2.532441,-5.227893 -5.458079,-5.231405 z m 4.377983,7.405845 c -0.697744,1.400526 -2.090386,2.280778 -3.610644,2.282197 -1.374954,-6.34e-4 -2.656525,-0.721511 -3.406888,-1.916181 1.410337,0.206676 2.971574,0.242786 4.444872,0.102808 0.939823,-0.09051 1.816162,-0.250208 2.57266,-0.468824 z"
     id="path4835"
     inkscape:connector-curvature="0"
     sodipodi:nodetypes="cccccccccccccccccccccccccccccccccccccccccccccccccccccccc" />
</svg>
