<?xml version="1.0" encoding="UTF-8" standalone="no"?>
<!-- Generator: Gravit.io -->

<svg
   xmlns:dc="http://purl.org/dc/elements/1.1/"
   xmlns:cc="http://creativecommons.org/ns#"
   xmlns:rdf="http://www.w3.org/1999/02/22-rdf-syntax-ns#"
   xmlns:svg="http://www.w3.org/2000/svg"
   xmlns="http://www.w3.org/2000/svg"
   xmlns:sodipodi="http://sodipodi.sourceforge.net/DTD/sodipodi-0.dtd"
   xmlns:inkscape="http://www.inkscape.org/namespaces/inkscape"
   style="isolation:isolate"
   viewBox="0 0 48 48"
   width="48"
   height="48"
   version="1.1"
   id="svg23"
   sodipodi:docname="scanner.svg"
   inkscape:version="0.92.4 (unknown)">
  <metadata
     id="metadata27">
    <rdf:RDF>
      <cc:Work
         rdf:about="">
        <dc:format>image/svg+xml</dc:format>
        <dc:type
           rdf:resource="http://purl.org/dc/dcmitype/StillImage" />
      </cc:Work>
    </rdf:RDF>
  </metadata>
  <sodipodi:namedview
     pagecolor="#ffffff"
     bordercolor="#666666"
     borderopacity="1"
     objecttolerance="10"
     gridtolerance="10"
     guidetolerance="10"
     inkscape:pageopacity="0"
     inkscape:pageshadow="2"
     inkscape:window-width="640"
     inkscape:window-height="480"
     id="namedview25"
     showgrid="false"
     showguides="true"
     inkscape:guide-bbox="true"
     inkscape:snap-bbox="true"
     inkscape:bbox-paths="true"
     inkscape:bbox-nodes="true"
     inkscape:snap-bbox-edge-midpoints="true"
     inkscape:snap-bbox-midpoints="true"
     inkscape:object-paths="true"
     inkscape:snap-intersection-paths="true"
     inkscape:snap-smooth-nodes="true"
     inkscape:snap-midpoints="true"
     inkscape:snap-object-midpoints="true"
     inkscape:snap-center="true"
     inkscape:zoom="9.361939"
     inkscape:cx="40.264074"
     inkscape:cy="19.504927"
     inkscape:current-layer="svg23" />
  <defs
     id="defs5">
    <clipPath
       id="_clipPath_Sd08GpmkdqIAy1UR239YV2vyPFIZuRyU">
      <rect
         width="48"
         height="48"
         id="rect2" />
    </clipPath>
  </defs>
  <path
     style="opacity:1;vector-effect:none;fill:#bdcdd4;fill-opacity:1;fill-rule:evenodd;stroke:none;stroke-width:0.02907303;stroke-linecap:butt;stroke-linejoin:miter;stroke-miterlimit:4;stroke-dasharray:none;stroke-dashoffset:0;stroke-opacity:1;paint-order:normal"
     d="m 15.29101,4.722401 c -0.185612,-1.51e-4 -0.370318,0.02646 -0.548829,0.07635 l -3.328123,0.892611 v -0.002 L 7.550776,6.726464 C 6.676462,6.960795 6.068457,7.752946 6.068354,8.658105 c 0.0012,0.713272 0.382285,1.371893 0.999999,1.728529 v 0.0019 c 0.01361,0.0076 0.02721,0.01512 0.04101,0.02268 l 3.423829,1.97658 0.310564,0.179527 3.46484,2.000013 3.462894,2.000012 3.464844,1.999975 3.46289,2.000012 3.46484,2.000013 3.464844,1.999975 3.462894,2.000013 2.464842,1.421858 v 2.84572 2.443351 3.999987 2.000013 H 33.999995 29.999996 16.000002 12 8.000001 6 V 37.278309 34.559582 31.51075 30.788104 H 8.000001 12 16.000002 29.999996 33.999995 V 26.788077 H 29.999996 16.000002 12 8.000001 4.000002 c -1.104574,0 -2.000008,0.895446 -2.000001,2.000013 v 3.999987 2.722659 3.048831 2.718765 c 1.1e-5,1.104567 0.895438,1.999975 2.000001,1.999975 H 8.000001 12 h 4.000002 13.999994 3.999999 4.000003 1.55664 c 1.104559,0 1.999982,-0.895408 1.999997,-1.999975 V 37.278307 33.27832 29.278332 26.834981 c -5.55e-4,-0.71399 -0.381679,-1.373518 -0.999999,-1.730494 l -3.464844,-1.999975 -3.46289,-2.000013 -3.464844,-2.000012 -3.464844,-1.999975 -3.46289,-2.000013 -3.464844,-2.000012 -3.46289,-1.999975 -3.058595,-1.765644 1.757813,-0.470703 2.748046,1.585928 3.462894,2.000012 3.46484,2.000013 3.464844,1.999975 3.462894,2.000012 3.464844,2.000013 3.46289,1.999975 3.460936,1.998047 v 2.843754 3.314457 2.685544 3.015647 0.0038 c -7e-6,1.104567 0.895427,2.000013 2.000002,2.000013 1.104574,0 2.000009,-0.895446 2.000001,-2.000013 v -0.0038 -4.000025 -3.01561 -2.685543 -3.314457 c -5.71e-4,-0.713953 -0.381691,-1.37348 -1.000003,-1.730457 v -0.002 L 44.003902,20.989261 40.539058,18.989249 37.076168,16.989274 33.611324,14.989261 30.148433,12.989249 26.683589,10.989274 23.218745,8.989261 19.755855,6.989249 16.291011,4.989274 v 0.0019 C 15.987137,4.815047 15.642225,4.722071 15.291012,4.721693 Z"
     id="path1264-4-7-6"
     inkscape:connector-curvature="0"
     sodipodi:nodetypes="cccccccccccccccccccccccccccccccccccccccccccscccccscccccccccccccccccccccccccccccccccccccccccccccccccccccccc" />
</svg>
