<?xml version="1.0" encoding="UTF-8" standalone="no"?>
<!-- Generator: Gravit.io -->

<svg
   xmlns:dc="http://purl.org/dc/elements/1.1/"
   xmlns:cc="http://creativecommons.org/ns#"
   xmlns:rdf="http://www.w3.org/1999/02/22-rdf-syntax-ns#"
   xmlns:svg="http://www.w3.org/2000/svg"
   xmlns="http://www.w3.org/2000/svg"
   xmlns:sodipodi="http://sodipodi.sourceforge.net/DTD/sodipodi-0.dtd"
   xmlns:inkscape="http://www.inkscape.org/namespaces/inkscape"
   style="isolation:isolate"
   viewBox="0 0 48 48"
   width="48"
   height="48"
   version="1.1"
   id="svg23"
   sodipodi:docname="smartphone.svg"
   inkscape:version="0.92.4 (unknown)">
  <metadata
     id="metadata27">
    <rdf:RDF>
      <cc:Work
         rdf:about="">
        <dc:format>image/svg+xml</dc:format>
        <dc:type
           rdf:resource="http://purl.org/dc/dcmitype/StillImage" />
      </cc:Work>
    </rdf:RDF>
  </metadata>
  <sodipodi:namedview
     pagecolor="#ffffff"
     bordercolor="#666666"
     borderopacity="1"
     objecttolerance="10"
     gridtolerance="10"
     guidetolerance="10"
     inkscape:pageopacity="0"
     inkscape:pageshadow="2"
     inkscape:window-width="640"
     inkscape:window-height="480"
     id="namedview25"
     showgrid="false"
     showguides="true"
     inkscape:guide-bbox="true"
     inkscape:snap-bbox="true"
     inkscape:bbox-paths="true"
     inkscape:bbox-nodes="true"
     inkscape:snap-bbox-edge-midpoints="true"
     inkscape:snap-bbox-midpoints="true"
     inkscape:object-paths="true"
     inkscape:snap-intersection-paths="true"
     inkscape:snap-smooth-nodes="true"
     inkscape:snap-midpoints="true"
     inkscape:snap-object-midpoints="true"
     inkscape:snap-center="true"
     inkscape:zoom="5.8783185"
     inkscape:cx="32.950786"
     inkscape:cy="24.884319"
     inkscape:current-layer="svg23" />
  <defs
     id="defs5">
    <clipPath
       id="_clipPath_Sd08GpmkdqIAy1UR239YV2vyPFIZuRyU">
      <rect
         width="48"
         height="48"
         id="rect2" />
    </clipPath>
  </defs>
  <path
     style="fill:#bdcdd4;fill-rule:evenodd;stroke-width:0.02478558;stroke-miterlimit:4;stroke-dasharray:none"
     d="M 10.009766 2 C 8.9051908 1.9999993 8.0097586 2.8954251 8.0097656 4 L 8.0097656 44 C 8.0097584 45.104575 8.9051906 46.000001 10.009766 46 L 37.990234 46 C 39.094812 46.000004 39.990241 45.104578 39.990234 44 L 39.990234 4 C 39.990241 2.8954224 39.094812 1.9999955 37.990234 2 L 10.009766 2 z M 12.009766 6 L 35.990234 6 L 35.990234 38.277344 L 12.009766 38.277344 L 12.009766 6 z M 24 40.328125 A 1.9999999 1.9999999 0 0 1 26 42.328125 A 1.9999999 1.9999999 0 0 1 24 44.328125 A 1.9999999 1.9999999 0 0 1 22 42.328125 A 1.9999999 1.9999999 0 0 1 24 40.328125 z "
     id="rect3866" />
  <path
     inkscape:export-ydpi="300"
     inkscape:export-xdpi="300"
     inkscape:connector-curvature="0"
     id="path931-4-2"
     d="m 23.820346,16.101981 v 0.0014 a 8.0270461,7.9035036 0 0 0 -3.708998,1.049575 8.0270461,7.9035036 0 0 0 -2.93805,10.796712 8.0270461,7.9035036 0 0 0 10.965472,2.892812 8.0270461,7.9035036 0 0 0 3.705407,-4.708497 0.73505137,0.72373834 0 0 0 6.92e-4,-0.0014 0.73505137,0.72373834 0 0 0 0.05741,-0.280063 0.73505137,0.72373834 0 0 0 -0.735054,-0.723741 0.73505137,0.72373834 0 0 0 -0.709209,0.534349 l -0.0014,-0.0038 a 6.5569486,6.4560318 0 0 1 -3.05293,3.928329 6.5569486,6.4560318 0 0 1 -8.957004,-2.362053 6.5569486,6.4560318 0 0 1 2.399686,-8.81983 6.5569486,6.4560318 0 0 1 4.981697,-0.639648 l -0.0014,-0.0027 a 0.73505137,0.72373834 0 0 0 0.188067,0.02646 0.73505137,0.72373834 0 0 0 0.73505,-0.723742 0.73505137,0.72373834 0 0 0 -0.641015,-0.717392 8.0270461,7.9035036 0 0 0 -2.288421,-0.245291 z m -4.836699,7.170256 a 0.73505137,0.72373834 0 0 0 -0.735051,0.723741 0.73505137,0.72373834 0 0 0 0.735051,0.723742 h 1.470104 1.470103 1.470101 1.470104 1.470104 a 0.73505137,0.72373834 0 0 0 0.73505,-0.723742 0.73505137,0.72373834 0 0 0 -0.73505,-0.723741 h -1.470104 -1.470104 -1.470101 -1.470103 z"
     style="opacity:1;vector-effect:none;fill:#bdcdd4;fill-opacity:1;fill-rule:evenodd;stroke:none;stroke-width:0.01044287;stroke-linecap:butt;stroke-linejoin:miter;stroke-miterlimit:4;stroke-dasharray:none;stroke-dashoffset:0;stroke-opacity:1;paint-order:normal" />
</svg>
