<?xml version="1.0" encoding="UTF-8" standalone="no"?>
<!-- Generator: Gravit.io -->

<svg
   xmlns:dc="http://purl.org/dc/elements/1.1/"
   xmlns:cc="http://creativecommons.org/ns#"
   xmlns:rdf="http://www.w3.org/1999/02/22-rdf-syntax-ns#"
   xmlns:svg="http://www.w3.org/2000/svg"
   xmlns="http://www.w3.org/2000/svg"
   xmlns:xlink="http://www.w3.org/1999/xlink"
   xmlns:sodipodi="http://sodipodi.sourceforge.net/DTD/sodipodi-0.dtd"
   xmlns:inkscape="http://www.inkscape.org/namespaces/inkscape"
   style="isolation:isolate"
   viewBox="0 0 48 48"
   width="48"
   height="48"
   version="1.1"
   id="svg23"
   sodipodi:docname="video-television.svg"
   inkscape:version="0.92.4 (unknown)">
  <metadata
     id="metadata27">
    <rdf:RDF>
      <cc:Work
         rdf:about="">
        <dc:format>image/svg+xml</dc:format>
        <dc:type
           rdf:resource="http://purl.org/dc/dcmitype/StillImage" />
      </cc:Work>
    </rdf:RDF>
  </metadata>
  <sodipodi:namedview
     pagecolor="#ffffff"
     bordercolor="#666666"
     borderopacity="1"
     objecttolerance="10"
     gridtolerance="10"
     guidetolerance="10"
     inkscape:pageopacity="0"
     inkscape:pageshadow="2"
     inkscape:window-width="640"
     inkscape:window-height="480"
     id="namedview25"
     showgrid="false"
     showguides="true"
     inkscape:guide-bbox="true"
     inkscape:snap-bbox="true"
     inkscape:bbox-paths="true"
     inkscape:bbox-nodes="true"
     inkscape:snap-bbox-edge-midpoints="true"
     inkscape:snap-bbox-midpoints="true"
     inkscape:object-paths="true"
     inkscape:snap-intersection-paths="true"
     inkscape:snap-smooth-nodes="true"
     inkscape:snap-midpoints="true"
     inkscape:snap-object-midpoints="true"
     inkscape:snap-center="true"
     inkscape:zoom="12.506952"
     inkscape:cx="25.619371"
     inkscape:cy="24.474534"
     inkscape:current-layer="svg23" />
  <defs
     id="defs5">
    <linearGradient
       inkscape:collect="always"
       id="linearGradient887">
      <stop
         style="stop-color:#ffffff;stop-opacity:1"
         offset="0"
         id="stop883" />
      <stop
         style="stop-color:#364e59;stop-opacity:1"
         offset="1"
         id="stop885" />
    </linearGradient>
    <clipPath
       id="_clipPath_Sd08GpmkdqIAy1UR239YV2vyPFIZuRyU">
      <rect
         width="48"
         height="48"
         id="rect2" />
    </clipPath>
    <radialGradient
       inkscape:collect="always"
       xlink:href="#linearGradient887"
       id="radialGradient891-3"
       cx="24"
       cy="24"
       fx="24"
       fy="24"
       r="21.999977"
       gradientTransform="matrix(0.70887635,0,0,0.88610173,4.9869445,-1.7722238)"
       gradientUnits="userSpaceOnUse" />
  </defs>
  <path
     inkscape:connector-curvature="0"
     style="opacity:1;vector-effect:none;fill:#bdcdd4;fill-opacity:1;fill-rule:evenodd;stroke:none;stroke-width:0.02907303;stroke-linecap:butt;stroke-linejoin:miter;stroke-miterlimit:4;stroke-dasharray:none;stroke-dashoffset:0;stroke-opacity:1"
     d="m 3.9999983,6.7486395 c -1.1045594,0 -1.9999824,0.895408 -1.9999975,1.999975 V 31.251468 c -7.6e-6,1.104567 0.895423,2.000013 1.9999975,2.000013 h 9.0566407 0.002 c 1.104574,0 2.000009,-0.895446 2.000001,-2.000013 8e-6,-1.104568 -0.895427,-2.000012 -2.000001,-2.000012 h -0.002 -7.0566394 V 10.748627 H 42.000416 V 29.251455 H 28.943777 19.058589 c -1.027495,-7.6e-5 -1.887889,0.778393 -1.990231,1.800793 -0.0068,0.06614 -0.01021,0.132662 -0.01021,0.199182 v 3.999987 4.000025 1.999975 h 4.000003 5.909843 3.999999 V 37.25143 h -3.999979 -5.909843 v -2.000013 -1.999975 h 7.885187 15.05664 c 1.104574,0 2.000009,-0.895446 2.000001,-2.000012 V 8.7485765 c -3.4e-5,-1.104529 -0.895457,-1.999937 -2.000001,-1.999937 -0.01058,-7.6e-5 -0.02079,-7.6e-5 -0.03137,0 z"
     id="rect358-2"
     sodipodi:nodetypes="cccccscscccccccccccccccccccccsccccc" />
  <g
     id="g887"
     transform="translate(0.09561177,-3.6239221)"
     style="fill:#bdcdd4">
    <path
       id="rect2241-3-68-8"
       d="m 30.849811,20.954225 v 3.045767 3.045782 h 0.719059 v -0.719805 h 0.719802 v 0.719805 h 5.597061 v -3.045782 -3.045767 h -0.719059 v 0.719806 h -0.719801 v -0.719806 z m 0.719059,1.062592 h 0.719802 v 0.719072 H 31.56887 Z m 4.878003,0.374026 h 0.719801 v 0.719058 h -0.719801 z m -4.878003,1.062593 h 0.719802 v 0.719057 H 31.56887 Z m 4.878003,0.374041 h 0.719801 v 0.719057 h -0.719801 z m -4.878003,1.062592 h 0.719802 v 0.719058 H 31.56887 Z m 4.878003,0.374026 h 0.719801 v 0.719072 h -0.719801 z"
       style="opacity:1;isolation:isolate;vector-effect:none;fill:#bdcdd4;fill-opacity:1;fill-rule:evenodd;stroke:none;stroke-width:0.01106875;stroke-linecap:butt;stroke-linejoin:miter;stroke-miterlimit:4;stroke-dasharray:none;stroke-dashoffset:0;stroke-opacity:1"
       inkscape:connector-curvature="0" />
    <path
       sodipodi:nodetypes="cccscscsccccc"
       style="opacity:1;vector-effect:none;fill:#bdcdd4;fill-opacity:1;fill-rule:evenodd;stroke:none;stroke-width:0.00747005;stroke-linecap:butt;stroke-linejoin:miter;stroke-miterlimit:4;stroke-dasharray:none;stroke-dashoffset:0;stroke-opacity:1"
       inkscape:connector-curvature="0"
       d="m 23.726532,18.861292 0.770822,0.256947 c 0,0 0.319121,0.982021 0.576061,1.238968 0.406224,0.406217 2.348935,1.330437 2.348935,3.385966 0,1.541645 -1.027763,2.569405 -2.312467,3.340227 1.284704,-1.284707 1.798584,-1.798582 1.798584,-3.340227 0,-2.055529 -2.154079,-2.312467 -2.154079,-2.312467 v 5.594884 c 0,0.571695 -0.795838,1.520571 -1.67509,1.885691 -1.11461,0.461716 -2.282406,0.198098 -2.607949,-0.588651 -0.325544,-0.786496 0.313468,-1.798329 1.427821,-2.259803 0.665732,-0.275952 1.289841,-0.339162 1.827619,-0.107143 z"
       id="path35-7" />
    <path
       sodipodi:nodetypes="cccccccccccccccccccccccccccccccccccccccccccccccc"
       inkscape:connector-curvature="0"
       id="path4835-9"
       d="m 13.441005,21.240882 c -1.20125,0.0012 -2.26351,0.779965 -2.626659,1.925007 -0.787276,0.315402 -1.0774577,0.750912 -0.772253,1.159007 0.142708,0.188003 0.406023,0.361588 0.769129,0.507026 0.362722,1.147007 1.42679,1.926791 2.629783,1.927196 1.20125,-0.0012 2.26351,-0.779966 2.626659,-1.925014 0.787274,-0.315395 1.077457,-0.750906 0.772252,-1.159 -0.05471,-0.07128 -0.126947,-0.140693 -0.215868,-0.207439 0.0437,0.191872 -0.03296,0.325619 -0.139695,0.469261 l -3.2e-4,3.2e-4 c -0.07239,0.08265 -0.169701,0.162262 -0.290219,0.237424 v -0.0024 c -0.04655,0.0295 -0.09658,0.05828 -0.149952,0.08622 -0.06062,0.03119 -0.12536,0.06131 -0.194,0.09028 l -3.2e-4,0.003 c -0.441828,0.187417 -1.034116,0.321973 -1.696958,0.385503 -0.162436,0.01523 -0.327848,0.02612 -0.494841,0.03246 v -0.01439 c -0.623711,0.0315 -1.255722,-0.01294 -1.787553,-0.125585 l -6.72e-4,-0.003 c -0.0075,-0.0012 -0.01502,-0.003 -0.02249,-0.0042 -0.07589,-0.01638 -0.149291,-0.03416 -0.219929,-0.05314 -0.07062,-0.01898 -0.138392,-0.03923 -0.203052,-0.0606 -0.06471,-0.0214 -0.126229,-0.04389 -0.184318,-0.06748 -0.05801,-0.02352 -0.112541,-0.048 -0.163384,-0.07341 -0.0509,-0.02551 -0.09802,-0.05187 -0.141204,-0.07904 -0.04318,-0.02708 -0.08239,-0.05495 -0.117464,-0.08341 -0.03506,-0.02859 -0.06592,-0.05779 -0.09247,-0.08747 -0.148415,-0.182405 -0.128676,-0.320649 -0.01,-0.531655 0,0.598631 0.738996,0.736428 1.099648,0.812865 -0.02499,-0.131419 -0.03796,-0.26499 -0.03874,-0.398936 6.71e-4,-0.341875 0.08065,-0.678568 0.233362,-0.981559 0.197519,-0.03905 0.40794,-0.06949 0.626363,-0.0906 1.242351,-0.118301 2.538486,0.0797 3.104318,0.474224 -0.254468,-0.440745 -1.64582,-0.654404 -2.267711,-0.657602 -0.318003,-0.0012 -0.634955,0.01318 -0.942199,0.0425 -0.14275,0.01403 -0.282879,0.03125 -0.419552,0.05157 0.378327,-0.602113 1.024205,-0.965533 1.717261,-0.966252 1.133355,-7.3e-5 2.052155,0.952577 2.052155,2.127755 -7.83e-4,0.02086 -0.002,0.04165 -0.0034,0.06248 0.120945,-0.05737 0.227174,-0.11856 0.317398,-0.182755 -0.06433,-1.474354 -1.277422,-2.637067 -2.753181,-2.638838 z m 2.208354,3.73568 c -0.351957,0.706455 -1.054438,1.150477 -1.821291,1.15119 -0.693559,-3.2e-4 -1.340013,-0.363946 -1.718512,-0.966566 0.711406,0.104251 1.498929,0.122466 2.242095,0.05187 0.474069,-0.04564 0.916114,-0.126214 1.297708,-0.236487 z"
       style="opacity:1;vector-effect:none;fill:#bdcdd4;fill-opacity:1;fill-rule:evenodd;stroke:none;stroke-width:0.0046502;stroke-linecap:butt;stroke-linejoin:miter;stroke-miterlimit:4;stroke-dasharray:none;stroke-dashoffset:0;stroke-opacity:1;paint-order:normal" />
  </g>
</svg>
