<?xml version="1.0" encoding="UTF-8" standalone="no"?>
<svg
   xmlns:dc="http://purl.org/dc/elements/1.1/"
   xmlns:cc="http://creativecommons.org/ns#"
   xmlns:rdf="http://www.w3.org/1999/02/22-rdf-syntax-ns#"
   xmlns:svg="http://www.w3.org/2000/svg"
   xmlns="http://www.w3.org/2000/svg"
   xmlns:sodipodi="http://sodipodi.sourceforge.net/DTD/sodipodi-0.dtd"
   xmlns:inkscape="http://www.inkscape.org/namespaces/inkscape"
   viewBox="0 0 16 16"
   version="1.1"
   id="svg6"
   sodipodi:docname="folder-music-symbolic.svg"
   inkscape:version="0.92.4 (unknown)">
  <metadata
     id="metadata10">
    <rdf:RDF>
      <cc:Work
         rdf:about="">
        <dc:format>image/svg+xml</dc:format>
        <dc:type
           rdf:resource="http://purl.org/dc/dcmitype/StillImage" />
        <dc:title />
      </cc:Work>
    </rdf:RDF>
  </metadata>
  <sodipodi:namedview
     pagecolor="#ffffff"
     bordercolor="#666666"
     borderopacity="1"
     objecttolerance="10"
     gridtolerance="10"
     guidetolerance="10"
     inkscape:pageopacity="0"
     inkscape:pageshadow="2"
     inkscape:window-width="640"
     inkscape:window-height="480"
     id="namedview8"
     showgrid="false"
     inkscape:zoom="46.751512"
     inkscape:cx="3.1715139"
     inkscape:cy="5.7035693"
     inkscape:current-layer="svg6" />
  <defs
     id="defs3051">
    <style
       type="text/css"
       id="current-color-scheme">
      .ColorScheme-Text {
        color:#4d4d4d;
      }
      </style>
  </defs>
  <path
     style="color:#4d4d4d;fill:#005c94;fill-opacity:1;stroke:none;stroke-width:1.16666663"
     d="M 4.5,1 V 3.3333333 10.654623 C 4.1558333,10.455007 3.7614166,10.333333 3.3333333,10.333333 2.0406723,10.333333 1,11.374006 1,12.666667 1,13.959327 2.0406723,15 3.3333333,15 4.6259944,15 5.6666667,13.959327 5.6666667,12.666667 V 5.6666667 H 13.833333 V 8.321289 C 13.489167,8.1216739 13.094751,8 12.666667,8 c -1.292661,0 -2.333334,1.0406723 -2.333334,2.333333 0,1.292661 1.040673,2.333334 2.333334,2.333334 C 13.959328,12.666667 15,11.625994 15,10.333333 V 1 Z M 5.6666667,3.3333333 H 13.833333 V 4.5 H 5.6666667 Z"
     class="ColorScheme-Text"
     id="path4"
     inkscape:connector-curvature="0" />
</svg>
