<?xml version="1.0" encoding="UTF-8" standalone="no"?>
<!-- Generator: Gravit.io -->

<svg
   xmlns:dc="http://purl.org/dc/elements/1.1/"
   xmlns:cc="http://creativecommons.org/ns#"
   xmlns:rdf="http://www.w3.org/1999/02/22-rdf-syntax-ns#"
   xmlns:svg="http://www.w3.org/2000/svg"
   xmlns="http://www.w3.org/2000/svg"
   xmlns:sodipodi="http://sodipodi.sourceforge.net/DTD/sodipodi-0.dtd"
   xmlns:inkscape="http://www.inkscape.org/namespaces/inkscape"
   style="isolation:isolate"
   viewBox="0 0 16 16"
   width="16"
   height="16"
   version="1.1"
   id="svg23"
   sodipodi:docname="folder-remote-symbolic.svg.2019_05_01_15_17_04.0.svg"
   inkscape:version="0.92.4 (unknown)">
  <metadata
     id="metadata27">
    <rdf:RDF>
      <cc:Work
         rdf:about="">
        <dc:format>image/svg+xml</dc:format>
        <dc:type
           rdf:resource="http://purl.org/dc/dcmitype/StillImage" />
        <dc:title />
      </cc:Work>
    </rdf:RDF>
  </metadata>
  <sodipodi:namedview
     pagecolor="#ffffff"
     bordercolor="#666666"
     borderopacity="1"
     objecttolerance="10"
     gridtolerance="10"
     guidetolerance="10"
     inkscape:pageopacity="0"
     inkscape:pageshadow="2"
     inkscape:window-width="640"
     inkscape:window-height="480"
     id="namedview25"
     showgrid="false"
     showguides="true"
     inkscape:guide-bbox="true"
     inkscape:snap-nodes="true"
     inkscape:snap-global="true"
     inkscape:zoom="28.415303"
     inkscape:cx="3.7173981"
     inkscape:cy="8.4871139"
     inkscape:current-layer="svg23"
     inkscape:snap-bbox="true"
     inkscape:bbox-paths="true"
     inkscape:bbox-nodes="true"
     inkscape:snap-bbox-midpoints="true"
     inkscape:snap-bbox-edge-midpoints="true"
     inkscape:object-paths="true"
     inkscape:object-nodes="true"
     inkscape:snap-intersection-paths="true"
     inkscape:snap-object-midpoints="true"
     inkscape:snap-smooth-nodes="true"
     inkscape:snap-midpoints="true"
     inkscape:snap-center="true" />
  <defs
     id="defs5">
    <clipPath
       id="_clipPath_szI09MNJGyxikpNcHofb367aRzonsZAE">
      <rect
         width="48"
         height="48"
         id="rect2"
         x="0"
         y="0" />
    </clipPath>
  </defs>
  <path
     style="opacity:1;vector-effect:none;fill:#005c94;fill-opacity:1;fill-rule:evenodd;stroke:none;stroke-width:0.02468553;stroke-linecap:butt;stroke-linejoin:miter;stroke-miterlimit:4;stroke-dasharray:none;stroke-dashoffset:0;stroke-opacity:1;paint-order:normal"
     d="M 8.0016585,2.9560533 A 1.6981751,1.6981751 0 0 0 6.3034828,4.654229 1.6981751,1.6981751 0 0 0 8.0016585,6.3524048 1.6981751,1.6981751 0 0 0 9.6998343,4.654229 1.6981751,1.6981751 0 0 0 8.0016585,2.9560533 Z M 6.2023218,6.3524048 5.6019902,6.9527364 A 3.3963507,3.3963507 0 0 0 8.0016585,7.9494196 3.3963507,3.3963507 0 0 0 10.401327,6.9527364 L 9.8009948,6.3540632 A 2.5472628,2.5472628 0 0 1 8.0016585,7.1003318 2.5472628,2.5472628 0 0 1 6.2023218,6.3524048 Z M 5.0016585,7.5530681 4.4013269,8.1533998 A 5.0945269,5.0945269 0 0 0 8.0016585,9.6475948 5.0945269,5.0945269 0 0 0 11.60199,8.1533998 L 11.001659,7.5530681 a 4.2454386,4.2454386 0 0 1 -3.0000005,1.2454394 4.2454386,4.2454386 0 0 1 -3,-1.2454394 z m 7.1990045,1.199005 A 5.9428014,5.9428014 0 0 1 8.0016585,10.496683 5.9428014,5.9428014 0 0 1 3.8009952,8.7537315 L 3.2006635,9.3540628 A 6.7918893,6.7918893 0 0 0 8.0016585,11.345771 6.7918893,6.7918893 0 0 0 12.800996,9.3524048 Z M 2.6019903,9.9527358 2.0000002,10.554727 A 8.4900651,8.4900651 0 0 0 8.0016585,13.043947 8.4900651,8.4900651 0 0 0 14,10.553068 L 13.401327,9.9527358 A 7.6409772,7.6409772 0 0 1 8.0016585,12.194859 7.6409772,7.6409772 0 0 1 2.6019903,9.9527358 Z"
     id="circle54"
     inkscape:connector-curvature="0" />
</svg>
