<?xml version="1.0" encoding="UTF-8" standalone="no"?>
<svg
   xmlns:dc="http://purl.org/dc/elements/1.1/"
   xmlns:cc="http://creativecommons.org/ns#"
   xmlns:rdf="http://www.w3.org/1999/02/22-rdf-syntax-ns#"
   xmlns:svg="http://www.w3.org/2000/svg"
   xmlns="http://www.w3.org/2000/svg"
   xmlns:sodipodi="http://sodipodi.sourceforge.net/DTD/sodipodi-0.dtd"
   xmlns:inkscape="http://www.inkscape.org/namespaces/inkscape"
   viewBox="0 0 16 16"
   version="1.1"
   id="svg6"
   sodipodi:docname="user-trash-symbolic.svg"
   inkscape:version="0.92.4 (unknown)">
  <metadata
     id="metadata10">
    <rdf:RDF>
      <cc:Work
         rdf:about="">
        <dc:format>image/svg+xml</dc:format>
        <dc:type
           rdf:resource="http://purl.org/dc/dcmitype/StillImage" />
        <dc:title />
      </cc:Work>
    </rdf:RDF>
  </metadata>
  <sodipodi:namedview
     pagecolor="#ffffff"
     bordercolor="#666666"
     borderopacity="1"
     objecttolerance="10"
     gridtolerance="10"
     guidetolerance="10"
     inkscape:pageopacity="0"
     inkscape:pageshadow="2"
     inkscape:window-width="640"
     inkscape:window-height="480"
     id="namedview8"
     showgrid="false"
     inkscape:snap-bbox="true"
     inkscape:bbox-paths="true"
     inkscape:bbox-nodes="true"
     inkscape:snap-bbox-edge-midpoints="true"
     inkscape:snap-bbox-midpoints="true"
     inkscape:object-paths="true"
     inkscape:snap-intersection-paths="true"
     inkscape:snap-smooth-nodes="true"
     inkscape:snap-midpoints="true"
     inkscape:snap-object-midpoints="true"
     inkscape:snap-center="true"
     inkscape:snap-text-baseline="true"
     inkscape:zoom="33.875"
     inkscape:cx="3.2190188"
     inkscape:cy="8.0744681"
     inkscape:current-layer="svg6" />
  <defs
     id="defs3051">
    <style
       type="text/css"
       id="current-color-scheme">
      .ColorScheme-Text {
        color:#4d4d4d;
      }
      </style>
  </defs>
  <path
     style="opacity:1;vector-effect:none;fill:#005c94;fill-opacity:1;fill-rule:evenodd;stroke:none;stroke-width:0.01207256;stroke-linecap:butt;stroke-linejoin:miter;stroke-miterlimit:4;stroke-dasharray:none;stroke-dashoffset:0;stroke-opacity:1;paint-order:normal"
     d="M 3.0818358,8.9787198 V 4.0633695 H 2.5952554 2.1086751 l -0.012248,-0.08156 C 2.0535504,3.6962996 1.9907581,3.124509 2.0011405,3.1141265 2.0079816,3.1072855 2.9072324,2.8779289 3.9994756,2.6044452 L 5.9853724,2.1072023 8.0028085,2.1065657 10.020245,2.1059291 11.982938,2.595613 c 1.079481,0.2693261 1.978169,0.4968785 1.997084,0.505672 0.03096,0.014393 0.02843,0.062646 -0.02527,0.4835991 -0.03281,0.2571858 -0.06052,0.4700575 -0.06157,0.473048 -0.0011,0.00299 -0.329795,0.00543 -0.730527,0.00543 H 12.434052 V 3.883746 3.7041224 l -1.24515,-0.3103403 -1.2451501,-0.3103404 -1.9465658,0.0011 -1.9465657,0.0011 -0.9895949,0.2481022 -0.9895949,0.248102 -0.00548,4.6776209 -0.00548,4.6776212 H 8.0080112 11.955566 V 9.3702079 c 0,-3.0518166 -0.0044,-3.5668914 -0.03061,-3.5668914 -0.01684,0 -0.46306,0.1321272 -0.991608,0.2936161 -0.528548,0.1614888 -0.9649851,0.2936162 -0.9698589,0.2936162 -0.00487,0 -0.00886,1.1353154 -0.00886,2.5229232 v 2.522924 H 7.9971861 6.0397457 V 8.7394772 6.0425592 h 0.4783824 0.4783824 l 0.00554,2.2129952 0.00554,2.2129946 0.9950322,0.0056 0.9950321,0.0056 V 8.0763418 c 0,-1.3219367 0.00513,-2.4035213 0.011405,-2.4035213 0.00627,0 0.8769148,-0.2642545 1.9347612,-0.5872321 1.057846,-0.3229777 1.933562,-0.5872322 1.946036,-0.5872322 0.01567,0 0.02268,1.4519108 0.02268,4.6978571 V 13.894071 H 7.9971861 3.0818358 Z"
     id="path837"
     inkscape:connector-curvature="0" />
</svg>
