<?xml version="1.0" encoding="UTF-8" standalone="no"?>
<svg
   xmlns:dc="http://purl.org/dc/elements/1.1/"
   xmlns:cc="http://creativecommons.org/ns#"
   xmlns:rdf="http://www.w3.org/1999/02/22-rdf-syntax-ns#"
   xmlns:svg="http://www.w3.org/2000/svg"
   xmlns="http://www.w3.org/2000/svg"
   xmlns:sodipodi="http://sodipodi.sourceforge.net/DTD/sodipodi-0.dtd"
   xmlns:inkscape="http://www.inkscape.org/namespaces/inkscape"
   viewBox="0 0 16 16"
   version="1.1"
   id="svg6"
   sodipodi:docname="user-trash-full-symbolic.svg"
   inkscape:version="0.92.4 (unknown)"><metadata
   id="metadata10">
  <rdf:RDF>
    <cc:Work
       rdf:about="">
      <dc:format>image/svg+xml</dc:format>
      <dc:type
         rdf:resource="http://purl.org/dc/dcmitype/StillImage" />
    </cc:Work>
  </rdf:RDF>
</metadata>
<sodipodi:namedview
   pagecolor="#ffffff"
   bordercolor="#666666"
   borderopacity="1"
   objecttolerance="10"
   gridtolerance="10"
   guidetolerance="10"
   inkscape:pageopacity="0"
   inkscape:pageshadow="2"
   inkscape:window-width="640"
   inkscape:window-height="480"
   id="namedview8"
   showgrid="false"
   inkscape:zoom="22.081895"
   inkscape:cx="2.1798187"
   inkscape:cy="6.4913525"
   inkscape:current-layer="svg6" />
<defs
   id="defs3051">
  <style
     type="text/css"
     id="current-color-scheme">
      .ColorScheme-Text {
        color:#4d4d4d;
      }
      .ColorScheme-NegativeText {
        color:#da4453;
      }
      </style>
</defs>


  /&gt;
<path
   style="opacity:1;vector-effect:none;fill:#ff6600;fill-opacity:1;fill-rule:evenodd;stroke:none;stroke-width:0.01207256;stroke-linecap:butt;stroke-linejoin:miter;stroke-miterlimit:4;stroke-dasharray:none;stroke-dashoffset:0;stroke-opacity:1;paint-order:normal"
   d="M 3.0818301,8.9787199 V 4.0633694 H 2.59525 2.1086699 l -0.012244,-0.08156 C 2.0535511,3.6962997 1.9907562,3.124509 2.0011392,3.1141265 2.008029,3.1072859 2.9072307,2.8779289 3.9994739,2.6044452 L 5.9853706,2.1072023 8.002807,2.1065657 10.020244,2.1059291 11.982937,2.595613 c 1.07948,0.2693261 1.978168,0.4968784 1.997083,0.505672 0.03096,0.014393 0.02844,0.062646 -0.02527,0.4835991 -0.03281,0.2571859 -0.06052,0.4700575 -0.06157,0.473048 -0.0011,0.00299 -0.329795,0.00543 -0.730527,0.00543 H 12.43405 V 3.8837459 3.7041223 L 11.1889,3.393782 9.9437506,3.0834416 l -1.9465658,0.0011 -1.9465655,0.0011 -0.9895954,0.2481021 -0.9895945,0.248102 -0.00551,4.6776209 -0.00551,4.6776214 h 3.947545 3.9475546 v -3.56688 c 0,-3.0518168 -0.0044,-3.5668916 -0.03061,-3.5668916 -0.01684,0 -0.463061,0.1321273 -0.991609,0.2936161 -0.528548,0.1614889 -0.9649848,0.2936161 -0.9698586,0.2936161 -0.00487,0 -0.00886,1.1353155 -0.00886,2.5229233 V 11.436396 H 7.9971258 6.0396852 V 8.7394772 6.0425591 h 0.4783821 0.4783832 l 0.00551,2.2129953 0.00551,2.2129946 0.9950315,0.0056 0.9950325,0.0056 V 8.0763418 c 0,-1.3219367 0.00512,-2.4035214 0.011408,-2.4035214 0.0063,0 0.8769147,-0.2642544 1.9347605,-0.5872321 1.057846,-0.3229777 1.933562,-0.5872322 1.946036,-0.5872322 0.01567,0 0.02268,1.4519109 0.02268,4.6978572 V 13.894071 H 7.9970697 3.0817189 Z"
   id="path837"
   inkscape:connector-curvature="0" />
</svg>
