<?xml version="1.0" encoding="UTF-8" standalone="no"?>
<svg
   width="200"
   height="200"
   version="1.1"
   id="svg76"
   sodipodi:docname="folder-dropbox.svg"
   inkscape:version="1.3 (0e150ed6c4, 2023-07-21)"
   xmlns:inkscape="http://www.inkscape.org/namespaces/inkscape"
   xmlns:sodipodi="http://sodipodi.sourceforge.net/DTD/sodipodi-0.dtd"
   xmlns:xlink="http://www.w3.org/1999/xlink"
   xmlns="http://www.w3.org/2000/svg"
   xmlns:svg="http://www.w3.org/2000/svg"
   xmlns:rdf="http://www.w3.org/1999/02/22-rdf-syntax-ns#"
   xmlns:cc="http://creativecommons.org/ns#"
   xmlns:dc="http://purl.org/dc/elements/1.1/">
  <sodipodi:namedview
     pagecolor="#ffffff"
     bordercolor="#666666"
     borderopacity="1"
     objecttolerance="10"
     gridtolerance="10"
     guidetolerance="10"
     inkscape:pageopacity="0"
     inkscape:pageshadow="2"
     inkscape:window-width="1920"
     inkscape:window-height="941"
     id="namedview78"
     showgrid="false"
     inkscape:zoom="1.18"
     inkscape:cx="38.135593"
     inkscape:cy="137.28814"
     inkscape:window-x="0"
     inkscape:window-y="34"
     inkscape:window-maximized="1"
     inkscape:current-layer="svg76"
     inkscape:document-rotation="0"
     inkscape:showpageshadow="2"
     inkscape:pagecheckerboard="0"
     inkscape:deskcolor="#d1d1d1" />
  <metadata
     id="metadata2">
    <rdf:RDF>
      <cc:Work
         rdf:about="">
        <dc:format>image/svg+xml</dc:format>
        <dc:type
           rdf:resource="http://purl.org/dc/dcmitype/StillImage" />
        <dc:title />
      </cc:Work>
    </rdf:RDF>
  </metadata>
  <defs
     id="defs18">
    <linearGradient
       id="linearGradient1011"
       x1="3.9687"
       x2="3.9687"
       y1="-12.171"
       y2="-6.879"
       gradientTransform="matrix(1,0,0,0.99894,1.0583,14.153)"
       gradientUnits="userSpaceOnUse">
      <stop
         stop-color="#059bff"
         offset="0"
         id="stop4" />
      <stop
         stop-color="#005aff"
         offset="1"
         id="stop6" />
    </linearGradient>
    <linearGradient
       id="linearGradient921"
       x1="7.9373"
       x2="7.9373"
       y1="1.0583"
       y2="-8.2019"
       gradientTransform="translate(1.0583,14.42)"
       gradientUnits="userSpaceOnUse">
      <stop
         stop-color="#005aff"
         offset="0"
         id="stop9" />
      <stop
         stop-color="#059bff"
         offset="1"
         id="stop11" />
    </linearGradient>
    <style
       type="text/css"
       id="style14" />
    <style
       type="text/css"
       id="style16" />
    <style
       id="style14-5"
       type="text/css" />
    <style
       id="current-color-scheme"
       type="text/css">.ColorScheme-Text {&#10;        color:#4d4d4d;&#10;      }</style>
    <style
       type="text/css"
       id="style874">.ColorScheme-Text {&#10;        color:#4d4d4d;&#10;      }</style>
    <linearGradient
       id="linearGradient1387"
       x1="25"
       x2="25"
       y1="155"
       y2="166"
       gradientTransform="matrix(3.1562629,0,0,3.1562629,-10.468371,-468.12796)"
       gradientUnits="userSpaceOnUse">
      <stop
         stop-color="#3296d7"
         offset="0"
         id="stop876" />
      <stop
         stop-color="#0a7db4"
         offset="1"
         id="stop878" />
    </linearGradient>
    <linearGradient
       id="linearGradient1401"
       x1="5"
       x2="65"
       y1="185"
       y2="185"
       gradientTransform="matrix(3.1562629,0,0,3.1562629,-10.46849,-468.12796)"
       gradientUnits="userSpaceOnUse">
      <stop
         stop-color="#3492cb"
         offset="0"
         id="stop881" />
      <stop
         stop-color="#6ec8fa"
         offset=".083713"
         id="stop883" />
      <stop
         stop-color="#6ec8fa"
         offset=".91237"
         id="stop885" />
      <stop
         stop-color="#3492cb"
         offset="1"
         id="stop887" />
    </linearGradient>
    <linearGradient
       id="linearGradient1438"
       x1="-9.617"
       x2="-9.617"
       y1="1138.4"
       y2="1140.2"
       gradientTransform="matrix(2.1673212,0,0,4.8857776,108.75613,-5391.6261)"
       gradientUnits="userSpaceOnUse">
      <stop
         stop-color="#1482be"
         stop-opacity="0"
         offset="0"
         id="stop890" />
      <stop
         stop-color="#1482be"
         offset="1"
         id="stop892" />
    </linearGradient>
    <filter
       id="filter1733"
       x="-.011"
       y="-.0132"
       width="1.022"
       height="1.0264"
       color-interpolation-filters="sRGB">
      <feGaussianBlur
         stdDeviation="0.072761339"
         id="feGaussianBlur895" />
    </filter>
    <filter
       id="filter935"
       x="-.01485"
       y="-.1485"
       width="1.0297"
       height="1.297"
       color-interpolation-filters="sRGB">
      <feGaussianBlur
         stdDeviation="0.098224626"
         id="feGaussianBlur898" />
    </filter>
    <linearGradient
       gradientUnits="userSpaceOnUse"
       y2="1082.6"
       y1="1070.2"
       x2="-26.201"
       x1="-26.201"
       id="c">
      <stop
         id="stop961"
         offset="0"
         stop-color="#78c3fd" />
      <stop
         id="stop963"
         offset="1"
         stop-color="#7bc6ff" />
    </linearGradient>
    <linearGradient
       gradientUnits="userSpaceOnUse"
       y2="1139.8"
       y1="1081.4"
       x2="-9.912"
       x1="-9.912"
       id="b">
      <stop
         id="stop966"
         offset="0"
         stop-color="#35a5fc" />
      <stop
         id="stop968"
         offset=".5"
         stop-color="#45c0ff" />
      <stop
         id="stop970"
         offset="1"
         stop-color="#4dacf6" />
    </linearGradient>
    <linearGradient
       gradientUnits="userSpaceOnUse"
       y2="1140.2"
       y1="1138.4"
       x2="-9.617"
       x1="-9.617"
       id="a">
      <stop
         id="stop973"
         offset="0"
         stop-opacity=".046784" />
      <stop
         id="stop975"
         offset="1" />
    </linearGradient>
    <filter
       color-interpolation-filters="sRGB"
       height="1.0264"
       width="1.022"
       y="-0.0132"
       x="-0.011"
       id="filter1733-3">
      <feGaussianBlur
         id="feGaussianBlur880"
         stdDeviation="0.072761339" />
    </filter>
    <filter
       color-interpolation-filters="sRGB"
       height="1.2970001"
       width="1.0297"
       y="-0.1485"
       x="-0.01485"
       id="filter935-6">
      <feGaussianBlur
         id="feGaussianBlur883"
         stdDeviation="0.098224626" />
    </filter>
    <filter
       color-interpolation-filters="sRGB"
       height="1.0264005"
       width="1.0219998"
       y="-0.013200229"
       x="-0.010999908"
       id="filter1733-36">
      <feGaussianBlur
         id="feGaussianBlur880-7"
         stdDeviation="0.072761339" />
    </filter>
    <filter
       color-interpolation-filters="sRGB"
       height="1.2969998"
       width="1.0296998"
       y="-0.14849988"
       x="-0.014849913"
       id="filter935-62">
      <feGaussianBlur
         id="feGaussianBlur883-9"
         stdDeviation="0.098224626" />
    </filter>
    <filter
       id="filter1733-7"
       x="-0.010999908"
       y="-0.013200229"
       width="1.0219998"
       height="1.0264005"
       color-interpolation-filters="sRGB">
      <feGaussianBlur
         stdDeviation="0.072761339"
         id="feGaussianBlur880-2" />
    </filter>
    <linearGradient
       inkscape:collect="always"
       xlink:href="#linearGradient22"
       id="linearGradient1622"
       x1="60"
       y1="21"
       x2="60"
       y2="55"
       gradientUnits="userSpaceOnUse"
       gradientTransform="translate(6.1e-6)" />
    <linearGradient
       inkscape:collect="always"
       id="linearGradient22">
      <stop
         style="stop-color:#2d2e39;stop-opacity:1"
         offset="0"
         id="stop21" />
      <stop
         style="stop-color:#212128;stop-opacity:1"
         offset="1"
         id="stop22" />
    </linearGradient>
    <filter
       id="filter935-2"
       x="-0.014849913"
       y="-0.14849988"
       width="1.0296998"
       height="1.2969998"
       color-interpolation-filters="sRGB">
      <feGaussianBlur
         stdDeviation="0.098224626"
         id="feGaussianBlur883-6" />
    </filter>
    <linearGradient
       inkscape:collect="always"
       xlink:href="#linearGradient17"
       id="linearGradient1450"
       x1="5.31354"
       y1="115.78307"
       x2="194.68932"
       y2="115.78307"
       gradientUnits="userSpaceOnUse"
       gradientTransform="translate(6.1e-6)" />
    <linearGradient
       inkscape:collect="always"
       id="linearGradient17">
      <stop
         style="stop-color:#14191e;stop-opacity:1;"
         offset="0"
         id="stop14" />
      <stop
         style="stop-color:#282d32;stop-opacity:1;"
         offset="0.08254468"
         id="stop15" />
      <stop
         id="stop16"
         offset="0.91187197"
         style="stop-color:#282d32;stop-opacity:1;" />
      <stop
         style="stop-color:#14191e;stop-opacity:1;"
         offset="1"
         id="stop17" />
    </linearGradient>
    <linearGradient
       inkscape:collect="always"
       xlink:href="#linearGradient20"
       id="linearGradient4449-1"
       x1="93.546776"
       y1="178.53749"
       x2="93.546776"
       y2="172.15199"
       gradientUnits="userSpaceOnUse"
       gradientTransform="translate(6.1e-6,0.6311261)" />
    <linearGradient
       inkscape:collect="always"
       id="linearGradient20">
      <stop
         style="stop-color:#505363;stop-opacity:1;"
         offset="0"
         id="stop19" />
      <stop
         style="stop-color:#505363;stop-opacity:0;"
         offset="1"
         id="stop20" />
    </linearGradient>
  </defs>
  <g
     transform="matrix(12.283 0 0 12.283 227.22 -3.994)"
     fill="#5e4aa6"
     stroke-width=".26458"
     id="g52">
    <circle
       cx="-330.35"
       cy="-328.38"
       r="0"
       id="circle42" />
    <circle
       cx="-312.11"
       cy="-326.25"
       r="0"
       id="circle44" />
    <circle
       cx="-306.02"
       cy="-333.07"
       r="0"
       id="circle46" />
    <circle
       cx="-308.84"
       cy="-326.01"
       r="0"
       id="circle48" />
    <circle
       cx="-328.8"
       cy="-330.45"
       r="0"
       id="circle50" />
  </g>
  <g
     transform="matrix(12.283 0 0 12.283 -40.062 -131.15)"
     fill="#5e4aa6"
     stroke-width=".26458"
     id="g64">
    <circle
       cx="-330.35"
       cy="-328.38"
       r="0"
       id="circle54" />
    <circle
       cx="-312.11"
       cy="-326.25"
       r="0"
       id="circle56" />
    <circle
       cx="-306.02"
       cy="-333.07"
       r="0"
       id="circle58" />
    <circle
       cx="-308.84"
       cy="-326.01"
       r="0"
       id="circle60" />
    <circle
       cx="-328.8"
       cy="-330.45"
       r="0"
       id="circle62" />
  </g>
  <g
     id="g902"
     transform="matrix(11.929333,0,0,11.929333,-10.468365,-468.12796)"
     style="opacity:0.5;filter:url(#filter1733-7)">
    <g
       id="g896"
       style="stroke-opacity:0.95294">
      <path
         id="path890"
         d="m 10,155 c -2.77,0 -5,2.23 -5,5 v 40 c 0,2.77 2.23,5 5,5 h 50 c 2.77,0 5,-2.23 5,-5 v -36 c 0,-0.831 -0.3347,-1.5808 -0.87695,-2.123 -0.54225,-0.5422 -1.292,-0.87695 -2.123,-0.87695 h -31 c -0.75,0 -1.5,-0.25001 -2.2188,-0.64062 -0.71875,-0.39063 -1.4062,-0.92188 -2.0312,-1.4844 -1.25,-1.125 -2.25,-2.375 -2.75,-2.875 -0.43528,-0.43528 -1.1061,-0.68419 -1.7754,-0.82617 -0.64042,-0.13585 -1.26,-0.16683 -1.6875,-0.17383 h -0.53711 z"
         transform="scale(0.26458)"
         inkscape:connector-curvature="0"
         style="opacity:1;stroke-width:0.20101" />
      <path
         id="path892"
         d="M 7.4004,165 C 6.0708,165 5,166.0708 5,167.4004 v 32.6 c 0,2.77 2.23,5 5,5 h 50 c 2.77,0 5,-2.23 5,-5 v -32.6 C 65,166.0708 63.9292,165 62.5996,165 Z"
         transform="scale(0.26458)"
         inkscape:connector-curvature="0"
         style="opacity:1;stroke-width:0.17979" />
      <path
         id="path894"
         d="M 7.4004,165 C 6.0708,165 5,166.0708 5,167.4004 v 1 C 5,167.0708 6.0708,166 7.4004,166 h 55.199 c 1.3296,0 2.4004,1.0708 2.4004,2.4004 v -1 C 64.9998,166.0708 63.929,165 62.5994,165 Z"
         transform="scale(0.26458)"
         inkscape:connector-curvature="0"
         style="opacity:1;stroke-width:0.17979" />
    </g>
    <path
       id="path898"
       style="color:#000000;text-indent:0;text-transform:none;opacity:0.5;stroke-width:0.27278"
       d="m 1.3229,52.916 c 0.037387,0.72117 0.52916,1.3229 1.3188,1.3229 h 13.233 c 0.79328,0 1.3224,-0.64408 1.3224,-1.3229 z"
       inkscape:connector-curvature="0" />
    <path
       id="path900"
       style="color:#000000;text-indent:0;text-transform:none;opacity:0.15;stroke-width:0.095585"
       d="m 1.3237,52.916 3.337e-4,0.26458 H 17.198034 L 17.1977,52.916 H 1.3226997 Z m 0.26376,0.79373 h 15.346 c 0.05347,-0.07329 0.11377,-0.15529 0.15166,-0.26458 h -15.653 c 0.046511,0.1129 0.09263,0.17706 0.15532,0.26458 z"
       inkscape:connector-curvature="0" />
  </g>
  <path
     id="path904"
     d="m 21.09343,21.093997 c -8.74277,0 -15.7813155,7.038426 -15.7813155,15.781315 V 163.12344 c 0,8.74277 7.0384265,15.78131 15.7813155,15.78131 h 157.81314 c 8.74277,0 15.78131,-7.03842 15.78131,-15.78131 V 49.498932 c 0,-2.622783 -1.05634,-4.989444 -2.76784,-6.700826 -1.7115,-1.711501 -4.07804,-2.767844 -6.70083,-2.767844 H 87.376024 c -2.367137,0 -4.734393,-0.789089 -7.002876,-2.021902 -2.268602,-1.232897 -4.438428,-2.909684 -6.411062,-4.685007 -3.945268,-3.550766 -7.101532,-7.496035 -8.679664,-9.074167 -1.373901,-1.373901 -3.491,-2.159448 -5.603565,-2.607633 -2.021307,-0.428776 -3.976763,-0.52656 -5.326209,-0.548654 H 52.65737 Z"
     inkscape:connector-curvature="0"
     style="fill:url(#linearGradient1622);fill-opacity:1;stroke-width:0.634426" />
  <path
     transform="matrix(11.929333,0,0,11.929333,-0.9996956,-0.9991277)"
     id="path906"
     d="M 1.852,4.3131 C 1.66878,4.3131 1.49466,4.350202 1.33628,4.41697 1.1779,4.483736 1.0352,4.58008 0.91564,4.69963 0.79608,4.81919 0.69922,4.96189 0.63246,5.12027 0.56569,5.27865 0.52911,5.45277 0.52911,5.63599 v 0.26458 c 0,-0.18322 0.03658,-0.35734 0.10335,-0.51572 C 0.69922,5.22647 0.79608,5.08377 0.91564,4.96421 1.0352,4.84465 1.1779,4.74831 1.33628,4.68155 1.49466,4.614785 1.66878,4.57768 1.852,4.57768 h 13.229 c 0.18322,0 0.35734,0.037103 0.51572,0.10387 0.15838,0.066765 0.30108,0.16311 0.42064,0.28266 0.11956,0.11956 0.21642,0.26226 0.28318,0.42064 0.06676,0.15838 0.10335,0.3325 0.10335,0.51572 V 5.63599 c 0,-0.18322 -0.03659,-0.35734 -0.10335,-0.51572 C 16.23377,4.96189 16.13692,4.81919 16.01736,4.69963 15.8978,4.58007 15.7551,4.48373 15.59672,4.41697 15.43834,4.350205 15.26422,4.3131 15.081,4.3131 Z"
     inkscape:connector-curvature="0"
     style="opacity:0.1;stroke-width:0.047568;filter:url(#filter935-2)" />
  <path
     id="path908"
     d="m 21.094622,52.657819 c -2.185692,0 -4.262828,0.442602 -6.152195,1.2391 -1.889367,0.796486 -3.591804,1.945793 -5.0178355,3.372184 -1.426272,1.426271 -2.5817467,3.128587 -3.3781489,5.017835 -0.7964142,1.889129 -1.2328966,3.966503 -1.2328966,6.152196 v 94.687886 c 0,8.74288 7.038426,15.78131 15.781315,15.78131 H 178.908 c 8.74289,0 15.78132,-7.03843 15.78132,-15.78131 V 68.439134 c 0,-2.185693 -0.4365,-4.262828 -1.2329,-6.152196 -0.79652,-1.889368 -1.95188,-3.591803 -3.37815,-5.017835 -1.42627,-1.426271 -3.12859,-2.575543 -5.01784,-3.372184 -1.88936,-0.79645 -3.9665,-1.2391 -6.15219,-1.2391 H 21.095099 Z"
     inkscape:connector-curvature="0"
     style="fill:url(#linearGradient1450);fill-opacity:1;stroke-width:0.567466" />
  <path
     id="path914"
     d="m 21.09343,52.656626 c -2.185692,0 -4.262828,0.442602 -6.152196,1.2391 -1.889367,0.796474 -3.591683,1.945793 -5.0179555,3.371945 -1.426271,1.426271 -2.5817459,3.128587 -3.3781482,5.017955 -0.7965215,1.889368 -1.2328965,3.966503 -1.2328965,6.152195 v 3.156263 c 0,-2.185692 0.4363869,-4.262947 1.2328965,-6.152195 0.7964619,-1.889368 1.9518772,-3.591684 3.3781482,-5.017955 1.4262725,-1.426271 3.1285885,-2.575543 5.0179555,-3.371945 1.889368,-0.796474 3.966504,-1.2391 6.152196,-1.2391 h 157.81314 c 2.18569,0 4.26283,0.442614 6.15219,1.2391 1.88937,0.796462 3.59169,1.945793 5.01796,3.371945 1.42627,1.426271 2.58175,3.128587 3.37815,5.017955 0.7964,1.889368 1.23289,3.966503 1.23289,6.152195 v -3.156263 c 0,-2.185692 -0.43649,-4.262827 -1.23289,-6.152195 -0.79652,-1.889368 -1.952,-3.591684 -3.37815,-5.017955 -1.42627,-1.426271 -3.12859,-2.575543 -5.01796,-3.371945 -1.88936,-0.796462 -3.9665,-1.2391 -6.15219,-1.2391 z"
     inkscape:connector-curvature="0"
     style="fill:#505363;fill-opacity:1;stroke-width:0.567455" />
  <path
     inkscape:connector-curvature="0"
     d="m 5.3157011,163.12701 c 0.446,8.60308 6.3125209,15.78132 15.7324009,15.78132 H 178.90895 c 9.46331,0 15.77535,-7.68345 15.77535,-15.78132 z"
     style="color:#000000;text-indent:0;text-transform:none;fill:url(#linearGradient4449-1);fill-opacity:1;stroke-width:3.25408"
     id="path926-0" />
  <path
     inkscape:connector-curvature="0"
     d="m 5.3208511,163.12701 0.004,3.15626 H 194.69109 l -0.004,-3.15626 H 5.3089211 Z m 3.1464804,9.46867 H 191.53487 c 0.63787,-0.8743 1.35719,-1.8525 1.80921,-3.15626 H 6.6142311 c 0.55484,1.34682 1.1050104,2.11221 1.8528604,3.15626 z"
     style="color:#000000;text-indent:0;text-transform:none;opacity:0.25;fill:#72768d;fill-opacity:1;stroke-width:1.14027"
     id="path928-6" />
  <g
     style="opacity:0.7;fill:#898daa;fill-opacity:0.7019608"
     transform="matrix(0.95345851,0,0,0.95345851,0.09709405,-806.06343)"
     id="g3">
    <path
       inkscape:connector-curvature="0"
       d="m 87.372,921.28 -24.878,16.243 17.201,13.775 25.084,-15.488 z"
       id="path1"
       style="fill:#898daa;fill-opacity:0.7019608" />
    <path
       inkscape:connector-curvature="0"
       d="m 62.494,965.07 24.878,16.243 17.407,-14.53 -25.084,-15.489 z m 42.286,1.72 17.408,14.53 24.877,-16.243 -17.201,-13.775 z m 42.28,-29.27 -24.877,-16.243 -17.408,14.53 25.084,15.488 z"
       id="path2"
       style="fill:#898daa;fill-opacity:0.7019608" />
    <path
       inkscape:connector-curvature="0"
       d="m 104.83,969.91 -17.458,14.487 -7.47,-4.878 v 5.469 l 24.928,14.95 24.93,-14.95 v -5.469 l -7.47,4.878 z"
       id="path3"
       style="fill:#898daa;fill-opacity:0.7019608" />
  </g>
</svg>
