<?xml version="1.0" encoding="UTF-8" standalone="no"?>
<svg
   width="200"
   height="200"
   version="1.1"
   id="svg42"
   sodipodi:docname="folder-network.svg"
   inkscape:version="1.3 (0e150ed6c4, 2023-07-21)"
   xmlns:inkscape="http://www.inkscape.org/namespaces/inkscape"
   xmlns:sodipodi="http://sodipodi.sourceforge.net/DTD/sodipodi-0.dtd"
   xmlns:xlink="http://www.w3.org/1999/xlink"
   xmlns="http://www.w3.org/2000/svg"
   xmlns:svg="http://www.w3.org/2000/svg"
   xmlns:rdf="http://www.w3.org/1999/02/22-rdf-syntax-ns#"
   xmlns:cc="http://creativecommons.org/ns#"
   xmlns:dc="http://purl.org/dc/elements/1.1/">
  <sodipodi:namedview
     pagecolor="#ffffff"
     bordercolor="#666666"
     borderopacity="1"
     objecttolerance="10"
     gridtolerance="10"
     guidetolerance="10"
     inkscape:pageopacity="0"
     inkscape:pageshadow="2"
     inkscape:window-width="1920"
     inkscape:window-height="941"
     id="namedview44"
     showgrid="false"
     inkscape:zoom="0.834386"
     inkscape:cx="43.145499"
     inkscape:cy="70.710678"
     inkscape:window-x="0"
     inkscape:window-y="34"
     inkscape:window-maximized="1"
     inkscape:current-layer="svg42"
     inkscape:document-rotation="0"
     inkscape:showpageshadow="2"
     inkscape:pagecheckerboard="0"
     inkscape:deskcolor="#d1d1d1" />
  <metadata
     id="metadata2">
    <rdf:RDF>
      <cc:Work
         rdf:about="">
        <dc:format>image/svg+xml</dc:format>
        <dc:type
           rdf:resource="http://purl.org/dc/dcmitype/StillImage" />
        <dc:title />
      </cc:Work>
    </rdf:RDF>
  </metadata>
  <defs
     id="defs14">
    <linearGradient
       id="linearGradient1011"
       x1="3.9687"
       x2="3.9687"
       y1="-12.171"
       y2="-6.879"
       gradientTransform="matrix(1 0 0 .99894 1.0583 14.153)"
       gradientUnits="userSpaceOnUse">
      <stop
         stop-color="#059bff"
         offset="0"
         id="stop4" />
      <stop
         stop-color="#005aff"
         offset="1"
         id="stop6" />
    </linearGradient>
    <linearGradient
       id="linearGradient921"
       x1="7.9373"
       x2="7.9373"
       y1="1.0583"
       y2="-8.2019"
       gradientTransform="translate(1.0583,14.42)"
       gradientUnits="userSpaceOnUse">
      <stop
         stop-color="#005aff"
         offset="0"
         id="stop9" />
      <stop
         stop-color="#059bff"
         offset="1"
         id="stop11" />
    </linearGradient>
    <style
       type="text/css"
       id="current-color-scheme">.ColorScheme-Text {&#10;        color:#4d4d4d;&#10;      }</style>
    <style
       id="style852"
       type="text/css">.ColorScheme-Text {&#10;        color:#4d4d4d;&#10;      }</style>
    <linearGradient
       gradientUnits="userSpaceOnUse"
       gradientTransform="matrix(3.1562629,0,0,3.1562629,-10.468371,-468.12796)"
       y2="166"
       y1="155"
       x2="25"
       x1="25"
       id="linearGradient1387">
      <stop
         id="stop854"
         offset="0"
         stop-color="#3296d7" />
      <stop
         id="stop856"
         offset="1"
         stop-color="#0a7db4" />
    </linearGradient>
    <linearGradient
       gradientUnits="userSpaceOnUse"
       gradientTransform="matrix(3.1562629,0,0,3.1562629,-10.46849,-468.12796)"
       y2="185"
       y1="185"
       x2="65"
       x1="5"
       id="linearGradient1401">
      <stop
         id="stop859"
         offset="0"
         stop-color="#3492cb" />
      <stop
         id="stop861"
         offset=".083713"
         stop-color="#6ec8fa" />
      <stop
         id="stop863"
         offset=".91237"
         stop-color="#6ec8fa" />
      <stop
         id="stop865"
         offset="1"
         stop-color="#3492cb" />
    </linearGradient>
    <linearGradient
       gradientUnits="userSpaceOnUse"
       gradientTransform="matrix(2.1673212,0,0,4.8857776,108.75613,-5391.6261)"
       y2="1140.2"
       y1="1138.4"
       x2="-9.617"
       x1="-9.617"
       id="linearGradient1438">
      <stop
         id="stop868"
         offset="0"
         stop-opacity="0"
         stop-color="#1482be" />
      <stop
         id="stop870"
         offset="1"
         stop-color="#1482be" />
    </linearGradient>
    <filter
       color-interpolation-filters="sRGB"
       height="1.0264"
       width="1.022"
       y="-.0132"
       x="-.011"
       id="filter1733">
      <feGaussianBlur
         id="feGaussianBlur873"
         stdDeviation="0.072761339" />
    </filter>
    <filter
       color-interpolation-filters="sRGB"
       height="1.297"
       width="1.0297"
       y="-.1485"
       x="-.01485"
       id="filter935">
      <feGaussianBlur
         id="feGaussianBlur876"
         stdDeviation="0.098224626" />
    </filter>
    <filter
       color-interpolation-filters="sRGB"
       height="1.0264"
       width="1.022"
       y="-0.0132"
       x="-0.011"
       id="filter1733-3">
      <feGaussianBlur
         id="feGaussianBlur880"
         stdDeviation="0.072761339" />
    </filter>
    <filter
       color-interpolation-filters="sRGB"
       height="1.2970001"
       width="1.0297"
       y="-0.1485"
       x="-0.01485"
       id="filter935-6">
      <feGaussianBlur
         id="feGaussianBlur883"
         stdDeviation="0.098224626" />
    </filter>
    <filter
       color-interpolation-filters="sRGB"
       height="1.0264005"
       width="1.0219998"
       y="-0.013200229"
       x="-0.010999908"
       id="filter1733-36">
      <feGaussianBlur
         id="feGaussianBlur880-7"
         stdDeviation="0.072761339" />
    </filter>
    <filter
       color-interpolation-filters="sRGB"
       height="1.2969998"
       width="1.0296998"
       y="-0.14849988"
       x="-0.014849913"
       id="filter935-62">
      <feGaussianBlur
         id="feGaussianBlur883-9"
         stdDeviation="0.098224626" />
    </filter>
    <filter
       id="filter1733-7"
       x="-0.010999908"
       y="-0.013200229"
       width="1.0219998"
       height="1.0264005"
       color-interpolation-filters="sRGB">
      <feGaussianBlur
         stdDeviation="0.072761339"
         id="feGaussianBlur880-6" />
    </filter>
    <linearGradient
       inkscape:collect="always"
       xlink:href="#linearGradient22"
       id="linearGradient1622"
       x1="60"
       y1="21"
       x2="60"
       y2="55"
       gradientUnits="userSpaceOnUse"
       gradientTransform="translate(6e-6)" />
    <linearGradient
       inkscape:collect="always"
       id="linearGradient22">
      <stop
         style="stop-color:#2d2e39;stop-opacity:1"
         offset="0"
         id="stop21" />
      <stop
         style="stop-color:#212128;stop-opacity:1"
         offset="1"
         id="stop22" />
    </linearGradient>
    <filter
       id="filter935-7"
       x="-0.014849913"
       y="-0.14849988"
       width="1.0296998"
       height="1.2969998"
       color-interpolation-filters="sRGB">
      <feGaussianBlur
         stdDeviation="0.098224626"
         id="feGaussianBlur883-3" />
    </filter>
    <linearGradient
       inkscape:collect="always"
       xlink:href="#linearGradient17"
       id="linearGradient1450"
       x1="5.31354"
       y1="115.78307"
       x2="194.68932"
       y2="115.78307"
       gradientUnits="userSpaceOnUse"
       gradientTransform="translate(6e-6)" />
    <linearGradient
       inkscape:collect="always"
       id="linearGradient17">
      <stop
         style="stop-color:#14191e;stop-opacity:1;"
         offset="0"
         id="stop14" />
      <stop
         style="stop-color:#282d32;stop-opacity:1;"
         offset="0.08254468"
         id="stop15" />
      <stop
         id="stop16"
         offset="0.91187197"
         style="stop-color:#282d32;stop-opacity:1;" />
      <stop
         style="stop-color:#14191e;stop-opacity:1;"
         offset="1"
         id="stop17" />
    </linearGradient>
    <linearGradient
       inkscape:collect="always"
       xlink:href="#linearGradient20"
       id="linearGradient4449-6"
       x1="93.546776"
       y1="178.53749"
       x2="93.546776"
       y2="172.15199"
       gradientUnits="userSpaceOnUse"
       gradientTransform="translate(6e-6,0.6311261)" />
    <linearGradient
       inkscape:collect="always"
       id="linearGradient20">
      <stop
         style="stop-color:#505363;stop-opacity:1;"
         offset="0"
         id="stop19" />
      <stop
         style="stop-color:#505363;stop-opacity:0;"
         offset="1"
         id="stop20" />
    </linearGradient>
  </defs>
  <g
     id="g902"
     transform="matrix(11.929333,0,0,11.929333,-10.468365,-468.12796)"
     style="opacity:0.5;filter:url(#filter1733-7)">
    <g
       id="g896"
       style="stroke-opacity:0.95294">
      <path
         id="path890"
         d="m 10,155 c -2.77,0 -5,2.23 -5,5 v 40 c 0,2.77 2.23,5 5,5 h 50 c 2.77,0 5,-2.23 5,-5 v -36 c 0,-0.831 -0.3347,-1.5808 -0.87695,-2.123 -0.54225,-0.5422 -1.292,-0.87695 -2.123,-0.87695 h -31 c -0.75,0 -1.5,-0.25001 -2.2188,-0.64062 -0.71875,-0.39063 -1.4062,-0.92188 -2.0312,-1.4844 -1.25,-1.125 -2.25,-2.375 -2.75,-2.875 -0.43528,-0.43528 -1.1061,-0.68419 -1.7754,-0.82617 -0.64042,-0.13585 -1.26,-0.16683 -1.6875,-0.17383 h -0.53711 z"
         transform="scale(0.26458)"
         inkscape:connector-curvature="0"
         style="opacity:1;stroke-width:0.20101" />
      <path
         id="path892"
         d="M 7.4004,165 C 6.0708,165 5,166.0708 5,167.4004 v 32.6 c 0,2.77 2.23,5 5,5 h 50 c 2.77,0 5,-2.23 5,-5 v -32.6 C 65,166.0708 63.9292,165 62.5996,165 Z"
         transform="scale(0.26458)"
         inkscape:connector-curvature="0"
         style="opacity:1;stroke-width:0.17979" />
      <path
         id="path894"
         d="M 7.4004,165 C 6.0708,165 5,166.0708 5,167.4004 v 1 C 5,167.0708 6.0708,166 7.4004,166 h 55.199 c 1.3296,0 2.4004,1.0708 2.4004,2.4004 v -1 C 64.9998,166.0708 63.929,165 62.5994,165 Z"
         transform="scale(0.26458)"
         inkscape:connector-curvature="0"
         style="opacity:1;stroke-width:0.17979" />
    </g>
    <path
       id="path898"
       style="color:#000000;text-indent:0;text-transform:none;opacity:0.5;stroke-width:0.27278"
       d="m 1.3229,52.916 c 0.037387,0.72117 0.52916,1.3229 1.3188,1.3229 h 13.233 c 0.79328,0 1.3224,-0.64408 1.3224,-1.3229 z"
       inkscape:connector-curvature="0" />
    <path
       id="path900"
       style="color:#000000;text-indent:0;text-transform:none;opacity:0.15;stroke-width:0.095585"
       d="m 1.3237,52.916 3.337e-4,0.26458 H 17.198034 L 17.1977,52.916 H 1.3226997 Z m 0.26376,0.79373 h 15.346 c 0.05347,-0.07329 0.11377,-0.15529 0.15166,-0.26458 h -15.653 c 0.046511,0.1129 0.09263,0.17706 0.15532,0.26458 z"
       inkscape:connector-curvature="0" />
  </g>
  <path
     id="path904"
     d="m 21.093429,21.093997 c -8.74277,0 -15.781315,7.038426 -15.781315,15.781315 V 163.12344 c 0,8.74277 7.038426,15.78131 15.781315,15.78131 H 178.90657 c 8.74277,0 15.78131,-7.03842 15.78131,-15.78131 V 49.498932 c 0,-2.622783 -1.05634,-4.989444 -2.76784,-6.700826 -1.7115,-1.711501 -4.07804,-2.767844 -6.70083,-2.767844 H 87.376023 c -2.367136,0 -4.734393,-0.789089 -7.002875,-2.021902 -2.268602,-1.232897 -4.438428,-2.909684 -6.411062,-4.685007 -3.945269,-3.550766 -7.101532,-7.496035 -8.679664,-9.074167 -1.373901,-1.373901 -3.491,-2.159448 -5.603565,-2.607633 -2.021307,-0.428776 -3.976763,-0.52656 -5.326209,-0.548654 H 52.65737 Z"
     inkscape:connector-curvature="0"
     style="fill:url(#linearGradient1622);fill-opacity:1;stroke-width:0.634426" />
  <path
     transform="matrix(11.929333,0,0,11.929333,-0.999696,-0.9991277)"
     id="path906"
     d="M 1.852,4.3131 C 1.66878,4.3131 1.49466,4.350202 1.33628,4.41697 1.1779,4.483736 1.0352,4.58008 0.91564,4.69963 0.79608,4.81919 0.69922,4.96189 0.63246,5.12027 0.56569,5.27865 0.52911,5.45277 0.52911,5.63599 v 0.26458 c 0,-0.18322 0.03658,-0.35734 0.10335,-0.51572 C 0.69922,5.22647 0.79608,5.08377 0.91564,4.96421 1.0352,4.84465 1.1779,4.74831 1.33628,4.68155 1.49466,4.614785 1.66878,4.57768 1.852,4.57768 h 13.229 c 0.18322,0 0.35734,0.037103 0.51572,0.10387 0.15838,0.066765 0.30108,0.16311 0.42064,0.28266 0.11956,0.11956 0.21642,0.26226 0.28318,0.42064 0.06676,0.15838 0.10335,0.3325 0.10335,0.51572 V 5.63599 c 0,-0.18322 -0.03659,-0.35734 -0.10335,-0.51572 C 16.23377,4.96189 16.13692,4.81919 16.01736,4.69963 15.8978,4.58007 15.7551,4.48373 15.59672,4.41697 15.43834,4.350205 15.26422,4.3131 15.081,4.3131 Z"
     inkscape:connector-curvature="0"
     style="opacity:0.1;stroke-width:0.047568;filter:url(#filter935-7)" />
  <path
     id="path908"
     d="m 21.094622,52.657819 c -2.185692,0 -4.262828,0.442602 -6.152196,1.2391 -1.889367,0.796486 -3.591803,1.945793 -5.017835,3.372184 -1.426271,1.426271 -2.581746,3.128587 -3.378149,5.017835 -0.796414,1.889129 -1.232896,3.966503 -1.232896,6.152196 v 94.687886 c 0,8.74288 7.038426,15.78131 15.781315,15.78131 H 178.908 c 8.74289,0 15.78132,-7.03843 15.78132,-15.78131 V 68.439134 c 0,-2.185693 -0.4365,-4.262828 -1.2329,-6.152196 -0.79652,-1.889368 -1.95188,-3.591803 -3.37815,-5.017835 -1.42627,-1.426271 -3.12859,-2.575543 -5.01784,-3.372184 -1.88936,-0.79645 -3.9665,-1.2391 -6.15219,-1.2391 H 21.095099 Z"
     inkscape:connector-curvature="0"
     style="fill:url(#linearGradient1450);fill-opacity:1;stroke-width:0.567466" />
  <path
     id="path914"
     d="m 21.093429,52.656626 c -2.185692,0 -4.262828,0.442602 -6.152196,1.2391 -1.889367,0.796474 -3.591683,1.945793 -5.017954,3.371945 -1.426271,1.426271 -2.581747,3.128587 -3.378149,5.017955 -0.796521,1.889368 -1.232896,3.966503 -1.232896,6.152195 v 3.156263 c 0,-2.185692 0.436387,-4.262947 1.232896,-6.152195 0.796462,-1.889368 1.951878,-3.591684 3.378149,-5.017955 1.426271,-1.426271 3.128587,-2.575543 5.017954,-3.371945 1.889368,-0.796474 3.966504,-1.2391 6.152196,-1.2391 H 178.90657 c 2.18569,0 4.26283,0.442614 6.15219,1.2391 1.88937,0.796462 3.59169,1.945793 5.01796,3.371945 1.42627,1.426271 2.58175,3.128587 3.37815,5.017955 0.7964,1.889368 1.23289,3.966503 1.23289,6.152195 v -3.156263 c 0,-2.185692 -0.43649,-4.262827 -1.23289,-6.152195 -0.79652,-1.889368 -1.952,-3.591684 -3.37815,-5.017955 -1.42627,-1.426271 -3.12859,-2.575543 -5.01796,-3.371945 -1.88936,-0.796462 -3.9665,-1.2391 -6.15219,-1.2391 z"
     inkscape:connector-curvature="0"
     style="fill:#505363;fill-opacity:1;stroke-width:0.567455" />
  <path
     inkscape:connector-curvature="0"
     d="m 5.315701,163.12701 c 0.446,8.60308 6.31252,15.78132 15.7324,15.78132 H 178.90895 c 9.46331,0 15.77535,-7.68345 15.77535,-15.78132 z"
     style="color:#000000;text-indent:0;text-transform:none;fill:url(#linearGradient4449-6);fill-opacity:1;stroke-width:3.25408"
     id="path926-5" />
  <path
     inkscape:connector-curvature="0"
     d="m 5.320851,163.12701 0.004,3.15626 H 194.69109 l -0.004,-3.15626 H 5.308921 Z m 3.14648,9.46867 H 191.53487 c 0.63787,-0.8743 1.35719,-1.8525 1.80921,-3.15626 H 6.614231 c 0.55484,1.34682 1.10501,2.11221 1.85286,3.15626 z"
     style="color:#000000;text-indent:0;text-transform:none;opacity:0.25;fill:#72768d;fill-opacity:1;stroke-width:1.14027"
     id="path928-6" />
  <path
     style="color:#282828;opacity:0.7;fill:#898daa;fill-opacity:0.7019608;stroke-width:3.47179"
     inkscape:connector-curvature="0"
     d="m 99.999225,71.595629 c -1.20116,0 -2.40948,0.09687 -3.57951,0.218391 a 34.024844,34.024844 0 0 0 -6.7285,1.301848 34.874212,34.874212 0 0 0 -22.88882,22.888811 34.024844,34.024844 0 0 0 -1.30196,6.728381 34.822916,34.822916 0 0 0 -0.21879,3.5794 c 0,1.20116 0.099,2.40948 0.21879,3.57951 a 34.024844,34.024844 0 0 0 1.30196,6.72839 34.874212,34.874212 0 0 0 22.88882,22.88881 34.024844,34.024844 0 0 0 6.7285,1.30542 c 1.17003,0.1181 2.37811,0.21521 3.57951,0.21521 1.201415,0 2.409375,-0.0978 3.579525,-0.21843 a 34.024844,34.024844 0 0 0 6.72838,-1.29839 35.465907,35.465907 0 0 0 6.29082,-2.71499 34.654712,34.654712 0 0 0 16.60323,-20.17847 34.024844,34.024844 0 0 0 1.29839,-6.72838 c 0.12216,-1.17001 0.21878,-2.37823 0.21878,-3.57952 0,-1.19758 -0.099,-2.41294 -0.21878,-3.57939 a 34.024844,34.024844 0 0 0 -1.29839,-6.728625 34.962489,34.962489 0 0 0 -6.4021,-11.824713 c -0.70862,-0.857456 -1.49284,-1.600439 -2.28089,-2.38861 -3.13515,-3.135029 -6.80127,-5.731925 -10.9565,-7.485298 a 35.97529,35.97529 0 0 0 -3.25313,-1.190846 34.024844,34.024844 0 0 0 -6.72839,-1.301848 35.808279,35.808279 0 0 0 -3.57952,-0.218391 z m 0,3.471675 c 5.252735,0 10.193385,1.288129 14.539475,3.579396 0.11453,0.06454 0.20877,0.156 0.32257,0.21839 0.0871,0.115118 0.0656,0.239911 0.21879,0.32276 0.11212,0.06454 0.21877,0.162454 0.32257,0.218391 0.18383,0.10975 0.36419,0.257125 0.32578,0.433571 -0.0441,0.260358 -0.47229,0.243144 -0.64944,0.434646 0.0215,0.363641 -0.12478,0.294785 -0.21878,0.54115 0.0549,0.159233 0.19457,0.138786 0.21878,0.327054 -0.0334,0.201177 -0.29525,0.224856 -0.21878,0.433572 0.33999,0.263579 0.65599,0.04306 0.97868,0 0.70419,-0.08601 1.29851,0.01076 1.73608,-0.325993 -0.0441,-0.271106 0.2077,-0.346416 0.32257,-0.54115 0.23298,0.162454 0.42754,0.375464 0.65289,0.54115 -0.13229,0.05368 -0.423,0.142019 -0.54457,0.218391 -0.17381,0.118339 -0.22952,0.302313 -0.43089,0.433571 -0.14542,0.09687 -0.49959,0.433572 -0.65289,0.433572 -0.18383,0 -0.5206,-0.152767 -0.6529,-0.111897 -0.18693,0.05368 -0.11212,0.360409 -0.32256,0.433571 -0.41657,0.152767 -1.15607,-0.405597 -1.30197,0.218391 0.17381,0.360409 0.76754,0.23991 1.08355,0.433571 0.19802,0.124817 0.49328,0.764933 0.54565,0.975796 a 2.5448846,2.5448846 0 0 1 0,0.979028 c -0.19803,0.50349 -0.72173,0.444332 -1.30543,0.433572 -0.15639,0 -0.28869,0.01076 -0.43089,0 -0.97868,-0.06454 -1.94424,-0.375464 -2.38861,0.32276 0.0334,0.537917 0.12085,0.832691 0,1.301848 -0.0871,0.339962 -0.45164,0.573431 -0.43411,0.868217 0.007,0.152767 0.28869,0.444332 0.32579,0.653035 0.0215,0.111897 -0.0549,0.333521 0,0.433572 0.16296,0.30984 0.57631,-0.05368 0.86822,0 0.27771,0.04306 0.54135,0.451859 0.54135,0.75632 a 1.9825359,1.9825359 0 0 1 -0.21878,0.868216 c -0.27772,0.416358 -0.79485,0.316307 -1.19103,0.544384 -0.3302,0.187207 -0.45486,0.646593 -0.65289,0.975795 -0.20876,0.353955 -0.40571,0.472294 -0.32257,0.975796 a 2.3435175,2.3435175 0 0 1 -1.19436,1.194245 3.4301604,3.4301604 0 0 0 -0.54458,0.327055 2.7498305,2.7498305 0 0 0 -0.43076,0.433572 c -0.22189,0.243131 -0.53146,0.350722 -0.6529,0.54115 -0.0871,0.145239 -0.0108,0.45508 -0.10855,0.653035 -0.13886,0.263579 -0.3685,0.49273 -0.54458,0.75632 -0.0763,0.127966 -0.2362,0.271118 -0.32257,0.434645 -0.20113,0.367937 -0.47228,0.656269 -0.43411,0.979029 0.0334,0.30984 0.4167,0.378696 0.43411,0.649802 0.0215,0.152768 -0.11452,0.271107 -0.11213,0.433572 0.0102,0.243075 0.0871,0.353955 0.11213,0.541185 0.0441,0.46906 -0.23954,0.65628 -0.32686,0.97897 -0.0441,0.14952 0.0322,0.3131 0,0.43029 -0.0764,0.23663 -0.42755,0.37551 -0.43411,0.653 -0.007,0.19472 0.30503,0.37551 0.32579,0.653 0.0108,0.18828 -0.14542,0.36368 -0.11213,0.54119 0.0656,0.3399 0.71182,0.81867 0.97868,1.08355 0.35764,0.3604 0.7086,0.59716 0.86821,0.97897 0.1323,0.31954 0.18694,0.84456 0.43411,1.08355 0.18037,0.17435 0.52382,0.25068 0.75668,0.43464 0.22189,0.17421 0.52823,0.25068 0.76443,0.43463 0.3815,0.30127 0.9021,0.9134 1.51717,0.86822 0.31923,-0.021 0.61448,-0.15281 0.97535,-0.21837 0.37183,-0.0644 0.81561,-0.25398 1.19436,-0.21522 0.28869,0.0328 0.56199,0.23663 0.86822,0.21837 0.31267,-0.021 0.72602,-0.17107 1.08354,-0.32597 0.62557,-0.27119 1.5866,-0.78544 2.49621,-0.653 0.69441,0.11035 0.70861,0.88542 1.19437,1.19436 0.55555,0.0433 0.9689,-0.11034 1.40945,0 0.33342,0.0867 0.72936,0.71226 0.7599,0.97582 0.0334,0.27119 -0.18037,0.48194 -0.21879,0.653 -0.0871,0.36368 -0.15305,0.85101 -0.21532,1.08356 -0.0549,0.18394 -0.11452,0.36039 -0.11214,0.54433 0,0.1624 0.2634,0.54119 0.43745,0.75627 0.20876,0.26685 0.50748,0.46907 0.75668,0.75956 0.46143,0.53146 0.65599,1.25007 0.97868,1.95462 0.0764,0.17435 -0.0763,0.20759 0,0.43148 -0.13886,1.06189 -0.49984,1.75672 -1.19412,2.9302 -0.33021,0.38198 -0.65946,0.82945 -0.6529,1.30197 -0.0215,1.1352 0.59373,1.72212 0.54565,2.8226 -0.11452,1.47542 0.003,1.70458 -0.11214,2.49275 0.49972,0.25386 0.25374,0.99622 0.11214,1.52064 -0.21532,0.6239 -0.42421,0.77779 -0.54565,1.19436 a 1.3886937,1.3886937 0 0 0 0.7599,0.11094 31.22145,31.22145 0 0 1 -22.566725,9.54753 31.186855,31.186855 0 0 1 -11.71711,-2.27767 c -0.0104,-0.007 0.0105,-0.11094 0,-0.11214 0.33021,-0.13873 0.95471,0.24324 1.19449,-0.2152 0.1181,-0.22165 -0.15962,-0.64657 0,-0.86822 0.11213,-0.15281 0.8508,-0.28833 1.08354,-0.32591 0.33676,-0.0537 0.68021,0.0108 0.86821,-0.11094 a 0.98947853,0.98947853 0 0 0 0.43411,-0.86822 c -0.0215,-0.18395 -0.18037,-0.27115 -0.32257,-0.43458 -0.12084,-0.13874 -0.0334,-0.30981 -0.11213,-0.43363 -0.14876,-0.22165 -0.37184,-0.33033 -0.43411,-0.65302 0.45486,-0.0871 1.08044,0.51094 1.73607,0.32591 0.31267,-0.0871 0.83327,-0.68319 0.97869,-0.97582 0.0441,-0.0871 -0.0549,-0.43458 0,-0.54123 0.0549,-0.12216 0.19456,-0.15592 0.21532,-0.21831 0.0441,-0.16999 -0.0322,-0.2183 0,-0.32269 0.11452,-0.3228 0.46143,-0.52823 0.65289,-0.76395 0.1422,-0.17429 0.29848,-0.35716 0.43411,-0.54123 0.14876,-0.19469 0.22189,-0.26042 0.32257,-0.43137 0.099,-0.57666 -0.35418,-1.01662 -0.21532,-1.52051 0.14876,-0.57022 0.97212,-0.93705 1.51705,-1.19449 0.19147,-0.0871 0.38496,-0.26685 0.54565,-0.32268 0.3784,-0.13564 0.83636,-0.0871 1.19078,-0.21831 0.59373,-0.21521 0.79832,-0.86822 1.087,-1.40957 0.13886,-0.25398 0.29848,-0.46906 0.32257,-0.65301 0.0322,-0.16248 -0.0322,-0.35072 0,-0.54124 0.0322,-0.18717 0.0549,-0.33342 0.11214,-0.54123 a 5.5201796,5.5201796 0 0 0 0.10856,-1.08688 c 0,-0.25076 -0.10856,-0.31315 -0.10856,-0.54124 -0.0441,-0.81871 0.239545,-0.85414 0.541355,-1.30196 0.15306,-0.22165 0.21879,-0.60029 0.32687,-0.75954 0.51069,-0.75632 1.36447,-1.1284 1.30196,-2.27755 -0.0215,-0.38194 -0.15639,-1.1804 -0.4341,-1.30209 -0.15962,-0.0644 -0.52823,-0.021 -0.7599,-0.11034 -0.74678,-0.27762 -1.284555,-1.13179 -2.062115,-1.19425 -0.16295,-0.007 -0.25039,0.007 -0.43411,0 -0.30181,-0.007 -0.63523,-0.28826 -0.97546,-0.32597 -0.21532,-0.021 -0.63213,0.0644 -0.7599,0 -0.19456,-0.0867 -0.16617,-0.43358 -0.32257,-0.54119 -0.12871,-0.0867 -0.34654,-0.14531 -0.54457,-0.21836 a 2.586518,2.586518 0 0 0 -0.86822,-0.21522 c -0.11213,-0.007 -0.41669,0.021 -0.54135,0 -0.19457,-0.0328 -0.36074,-0.21192 -0.54135,-0.32597 -0.22952,-0.13875 -0.33999,-0.23663 -0.43411,-0.43358 0.20769,-0.67994 -0.51404,-0.79503 -0.65289,-1.19091 -0.0656,-0.18394 0.0656,-0.48626 0,-0.653 -0.0764,-0.23348 -0.28106,-0.34647 -0.54136,-0.54118 -0.45164,-0.35396 -0.86821,-0.67678 -1.52063,-0.75956 -0.28869,-0.0328 -0.62557,0.021 -0.97212,0 a 1.6907444,1.6907444 0 0 1 -1.087,-0.54223 c -0.26686,-0.3131 -0.31267,-0.61437 -0.54457,-0.75955 -0.21879,-0.13875 -0.60792,-0.18079 -0.75668,-0.32703 -0.0656,-0.0644 -0.0441,-0.18079 -0.11214,-0.32269 -0.11213,-0.22914 -0.35418,-0.2679 -0.21532,-0.54435 -0.25374,-0.12482 -0.16296,0.15924 -0.43411,0.11166 -0.24264,-0.34648 -0.41991,-0.54119 -0.97546,-0.43673 -0.25374,0.0539 -0.46572,0.43029 -0.7599,0.43673 -0.24264,0.007 -0.43733,-0.39272 -0.7599,-0.43673 -0.24264,-0.0328 -0.5905,0.25712 -0.75668,0.21836 -0.27449,-0.0433 -0.29847,-0.37866 -0.54457,-0.54118 -0.18037,-0.1222 -0.54899,-0.44108 -0.64943,-0.43359 -0.31601,0.007 -0.54136,0.66705 -0.97869,0.43359 -0.21222,-0.27119 0.36421,-0.29156 0.11214,-0.54434 -0.19147,-0.18723 -0.28428,0.0102 -0.43411,0.11166 -0.17727,0.11822 -0.34762,0.25712 -0.54565,0.32282 -0.43411,0.16568 -0.74248,0.14952 -1.08354,0.32702 -0.31267,0.16568 -0.36074,0.43686 -0.54123,0.75955 -0.14542,0.26357 -0.43089,0.63908 -0.65289,0.653 -0.26352,0.021 -0.52048,-0.33346 -0.75668,-0.43791 -0.72936,-0.3131 -1.13878,0.21192 -1.73596,0.21836 -0.55555,0.007 -1.32976,-0.88543 -1.30197,-1.40957 0.0215,-0.32269 0.17727,-0.79831 0.21533,-1.19448 0.0322,-0.3131 0.31923,-0.57667 0.32579,-0.86822 0.007,-0.38194 -0.61794,-0.71541 -0.86822,-0.75955 -0.59372,-0.11035 -1.38881,0.2679 -2.06222,0 -0.12478,-0.21522 0.25028,-0.33346 0.32579,-0.54119 0.0441,-0.12219 -0.0441,-0.19471 0,-0.32597 0.0763,-0.20115 0.33676,-0.32702 0.43411,-0.54118 0.0656,-0.16253 0.0322,-0.45185 0.10855,-0.653002 0.0871,-0.224856 0.30504,-0.375476 0.32687,-0.541163 0.0215,-0.215169 -0.1564,-0.51104 -0.32687,-0.649802 a 3.3814887,3.3814887 0 0 0 -1.19365,0.215825 c -0.68021,0.313074 -0.50294,1.197705 -1.19078,1.413032 -0.23608,0.0749 -0.60482,0.17434 -0.86822,0.21521 a 30.935146,30.935146 0 0 1 2.0596,-6.509117 c 0.24264,0.04306 0.44401,0.197968 0.65289,0.218391 0.57953,0.04307 0.60363,-0.399144 1.08354,-0.653036 0.49316,0.06454 0.74678,-0.04306 1.19437,0 0.30181,0.03233 0.73592,0.416358 0.97546,0.433572 0.20113,0.007 0.24264,-0.250671 0.43411,-0.21839 0.19147,0.03233 0.51069,0.427117 0.54457,0.653035 0.0322,0.284026 -0.19146,0.555144 -0.11213,0.868205 0.29847,0.302313 0.87812,0.475515 1.30197,0.653036 0.27771,-0.228077 0.0441,-0.75632 0,-1.086918 -0.007,-0.145227 0.0215,-0.302301 0,-0.433559 -0.0322,-0.224856 -0.10856,-0.455081 -0.10856,-0.653036 0,-0.902633 0.6944,-1.270832 1.30208,-1.625014 0.2603,-0.152767 0.53146,-0.430339 0.7599,-0.544383 0.31923,-0.156 0.49328,-0.174287 0.75668,-0.32276 0.48218,-0.271118 0.93049,-0.558364 1.30197,-0.868217 0.17381,-0.409892 -0.0215,-0.8994 0,-1.301848 0.17381,-0.10975 0.25374,0.02159 0.43411,0 0.29191,-0.06454 0.3815,-0.486275 0.54457,-0.653035 0.099,-0.09687 0.42755,-0.121537 0.54123,-0.21517 0.29192,-0.228077 0.29192,-0.55191 0.54124,-0.653035 0.0871,-0.03233 0.29525,-0.06454 0.43411,-0.10975 0.19146,-0.05368 0.45808,-0.218391 0.7599,-0.327055 0.19456,-0.06454 0.6845,-0.03233 0.75989,-0.10975 0.0978,-0.09687 -0.0215,-0.506722 0,-0.653035 0.14876,-0.712217 1.20487,-0.735873 1.84356,-0.972563 0.44067,-0.174288 0.9163,-0.531464 1.40957,-0.437866 -0.099,0.339962 -0.51403,0.243132 -0.43411,0.653035 0.10856,0.573431 0.7741,-0.138785 0.97869,-0.21839 0.3815,-0.162442 1.12135,-0.250671 1.62489,-0.433572 0.44389,-0.155999 1.17695,-0.46584 0.7599,-0.975795 -0.34762,-0.02159 -0.45487,0.30984 -0.7599,0.433571 -0.20769,0.03233 -0.25684,-0.09687 -0.43411,-0.109749 -0.17071,-0.0071 -0.2634,0.138785 -0.43411,0.109749 -0.1707,-0.03233 -0.40679,-0.339962 -0.4341,-0.54115 -0.0656,-0.531464 0.54457,-0.693929 0.75989,-1.086917 -0.14541,-0.478748 -0.78829,-0.03233 -1.19448,-0.21517 0.0441,-0.284025 0.20769,-0.593878 0.54457,-0.653035 a 2.1457291,2.1457291 0 0 1 1.08355,0.21839 c 0.0966,0.07527 -0.0334,0.299081 0.10855,0.434645 0.16618,0.14524 0.43733,0.03233 0.6529,0 0.0763,-0.360409 -0.49638,-0.201176 -0.43411,-0.434645 0.42754,-0.277571 1.21166,-0.149546 1.73595,-0.21839 0.30182,-0.04306 0.59707,-0.288332 0.86822,-0.433572 0.2504,-0.145239 0.49316,-0.347489 0.75668,-0.10975 0.0763,0.260358 -0.18037,0.409904 -0.32257,0.541151 -0.4866,0.431412 -0.92405,0.913393 -1.30197,1.413029 0.23298,0.224856 0.58287,0.06454 0.97546,0.10975 0.15306,0.02159 0.3815,0.08601 0.54124,0.111897 0.19146,0.03233 0.39259,-0.03233 0.54457,0 0.26352,0.06454 0.27772,0.433572 0.54135,0.433572 0.42755,0 0.46143,-0.360409 0.21533,-0.653036 0.0764,-0.294785 0.21878,-0.548677 0.11213,-0.756319 -0.19802,-0.392678 -0.93704,0.06454 -0.97868,-0.433572 -0.0215,-0.316306 0.32257,-0.413125 0.43411,-0.653036 -0.0441,-0.604626 0.49638,-0.642275 0.43411,-1.190845 -0.0322,-0.228077 -0.27772,-0.221623 -0.43411,-0.433572 -0.0763,-0.115118 -0.12084,-0.353943 -0.21532,-0.433571 -0.33021,-0.277572 -0.93705,-0.233469 -0.97869,-0.764933 -0.0215,-0.313074 0.0441,-0.523936 0,-0.868217 -0.0441,-0.319527 -0.37183,-1.235879 -0.64943,-1.298389 -0.35418,-0.07527 -0.55555,0.561598 -0.97546,0.75632 a 1.7116207,1.7116207 0 0 1 -0.86822,0.111897 c -0.15305,-0.03233 -0.41669,-0.145239 -0.43411,-0.434645 -0.0215,-0.165686 0.0322,-0.224856 0.10856,-0.325993 0.0215,-0.02159 -0.0215,-0.08601 0,-0.10975 a 31.48986,31.48986 0 0 1 8.67966,-1.194245 z m -12.91231,2.822599 c -0.30503,0.986556 -1.1977,1.548428 -2.38503,1.517173 -0.29191,0.277571 -0.17071,0.809035 -0.32686,1.194245 a 0.95822367,0.95822367 0 0 1 -0.86822,0.541151 c -0.23298,-0.02159 -0.65289,-0.32276 -0.65289,-0.541151 0,-0.180741 0.17381,-0.38515 0.21878,-0.544383 a 30.982864,30.982864 0 0 1 4.01351,-2.169707 z m 26.582145,1.083601 a 0.95129273,0.95129273 0 0 0 -0.32579,0.10975 c -0.24265,0.14524 -0.25374,0.363642 -0.43411,0.433572 -0.2603,0.09687 -0.61448,0.09687 -0.6529,0.327054 -0.0322,0.194735 0.22535,0.257125 0.21879,0.433572 -0.099,0.233457 -0.27772,0.257125 -0.32579,0.54115 0.32257,0.523936 1.12136,0.007 1.52063,-0.10975 0.17381,-0.05368 0.33677,0.03233 0.43077,-0.10975 0.10856,-0.174287 0.0215,-0.520703 0.11213,-0.759552 0.0871,-0.263579 0.35765,-0.201176 0.32257,-0.433572 -0.0215,-0.233457 -0.47562,-0.472306 -0.86821,-0.433571 z M 79.273205,82.98689 c 0.23298,0.277571 0.42755,0.687463 0,0.868217 -0.0656,0.03233 -0.82229,0.138785 -0.97546,0.111897 -0.0441,-0.0069 -0.0656,-0.07527 -0.10856,-0.111897 0.33032,-0.322761 0.73914,-0.558365 1.08354,-0.868217 z m 0.86822,1.086917 c 0.15305,0.007 0.25683,0.313073 0.4341,0.32276 0.17382,0.02159 0.44067,-0.138786 0.54565,-0.10975 0.26352,0.06454 0.36075,0.561597 0.10856,0.75632 -0.20769,0.02159 -0.27772,-0.250671 -0.43077,-0.21839 -0.43077,0.07527 -0.54899,0.895105 -0.86822,0.868216 -0.30503,-0.03233 -0.52823,-0.646581 -0.21878,-0.868216 0.007,-0.187207 -0.12084,-0.243132 -0.10856,-0.434646 0.0978,-0.118339 0.28762,-0.343195 0.54124,-0.32276 z m -1.40945,0.215169 c 0.0871,0 0.0763,-0.03233 0.10855,0 -0.0441,0.33673 -0.17381,0.385151 -0.43411,0.544384 a 1.7775899,1.7775899 0 0 0 -0.86821,1.190738 c -0.0441,0.174287 -0.54458,0.693929 -0.75668,0.653035 -0.49984,-0.109749 0.20769,-1.048946 0.32257,-1.194245 0.12872,-0.159233 0.28869,-0.257125 0.43411,-0.433572 0.14542,-0.174287 0.188,-0.548677 0.32686,-0.653035 0.15305,-0.10975 0.60363,-0.118339 0.86822,-0.10975 z m 42.748765,0.868217 c 0.49638,-0.03233 0.74678,0.566966 0.97212,0.868217 0.19147,0.246365 0.77744,0.590645 1.087,0.759541 0.17727,0.09687 0.34762,0.236678 0.54565,0.327054 0.20459,0.08601 0.51392,0.20763 0.75668,0.433572 0.24264,0.221623 0.42755,0.555143 0.43411,0.75632 0.007,0.204409 -0.13886,0.353943 -0.10856,0.544383 0.21878,0.03233 0.33342,-0.187207 0.43411,-0.434645 0.81907,1.166653 1.51383,2.413065 2.16982,3.687118 a 0.40966522,0.40966522 0 0 0 -0.21878,0.327054 c -0.0656,0.353944 0.20769,0.805803 -0.32257,0.868217 -0.33676,0.04307 -0.73258,-0.33352 -1.19448,-0.433571 -0.18694,-0.04307 -0.49972,0.04306 -0.65289,0 -0.34655,-0.121536 -0.24265,-0.551911 -0.54136,-0.759541 a 2.4302437,2.4302437 0 0 0 -0.86821,-0.322748 c -0.17071,-0.02159 -0.25684,0.02159 -0.43411,0 -0.21533,-0.03233 -0.58287,0 -0.75668,-0.111897 -0.17381,-0.10975 -0.60792,-0.288332 -0.65289,-0.433572 -0.0656,-0.233469 0.53145,-0.561597 0.54135,-0.75632 0.0108,-0.152767 -0.18371,-0.20763 -0.21532,-0.437866 -0.0215,-0.138786 0.0334,-0.343195 0,-0.430338 -0.0441,-0.165675 -0.28428,-0.319528 -0.54458,-0.325993 -0.22534,0 -0.45176,0.109749 -0.64943,0.109749 -0.27772,0.0069 -0.84746,-0.138785 -1.19437,-0.109749 -0.20769,0.02159 -0.34654,0.09687 -0.54135,0.109749 -0.54899,0.04306 -0.87156,-0.03233 -1.30209,0 -0.31266,0.02159 -0.90209,0.194735 -1.19436,0.325993 -0.14542,0.06454 -0.24264,0.229151 -0.43411,0.32276 -0.0871,0.04306 -0.20769,0.05368 -0.32257,0.111898 -0.17727,0.07527 -0.48218,0.277571 -0.65289,0.32276 -0.24264,0.06454 -0.52823,-0.02159 -0.97534,0 -0.32257,0.02159 -0.86059,-0.04306 -0.86822,-0.430339 -0.007,-0.590645 1.0728,-0.33352 1.62501,-0.437866 0.20769,-0.04306 0.2919,-0.288332 0.54458,-0.430339 0.1181,-0.06454 0.20769,-0.142019 0.32257,-0.21839 0.19146,-0.132332 0.51402,-0.392678 0.54457,-0.541151 0.0215,-0.138786 -0.12741,-0.33352 -0.11213,-0.433571 0.0215,-0.132332 0.26339,-0.263579 0.43732,-0.433572 0.2634,-0.267885 0.43089,-0.590645 0.75668,-0.759541 0.22189,-0.121536 0.65946,-0.148472 0.7599,-0.325969 0.0215,-0.201176 -0.007,-0.250671 0,-0.433571 0.13886,-0.124817 0.099,-0.191502 0.21878,-0.21517 0.33999,-0.07527 0.68451,0.127966 1.08355,0.10975 0.17381,-0.0069 0.36074,0.01076 0.54135,-0.10975 0.15305,-0.109749 0.28428,-0.250671 0.43411,-0.325969 0.16617,-0.08601 0.33998,-0.313073 0.54457,-0.327054 z m -39.822505,0.327055 c 0.0871,-0.01076 0.22535,0.01045 0.33032,0 0.1422,-0.007 0.27772,0 0.43411,0 0.1564,0 0.36838,-0.06454 0.43411,0 -0.10856,0.416357 -1.08354,0.260358 -1.41303,0.10975 0.0104,-0.07527 0.13564,-0.09687 0.21879,-0.10975 z m -1.19078,0.75954 c 0.10855,0 0.21222,-0.04306 0.32686,0 -0.29191,0.243144 -0.69107,0.38193 -1.19449,0.541151 -0.24264,0.07527 -0.60791,0.156 -0.65289,-0.10975 -0.0441,-0.330288 0.22189,-0.294786 0.43411,-0.325993 0.27772,-0.03233 0.76443,-0.10975 1.087,-0.10975 z m 41.120415,0 c -0.20769,0.06454 -0.31268,0.486276 0,0.541151 0.14541,-0.08601 0.14541,-0.277572 0.10855,-0.541151 -0.0871,-0.08601 -0.0441,-0.02159 -0.10855,0 z m -0.11214,0.868217 c -0.099,0.03233 -0.21533,-0.007 -0.32257,0.10975 0.007,0.353943 0.0656,0.555144 0,0.868217 0.20113,0.392678 0.65946,0.156 0.7568,-0.10975 0.12215,-0.659489 -0.12872,-0.951054 -0.43077,-0.868217 z m 2.71499,1.736076 a 0.93393555,0.93393555 0 0 0 -0.65289,0.21517 c 0.23608,0.381929 0.6703,0.451859 1.19436,0.544383 0.18802,-0.138786 0.12872,-0.520704 0.21878,-0.763847 -0.22844,0 -0.37493,0.02159 -0.65289,0 h -0.10856 z M 69.074815,102.18865 c 0.22189,0.28407 0.46143,0.61425 0.75668,0.76495 0.15961,0.0749 0.34345,0.0644 0.54457,0.11035 0.16296,0.0328 0.27772,0.17106 0.43411,0.21836 0.33343,0.1156 0.81907,0.0972 1.08354,0.21837 0.40572,0.17435 0.62868,0.88109 0.97869,1.08355 0.0215,0.20115 -0.0656,0.39271 0,0.54119 0.16295,0.22164 0.49316,0.28721 0.75667,0.43358 0.32257,0.17751 0.45821,0.62082 0.7599,0.75955 0.10856,0.0433 0.27116,-0.0433 0.43411,0 0.41645,0.12482 0.50747,0.75628 0.86822,0.653 0.23298,-0.0644 0.28761,-0.42714 0.32579,-0.653 0.15639,-0.17434 0.29525,-0.43358 0.54123,-0.43358 0.3926,-0.007 0.50748,0.48626 0.65289,0.86822 0.0763,0.21521 0.26794,0.42281 0.32257,0.653 a 5.6938706,5.6938706 0 0 1 0,1.73595 c -0.099,0.28826 -0.52059,0.44108 -0.75667,0.75628 -0.11453,0.1528 -0.23955,0.33346 -0.32579,0.43358 -0.15306,0.19156 -0.31923,0.26357 -0.43411,0.43358 -0.0656,0.0972 -0.0549,0.30233 -0.11214,0.43359 -0.18693,0.40664 -0.48218,0.70897 -0.32257,1.19436 0.0656,0.19472 0.32257,0.41637 0.32257,0.653 0,0.27749 -0.60362,0.34648 -0.64943,0.64985 -0.0334,0.22165 0.25684,0.67994 0.32686,0.97582 0.0441,0.22165 0.41001,0.39916 0.54136,0.5454 0.22188,0.2432 0.45164,0.55196 0.65289,0.86821 0.39581,0.61114 0.58287,1.35398 0.97212,1.95129 0.20769,0.31314 0.62557,0.53789 0.76443,0.86821 0.0656,0.16248 -0.0656,0.49913 0,0.65301 0.22535,0.51106 1.32964,1.04895 1.83998,1.29851 0.24264,0.12216 0.43411,0.20113 0.65289,0.32603 0.33689,0.19147 1.02461,0.57332 1.19449,0.86822 0.15305,0.26686 0.25039,0.87788 0.32579,1.30208 0.0978,0.55508 -0.0215,1.02748 0,1.62836 0.0215,0.32603 0.10855,0.53789 0.10855,0.86821 0,0.11453 0.007,0.31959 0,0.43364 -0.007,0.39271 0.0322,0.79831 0,1.19436 a 4.5203822,4.5203822 0 0 0 0,0.64991 c 0.0215,0.19803 0.20459,0.26352 0.21879,0.43363 0.0108,0.18395 -0.23954,0.39916 -0.21879,0.54541 0.0441,0.39582 0.46573,0.71874 0.54124,1.08366 0.0656,0.29155 0.14542,0.95423 0.11213,1.30197 -0.0322,0.18395 -0.0871,0.45188 -0.11213,0.65301 -0.0215,0.15592 0.0215,0.28845 0,0.43029 -8.64841,-5.55537 -14.42734,-15.20632 -14.42734,-26.25527 0,-1.41649 0.1422,-2.75651 0.32579,-4.12456 z m 11.93172,3.14899 c 0.30503,-0.13875 0.2461,0.39588 0,0.43358 -0.23298,0.0328 -0.22534,-0.32702 0,-0.43358 z"
     id="path1" />
</svg>
